<svg id="svg" version="1.1" xmlns="http://www.w3.org/2000/svg" xmlns:xlink="http://www.w3.org/1999/xlink" width="400" height="400" viewBox="0, 0, 400,400"><g id="svgg"><path id="path0" d="M188.800 0.242 C 182.137 0.701,172.342 1.688,170.622 2.074 C 169.534 2.318,168.094 2.494,167.422 2.466 C 166.750 2.438,165.840 2.582,165.400 2.786 C 164.960 2.991,162.170 3.621,159.200 4.186 C 156.230 4.752,152.900 5.478,151.800 5.800 C 150.700 6.123,147.460 7.024,144.600 7.805 C 139.338 9.240,129.163 12.672,126.168 14.022 C 125.270 14.427,123.560 15.140,122.368 15.607 C 89.942 28.306,56.830 55.275,35.203 86.600 C 27.466 97.807,18.601 114.112,15.142 123.498 C 14.675 124.764,14.162 125.980,14.001 126.200 C 13.403 127.015,9.174 139.573,7.804 144.600 C 7.024 147.460,6.121 150.700,5.797 151.800 C 5.141 154.029,3.868 160.367,3.004 165.709 C 2.691 167.639,2.332 169.387,2.205 169.593 C 1.307 171.044,0.276 186.633,0.246 199.200 C 0.210 213.864,0.554 218.852,2.408 230.600 C 2.919 233.838,5.102 245.057,5.560 246.800 C 9.833 263.051,11.891 268.951,18.110 282.791 C 34.534 319.336,63.610 351.501,98.856 372.115 C 107.113 376.945,117.278 382.024,123.183 384.272 C 124.603 384.813,126.518 385.598,127.438 386.017 C 131.985 388.089,147.553 392.872,155.600 394.671 C 206.566 406.062,263.280 396.547,305.000 369.606 C 306.320 368.754,307.625 368.044,307.900 368.028 C 308.175 368.013,308.400 367.790,308.400 367.533 C 308.400 367.277,308.282 367.185,308.137 367.330 C 307.992 367.475,307.677 367.431,307.437 367.234 C 307.197 367.036,306.010 366.349,304.800 365.706 C 299.246 362.758,286.880 355.878,273.000 348.016 C 262.971 342.335,263.632 342.707,257.200 339.125 C 254.230 337.471,250.900 335.617,249.800 335.004 C 237.058 327.908,218.240 318.417,209.800 314.828 L 205.400 312.957 199.000 312.866 C 190.382 312.744,181.083 312.057,180.750 311.519 C 180.596 311.270,179.975 311.185,179.297 311.321 C 178.201 311.540,171.593 310.690,170.857 310.235 C 170.679 310.125,169.918 309.928,169.166 309.797 C 135.498 303.927,104.740 279.117,92.459 247.923 C 88.392 237.593,84.455 222.224,85.078 219.109 C 85.233 218.335,85.177 217.967,84.927 218.122 C 84.419 218.436,83.691 210.842,83.363 201.800 C 83.088 194.229,84.093 178.037,84.867 177.558 C 85.107 177.410,85.171 177.077,85.011 176.818 C 84.725 176.355,85.277 172.357,86.007 169.600 C 86.211 168.830,86.863 166.130,87.454 163.600 C 97.386 121.131,132.760 89.678,177.400 83.624 C 179.160 83.386,182.580 82.927,185.000 82.605 C 191.135 81.788,209.786 81.782,215.763 82.594 C 218.203 82.925,221.730 83.393,223.600 83.633 C 228.003 84.198,234.564 85.485,236.600 86.182 C 237.480 86.484,239.985 87.215,242.167 87.808 C 276.949 97.257,305.090 127.879,312.370 164.200 C 312.855 166.620,313.503 169.590,313.809 170.800 C 316.592 181.799,316.625 218.629,313.855 223.111 C 313.740 223.297,313.265 225.328,312.800 227.625 C 311.897 232.081,310.971 235.697,310.400 237.000 C 310.207 237.440,309.473 239.510,308.769 241.600 C 308.065 243.690,306.614 247.262,305.545 249.538 C 304.475 251.813,303.600 253.726,303.600 253.789 C 303.600 253.851,302.555 255.769,301.277 258.051 C 290.178 277.880,272.855 293.113,252.512 300.935 C 247.485 302.868,242.597 304.392,241.357 304.413 C 236.481 304.495,242.046 307.962,260.400 316.276 C 263.590 317.722,267.370 319.441,268.800 320.097 C 275.789 323.303,294.419 330.925,306.800 335.642 C 310.870 337.193,315.550 338.979,317.200 339.610 C 318.850 340.242,321.550 341.228,323.200 341.802 C 324.850 342.376,326.560 343.007,327.000 343.204 C 327.440 343.402,329.332 344.092,331.205 344.737 L 334.610 345.911 337.882 342.855 C 348.717 332.736,359.602 319.184,370.167 302.657 C 378.255 290.006,387.844 268.420,391.781 254.000 C 392.352 251.910,393.259 248.580,393.798 246.600 C 394.336 244.620,395.150 241.020,395.606 238.600 C 396.062 236.180,396.622 233.390,396.850 232.400 C 397.078 231.410,397.328 230.060,397.406 229.400 C 397.484 228.740,397.944 224.960,398.428 221.000 C 399.870 209.220,399.433 175.042,397.807 172.411 C 397.719 172.269,397.179 169.329,396.607 165.878 C 393.949 149.856,389.161 133.942,382.321 118.400 C 380.765 114.864,374.838 103.340,372.858 100.000 C 371.749 98.130,370.257 95.617,369.543 94.415 C 350.738 62.780,318.186 34.299,281.600 17.469 C 254.738 5.113,217.749 -1.754,188.800 0.242 M195.800 94.040 C 157.078 95.978,131.611 117.833,120.571 158.600 C 116.339 174.224,114.844 203.749,117.450 220.200 C 118.950 229.664,120.545 237.188,122.015 241.731 C 122.882 244.409,123.593 246.747,123.595 246.927 C 123.607 247.753,128.511 258.604,130.455 262.106 C 142.056 283.002,161.121 296.706,184.000 300.591 C 186.090 300.946,188.603 301.391,189.584 301.580 C 196.260 302.864,214.522 301.500,224.200 298.994 C 252.399 291.692,273.633 267.578,280.793 234.726 C 281.479 231.577,282.204 228.370,282.404 227.600 C 282.982 225.370,283.937 217.413,284.239 212.312 C 284.391 209.734,284.670 207.720,284.858 207.836 C 285.046 207.952,285.200 203.706,285.200 198.400 C 285.200 192.070,285.062 188.838,284.800 189.000 C 284.550 189.155,284.398 188.303,284.396 186.724 C 284.380 177.432,281.166 160.439,277.336 149.400 C 264.648 112.827,234.152 92.121,195.800 94.040 " stroke="none" fill="#044474" fill-rule="evenodd"></path><path id="path1" d="M177.600 0.400 C 177.600 0.629,176.400 0.800,174.800 0.800 C 173.200 0.800,172.000 0.971,172.000 1.200 C 172.000 1.723,172.555 1.709,179.949 1.002 C 183.387 0.673,187.280 0.347,188.600 0.278 C 189.920 0.208,187.985 0.117,184.300 0.076 C 180.050 0.028,177.600 0.146,177.600 0.400 M211.200 0.286 C 233.995 1.446,261.202 8.086,281.600 17.469 C 318.186 34.299,350.738 62.780,369.543 94.415 C 370.257 95.617,371.749 98.130,372.858 100.000 C 384.134 119.017,392.705 142.772,396.636 165.901 C 398.253 175.410,398.302 175.554,398.354 170.900 C 398.382 168.403,398.244 166.800,398.000 166.800 C 397.780 166.800,397.600 165.810,397.600 164.600 C 397.600 163.390,397.420 162.400,397.200 162.400 C 396.980 162.400,396.800 161.410,396.800 160.200 C 396.800 158.511,396.661 158.000,396.200 158.000 C 395.733 158.000,395.600 157.467,395.600 155.600 C 395.600 154.267,395.422 153.200,395.200 153.200 C 394.980 153.200,394.800 152.491,394.800 151.624 C 394.800 150.757,394.620 149.936,394.400 149.800 C 394.180 149.664,394.000 148.843,394.000 147.976 C 394.000 147.109,393.820 146.400,393.600 146.400 C 393.380 146.400,393.200 145.590,393.200 144.600 C 393.200 143.267,393.044 142.800,392.600 142.800 C 392.181 142.800,392.000 142.378,392.000 141.400 C 392.000 140.630,391.820 140.000,391.600 140.000 C 391.380 140.000,391.200 139.370,391.200 138.600 C 391.200 137.830,391.020 137.200,390.800 137.200 C 390.580 137.200,390.400 136.660,390.400 136.000 C 390.400 135.340,390.220 134.800,390.000 134.800 C 389.780 134.800,389.600 134.170,389.600 133.400 C 389.600 132.630,389.420 132.000,389.200 132.000 C 388.980 132.000,388.800 131.563,388.800 131.029 C 388.800 130.494,388.530 129.787,388.200 129.457 C 387.870 129.127,387.600 128.574,387.600 128.229 C 387.600 127.883,387.420 127.600,387.200 127.600 C 386.980 127.600,386.800 126.970,386.800 126.200 C 386.800 125.430,386.620 124.800,386.400 124.800 C 386.180 124.800,386.000 124.440,386.000 124.000 C 386.000 123.560,385.820 123.200,385.600 123.200 C 385.380 123.200,385.200 122.570,385.200 121.800 C 385.200 120.822,385.019 120.400,384.600 120.400 C 384.227 120.400,384.000 120.022,384.000 119.400 C 384.000 118.850,383.820 118.400,383.600 118.400 C 383.380 118.400,383.200 118.040,383.200 117.600 C 383.200 117.160,383.020 116.800,382.800 116.800 C 382.580 116.800,382.400 116.451,382.400 116.024 C 382.400 115.597,382.220 115.136,382.000 115.000 C 381.780 114.864,381.600 114.223,381.600 113.576 C 381.600 112.797,381.397 112.400,381.000 112.400 C 380.627 112.400,380.400 112.022,380.400 111.400 C 380.400 110.850,380.220 110.400,380.000 110.400 C 379.780 110.400,379.600 110.040,379.600 109.600 C 379.600 109.160,379.420 108.800,379.200 108.800 C 378.980 108.800,378.800 108.350,378.800 107.800 C 378.800 107.250,378.620 106.800,378.400 106.800 C 378.180 106.800,378.000 106.470,378.000 106.068 C 378.000 105.665,377.550 105.094,377.000 104.800 C 376.372 104.464,376.000 103.918,376.000 103.332 C 376.000 102.820,375.820 102.400,375.600 102.400 C 375.380 102.400,375.200 102.040,375.200 101.600 C 375.200 101.160,375.020 100.800,374.800 100.800 C 374.580 100.800,374.400 100.350,374.400 99.800 C 374.400 99.250,374.220 98.800,374.000 98.800 C 373.780 98.800,373.600 98.555,373.600 98.256 C 373.600 97.957,373.150 97.374,372.600 96.961 C 372.049 96.547,371.600 95.804,371.600 95.305 C 371.600 94.807,371.420 94.400,371.200 94.400 C 370.980 94.400,370.800 94.106,370.800 93.746 C 370.800 93.386,370.350 92.675,369.800 92.165 C 369.250 91.655,368.800 90.999,368.800 90.707 C 368.800 90.415,368.440 89.917,368.000 89.600 C 367.560 89.283,367.200 88.695,367.200 88.294 C 367.200 87.892,366.795 87.130,366.300 86.601 C 364.800 84.996,364.400 84.453,364.400 84.017 C 364.400 83.788,364.220 83.600,364.000 83.600 C 363.780 83.600,363.600 83.315,363.600 82.967 C 363.600 82.618,362.970 81.721,362.200 80.974 C 361.430 80.226,360.800 79.429,360.800 79.203 C 360.800 78.978,360.260 78.228,359.600 77.537 C 358.940 76.846,358.400 76.081,358.400 75.837 C 358.400 75.592,357.774 74.854,357.009 74.196 C 356.243 73.538,355.613 72.775,355.609 72.500 C 355.604 72.225,355.420 72.000,355.200 72.000 C 354.980 72.000,354.800 71.640,354.800 71.200 C 354.800 70.760,354.607 70.400,354.371 70.400 C 353.895 70.400,352.800 69.412,352.800 68.983 C 352.800 68.613,349.928 66.000,349.522 66.000 C 349.345 66.000,349.200 65.640,349.200 65.200 C 349.200 64.391,343.164 58.000,342.400 58.000 C 342.180 58.000,342.000 57.820,342.000 57.600 C 342.000 56.836,335.609 50.800,334.800 50.800 C 334.360 50.800,334.000 50.655,334.000 50.478 C 334.000 50.072,331.387 47.200,331.017 47.200 C 330.670 47.200,329.600 46.143,329.600 45.800 C 329.600 45.321,328.461 44.400,327.869 44.400 C 327.234 44.400,324.400 41.753,324.400 41.160 C 324.400 40.962,323.995 40.796,323.500 40.791 C 322.976 40.786,322.101 40.202,321.404 39.391 C 320.746 38.626,319.931 38.000,319.592 38.000 C 319.254 38.000,318.717 37.640,318.400 37.200 C 318.083 36.760,317.503 36.400,317.112 36.400 C 316.720 36.400,316.400 36.220,316.400 36.000 C 316.400 35.780,316.130 35.600,315.800 35.600 C 315.470 35.600,315.200 35.420,315.200 35.200 C 315.200 34.980,314.840 34.800,314.400 34.800 C 313.960 34.800,313.600 34.596,313.600 34.347 C 313.600 33.685,311.518 32.001,310.700 32.000 C 310.315 32.000,310.000 31.820,310.000 31.600 C 310.000 31.380,309.721 31.200,309.381 31.200 C 309.040 31.200,308.345 30.750,307.835 30.200 C 307.325 29.650,306.654 29.200,306.342 29.200 C 306.031 29.200,305.517 28.840,305.200 28.400 C 304.883 27.960,304.232 27.600,303.754 27.600 C 303.277 27.600,302.782 27.330,302.655 27.000 C 302.529 26.670,302.232 26.400,301.996 26.400 C 301.760 26.400,301.180 26.040,300.708 25.600 C 300.236 25.160,299.523 24.800,299.125 24.800 C 298.726 24.800,298.400 24.620,298.400 24.400 C 298.400 24.180,298.040 24.000,297.600 24.000 C 297.160 24.000,296.800 23.840,296.800 23.643 C 296.800 23.447,296.350 23.174,295.800 23.036 C 295.250 22.898,294.800 22.608,294.800 22.392 C 294.800 22.177,294.440 22.000,294.000 22.000 C 293.560 22.000,293.200 21.820,293.200 21.600 C 293.200 21.380,292.750 21.200,292.200 21.200 C 291.650 21.200,291.200 21.020,291.200 20.800 C 291.200 20.580,290.840 20.400,290.400 20.400 C 289.960 20.400,289.600 20.220,289.600 20.000 C 289.600 19.780,289.150 19.600,288.600 19.600 C 287.978 19.600,287.600 19.373,287.600 19.000 C 287.600 18.667,287.244 18.400,286.800 18.400 C 286.360 18.400,286.000 18.220,286.000 18.000 C 286.000 17.780,285.550 17.600,285.000 17.600 C 284.450 17.600,284.000 17.420,284.000 17.200 C 284.000 16.980,283.640 16.800,283.200 16.800 C 282.760 16.800,282.400 16.620,282.400 16.400 C 282.400 16.180,281.770 16.000,281.000 16.000 C 280.022 16.000,279.600 15.819,279.600 15.400 C 279.600 15.067,279.244 14.800,278.800 14.800 C 278.360 14.800,278.000 14.620,278.000 14.400 C 278.000 14.180,277.550 14.000,277.000 14.000 C 276.450 14.000,276.000 13.820,276.000 13.600 C 276.000 13.380,275.471 13.200,274.824 13.200 C 274.177 13.200,273.536 13.020,273.400 12.800 C 273.264 12.580,272.623 12.400,271.976 12.400 C 271.329 12.400,270.800 12.223,270.800 12.008 C 270.800 11.792,270.350 11.502,269.800 11.364 C 269.250 11.226,268.800 10.953,268.800 10.757 C 268.800 10.560,268.260 10.400,267.600 10.400 C 266.940 10.400,266.400 10.220,266.400 10.000 C 266.400 9.780,265.770 9.600,265.000 9.600 C 264.230 9.600,263.600 9.420,263.600 9.200 C 263.600 8.980,262.970 8.800,262.200 8.800 C 261.430 8.800,260.800 8.620,260.800 8.400 C 260.800 8.180,260.279 8.000,259.643 8.000 C 258.983 8.000,258.387 7.742,258.255 7.400 C 258.103 7.004,257.477 6.800,256.413 6.800 C 255.526 6.800,254.800 6.620,254.800 6.400 C 254.800 6.180,253.990 6.000,253.000 6.000 C 252.010 6.000,251.200 5.820,251.200 5.600 C 251.200 5.380,250.570 5.200,249.800 5.200 C 249.030 5.200,248.400 5.020,248.400 4.800 C 248.400 4.580,247.429 4.400,246.243 4.400 C 244.694 4.400,244.021 4.231,243.855 3.800 C 243.703 3.404,243.077 3.200,242.013 3.200 C 241.126 3.200,240.400 3.020,240.400 2.800 C 240.400 2.567,239.067 2.400,237.200 2.400 C 235.333 2.400,234.000 2.233,234.000 2.000 C 234.000 1.780,233.010 1.600,231.800 1.600 C 230.590 1.600,229.600 1.420,229.600 1.200 C 229.600 0.963,228.133 0.800,226.000 0.800 C 223.867 0.800,222.400 0.637,222.400 0.400 C 222.400 0.146,219.885 0.028,215.500 0.077 C 211.705 0.119,209.770 0.214,211.200 0.286 M166.800 1.957 C 166.800 2.604,167.770 2.676,169.800 2.182 L 171.800 1.695 169.300 1.648 C 167.925 1.621,166.800 1.761,166.800 1.957 M159.600 2.800 C 159.600 3.020,158.610 3.200,157.400 3.200 C 155.711 3.200,155.200 3.339,155.200 3.800 C 155.200 4.244,154.733 4.400,153.400 4.400 C 152.410 4.400,151.600 4.580,151.600 4.800 C 151.600 5.020,150.790 5.200,149.800 5.200 C 148.810 5.200,148.000 5.380,148.000 5.600 C 148.000 5.820,147.190 6.000,146.200 6.000 C 145.210 6.000,144.400 6.180,144.400 6.400 C 144.400 6.620,143.854 6.800,143.187 6.800 C 142.479 6.800,141.879 7.049,141.745 7.400 C 141.613 7.742,141.017 8.000,140.357 8.000 C 139.721 8.000,139.200 8.180,139.200 8.400 C 139.200 8.620,138.570 8.800,137.800 8.800 C 137.030 8.800,136.400 8.980,136.400 9.200 C 136.400 9.420,135.770 9.600,135.000 9.600 C 134.230 9.600,133.600 9.780,133.600 10.000 C 133.600 10.220,133.060 10.400,132.400 10.400 C 131.740 10.400,131.200 10.580,131.200 10.800 C 131.200 11.020,130.654 11.200,129.987 11.200 C 129.279 11.200,128.679 11.449,128.545 11.800 C 128.418 12.130,127.984 12.400,127.581 12.400 C 127.177 12.400,126.736 12.580,126.600 12.800 C 126.464 13.020,125.823 13.200,125.176 13.200 C 124.529 13.200,124.000 13.380,124.000 13.600 C 124.000 13.820,123.550 14.000,123.000 14.000 C 122.450 14.000,122.000 14.180,122.000 14.400 C 122.000 14.620,121.460 14.800,120.800 14.800 C 120.000 14.800,119.600 15.000,119.600 15.400 C 119.600 15.773,119.222 16.000,118.600 16.000 C 118.050 16.000,117.600 16.180,117.600 16.400 C 117.600 16.620,117.240 16.800,116.800 16.800 C 116.360 16.800,116.000 16.980,116.000 17.200 C 116.000 17.420,115.370 17.600,114.600 17.600 C 113.830 17.600,113.200 17.780,113.200 18.000 C 113.200 18.220,112.859 18.400,112.443 18.400 C 112.026 18.400,111.582 18.670,111.455 19.000 C 111.329 19.330,110.859 19.600,110.413 19.600 C 109.966 19.600,109.600 19.780,109.600 20.000 C 109.600 20.220,109.240 20.400,108.800 20.400 C 108.360 20.400,108.000 20.580,108.000 20.800 C 108.000 21.020,107.550 21.200,107.000 21.200 C 106.450 21.200,106.000 21.380,106.000 21.600 C 106.000 21.820,105.640 22.000,105.200 22.000 C 104.756 22.000,104.400 22.267,104.400 22.600 C 104.400 22.930,104.130 23.200,103.800 23.200 C 103.470 23.200,103.200 23.380,103.200 23.600 C 103.200 23.820,102.840 24.000,102.400 24.000 C 101.960 24.000,101.600 24.180,101.600 24.400 C 101.600 24.620,101.251 24.800,100.824 24.800 C 100.397 24.800,99.936 24.980,99.800 25.200 C 99.664 25.420,99.234 25.600,98.844 25.600 C 98.454 25.600,97.894 26.050,97.600 26.600 C 97.264 27.228,96.718 27.600,96.132 27.600 C 95.620 27.600,95.200 27.780,95.200 28.000 C 95.200 28.220,94.880 28.400,94.488 28.400 C 94.097 28.400,93.517 28.760,93.200 29.200 C 92.883 29.640,92.297 30.000,91.899 30.000 C 91.501 30.000,91.071 30.270,90.945 30.600 C 90.818 30.930,90.466 31.200,90.162 31.200 C 89.652 31.200,88.698 31.853,87.384 33.100 C 87.094 33.375,86.574 33.600,86.229 33.600 C 85.883 33.600,85.600 33.870,85.600 34.200 C 85.600 34.543,85.240 34.800,84.760 34.800 C 84.299 34.800,83.417 35.340,82.800 36.000 C 82.183 36.660,81.414 37.200,81.090 37.200 C 80.767 37.200,79.964 37.830,79.306 38.600 C 78.648 39.370,77.849 40.000,77.530 40.000 C 76.876 40.000,75.781 40.947,74.605 42.530 C 74.168 43.119,73.485 43.600,73.087 43.600 C 72.414 43.600,70.400 45.257,70.400 45.810 C 70.400 46.293,69.247 47.200,68.634 47.200 C 67.962 47.200,58.000 56.944,58.000 57.602 C 58.000 57.821,57.821 58.000,57.602 58.000 C 56.944 58.000,47.200 67.962,47.200 68.634 C 47.200 69.247,46.293 70.400,45.810 70.400 C 45.396 70.400,43.600 72.336,43.600 72.782 C 43.600 73.012,43.420 73.200,43.200 73.200 C 42.980 73.200,42.800 73.560,42.800 74.000 C 42.800 74.440,42.596 74.800,42.347 74.800 C 41.746 74.800,40.001 76.849,40.000 77.555 C 40.000 77.860,39.370 78.648,38.600 79.306 C 37.830 79.964,37.200 80.767,37.200 81.090 C 37.200 81.414,36.660 82.183,36.000 82.800 C 35.340 83.417,34.800 84.299,34.800 84.760 C 34.800 85.222,34.607 85.600,34.371 85.600 C 33.694 85.600,32.800 86.672,32.800 87.483 C 32.800 87.890,32.440 88.483,32.000 88.800 C 31.560 89.117,31.200 89.678,31.200 90.046 C 31.200 90.413,30.930 90.818,30.600 90.945 C 30.270 91.071,30.000 91.501,30.000 91.899 C 30.000 92.297,29.640 92.883,29.200 93.200 C 28.760 93.517,28.400 94.097,28.400 94.488 C 28.400 94.880,28.220 95.200,28.000 95.200 C 27.780 95.200,27.600 95.620,27.600 96.132 C 27.600 96.718,27.228 97.264,26.600 97.600 C 26.050 97.894,25.600 98.454,25.600 98.844 C 25.600 99.234,25.420 99.664,25.200 99.800 C 24.980 99.936,24.800 100.397,24.800 100.824 C 24.800 101.251,24.620 101.600,24.400 101.600 C 24.180 101.600,24.000 101.960,24.000 102.400 C 24.000 102.840,23.820 103.200,23.600 103.200 C 23.380 103.200,23.200 103.470,23.200 103.800 C 23.200 104.130,22.930 104.400,22.600 104.400 C 22.267 104.400,22.000 104.756,22.000 105.200 C 22.000 105.640,21.820 106.000,21.600 106.000 C 21.380 106.000,21.200 106.450,21.200 107.000 C 21.200 107.550,21.020 108.000,20.800 108.000 C 20.580 108.000,20.400 108.360,20.400 108.800 C 20.400 109.240,20.220 109.600,20.000 109.600 C 19.780 109.600,19.600 110.230,19.600 111.000 C 19.600 111.770,19.407 112.400,19.171 112.400 C 18.359 112.400,17.600 113.546,17.600 114.771 C 17.600 115.447,17.420 116.000,17.200 116.000 C 16.980 116.000,16.800 116.360,16.800 116.800 C 16.800 117.240,16.620 117.600,16.400 117.600 C 16.180 117.600,16.000 118.050,16.000 118.600 C 16.000 119.222,15.773 119.600,15.400 119.600 C 15.000 119.600,14.800 120.000,14.800 120.800 C 14.800 121.460,14.620 122.000,14.400 122.000 C 14.180 122.000,14.000 122.450,14.000 123.000 C 14.000 123.550,13.820 124.000,13.600 124.000 C 13.380 124.000,13.200 124.529,13.200 125.176 C 13.200 125.823,13.020 126.464,12.800 126.600 C 12.580 126.736,12.400 127.177,12.400 127.581 C 12.400 127.984,12.130 128.418,11.800 128.545 C 11.449 128.679,11.200 129.279,11.200 129.987 C 11.200 130.654,11.020 131.200,10.800 131.200 C 10.580 131.200,10.400 131.740,10.400 132.400 C 10.400 133.060,10.220 133.600,10.000 133.600 C 9.780 133.600,9.600 134.230,9.600 135.000 C 9.600 135.770,9.420 136.400,9.200 136.400 C 8.980 136.400,8.800 137.030,8.800 137.800 C 8.800 138.570,8.620 139.200,8.400 139.200 C 8.180 139.200,8.000 139.721,8.000 140.357 C 8.000 141.017,7.742 141.613,7.400 141.745 C 7.049 141.879,6.800 142.479,6.800 143.187 C 6.800 143.854,6.620 144.400,6.400 144.400 C 6.180 144.400,6.000 145.210,6.000 146.200 C 6.000 147.190,5.820 148.000,5.600 148.000 C 5.380 148.000,5.200 148.810,5.200 149.800 C 5.200 150.790,5.020 151.600,4.800 151.600 C 4.580 151.600,4.400 152.410,4.400 153.400 C 4.400 154.733,4.244 155.200,3.800 155.200 C 3.339 155.200,3.200 155.711,3.200 157.400 C 3.200 158.610,3.020 159.600,2.800 159.600 C 2.575 159.600,2.400 160.725,2.400 162.176 C 2.400 163.593,2.220 164.864,2.000 165.000 C 1.780 165.136,1.612 166.722,1.626 168.524 L 1.653 171.800 2.179 169.800 C 2.468 168.700,2.833 166.900,2.990 165.800 C 3.474 162.395,5.177 153.903,5.797 151.800 C 6.121 150.700,7.024 147.460,7.804 144.600 C 9.174 139.573,13.403 127.015,14.001 126.200 C 14.162 125.980,14.675 124.764,15.142 123.498 C 16.967 118.545,21.957 108.403,26.408 100.600 C 43.983 69.788,69.788 43.983,100.600 26.408 C 107.946 22.218,117.153 17.650,122.368 15.607 C 123.560 15.140,125.270 14.427,126.168 14.022 C 129.171 12.668,139.345 9.238,144.600 7.807 C 147.460 7.028,150.610 6.145,151.600 5.844 C 152.590 5.543,156.010 4.799,159.200 4.190 C 165.998 2.893,166.956 2.400,162.680 2.400 C 160.893 2.400,159.600 2.568,159.600 2.800 M184.200 82.664 C 176.211 83.763,175.738 83.887,179.300 83.947 C 181.135 83.979,182.400 83.837,182.400 83.600 C 182.400 83.352,184.600 83.200,188.200 83.200 C 193.089 83.200,194.000 83.106,194.000 82.600 C 194.000 81.838,190.013 81.864,184.200 82.664 M199.700 82.299 C 202.909 82.371,205.200 82.585,205.200 82.811 C 205.200 83.049,207.803 83.185,211.900 83.160 L 218.600 83.121 215.200 82.577 C 212.954 82.218,208.813 82.058,203.000 82.105 C 196.820 82.154,195.838 82.212,199.700 82.299 M219.600 83.600 C 219.600 83.832,220.736 83.981,222.300 83.954 C 224.800 83.911,224.882 83.884,223.400 83.577 C 221.175 83.117,219.600 83.126,219.600 83.600 M170.200 84.794 C 123.652 95.363,94.486 125.629,85.394 172.800 C 84.667 176.571,84.667 176.800,85.400 176.800 C 85.861 176.800,86.000 176.289,86.000 174.600 C 86.000 173.390,86.180 172.400,86.400 172.400 C 86.620 172.400,86.800 171.590,86.800 170.600 C 86.800 169.610,86.980 168.800,87.200 168.800 C 87.420 168.800,87.600 167.829,87.600 166.643 C 87.600 165.094,87.769 164.421,88.200 164.255 C 88.530 164.129,88.800 163.580,88.800 163.036 C 88.800 162.492,88.980 161.936,89.200 161.800 C 89.420 161.664,89.600 160.854,89.600 160.000 C 89.600 159.146,89.780 158.336,90.000 158.200 C 90.220 158.064,90.400 157.423,90.400 156.776 C 90.400 156.129,90.580 155.600,90.800 155.600 C 91.020 155.600,91.200 154.970,91.200 154.200 C 91.200 153.430,91.380 152.800,91.600 152.800 C 91.820 152.800,92.000 152.459,92.000 152.043 C 92.000 151.626,92.270 151.182,92.600 151.055 C 92.951 150.921,93.200 150.321,93.200 149.613 C 93.200 148.946,93.380 148.400,93.600 148.400 C 93.820 148.400,94.000 148.040,94.000 147.600 C 94.000 147.160,94.180 146.800,94.400 146.800 C 94.620 146.800,94.800 146.350,94.800 145.800 C 94.800 145.250,94.980 144.800,95.200 144.800 C 95.420 144.800,95.600 144.459,95.600 144.043 C 95.600 143.626,95.870 143.182,96.200 143.055 C 96.530 142.929,96.800 142.459,96.800 142.013 C 96.800 141.566,96.980 141.200,97.200 141.200 C 97.420 141.200,97.600 140.840,97.600 140.400 C 97.600 139.960,97.780 139.600,98.000 139.600 C 98.220 139.600,98.400 139.150,98.400 138.600 C 98.400 138.050,98.580 137.600,98.800 137.600 C 99.020 137.600,99.200 137.311,99.200 136.958 C 99.200 136.604,99.650 135.961,100.200 135.529 C 100.750 135.096,101.200 134.395,101.200 133.971 C 101.200 133.547,101.380 133.200,101.600 133.200 C 101.820 133.200,102.000 132.840,102.000 132.400 C 102.000 131.960,102.180 131.600,102.400 131.600 C 102.620 131.600,102.800 131.330,102.800 131.000 C 102.800 130.670,102.980 130.400,103.200 130.400 C 103.420 130.400,103.600 130.040,103.600 129.600 C 103.600 129.160,103.793 128.800,104.029 128.800 C 104.697 128.800,105.599 127.734,105.611 126.929 C 105.617 126.528,106.427 125.496,107.411 124.635 C 108.395 123.774,109.200 122.823,109.200 122.522 C 109.200 121.855,122.587 108.400,123.250 108.400 C 123.509 108.400,124.485 107.590,125.420 106.600 C 126.386 105.578,127.484 104.800,127.960 104.800 C 128.422 104.800,128.800 104.607,128.800 104.371 C 128.800 103.694,129.872 102.800,130.683 102.800 C 131.090 102.800,131.683 102.440,132.000 102.000 C 132.317 101.560,132.826 101.200,133.131 101.200 C 133.436 101.200,134.039 100.750,134.471 100.200 C 134.904 99.650,135.605 99.200,136.029 99.200 C 136.453 99.200,136.800 99.020,136.800 98.800 C 136.800 98.580,137.160 98.400,137.600 98.400 C 138.040 98.400,138.400 98.220,138.400 98.000 C 138.400 97.780,138.670 97.600,139.000 97.600 C 139.330 97.600,139.600 97.420,139.600 97.200 C 139.600 96.980,139.960 96.800,140.400 96.800 C 140.844 96.800,141.200 96.533,141.200 96.200 C 141.200 95.827,141.578 95.600,142.200 95.600 C 142.750 95.600,143.200 95.420,143.200 95.200 C 143.200 94.980,143.560 94.800,144.000 94.800 C 144.440 94.800,144.800 94.620,144.800 94.400 C 144.800 94.180,145.430 94.000,146.200 94.000 C 146.970 94.000,147.600 93.820,147.600 93.600 C 147.600 93.380,147.960 93.200,148.400 93.200 C 148.844 93.200,149.200 92.933,149.200 92.600 C 149.200 92.227,149.578 92.000,150.200 92.000 C 150.750 92.000,151.200 91.820,151.200 91.600 C 151.200 91.380,151.740 91.200,152.400 91.200 C 153.060 91.200,153.600 91.020,153.600 90.800 C 153.600 90.580,154.230 90.400,155.000 90.400 C 155.770 90.400,156.400 90.220,156.400 90.000 C 156.400 89.780,156.749 89.600,157.176 89.600 C 157.603 89.600,158.064 89.420,158.200 89.200 C 158.336 88.980,159.045 88.800,159.775 88.800 C 160.505 88.800,161.326 88.530,161.600 88.200 C 161.874 87.870,162.616 87.600,163.249 87.600 C 163.882 87.600,164.400 87.420,164.400 87.200 C 164.400 86.980,165.030 86.800,165.800 86.800 C 166.570 86.800,167.200 86.620,167.200 86.400 C 167.200 86.174,168.333 86.000,169.800 86.000 C 171.230 86.000,172.400 85.831,172.400 85.625 C 172.400 85.419,172.971 85.194,173.669 85.125 C 175.154 84.979,175.760 83.982,174.333 84.034 C 173.820 84.052,171.960 84.394,170.200 84.794 M225.697 84.500 C 225.788 84.775,226.433 85.056,227.131 85.125 C 227.829 85.194,228.400 85.419,228.400 85.625 C 228.400 85.831,229.570 86.000,231.000 86.000 C 232.467 86.000,233.600 86.174,233.600 86.400 C 233.600 86.620,234.410 86.800,235.400 86.800 C 236.390 86.800,237.200 86.980,237.200 87.200 C 237.200 87.420,237.753 87.600,238.429 87.600 C 239.104 87.600,239.927 87.870,240.257 88.200 C 240.587 88.530,241.294 88.800,241.829 88.800 C 242.363 88.800,242.800 88.980,242.800 89.200 C 242.800 89.420,243.340 89.600,244.000 89.600 C 244.660 89.600,245.200 89.780,245.200 90.000 C 245.200 90.220,245.830 90.400,246.600 90.400 C 247.370 90.400,248.000 90.580,248.000 90.800 C 248.000 91.020,248.349 91.200,248.776 91.200 C 249.203 91.200,249.664 91.380,249.800 91.600 C 249.936 91.820,250.557 92.000,251.181 92.000 C 251.819 92.000,252.415 92.262,252.545 92.600 C 252.671 92.930,253.141 93.200,253.587 93.200 C 254.034 93.200,254.400 93.380,254.400 93.600 C 254.400 93.820,254.760 94.000,255.200 94.000 C 255.640 94.000,256.000 94.180,256.000 94.400 C 256.000 94.620,256.450 94.800,257.000 94.800 C 257.550 94.800,258.000 94.980,258.000 95.200 C 258.000 95.420,258.341 95.600,258.757 95.600 C 259.174 95.600,259.618 95.870,259.745 96.200 C 259.871 96.530,260.341 96.800,260.787 96.800 C 261.234 96.800,261.600 96.980,261.600 97.200 C 261.600 97.420,261.920 97.600,262.312 97.600 C 262.703 97.600,263.283 97.960,263.600 98.400 C 263.917 98.840,264.587 99.200,265.088 99.200 C 265.590 99.200,266.000 99.386,266.000 99.613 C 266.000 99.839,266.315 100.145,266.700 100.292 C 267.085 100.439,267.749 100.884,268.175 101.280 C 268.602 101.676,269.237 102.000,269.587 102.000 C 269.937 102.000,270.483 102.360,270.800 102.800 C 271.117 103.240,271.787 103.600,272.288 103.600 C 272.790 103.600,273.200 103.786,273.200 104.013 C 273.200 104.755,275.952 107.200,276.787 107.200 C 277.234 107.200,277.600 107.386,277.600 107.613 C 277.600 108.151,280.249 110.800,280.787 110.800 C 281.014 110.800,281.200 110.945,281.200 111.122 C 281.200 111.528,283.813 114.400,284.183 114.400 C 284.539 114.400,285.600 115.461,285.600 115.817 C 285.600 116.187,288.472 118.800,288.878 118.800 C 289.055 118.800,289.200 119.070,289.200 119.400 C 289.200 119.730,289.380 120.000,289.600 120.000 C 289.820 120.000,290.000 120.286,290.000 120.636 C 290.000 120.985,290.810 122.059,291.800 123.021 C 292.790 123.983,293.600 125.007,293.600 125.297 C 293.600 125.586,293.960 126.083,294.400 126.400 C 294.840 126.717,295.200 127.387,295.200 127.888 C 295.200 128.390,295.393 128.800,295.629 128.800 C 296.306 128.800,297.200 129.872,297.200 130.683 C 297.200 131.090,297.560 131.683,298.000 132.000 C 298.440 132.317,298.800 132.897,298.800 133.288 C 298.800 133.680,299.064 134.000,299.387 134.000 C 299.725 134.000,299.884 134.237,299.762 134.556 C 299.644 134.862,300.010 135.574,300.574 136.138 C 301.138 136.702,301.600 137.431,301.600 137.758 C 301.600 138.085,301.780 138.464,302.000 138.600 C 302.220 138.736,302.400 139.197,302.400 139.624 C 302.400 140.051,302.580 140.400,302.800 140.400 C 303.020 140.400,303.200 140.760,303.200 141.200 C 303.200 141.644,303.467 142.000,303.800 142.000 C 304.173 142.000,304.400 142.378,304.400 143.000 C 304.400 143.550,304.580 144.000,304.800 144.000 C 305.020 144.000,305.200 144.630,305.200 145.400 C 305.200 146.170,305.380 146.800,305.600 146.800 C 305.820 146.800,306.000 147.160,306.000 147.600 C 306.000 148.040,306.180 148.400,306.400 148.400 C 306.620 148.400,306.800 148.946,306.800 149.613 C 306.800 150.321,307.049 150.921,307.400 151.055 C 307.742 151.187,308.000 151.783,308.000 152.443 C 308.000 153.079,308.180 153.600,308.400 153.600 C 308.620 153.600,308.800 154.230,308.800 155.000 C 308.800 155.770,308.980 156.400,309.200 156.400 C 309.420 156.400,309.600 157.030,309.600 157.800 C 309.600 158.570,309.780 159.200,310.000 159.200 C 310.220 159.200,310.400 159.729,310.400 160.376 C 310.400 161.023,310.580 161.664,310.800 161.800 C 311.020 161.936,311.200 162.645,311.200 163.375 C 311.200 164.105,311.470 164.926,311.800 165.200 C 312.145 165.486,312.400 166.358,312.400 167.249 C 312.400 168.102,312.580 168.800,312.800 168.800 C 314.314 168.800,309.723 152.844,305.322 142.813 C 293.619 116.138,269.669 95.279,242.167 87.808 C 239.985 87.215,237.480 86.484,236.600 86.182 C 232.523 84.786,225.432 83.692,225.697 84.500 M185.600 94.000 C 185.600 94.225,184.475 94.400,183.024 94.400 C 181.607 94.400,180.336 94.580,180.200 94.800 C 180.064 95.020,179.238 95.200,178.364 95.200 C 177.320 95.200,176.696 95.406,176.545 95.800 C 176.413 96.142,175.817 96.400,175.157 96.400 C 174.521 96.400,174.000 96.580,174.000 96.800 C 174.000 97.020,173.190 97.200,172.200 97.200 C 171.210 97.200,170.400 97.380,170.400 97.600 C 170.400 97.820,169.770 98.000,169.000 98.000 C 168.230 98.000,167.600 98.180,167.600 98.400 C 167.600 98.620,167.240 98.800,166.800 98.800 C 166.360 98.800,166.000 98.980,166.000 99.200 C 166.000 99.420,165.454 99.600,164.787 99.600 C 164.079 99.600,163.479 99.849,163.345 100.200 C 163.218 100.530,162.784 100.800,162.381 100.800 C 161.977 100.800,161.536 100.980,161.400 101.200 C 161.264 101.420,160.803 101.600,160.376 101.600 C 159.949 101.600,159.600 101.780,159.600 102.000 C 159.600 102.220,159.306 102.400,158.946 102.400 C 158.586 102.400,157.875 102.850,157.365 103.400 C 156.855 103.950,156.160 104.400,155.819 104.400 C 155.479 104.400,155.200 104.580,155.200 104.800 C 155.200 105.020,154.874 105.200,154.475 105.200 C 154.077 105.200,153.364 105.560,152.892 106.000 C 152.420 106.440,151.756 106.800,151.417 106.800 C 151.078 106.800,150.800 107.040,150.800 107.332 C 150.800 107.625,150.350 108.106,149.800 108.400 C 149.250 108.694,148.800 109.085,148.800 109.268 C 148.800 109.450,148.530 109.600,148.199 109.600 C 147.471 109.600,137.200 119.790,137.200 120.513 C 137.200 120.794,136.840 121.283,136.400 121.600 C 135.960 121.917,135.600 122.407,135.600 122.688 C 135.600 122.970,135.420 123.200,135.200 123.200 C 134.980 123.200,134.800 123.560,134.800 124.000 C 134.800 124.440,134.607 124.800,134.371 124.800 C 133.694 124.800,132.800 125.872,132.800 126.683 C 132.800 127.090,132.440 127.683,132.000 128.000 C 131.560 128.317,131.200 128.878,131.200 129.246 C 131.200 129.613,130.930 130.018,130.600 130.145 C 130.270 130.271,130.000 130.741,130.000 131.187 C 130.000 131.634,129.820 132.000,129.600 132.000 C 129.380 132.000,129.200 132.360,129.200 132.800 C 129.200 133.240,129.020 133.600,128.800 133.600 C 128.580 133.600,128.400 134.050,128.400 134.600 C 128.400 135.150,128.220 135.600,128.000 135.600 C 127.780 135.600,127.600 135.941,127.600 136.357 C 127.600 136.774,127.330 137.218,127.000 137.345 C 126.670 137.471,126.400 137.941,126.400 138.387 C 126.400 138.834,126.220 139.200,126.000 139.200 C 125.780 139.200,125.600 139.560,125.600 140.000 C 125.600 140.440,125.420 140.800,125.200 140.800 C 124.980 140.800,124.800 141.250,124.800 141.800 C 124.800 142.350,124.620 142.800,124.400 142.800 C 124.180 142.800,124.000 143.340,124.000 144.000 C 124.000 144.660,123.828 145.200,123.618 145.200 C 123.408 145.200,123.118 145.830,122.974 146.600 C 122.829 147.370,122.551 148.000,122.355 148.000 C 122.160 148.000,122.000 148.630,122.000 149.400 C 122.000 150.170,121.820 150.800,121.600 150.800 C 121.380 150.800,121.200 151.340,121.200 152.000 C 121.200 152.660,121.020 153.200,120.800 153.200 C 120.578 153.200,120.400 154.267,120.400 155.600 C 120.400 156.933,120.222 158.000,120.000 158.000 C 119.780 158.000,119.600 158.521,119.600 159.157 C 119.600 159.817,119.342 160.413,119.000 160.545 C 118.578 160.707,118.400 161.365,118.400 162.764 C 118.400 163.858,118.220 164.864,118.000 165.000 C 117.780 165.136,117.600 166.227,117.600 167.424 C 117.600 168.621,117.420 169.600,117.200 169.600 C 116.965 169.600,116.800 171.000,116.800 173.000 C 116.800 175.000,116.635 176.400,116.400 176.400 C 116.145 176.400,116.028 179.049,116.077 183.700 C 116.119 187.715,116.215 189.830,116.289 188.400 C 116.695 180.618,119.052 164.206,120.571 158.600 C 131.617 117.814,156.793 96.199,195.800 94.011 C 200.551 93.745,200.524 93.741,193.100 93.671 C 188.319 93.626,185.600 93.745,185.600 94.000 M205.400 94.011 C 236.850 96.257,259.467 111.311,272.992 139.000 C 279.270 151.851,284.373 173.208,284.396 186.724 C 284.398 188.303,284.550 189.155,284.800 189.000 C 285.511 188.561,285.319 177.600,284.600 177.600 C 284.107 177.600,284.000 176.889,284.000 173.600 C 284.000 171.200,283.840 169.600,283.600 169.600 C 283.380 169.600,283.200 168.621,283.200 167.424 C 283.200 166.227,283.020 165.136,282.800 165.000 C 282.580 164.864,282.400 163.773,282.400 162.576 C 282.400 161.379,282.220 160.400,282.000 160.400 C 281.780 160.400,281.600 159.674,281.600 158.787 C 281.600 157.723,281.396 157.097,281.000 156.945 C 280.658 156.813,280.400 156.217,280.400 155.557 C 280.400 154.921,280.220 154.400,280.000 154.400 C 279.780 154.400,279.600 153.590,279.600 152.600 C 279.600 151.610,279.420 150.800,279.200 150.800 C 278.980 150.800,278.800 150.170,278.800 149.400 C 278.800 148.630,278.620 148.000,278.400 148.000 C 278.180 148.000,278.000 147.640,278.000 147.200 C 278.000 146.760,277.820 146.400,277.600 146.400 C 277.380 146.400,277.200 145.963,277.200 145.429 C 277.200 144.894,276.930 144.187,276.600 143.857 C 276.270 143.527,276.000 142.884,276.000 142.429 C 276.000 141.973,275.820 141.600,275.600 141.600 C 275.380 141.600,275.200 141.240,275.200 140.800 C 275.200 140.360,275.020 140.000,274.800 140.000 C 274.580 140.000,274.400 139.370,274.400 138.600 C 274.400 137.830,274.220 137.200,274.000 137.200 C 273.780 137.200,273.600 136.924,273.600 136.587 C 273.600 136.251,273.330 135.871,273.000 135.745 C 272.670 135.618,272.400 135.123,272.400 134.646 C 272.400 134.168,272.040 133.517,271.600 133.200 C 271.160 132.883,270.800 132.303,270.800 131.912 C 270.800 131.520,270.620 131.200,270.400 131.200 C 270.180 131.200,270.000 130.865,270.000 130.456 C 270.000 130.047,269.550 129.374,269.000 128.961 C 268.450 128.548,268.000 127.927,268.000 127.580 C 268.000 127.234,267.640 126.564,267.200 126.092 C 266.760 125.620,266.400 124.986,266.400 124.684 C 266.400 124.382,265.950 123.894,265.400 123.600 C 264.850 123.306,264.400 122.735,264.400 122.332 C 264.400 121.526,251.912 108.808,251.100 108.787 C 250.400 108.769,249.200 107.803,249.200 107.256 C 249.200 107.005,248.922 106.800,248.583 106.800 C 248.244 106.800,247.580 106.440,247.108 106.000 C 246.636 105.560,245.966 105.200,245.620 105.200 C 245.273 105.200,244.652 104.750,244.239 104.200 C 243.826 103.650,243.153 103.200,242.744 103.200 C 242.335 103.200,242.000 103.020,242.000 102.800 C 242.000 102.580,241.640 102.400,241.200 102.400 C 240.760 102.400,240.400 102.220,240.400 102.000 C 240.400 101.780,240.051 101.600,239.624 101.600 C 239.197 101.600,238.736 101.420,238.600 101.200 C 238.464 100.980,238.023 100.800,237.619 100.800 C 237.216 100.800,236.782 100.530,236.655 100.200 C 236.521 99.849,235.921 99.600,235.213 99.600 C 234.546 99.600,234.000 99.420,234.000 99.200 C 234.000 98.980,233.640 98.800,233.200 98.800 C 232.760 98.800,232.400 98.620,232.400 98.400 C 232.400 98.180,231.770 98.000,231.000 98.000 C 230.230 98.000,229.600 97.820,229.600 97.600 C 229.600 97.380,229.071 97.200,228.424 97.200 C 227.777 97.200,227.136 97.020,227.000 96.800 C 226.864 96.580,225.773 96.400,224.576 96.400 C 222.908 96.400,222.400 96.260,222.400 95.800 C 222.400 95.403,222.003 95.200,221.224 95.200 C 220.577 95.200,219.936 95.020,219.800 94.800 C 219.664 94.580,218.674 94.400,217.600 94.400 C 216.526 94.400,215.536 94.220,215.400 94.000 C 215.248 93.754,212.499 93.624,208.276 93.663 C 201.777 93.722,201.619 93.741,205.400 94.011 M313.225 172.700 C 313.210 174.650,313.364 176.000,313.600 176.000 C 313.833 176.000,314.000 177.333,314.000 179.200 C 314.000 181.067,314.167 182.400,314.400 182.400 C 314.660 182.400,314.800 187.667,314.800 197.400 C 314.800 207.133,314.660 212.400,314.400 212.400 C 314.163 212.400,314.000 213.867,314.000 216.000 C 314.000 218.133,313.837 219.600,313.600 219.600 C 313.373 219.600,313.211 220.683,313.225 222.100 C 313.247 224.204,313.316 224.442,313.660 223.600 C 315.556 218.970,316.650 196.350,315.584 183.800 C 314.691 173.283,313.272 166.604,313.225 172.700 M0.800 174.800 C 0.800 176.400,0.629 177.600,0.400 177.600 C 0.146 177.600,0.028 180.050,0.076 184.300 C 0.117 187.985,0.208 189.920,0.278 188.600 C 0.347 187.280,0.673 183.387,1.002 179.949 C 1.709 172.555,1.723 172.000,1.200 172.000 C 0.971 172.000,0.800 173.200,0.800 174.800 M398.539 178.638 C 400.090 192.519,399.661 213.296,397.507 228.557 C 397.448 228.973,397.625 229.393,397.900 229.490 C 398.261 229.618,398.400 229.047,398.400 227.433 C 398.400 226.205,398.580 225.200,398.800 225.200 C 399.044 225.200,399.200 223.341,399.200 220.424 C 399.200 217.671,399.369 215.542,399.600 215.400 C 399.856 215.242,400.000 209.463,400.000 199.376 C 400.000 189.125,399.860 183.600,399.600 183.600 C 399.365 183.600,399.200 182.208,399.200 180.224 C 399.200 178.100,399.028 176.741,398.738 176.561 C 398.397 176.351,398.345 176.898,398.539 178.638 M84.400 177.939 C 84.400 178.126,84.111 182.041,83.758 186.639 C 82.937 197.336,83.693 218.884,84.864 218.160 C 85.511 217.761,85.267 210.001,84.600 209.745 C 84.086 209.548,84.000 207.888,84.000 198.200 C 84.000 188.512,84.086 186.852,84.600 186.655 C 85.314 186.381,85.508 177.600,84.800 177.600 C 84.580 177.600,84.400 177.753,84.400 177.939 M116.000 209.710 C 116.000 213.010,116.162 215.253,116.412 215.407 C 116.793 215.643,116.531 204.878,116.145 204.433 C 116.065 204.342,116.000 206.716,116.000 209.710 M284.239 212.312 C 283.937 217.413,282.982 225.370,282.404 227.600 C 282.204 228.370,281.479 231.577,280.793 234.726 C 273.633 267.578,252.399 291.692,224.200 298.994 C 214.522 301.500,196.260 302.864,189.584 301.580 C 188.603 301.391,186.090 300.946,184.000 300.591 C 161.121 296.706,142.056 283.002,130.455 262.106 C 128.511 258.604,123.607 247.753,123.595 246.927 C 123.593 246.747,122.879 244.400,122.009 241.712 C 120.618 237.413,119.715 233.230,117.454 220.600 L 116.881 217.400 116.840 221.300 C 116.816 223.660,116.958 225.200,117.200 225.200 C 117.426 225.200,117.600 226.333,117.600 227.800 C 117.600 229.267,117.774 230.400,118.000 230.400 C 118.220 230.400,118.400 231.396,118.400 232.613 C 118.400 234.210,118.567 234.889,119.000 235.055 C 119.389 235.205,119.600 235.825,119.600 236.819 C 119.600 237.663,119.780 238.464,120.000 238.600 C 120.220 238.736,120.400 239.557,120.400 240.424 C 120.400 241.291,120.580 242.000,120.800 242.000 C 121.020 242.000,121.200 242.630,121.200 243.400 C 121.200 244.170,121.380 244.800,121.600 244.800 C 121.820 244.800,122.000 245.430,122.000 246.200 C 122.000 246.970,122.180 247.600,122.400 247.600 C 122.620 247.600,122.800 247.926,122.800 248.324 C 122.800 248.721,123.064 249.396,123.387 249.824 C 123.710 250.251,123.980 250.915,123.987 251.300 C 123.994 251.685,124.180 252.000,124.400 252.000 C 124.620 252.000,124.800 252.630,124.800 253.400 C 124.800 254.170,124.980 254.800,125.200 254.800 C 125.420 254.800,125.600 255.160,125.600 255.600 C 125.600 256.040,125.780 256.400,126.000 256.400 C 126.220 256.400,126.400 256.766,126.400 257.213 C 126.400 257.659,126.670 258.129,127.000 258.255 C 127.330 258.382,127.600 258.826,127.600 259.243 C 127.600 259.659,127.780 260.000,128.000 260.000 C 128.220 260.000,128.400 260.349,128.400 260.776 C 128.400 261.203,128.580 261.664,128.800 261.800 C 129.020 261.936,129.200 262.397,129.200 262.824 C 129.200 263.251,129.380 263.600,129.600 263.600 C 129.820 263.600,130.000 263.879,130.000 264.219 C 130.000 264.560,130.450 265.255,131.000 265.765 C 131.550 266.275,132.000 266.986,132.000 267.346 C 132.000 267.706,132.180 268.000,132.400 268.000 C 132.620 268.000,132.806 268.315,132.813 268.700 C 132.828 269.565,133.729 270.800,134.344 270.800 C 134.595 270.800,134.800 271.068,134.800 271.395 C 134.800 271.943,135.430 272.878,136.700 274.216 C 136.975 274.506,137.200 274.995,137.200 275.304 C 137.200 275.612,137.650 276.106,138.200 276.400 C 138.750 276.694,139.200 277.091,139.200 277.281 C 139.200 277.769,141.888 280.400,142.387 280.400 C 142.614 280.400,142.800 280.586,142.800 280.813 C 142.800 281.351,145.449 284.000,145.987 284.000 C 146.214 284.000,146.400 284.193,146.400 284.429 C 146.400 284.995,147.423 286.000,148.000 286.000 C 148.251 286.000,148.685 286.225,148.963 286.500 C 149.241 286.775,149.962 287.360,150.566 287.800 C 151.170 288.240,152.145 289.005,152.732 289.500 C 153.320 289.994,154.075 290.399,154.412 290.400 C 154.748 290.400,155.283 290.760,155.600 291.200 C 155.917 291.640,156.587 292.000,157.088 292.000 C 157.632 292.000,158.000 292.242,158.000 292.600 C 158.000 292.933,158.356 293.200,158.800 293.200 C 159.240 293.200,159.600 293.380,159.600 293.600 C 159.600 293.820,159.949 294.000,160.376 294.000 C 160.803 294.000,161.264 294.180,161.400 294.400 C 161.536 294.620,161.997 294.800,162.424 294.800 C 162.851 294.800,163.200 294.980,163.200 295.200 C 163.200 295.420,163.541 295.600,163.957 295.600 C 164.374 295.600,164.818 295.870,164.945 296.200 C 165.079 296.551,165.679 296.800,166.387 296.800 C 167.054 296.800,167.600 296.980,167.600 297.200 C 167.600 297.420,168.050 297.600,168.600 297.600 C 169.150 297.600,169.600 297.780,169.600 298.000 C 169.600 298.220,170.140 298.400,170.800 298.400 C 171.460 298.400,172.000 298.580,172.000 298.800 C 172.000 299.020,172.611 299.200,173.357 299.200 C 174.195 299.200,174.803 299.430,174.945 299.800 C 175.097 300.196,175.723 300.400,176.787 300.400 C 177.674 300.400,178.400 300.580,178.400 300.800 C 178.400 301.026,179.533 301.200,181.000 301.200 C 182.467 301.200,183.600 301.374,183.600 301.600 C 183.600 301.837,185.067 302.000,187.200 302.000 C 189.333 302.000,190.800 302.163,190.800 302.400 C 190.800 302.656,194.400 302.800,200.800 302.800 C 207.200 302.800,210.800 302.656,210.800 302.400 C 210.800 302.163,212.267 302.000,214.400 302.000 C 216.533 302.000,218.000 301.837,218.000 301.600 C 218.000 301.380,218.990 301.200,220.200 301.200 C 221.410 301.200,222.400 301.020,222.400 300.800 C 222.400 300.580,223.126 300.400,224.013 300.400 C 225.077 300.400,225.703 300.196,225.855 299.800 C 225.997 299.430,226.605 299.200,227.443 299.200 C 228.189 299.200,228.800 299.020,228.800 298.800 C 228.800 298.580,229.160 298.400,229.600 298.400 C 230.040 298.400,230.400 298.220,230.400 298.000 C 230.400 297.780,231.030 297.600,231.800 297.600 C 232.570 297.600,233.200 297.420,233.200 297.200 C 233.200 296.980,233.746 296.800,234.413 296.800 C 235.121 296.800,235.721 296.551,235.855 296.200 C 235.982 295.870,236.426 295.600,236.843 295.600 C 237.259 295.600,237.600 295.420,237.600 295.200 C 237.600 294.980,238.050 294.800,238.600 294.800 C 239.150 294.800,239.600 294.620,239.600 294.400 C 239.600 294.180,239.960 294.000,240.400 294.000 C 240.840 294.000,241.200 293.820,241.200 293.600 C 241.200 293.380,241.566 293.200,242.013 293.200 C 242.459 293.200,242.929 292.930,243.055 292.600 C 243.182 292.270,243.587 292.000,243.954 292.000 C 244.322 292.000,244.883 291.640,245.200 291.200 C 245.517 290.760,246.105 290.400,246.506 290.400 C 246.908 290.400,247.686 289.950,248.236 289.400 C 248.786 288.850,249.381 288.400,249.559 288.400 C 249.736 288.400,250.446 287.860,251.137 287.200 C 251.828 286.540,252.585 286.000,252.821 286.000 C 253.392 286.000,263.600 275.707,263.600 275.131 C 263.600 274.883,264.230 274.069,265.000 273.321 C 265.770 272.573,266.400 271.740,266.400 271.469 C 266.400 271.198,266.760 270.717,267.200 270.400 C 267.640 270.083,268.000 269.456,268.000 269.007 C 268.000 268.557,268.450 267.852,269.000 267.439 C 269.550 267.026,270.000 266.353,270.000 265.944 C 270.000 265.535,270.180 265.200,270.400 265.200 C 270.620 265.200,270.800 264.840,270.800 264.400 C 270.800 263.960,270.980 263.600,271.200 263.600 C 271.420 263.600,271.600 263.251,271.600 262.824 C 271.600 262.397,271.780 261.936,272.000 261.800 C 272.220 261.664,272.400 261.203,272.400 260.776 C 272.400 260.349,272.567 260.000,272.771 260.000 C 273.198 260.000,274.400 257.741,274.400 256.939 C 274.400 256.642,274.580 256.400,274.800 256.400 C 275.020 256.400,275.200 256.040,275.200 255.600 C 275.200 255.160,275.380 254.800,275.600 254.800 C 275.820 254.800,276.000 254.369,276.000 253.843 C 276.000 253.316,276.270 252.782,276.600 252.655 C 276.930 252.529,277.200 251.980,277.200 251.436 C 277.200 250.892,277.380 250.336,277.600 250.200 C 277.820 250.064,278.000 249.423,278.000 248.776 C 278.000 248.129,278.180 247.600,278.400 247.600 C 278.620 247.600,278.800 246.970,278.800 246.200 C 278.800 245.430,278.980 244.800,279.200 244.800 C 279.420 244.800,279.600 244.170,279.600 243.400 C 279.600 242.630,279.780 242.000,280.000 242.000 C 280.220 242.000,280.400 241.479,280.400 240.843 C 280.400 240.183,280.658 239.587,281.000 239.455 C 281.396 239.303,281.600 238.677,281.600 237.613 C 281.600 236.726,281.780 236.000,282.000 236.000 C 282.220 236.000,282.400 235.010,282.400 233.800 C 282.400 232.590,282.580 231.600,282.800 231.600 C 283.029 231.600,283.200 230.400,283.200 228.800 C 283.200 227.200,283.371 226.000,283.600 226.000 C 283.837 226.000,284.000 224.533,284.000 222.400 C 284.000 219.467,284.111 218.800,284.600 218.800 C 285.104 218.800,285.200 217.936,285.200 213.424 C 285.200 206.723,284.610 206.040,284.239 212.312 M0.074 215.300 C 0.027 219.816,0.146 222.400,0.400 222.400 C 0.637 222.400,0.800 223.867,0.800 226.000 C 0.800 228.133,0.963 229.600,1.200 229.600 C 1.420 229.600,1.600 230.590,1.600 231.800 C 1.600 233.010,1.780 234.000,2.000 234.000 C 2.229 234.000,2.400 235.200,2.400 236.800 C 2.400 238.400,2.571 239.600,2.800 239.600 C 3.020 239.600,3.200 240.506,3.200 241.613 C 3.200 243.032,3.377 243.693,3.800 243.855 C 4.207 244.012,4.400 244.650,4.400 245.843 C 4.400 246.809,4.580 247.600,4.800 247.600 C 5.020 247.600,5.200 248.410,5.200 249.400 C 5.200 250.390,5.380 251.200,5.600 251.200 C 5.820 251.200,6.000 251.740,6.000 252.400 C 6.000 253.060,6.180 253.600,6.400 253.600 C 6.620 253.600,6.800 254.410,6.800 255.400 C 6.800 256.733,6.956 257.200,7.400 257.200 C 7.844 257.200,8.000 257.667,8.000 259.000 C 8.000 259.990,8.180 260.800,8.400 260.800 C 8.620 260.800,8.800 261.250,8.800 261.800 C 8.800 262.350,8.980 262.800,9.200 262.800 C 9.420 262.800,9.600 263.610,9.600 264.600 C 9.600 265.590,9.780 266.400,10.000 266.400 C 10.220 266.400,10.400 266.940,10.400 267.600 C 10.400 268.260,10.560 268.800,10.757 268.800 C 10.953 268.800,11.226 269.250,11.364 269.800 C 11.502 270.350,11.792 270.800,12.008 270.800 C 12.223 270.800,12.400 271.329,12.400 271.976 C 12.400 272.623,12.580 273.264,12.800 273.400 C 13.020 273.536,13.200 274.177,13.200 274.824 C 13.200 275.471,13.380 276.000,13.600 276.000 C 13.820 276.000,14.000 276.450,14.000 277.000 C 14.000 277.550,14.180 278.000,14.400 278.000 C 14.620 278.000,14.800 278.360,14.800 278.800 C 14.800 279.244,15.067 279.600,15.400 279.600 C 15.819 279.600,16.000 280.022,16.000 281.000 C 16.000 281.770,16.180 282.400,16.400 282.400 C 16.620 282.400,16.800 282.760,16.800 283.200 C 16.800 283.640,16.980 284.000,17.200 284.000 C 17.420 284.000,17.600 284.450,17.600 285.000 C 17.600 285.550,17.780 286.000,18.000 286.000 C 18.220 286.000,18.400 286.360,18.400 286.800 C 18.400 287.244,18.667 287.600,19.000 287.600 C 19.373 287.600,19.600 287.978,19.600 288.600 C 19.600 289.150,19.780 289.600,20.000 289.600 C 20.220 289.600,20.400 289.960,20.400 290.400 C 20.400 290.840,20.580 291.200,20.800 291.200 C 21.020 291.200,21.200 291.650,21.200 292.200 C 21.200 292.750,21.380 293.200,21.600 293.200 C 21.820 293.200,22.000 293.560,22.000 294.000 C 22.000 294.440,22.177 294.800,22.392 294.800 C 22.608 294.800,22.898 295.250,23.036 295.800 C 23.174 296.350,23.447 296.800,23.643 296.800 C 23.840 296.800,24.000 297.160,24.000 297.600 C 24.000 298.040,24.180 298.400,24.400 298.400 C 24.620 298.400,24.800 298.726,24.800 299.125 C 24.800 299.523,25.160 300.236,25.600 300.708 C 26.040 301.180,26.400 301.760,26.400 301.996 C 26.400 302.232,26.670 302.529,27.000 302.655 C 27.330 302.782,27.600 303.277,27.600 303.754 C 27.600 304.232,27.960 304.883,28.400 305.200 C 28.840 305.517,29.200 306.031,29.200 306.342 C 29.200 306.654,29.650 307.325,30.200 307.835 C 30.750 308.345,31.200 309.001,31.200 309.293 C 31.200 309.585,31.560 310.083,32.000 310.400 C 32.440 310.717,32.800 311.310,32.800 311.717 C 32.800 312.528,33.694 313.600,34.371 313.600 C 34.607 313.600,34.800 313.960,34.800 314.400 C 34.800 314.840,34.980 315.200,35.200 315.200 C 35.420 315.200,35.600 315.470,35.600 315.800 C 35.600 316.130,35.780 316.400,36.000 316.400 C 36.220 316.400,36.400 316.720,36.400 317.112 C 36.400 317.503,36.760 318.083,37.200 318.400 C 37.640 318.717,38.000 319.254,38.000 319.592 C 38.000 319.931,38.626 320.746,39.391 321.404 C 40.202 322.101,40.786 322.976,40.791 323.500 C 40.796 323.995,40.962 324.400,41.160 324.400 C 41.753 324.400,44.400 327.234,44.400 327.869 C 44.400 328.461,45.321 329.600,45.800 329.600 C 46.139 329.600,47.200 330.669,47.200 331.011 C 47.200 331.158,47.740 331.783,48.400 332.400 C 49.060 333.017,49.600 333.711,49.600 333.943 C 49.600 334.486,57.054 342.000,57.593 342.000 C 57.817 342.000,58.000 342.183,58.000 342.407 C 58.000 342.946,65.514 350.400,66.057 350.400 C 66.289 350.400,66.983 350.940,67.600 351.600 C 68.217 352.260,68.842 352.800,68.989 352.800 C 69.413 352.800,70.400 353.899,70.400 354.371 C 70.400 354.607,70.760 354.800,71.200 354.800 C 71.640 354.800,72.000 354.980,72.000 355.200 C 72.000 355.420,72.225 355.604,72.500 355.609 C 72.775 355.613,73.538 356.243,74.196 357.009 C 74.854 357.774,75.592 358.400,75.837 358.400 C 76.081 358.400,76.846 358.940,77.537 359.600 C 78.228 360.260,78.978 360.800,79.203 360.800 C 79.429 360.800,80.226 361.430,80.974 362.200 C 81.721 362.970,82.618 363.600,82.967 363.600 C 83.315 363.600,83.600 363.780,83.600 364.000 C 83.600 364.220,83.788 364.400,84.017 364.400 C 84.453 364.400,84.996 364.800,86.601 366.300 C 87.130 366.795,87.892 367.200,88.294 367.200 C 88.695 367.200,89.283 367.560,89.600 368.000 C 89.917 368.440,90.415 368.800,90.707 368.800 C 90.999 368.800,91.655 369.250,92.165 369.800 C 92.675 370.350,93.386 370.800,93.746 370.800 C 94.106 370.800,94.400 370.980,94.400 371.200 C 94.400 371.420,94.807 371.600,95.305 371.600 C 95.804 371.600,96.547 372.049,96.961 372.600 C 97.374 373.150,97.957 373.600,98.256 373.600 C 98.555 373.600,98.800 373.780,98.800 374.000 C 98.800 374.220,99.250 374.400,99.800 374.400 C 100.350 374.400,100.800 374.580,100.800 374.800 C 100.800 375.020,101.160 375.200,101.600 375.200 C 102.040 375.200,102.400 375.380,102.400 375.600 C 102.400 375.820,102.820 376.000,103.332 376.000 C 103.918 376.000,104.464 376.372,104.800 377.000 C 105.094 377.550,105.665 378.000,106.068 378.000 C 106.470 378.000,106.800 378.180,106.800 378.400 C 106.800 378.620,107.250 378.800,107.800 378.800 C 108.350 378.800,108.800 378.980,108.800 379.200 C 108.800 379.420,109.160 379.600,109.600 379.600 C 110.040 379.600,110.400 379.780,110.400 380.000 C 110.400 380.220,110.850 380.400,111.400 380.400 C 112.022 380.400,112.400 380.627,112.400 381.000 C 112.400 381.397,112.797 381.600,113.576 381.600 C 114.223 381.600,114.864 381.780,115.000 382.000 C 115.136 382.220,115.597 382.400,116.024 382.400 C 116.451 382.400,116.800 382.580,116.800 382.800 C 116.800 383.020,117.160 383.200,117.600 383.200 C 118.040 383.200,118.400 383.380,118.400 383.600 C 118.400 383.820,118.850 384.000,119.400 384.000 C 120.022 384.000,120.400 384.227,120.400 384.600 C 120.400 385.019,120.822 385.200,121.800 385.200 C 122.570 385.200,123.200 385.380,123.200 385.600 C 123.200 385.820,123.560 386.000,124.000 386.000 C 124.440 386.000,124.800 386.180,124.800 386.400 C 124.800 386.620,125.430 386.800,126.200 386.800 C 126.970 386.800,127.600 386.980,127.600 387.200 C 127.600 387.420,128.140 387.600,128.800 387.600 C 129.460 387.600,130.000 387.777,130.000 387.992 C 130.000 388.208,130.450 388.498,131.000 388.636 C 131.550 388.774,132.000 389.047,132.000 389.243 C 132.000 389.440,132.630 389.600,133.400 389.600 C 134.170 389.600,134.800 389.780,134.800 390.000 C 134.800 390.220,135.340 390.400,136.000 390.400 C 136.660 390.400,137.200 390.580,137.200 390.800 C 137.200 391.020,137.830 391.200,138.600 391.200 C 139.370 391.200,140.000 391.380,140.000 391.600 C 140.000 391.820,140.630 392.000,141.400 392.000 C 142.378 392.000,142.800 392.181,142.800 392.600 C 142.800 393.044,143.267 393.200,144.600 393.200 C 145.590 393.200,146.400 393.380,146.400 393.600 C 146.400 393.820,147.109 394.000,147.976 394.000 C 148.843 394.000,149.664 394.180,149.800 394.400 C 149.936 394.620,150.757 394.800,151.624 394.800 C 152.491 394.800,153.200 394.980,153.200 395.200 C 153.200 395.420,153.991 395.600,154.957 395.600 C 156.150 395.600,156.788 395.793,156.945 396.200 C 157.117 396.649,157.834 396.800,159.787 396.800 C 161.262 396.800,162.400 396.974,162.400 397.200 C 162.400 397.420,163.390 397.600,164.600 397.600 C 165.810 397.600,166.800 397.780,166.800 398.000 C 166.800 398.237,168.267 398.400,170.400 398.400 C 172.533 398.400,174.000 398.563,174.000 398.800 C 174.000 399.044,175.867 399.200,178.800 399.200 C 181.733 399.200,183.600 399.356,183.600 399.600 C 183.600 400.078,215.049 400.168,215.344 399.690 C 215.450 399.520,208.845 399.370,200.668 399.359 C 182.874 399.333,170.875 398.085,155.600 394.671 C 147.553 392.872,131.985 388.089,127.438 386.017 C 126.518 385.598,124.603 384.813,123.183 384.272 C 117.278 382.024,107.113 376.945,98.856 372.115 C 63.610 351.501,34.534 319.336,18.110 282.791 C 11.891 268.951,9.833 263.051,5.560 246.800 C 5.102 245.057,2.919 233.838,2.408 230.600 C 1.301 223.586,0.635 217.311,0.266 210.400 C 0.201 209.190,0.115 211.395,0.074 215.300 M84.821 220.100 C 85.002 224.399,89.158 239.537,92.459 247.923 C 104.740 279.117,135.498 303.927,169.166 309.797 C 169.918 309.928,170.679 310.125,170.857 310.235 C 171.139 310.410,177.694 311.574,178.500 311.593 C 178.665 311.597,178.800 311.330,178.800 311.000 C 178.800 310.581,178.378 310.400,177.400 310.400 C 176.630 310.400,176.000 310.220,176.000 310.000 C 176.000 309.769,174.733 309.600,173.000 309.600 C 171.267 309.600,170.000 309.431,170.000 309.200 C 170.000 308.980,169.370 308.800,168.600 308.800 C 167.830 308.800,167.200 308.620,167.200 308.400 C 167.200 308.180,166.390 308.000,165.400 308.000 C 164.067 308.000,163.600 307.844,163.600 307.400 C 163.600 306.956,163.133 306.800,161.800 306.800 C 160.810 306.800,160.000 306.620,160.000 306.400 C 160.000 306.180,159.370 306.000,158.600 306.000 C 157.830 306.000,157.200 305.820,157.200 305.600 C 157.200 305.380,156.660 305.200,156.000 305.200 C 155.340 305.200,154.800 305.020,154.800 304.800 C 154.800 304.580,154.170 304.400,153.400 304.400 C 152.630 304.400,152.000 304.233,152.000 304.029 C 152.000 303.503,149.656 302.400,148.539 302.400 C 148.022 302.400,147.600 302.220,147.600 302.000 C 147.600 301.780,147.150 301.600,146.600 301.600 C 146.050 301.600,145.600 301.420,145.600 301.200 C 145.600 300.980,145.259 300.800,144.843 300.800 C 144.426 300.800,143.982 300.530,143.855 300.200 C 143.729 299.870,143.259 299.600,142.813 299.600 C 142.366 299.600,142.000 299.420,142.000 299.200 C 142.000 298.980,141.640 298.800,141.200 298.800 C 140.760 298.800,140.400 298.620,140.400 298.400 C 140.400 298.180,140.051 298.000,139.624 298.000 C 139.197 298.000,138.736 297.820,138.600 297.600 C 138.464 297.380,138.046 297.200,137.671 297.200 C 137.297 297.200,136.652 296.750,136.239 296.200 C 135.826 295.650,135.153 295.200,134.744 295.200 C 134.335 295.200,134.000 295.020,134.000 294.800 C 134.000 294.580,133.680 294.400,133.288 294.400 C 132.897 294.400,132.317 294.040,132.000 293.600 C 131.683 293.160,131.013 292.800,130.512 292.800 C 130.010 292.800,129.600 292.612,129.600 292.382 C 129.600 291.715,127.702 290.000,126.963 290.000 C 126.593 290.000,125.752 289.370,125.094 288.600 C 124.436 287.830,123.653 287.200,123.353 287.200 C 122.679 287.200,108.400 272.951,108.400 272.278 C 108.400 272.011,107.774 271.254,107.009 270.596 C 106.243 269.938,105.613 269.072,105.609 268.671 C 105.600 267.966,104.723 266.800,104.200 266.800 C 103.643 266.800,102.800 265.613,102.800 264.829 C 102.800 264.373,102.620 264.000,102.400 264.000 C 102.180 264.000,102.000 263.680,102.000 263.288 C 102.000 262.897,101.640 262.317,101.200 262.000 C 100.760 261.683,100.400 261.097,100.400 260.699 C 100.400 260.301,100.130 259.871,99.800 259.745 C 99.470 259.618,99.200 259.174,99.200 258.757 C 99.200 258.341,99.020 258.000,98.800 258.000 C 98.580 258.000,98.400 257.730,98.400 257.400 C 98.400 257.070,98.220 256.800,98.000 256.800 C 97.780 256.800,97.600 256.440,97.600 256.000 C 97.600 255.560,97.420 255.200,97.200 255.200 C 96.980 255.200,96.800 254.834,96.800 254.387 C 96.800 253.941,96.530 253.471,96.200 253.345 C 95.870 253.218,95.600 252.774,95.600 252.357 C 95.600 251.941,95.420 251.600,95.200 251.600 C 94.980 251.600,94.800 250.970,94.800 250.200 C 94.800 249.430,94.620 248.800,94.400 248.800 C 94.180 248.800,94.000 248.440,94.000 248.000 C 94.000 247.560,93.820 247.200,93.600 247.200 C 93.380 247.200,93.200 246.834,93.200 246.387 C 93.200 245.941,92.930 245.471,92.600 245.345 C 92.258 245.213,92.000 244.617,92.000 243.957 C 92.000 243.321,91.820 242.800,91.600 242.800 C 91.380 242.800,91.200 242.170,91.200 241.400 C 91.200 240.630,91.020 240.000,90.800 240.000 C 90.580 240.000,90.400 239.370,90.400 238.600 C 90.400 237.830,90.220 237.200,90.000 237.200 C 89.780 237.200,89.600 236.660,89.600 236.000 C 89.600 235.340,89.420 234.800,89.200 234.800 C 88.980 234.800,88.800 234.254,88.800 233.587 C 88.800 232.879,88.551 232.279,88.200 232.145 C 87.769 231.979,87.600 231.306,87.600 229.757 C 87.600 228.571,87.420 227.600,87.200 227.600 C 86.971 227.600,86.800 226.400,86.800 224.800 C 86.800 223.200,86.629 222.000,86.400 222.000 C 86.180 222.000,86.000 221.460,86.000 220.800 C 86.000 220.000,85.800 219.600,85.400 219.600 C 85.070 219.600,84.809 219.825,84.821 220.100 M312.400 226.157 C 312.400 226.995,312.170 227.603,311.800 227.745 C 311.404 227.897,311.200 228.523,311.200 229.587 C 311.200 230.474,311.020 231.200,310.800 231.200 C 310.580 231.200,310.400 231.740,310.400 232.400 C 310.400 233.060,310.220 233.600,310.000 233.600 C 309.780 233.600,309.600 234.410,309.600 235.400 C 309.600 236.390,309.420 237.200,309.200 237.200 C 308.980 237.200,308.800 237.830,308.800 238.600 C 308.800 239.370,308.620 240.000,308.400 240.000 C 308.180 240.000,308.000 240.341,308.000 240.757 C 308.000 241.174,307.730 241.618,307.400 241.745 C 307.049 241.879,306.800 242.479,306.800 243.187 C 306.800 243.854,306.620 244.400,306.400 244.400 C 306.180 244.400,306.000 244.850,306.000 245.400 C 306.000 245.950,305.820 246.400,305.600 246.400 C 305.380 246.400,305.200 246.940,305.200 247.600 C 305.200 248.260,305.020 248.800,304.800 248.800 C 304.580 248.800,304.400 249.250,304.400 249.800 C 304.400 250.422,304.173 250.800,303.800 250.800 C 303.467 250.800,303.200 251.156,303.200 251.600 C 303.200 252.040,303.020 252.400,302.800 252.400 C 302.580 252.400,302.400 252.810,302.400 253.312 C 302.400 253.813,302.040 254.483,301.600 254.800 C 301.160 255.117,300.800 255.697,300.800 256.088 C 300.800 256.480,300.623 256.800,300.408 256.800 C 300.192 256.800,299.902 257.250,299.764 257.800 C 299.626 258.350,299.353 258.800,299.157 258.800 C 298.960 258.800,298.800 259.160,298.800 259.600 C 298.800 260.040,298.620 260.400,298.400 260.400 C 298.180 260.400,298.000 260.670,298.000 261.000 C 298.000 261.330,297.820 261.600,297.600 261.600 C 297.380 261.600,297.200 261.917,297.200 262.305 C 297.200 262.693,296.750 263.348,296.200 263.761 C 295.650 264.174,295.200 264.775,295.200 265.096 C 295.200 265.416,294.660 266.183,294.000 266.800 C 293.340 267.417,292.800 268.299,292.800 268.760 C 292.800 269.222,292.614 269.600,292.387 269.600 C 291.645 269.600,289.200 272.352,289.200 273.187 C 289.200 273.634,289.047 274.000,288.859 274.000 C 288.430 274.000,286.451 275.903,285.405 277.322 C 284.968 277.915,284.465 278.400,284.287 278.400 C 283.910 278.400,282.000 280.246,282.000 280.610 C 282.000 280.931,280.931 282.000,280.610 282.000 C 280.196 282.000,278.400 283.936,278.400 284.382 C 278.400 284.612,278.062 284.800,277.648 284.800 C 277.235 284.800,276.155 285.520,275.248 286.400 C 274.341 287.280,273.427 288.000,273.218 288.000 C 273.008 288.000,272.386 288.450,271.836 289.000 C 271.286 289.550,270.558 290.000,270.218 290.000 C 269.878 290.000,269.600 290.159,269.600 290.354 C 269.600 290.549,269.015 290.988,268.300 291.329 C 267.585 291.671,266.735 292.321,266.412 292.775 C 266.088 293.229,265.413 293.600,264.912 293.600 C 264.410 293.600,264.000 293.780,264.000 294.000 C 264.000 294.220,263.640 294.400,263.200 294.400 C 262.760 294.400,262.400 294.580,262.400 294.800 C 262.400 295.020,262.065 295.200,261.656 295.200 C 261.247 295.200,260.574 295.650,260.161 296.200 C 259.748 296.750,259.093 297.200,258.705 297.200 C 258.317 297.200,258.000 297.380,258.000 297.600 C 258.000 297.820,257.370 298.000,256.600 298.000 C 255.830 298.000,255.200 298.180,255.200 298.400 C 255.200 298.620,254.958 298.800,254.661 298.800 C 253.859 298.800,251.600 300.002,251.600 300.429 C 251.600 300.633,250.970 300.800,250.200 300.800 C 249.430 300.800,248.800 300.980,248.800 301.200 C 248.800 301.420,248.260 301.600,247.600 301.600 C 246.940 301.600,246.400 301.780,246.400 302.000 C 246.400 302.220,245.770 302.400,245.000 302.400 C 244.230 302.400,243.600 302.569,243.600 302.775 C 243.600 302.981,243.029 303.206,242.331 303.275 C 241.012 303.405,240.210 304.400,241.424 304.400 C 242.573 304.400,247.526 302.852,252.512 300.935 C 272.855 293.113,290.178 277.880,301.277 258.051 C 302.555 255.769,303.600 253.851,303.600 253.789 C 303.600 253.726,304.475 251.813,305.545 249.538 C 306.614 247.262,308.065 243.690,308.769 241.600 C 309.473 239.510,310.215 237.440,310.419 237.000 C 311.605 234.438,313.527 224.800,312.851 224.800 C 312.603 224.800,312.400 225.411,312.400 226.157 M397.121 231.000 C 396.968 231.440,396.459 233.946,395.990 236.569 C 394.329 245.876,391.122 257.198,386.861 268.800 C 383.390 278.251,375.365 294.527,370.167 302.657 C 359.602 319.184,348.717 332.736,337.882 342.855 L 334.610 345.911 331.205 344.737 C 329.332 344.092,327.440 343.402,327.000 343.204 C 326.560 343.007,324.850 342.376,323.200 341.802 C 321.550 341.228,318.850 340.242,317.200 339.610 C 315.550 338.979,310.870 337.193,306.800 335.642 C 294.419 330.925,275.789 323.303,268.800 320.097 C 267.370 319.441,263.590 317.722,260.400 316.276 C 253.331 313.074,241.804 307.359,240.300 306.312 C 239.326 305.633,239.200 305.620,239.200 306.201 C 239.200 307.306,241.629 309.200,243.046 309.200 C 243.351 309.200,243.600 309.380,243.600 309.600 C 243.600 309.820,243.960 310.000,244.400 310.000 C 244.840 310.000,245.200 310.180,245.200 310.400 C 245.200 310.620,245.631 310.800,246.157 310.800 C 246.684 310.800,247.218 311.070,247.345 311.400 C 247.471 311.730,247.851 312.000,248.187 312.000 C 248.524 312.000,248.800 312.180,248.800 312.400 C 248.800 312.620,249.250 312.800,249.800 312.800 C 250.350 312.800,250.800 312.980,250.800 313.200 C 250.800 313.420,251.160 313.600,251.600 313.600 C 252.040 313.600,252.400 313.780,252.400 314.000 C 252.400 314.220,252.831 314.400,253.357 314.400 C 253.884 314.400,254.418 314.670,254.545 315.000 C 254.671 315.330,255.051 315.600,255.387 315.600 C 255.724 315.600,256.000 315.780,256.000 316.000 C 256.000 316.220,256.630 316.400,257.400 316.400 C 258.170 316.400,258.800 316.580,258.800 316.800 C 258.800 317.020,259.160 317.200,259.600 317.200 C 260.040 317.200,260.400 317.380,260.400 317.600 C 260.400 317.820,260.850 318.000,261.400 318.000 C 261.950 318.000,262.400 318.180,262.400 318.400 C 262.400 318.620,262.741 318.800,263.157 318.800 C 263.574 318.800,264.018 319.070,264.145 319.400 C 264.271 319.730,264.741 320.000,265.187 320.000 C 265.634 320.000,266.000 320.180,266.000 320.400 C 266.000 320.620,266.540 320.800,267.200 320.800 C 267.860 320.800,268.400 320.980,268.400 321.200 C 268.400 321.420,268.850 321.600,269.400 321.600 C 269.950 321.600,270.400 321.780,270.400 322.000 C 270.400 322.220,270.741 322.400,271.157 322.400 C 271.574 322.400,272.018 322.670,272.145 323.000 C 272.279 323.351,272.879 323.600,273.587 323.600 C 274.254 323.600,274.800 323.780,274.800 324.000 C 274.800 324.220,275.149 324.400,275.576 324.400 C 276.003 324.400,276.464 324.580,276.600 324.800 C 276.736 325.020,277.197 325.200,277.624 325.200 C 278.051 325.200,278.400 325.380,278.400 325.600 C 278.400 325.820,279.011 326.000,279.757 326.000 C 280.595 326.000,281.203 326.230,281.345 326.600 C 281.471 326.930,281.851 327.200,282.187 327.200 C 282.524 327.200,282.800 327.380,282.800 327.600 C 282.800 327.820,283.250 328.000,283.800 328.000 C 284.350 328.000,284.800 328.180,284.800 328.400 C 284.800 328.620,285.340 328.800,286.000 328.800 C 286.660 328.800,287.200 328.980,287.200 329.200 C 287.200 329.420,287.650 329.600,288.200 329.600 C 288.750 329.600,289.200 329.780,289.200 330.000 C 289.200 330.220,289.721 330.400,290.357 330.400 C 291.017 330.400,291.613 330.658,291.745 331.000 C 291.871 331.330,292.341 331.600,292.787 331.600 C 293.234 331.600,293.600 331.780,293.600 332.000 C 293.600 332.220,294.230 332.400,295.000 332.400 C 295.770 332.400,296.400 332.580,296.400 332.800 C 296.400 333.020,296.760 333.200,297.200 333.200 C 297.640 333.200,298.000 333.380,298.000 333.600 C 298.000 333.820,298.630 334.000,299.400 334.000 C 300.378 334.000,300.800 334.181,300.800 334.600 C 300.800 334.997,301.197 335.200,301.976 335.200 C 302.623 335.200,303.264 335.380,303.400 335.600 C 303.536 335.820,303.997 336.000,304.424 336.000 C 304.851 336.000,305.200 336.180,305.200 336.400 C 305.200 336.620,305.830 336.800,306.600 336.800 C 307.370 336.800,308.000 336.980,308.000 337.200 C 308.000 337.420,308.283 337.600,308.629 337.600 C 308.974 337.600,309.527 337.870,309.857 338.200 C 310.187 338.530,310.894 338.800,311.429 338.800 C 311.963 338.800,312.400 338.980,312.400 339.200 C 312.400 339.420,312.929 339.600,313.576 339.600 C 314.223 339.600,314.864 339.780,315.000 340.000 C 315.136 340.220,315.597 340.400,316.024 340.400 C 316.451 340.400,316.800 340.580,316.800 340.800 C 316.800 341.020,317.430 341.200,318.200 341.200 C 318.970 341.200,319.600 341.380,319.600 341.600 C 319.600 341.820,320.121 342.000,320.757 342.000 C 321.417 342.000,322.013 342.258,322.145 342.600 C 322.279 342.951,322.879 343.200,323.587 343.200 C 324.254 343.200,324.800 343.380,324.800 343.600 C 324.800 343.820,325.430 344.000,326.200 344.000 C 326.970 344.000,327.600 344.180,327.600 344.400 C 327.600 344.620,327.960 344.800,328.400 344.800 C 328.840 344.800,329.200 344.980,329.200 345.200 C 329.200 345.420,329.830 345.600,330.600 345.600 C 331.578 345.600,332.000 345.781,332.000 346.200 C 332.000 347.565,336.061 346.971,337.404 345.409 C 338.062 344.643,338.825 344.013,339.100 344.009 C 339.375 344.004,339.600 343.834,339.600 343.632 C 339.600 343.151,343.151 339.600,343.632 339.600 C 343.834 339.600,344.004 339.375,344.009 339.100 C 344.013 338.825,344.667 338.060,345.462 337.400 C 346.256 336.740,347.197 335.859,347.553 335.443 C 347.909 335.027,348.695 334.198,349.300 333.600 C 349.905 333.002,350.400 332.320,350.400 332.083 C 350.400 331.846,351.390 330.662,352.600 329.452 C 353.810 328.242,354.800 327.043,354.800 326.787 C 354.800 326.530,355.340 325.817,356.000 325.200 C 356.660 324.583,357.200 323.701,357.200 323.240 C 357.200 322.778,357.386 322.400,357.613 322.400 C 358.323 322.400,360.800 319.665,360.800 318.881 C 360.800 318.471,361.250 317.894,361.800 317.600 C 362.350 317.306,362.800 316.717,362.800 316.293 C 362.800 315.868,363.306 315.044,363.925 314.460 C 364.544 313.877,365.392 312.815,365.811 312.100 C 366.230 311.385,366.714 310.800,366.886 310.800 C 367.059 310.800,367.200 310.480,367.200 310.088 C 367.200 309.697,367.560 309.117,368.000 308.800 C 368.440 308.483,368.800 307.813,368.800 307.312 C 368.800 306.768,369.042 306.400,369.400 306.400 C 369.733 306.400,370.000 306.044,370.000 305.600 C 370.000 305.160,370.180 304.800,370.400 304.800 C 370.620 304.800,370.800 304.530,370.800 304.200 C 370.800 303.870,370.980 303.600,371.200 303.600 C 371.420 303.600,371.600 303.240,371.600 302.800 C 371.600 302.360,371.780 302.000,372.000 302.000 C 372.220 302.000,372.400 301.665,372.400 301.256 C 372.400 300.847,372.850 300.174,373.400 299.761 C 373.950 299.348,374.400 298.693,374.400 298.305 C 374.400 297.917,374.580 297.600,374.800 297.600 C 375.020 297.600,375.200 297.150,375.200 296.600 C 375.200 296.050,375.380 295.600,375.600 295.600 C 375.820 295.600,376.000 295.283,376.000 294.895 C 376.000 294.507,376.450 293.852,377.000 293.439 C 377.550 293.026,378.000 292.353,378.000 291.944 C 378.000 291.535,378.180 291.200,378.400 291.200 C 378.620 291.200,378.800 290.840,378.800 290.400 C 378.800 289.960,378.980 289.600,379.200 289.600 C 379.420 289.600,379.600 289.150,379.600 288.600 C 379.600 288.050,379.780 287.600,380.000 287.600 C 380.220 287.600,380.400 287.259,380.400 286.843 C 380.400 286.426,380.670 285.982,381.000 285.855 C 381.351 285.721,381.600 285.121,381.600 284.413 C 381.600 283.746,381.780 283.200,382.000 283.200 C 382.220 283.200,382.400 282.840,382.400 282.400 C 382.400 281.960,382.580 281.600,382.800 281.600 C 383.020 281.600,383.200 281.150,383.200 280.600 C 383.200 280.050,383.380 279.600,383.600 279.600 C 383.820 279.600,384.000 279.259,384.000 278.843 C 384.000 278.426,384.270 277.982,384.600 277.855 C 384.951 277.721,385.200 277.121,385.200 276.413 C 385.200 275.746,385.380 275.200,385.600 275.200 C 385.820 275.200,386.000 274.851,386.000 274.424 C 386.000 273.997,386.180 273.536,386.400 273.400 C 386.620 273.264,386.800 272.623,386.800 271.976 C 386.800 271.329,386.980 270.800,387.200 270.800 C 387.420 270.800,387.600 270.369,387.600 269.843 C 387.600 269.316,387.889 268.775,388.242 268.639 C 388.594 268.504,388.787 268.142,388.669 267.836 C 388.551 267.529,388.707 266.945,389.015 266.539 C 389.323 266.132,389.580 265.305,389.587 264.700 C 389.594 264.095,389.780 263.600,390.000 263.600 C 390.220 263.600,390.400 262.970,390.400 262.200 C 390.400 261.430,390.580 260.800,390.800 260.800 C 391.020 260.800,391.200 260.260,391.200 259.600 C 391.200 258.940,391.380 258.400,391.600 258.400 C 391.820 258.400,392.000 257.770,392.000 257.000 C 392.000 256.022,392.181 255.600,392.600 255.600 C 393.061 255.600,393.200 255.089,393.200 253.400 C 393.200 252.190,393.380 251.200,393.600 251.200 C 393.820 251.200,394.000 250.570,394.000 249.800 C 394.000 249.030,394.180 248.400,394.400 248.400 C 394.620 248.400,394.800 247.410,394.800 246.200 C 394.800 244.990,394.980 244.000,395.200 244.000 C 395.420 244.000,395.600 243.370,395.600 242.600 C 395.600 241.622,395.781 241.200,396.200 241.200 C 396.659 241.200,396.800 240.693,396.800 239.033 C 396.800 237.842,396.988 236.804,397.219 236.727 C 397.477 236.641,397.592 235.365,397.519 233.394 C 397.450 231.547,397.282 230.537,397.121 231.000 M180.800 311.548 C 180.800 311.923,186.344 312.589,186.679 312.255 C 186.789 312.144,186.761 311.861,186.616 311.627 C 186.302 311.118,180.800 311.044,180.800 311.548 M190.036 312.569 C 190.129 312.662,193.616 312.784,197.784 312.839 L 205.363 312.940 209.781 314.820 C 218.246 318.420,237.050 327.904,249.800 335.004 C 250.900 335.617,254.230 337.471,257.200 339.125 C 263.632 342.707,262.971 342.335,273.000 348.016 C 286.880 355.878,299.246 362.758,304.800 365.706 C 306.010 366.349,307.197 367.036,307.437 367.234 C 307.939 367.647,308.400 367.311,308.400 366.533 C 308.400 366.240,308.149 366.000,307.843 366.000 C 307.536 366.000,307.182 365.730,307.055 365.400 C 306.929 365.070,306.549 364.800,306.213 364.800 C 305.876 364.800,305.600 364.620,305.600 364.400 C 305.600 364.180,305.150 364.000,304.600 364.000 C 304.050 364.000,303.600 363.820,303.600 363.600 C 303.600 363.380,303.240 363.200,302.800 363.200 C 302.360 363.200,302.000 363.020,302.000 362.800 C 302.000 362.580,301.653 362.400,301.229 362.400 C 300.805 362.400,300.104 361.950,299.671 361.400 C 299.239 360.850,298.596 360.400,298.242 360.400 C 297.889 360.400,297.600 360.220,297.600 360.000 C 297.600 359.780,297.150 359.600,296.600 359.600 C 296.050 359.600,295.600 359.420,295.600 359.200 C 295.600 358.980,295.240 358.800,294.800 358.800 C 294.360 358.800,294.000 358.620,294.000 358.400 C 294.000 358.180,293.550 358.000,293.000 358.000 C 292.450 358.000,292.000 357.807,292.000 357.571 C 292.000 356.934,290.947 356.000,290.229 356.000 C 289.883 356.000,289.600 355.820,289.600 355.600 C 289.600 355.380,289.150 355.200,288.600 355.200 C 288.050 355.200,287.600 355.020,287.600 354.800 C 287.600 354.580,287.259 354.400,286.843 354.400 C 286.426 354.400,285.982 354.130,285.855 353.800 C 285.729 353.470,285.299 353.200,284.901 353.200 C 284.503 353.200,283.917 352.840,283.600 352.400 C 283.283 351.960,282.703 351.600,282.312 351.600 C 281.920 351.600,281.600 351.420,281.600 351.200 C 281.600 350.980,281.150 350.800,280.600 350.800 C 280.050 350.800,279.600 350.628,279.600 350.419 C 279.600 350.209,278.970 349.739,278.200 349.373 C 277.430 349.008,276.800 348.549,276.800 348.354 C 276.800 348.159,276.440 348.000,276.000 348.000 C 275.560 348.000,275.200 347.820,275.200 347.600 C 275.200 347.380,274.840 347.200,274.400 347.200 C 273.960 347.200,273.600 347.020,273.600 346.800 C 273.600 346.580,273.150 346.400,272.600 346.400 C 271.978 346.400,271.600 346.173,271.600 345.800 C 271.600 345.470,271.274 345.200,270.875 345.200 C 270.477 345.200,269.764 344.840,269.292 344.400 C 268.820 343.960,268.156 343.600,267.817 343.600 C 267.478 343.600,267.200 343.420,267.200 343.200 C 267.200 342.980,266.834 342.800,266.387 342.800 C 265.941 342.800,265.471 342.530,265.345 342.200 C 265.218 341.870,264.813 341.600,264.446 341.600 C 264.078 341.600,263.517 341.240,263.200 340.800 C 262.883 340.360,262.213 340.000,261.712 340.000 C 261.210 340.000,260.800 339.820,260.800 339.600 C 260.800 339.380,260.459 339.200,260.043 339.200 C 259.626 339.200,259.182 338.930,259.055 338.600 C 258.929 338.270,258.459 338.000,258.013 338.000 C 257.566 338.000,257.200 337.820,257.200 337.600 C 257.200 337.380,256.880 337.200,256.488 337.200 C 256.097 337.200,255.517 336.840,255.200 336.400 C 254.883 335.960,254.213 335.600,253.712 335.600 C 253.210 335.600,252.800 335.420,252.800 335.200 C 252.800 334.980,252.459 334.800,252.043 334.800 C 251.626 334.800,251.182 334.530,251.055 334.200 C 250.929 333.870,250.459 333.600,250.013 333.600 C 249.566 333.600,249.200 333.420,249.200 333.200 C 249.200 332.980,248.840 332.800,248.400 332.800 C 247.960 332.800,247.600 332.620,247.600 332.400 C 247.600 332.180,247.227 332.000,246.771 332.000 C 245.886 332.000,244.800 331.134,244.800 330.429 C 244.800 330.193,244.440 330.000,244.000 330.000 C 243.560 330.000,243.200 329.820,243.200 329.600 C 243.200 329.380,242.750 329.200,242.200 329.200 C 241.650 329.200,241.200 329.020,241.200 328.800 C 241.200 328.580,240.840 328.400,240.400 328.400 C 239.960 328.400,239.600 328.220,239.600 328.000 C 239.600 327.780,239.169 327.600,238.643 327.600 C 238.116 327.600,237.582 327.330,237.455 327.000 C 237.329 326.670,236.949 326.400,236.613 326.400 C 236.276 326.400,236.000 326.220,236.000 326.000 C 236.000 325.780,235.550 325.600,235.000 325.600 C 234.450 325.600,234.000 325.420,234.000 325.200 C 234.000 324.980,233.640 324.800,233.200 324.800 C 232.760 324.800,232.400 324.620,232.400 324.400 C 232.400 324.180,232.027 324.000,231.571 324.000 C 231.116 324.000,230.492 323.775,230.185 323.500 C 228.762 322.223,228.379 322.000,227.617 322.000 C 227.168 322.000,226.800 321.820,226.800 321.600 C 226.800 321.380,226.440 321.200,226.000 321.200 C 225.560 321.200,225.200 321.020,225.200 320.800 C 225.200 320.580,224.840 320.400,224.400 320.400 C 223.960 320.400,223.600 320.220,223.600 320.000 C 223.600 319.780,223.150 319.600,222.600 319.600 C 221.978 319.600,221.600 319.373,221.600 319.000 C 221.600 318.670,221.251 318.400,220.824 318.400 C 220.397 318.400,219.936 318.220,219.800 318.000 C 219.664 317.780,219.203 317.600,218.776 317.600 C 218.349 317.600,218.000 317.420,218.000 317.200 C 218.000 316.980,217.640 316.800,217.200 316.800 C 216.760 316.800,216.400 316.620,216.400 316.400 C 216.400 316.180,215.969 316.000,215.443 316.000 C 214.916 316.000,214.382 315.730,214.255 315.400 C 214.129 315.070,213.749 314.800,213.413 314.800 C 213.076 314.800,212.800 314.620,212.800 314.400 C 212.800 314.180,212.170 314.000,211.400 314.000 C 210.630 314.000,210.000 313.820,210.000 313.600 C 210.000 313.380,209.640 313.200,209.200 313.200 C 208.760 313.200,208.400 313.020,208.400 312.800 C 208.400 312.545,205.044 312.400,199.133 312.400 C 194.037 312.400,189.943 312.476,190.036 312.569 M305.000 369.606 C 282.252 384.296,251.758 394.849,221.800 398.400 L 215.800 399.111 221.276 399.155 C 224.546 399.182,226.852 399.039,227.000 398.800 C 227.136 398.580,228.407 398.400,229.824 398.400 C 231.275 398.400,232.400 398.225,232.400 398.000 C 232.400 397.774,233.533 397.600,235.000 397.600 C 236.467 397.600,237.600 397.426,237.600 397.200 C 237.600 396.980,238.590 396.800,239.800 396.800 C 241.489 396.800,242.000 396.661,242.000 396.200 C 242.000 395.733,242.533 395.600,244.400 395.600 C 245.733 395.600,246.800 395.422,246.800 395.200 C 246.800 394.980,247.340 394.800,248.000 394.800 C 248.660 394.800,249.200 394.620,249.200 394.400 C 249.200 394.180,250.010 394.000,251.000 394.000 C 251.990 394.000,252.800 393.820,252.800 393.600 C 252.800 393.380,253.610 393.200,254.600 393.200 C 255.933 393.200,256.400 393.044,256.400 392.600 C 256.400 392.156,256.867 392.000,258.200 392.000 C 259.190 392.000,260.000 391.820,260.000 391.600 C 260.000 391.380,260.630 391.200,261.400 391.200 C 262.170 391.200,262.800 391.020,262.800 390.800 C 262.800 390.580,263.160 390.400,263.600 390.400 C 264.040 390.400,264.400 390.220,264.400 390.000 C 264.400 389.780,265.030 389.600,265.800 389.600 C 266.570 389.600,267.200 389.420,267.200 389.200 C 267.200 388.980,267.637 388.800,268.171 388.800 C 268.706 388.800,269.413 388.530,269.743 388.200 C 270.073 387.870,270.806 387.600,271.371 387.600 C 271.937 387.600,272.400 387.420,272.400 387.200 C 272.400 386.980,272.850 386.800,273.400 386.800 C 273.950 386.800,274.400 386.620,274.400 386.400 C 274.400 386.180,274.940 386.000,275.600 386.000 C 276.260 386.000,276.800 385.820,276.800 385.600 C 276.800 385.380,277.166 385.200,277.613 385.200 C 278.059 385.200,278.529 384.930,278.655 384.600 C 278.782 384.270,279.226 384.000,279.643 384.000 C 280.059 384.000,280.400 383.820,280.400 383.600 C 280.400 383.380,281.030 383.200,281.800 383.200 C 282.570 383.200,283.200 383.020,283.200 382.800 C 283.200 382.580,283.549 382.400,283.976 382.400 C 284.403 382.400,284.864 382.220,285.000 382.000 C 285.136 381.780,285.597 381.600,286.024 381.600 C 286.451 381.600,286.800 381.330,286.800 381.000 C 286.800 380.670,287.149 380.400,287.576 380.400 C 288.003 380.400,288.464 380.220,288.600 380.000 C 288.736 379.780,289.197 379.600,289.624 379.600 C 290.051 379.600,290.400 379.420,290.400 379.200 C 290.400 378.980,290.760 378.800,291.200 378.800 C 291.640 378.800,292.000 378.620,292.000 378.400 C 292.000 378.180,292.450 378.000,293.000 378.000 C 293.550 378.000,294.000 377.820,294.000 377.600 C 294.000 377.380,294.276 377.200,294.613 377.200 C 294.949 377.200,295.329 376.930,295.455 376.600 C 295.582 376.270,296.116 376.000,296.643 376.000 C 297.169 376.000,297.600 375.820,297.600 375.600 C 297.600 375.380,297.960 375.200,298.400 375.200 C 298.840 375.200,299.200 375.041,299.200 374.846 C 299.200 374.651,299.830 374.192,300.600 373.827 C 301.370 373.461,302.000 372.991,302.000 372.781 C 302.000 372.572,302.360 372.400,302.800 372.400 C 303.240 372.400,303.600 372.220,303.600 372.000 C 303.600 371.780,303.984 371.600,304.453 371.600 C 304.922 371.600,305.600 371.261,305.959 370.847 C 306.318 370.434,306.969 370.027,307.406 369.943 C 308.302 369.772,308.790 367.982,307.928 368.028 C 307.638 368.044,306.320 368.754,305.000 369.606 " stroke="none" fill="#b1ccdc" fill-rule="evenodd"></path></g></svg>