<svg id="svg" version="1.1" xmlns="http://www.w3.org/2000/svg" xmlns:xlink="http://www.w3.org/1999/xlink" width="400" height="316.144578313253" viewBox="0, 0, 400,316.144578313253"><g id="svgg"><path id="path0" d="M122.530 10.602 C 116.791 16.259,106.878 26.041,100.503 32.340 C 94.127 38.640,84.500 48.134,79.110 53.439 C 68.757 63.628,46.511 85.554,24.892 106.877 C 17.752 113.921,9.763 121.784,7.140 124.350 C -0.028 131.364,0.005 131.329,0.002 132.095 L 0.000 132.806 18.463 132.806 L 36.926 132.806 46.759 123.083 C 52.167 117.735,61.869 108.166,68.318 101.818 C 74.767 95.470,83.563 86.791,87.865 82.530 C 95.154 75.312,118.825 51.965,139.763 31.343 C 144.719 26.462,149.437 21.807,150.246 20.999 C 151.055 20.192,151.874 19.584,152.067 19.648 C 152.393 19.757,164.083 31.215,187.191 54.075 C 192.493 59.321,197.509 64.246,198.337 65.021 C 199.165 65.795,199.842 66.565,199.842 66.732 C 199.842 66.899,199.960 67.036,200.105 67.036 C 200.250 67.036,203.886 70.522,208.186 74.783 C 212.486 79.043,216.057 82.530,216.123 82.530 C 216.324 82.530,223.076 89.492,223.188 89.815 C 223.246 89.982,223.403 90.119,223.536 90.119 C 223.741 90.119,242.024 108.085,251.225 117.328 C 252.791 118.900,254.213 120.319,254.387 120.480 C 254.561 120.642,257.446 123.481,260.797 126.790 L 266.891 132.806 333.103 132.806 C 385.789 132.806,399.343 132.726,399.452 132.411 C 399.527 132.194,395.324 127.818,390.113 122.688 C 384.901 117.557,376.181 108.949,370.735 103.557 C 352.733 85.736,324.108 57.478,299.370 33.106 C 292.980 26.811,282.886 16.858,276.939 10.988 L 266.126 0.316 199.545 0.317 L 132.964 0.318 122.530 10.602 " stroke="none" fill="#fa931c" fill-rule="evenodd"></path><path id="path1" d="M148.407 53.534 C 144.377 57.600,135.321 66.553,104.042 97.396 C 91.787 109.480,78.159 122.925,73.759 127.273 L 65.758 135.178 65.767 177.302 C 65.776 222.822,65.730 221.485,67.447 225.737 C 70.138 232.399,76.741 237.752,83.953 239.118 C 85.306 239.374,100.750 239.506,137.838 239.579 L 189.825 239.682 191.909 241.644 C 193.055 242.723,199.636 249.218,206.535 256.076 C 213.434 262.935,219.248 268.652,219.456 268.780 C 219.663 268.909,225.758 274.903,233.000 282.102 C 259.723 308.667,267.196 315.935,267.354 315.516 C 267.441 315.287,267.547 298.130,267.590 277.391 L 267.668 239.683 290.435 239.581 C 313.019 239.481,315.222 239.384,317.945 238.369 C 324.486 235.931,329.739 230.761,331.869 224.663 C 333.276 220.636,333.327 219.201,333.222 186.087 L 333.123 154.783 295.446 154.625 L 257.769 154.466 247.857 144.719 C 242.405 139.358,233.320 130.390,227.668 124.789 C 222.016 119.189,207.433 104.793,195.262 92.797 C 183.091 80.802,168.390 66.292,162.593 60.553 C 156.795 54.814,152.022 50.090,151.985 50.056 C 151.947 50.021,150.337 51.587,148.407 53.534 " stroke="none" fill="#5c6c7b" fill-rule="evenodd"></path><path id="path2" d="M129.091 2.069 C 128.004 3.192,127.115 4.253,127.115 4.427 C 127.115 4.601,126.901 4.743,126.640 4.743 C 126.379 4.743,126.166 4.957,126.166 5.217 C 126.166 5.478,125.953 5.692,125.692 5.692 C 125.431 5.692,125.217 5.905,125.217 6.166 C 125.217 6.427,125.078 6.640,124.907 6.640 C 124.481 6.640,122.194 8.901,122.292 9.225 C 122.336 9.369,122.187 9.486,121.961 9.486 C 121.736 9.486,121.202 9.907,120.776 10.421 C 120.349 10.936,119.822 11.363,119.605 11.370 C 119.387 11.377,119.209 11.597,119.209 11.858 C 119.209 12.119,118.996 12.332,118.735 12.332 C 118.474 12.332,118.261 12.468,118.261 12.633 C 118.261 13.026,115.160 16.126,114.768 16.126 C 114.602 16.126,114.466 16.340,114.466 16.601 C 114.466 16.862,114.253 17.075,113.992 17.075 C 113.731 17.075,113.518 17.217,113.518 17.391 C 113.518 17.801,112.347 18.972,111.937 18.972 C 111.763 18.972,111.621 19.186,111.621 19.447 C 111.621 19.726,111.328 19.923,110.909 19.926 C 110.180 19.932,108.775 21.155,108.775 21.784 C 108.775 21.977,108.668 22.101,108.538 22.061 C 108.174 21.948,106.877 23.171,106.877 23.628 C 106.877 23.850,106.664 24.032,106.403 24.032 C 106.142 24.032,105.929 24.245,105.929 24.506 C 105.929 24.767,105.715 24.980,105.455 24.980 C 105.194 24.980,104.980 25.194,104.980 25.455 C 104.980 25.715,104.838 25.929,104.664 25.929 C 104.253 25.929,102.901 27.281,103.004 27.589 C 103.047 27.719,102.919 27.826,102.719 27.826 C 102.518 27.826,101.521 28.680,100.503 29.723 C 99.485 30.767,98.511 31.621,98.338 31.621 C 98.165 31.621,98.024 31.834,98.024 32.095 C 98.024 32.356,97.810 32.569,97.549 32.569 C 97.289 32.569,97.075 32.783,97.075 33.043 C 97.075 33.304,96.862 33.518,96.601 33.518 C 96.340 33.518,96.126 33.731,96.126 33.992 C 96.126 34.253,95.913 34.466,95.652 34.466 C 95.391 34.466,95.178 34.680,95.178 34.941 C 95.178 35.202,94.964 35.415,94.704 35.415 C 94.443 35.415,94.229 35.628,94.229 35.889 C 94.229 36.150,94.016 36.364,93.755 36.364 C 93.494 36.364,93.281 36.518,93.281 36.706 C 93.281 36.895,92.213 38.079,90.909 39.338 C 89.605 40.596,88.538 41.794,88.538 41.999 C 88.538 42.204,88.431 42.336,88.300 42.292 C 87.992 42.190,86.640 43.541,86.640 43.953 C 86.640 44.126,86.427 44.269,86.166 44.269 C 85.905 44.269,85.692 44.482,85.692 44.743 C 85.692 45.004,85.478 45.217,85.217 45.217 C 84.957 45.217,84.743 45.431,84.743 45.692 C 84.743 45.953,84.601 46.166,84.427 46.166 C 84.016 46.166,82.664 47.518,82.767 47.826 C 82.810 47.957,82.679 48.063,82.475 48.063 C 82.272 48.063,81.492 48.704,80.742 49.486 C 79.992 50.269,79.234 50.909,79.057 50.909 C 78.880 50.909,78.735 51.123,78.735 51.383 C 78.735 51.644,78.522 51.858,78.261 51.858 C 78.000 51.858,77.787 52.071,77.787 52.332 C 77.787 52.593,77.573 52.806,77.312 52.806 C 77.051 52.806,76.838 53.020,76.838 53.281 C 76.838 53.542,76.625 53.755,76.364 53.755 C 76.103 53.755,75.889 53.968,75.889 54.229 C 75.889 54.490,75.676 54.704,75.415 54.704 C 75.154 54.704,74.941 54.917,74.941 55.178 C 74.941 55.439,74.727 55.652,74.466 55.652 C 74.206 55.652,73.992 55.866,73.992 56.126 C 73.992 56.387,73.779 56.601,73.518 56.601 C 73.257 56.601,73.043 56.814,73.043 57.075 C 73.043 57.336,72.830 57.549,72.569 57.549 C 72.308 57.549,72.095 57.763,72.095 58.024 C 72.095 58.285,71.881 58.498,71.621 58.498 C 71.360 58.498,71.146 58.640,71.146 58.813 C 71.146 58.985,70.292 59.960,69.249 60.978 C 68.206 61.996,67.352 62.992,67.352 63.193 C 67.352 63.393,67.138 63.557,66.877 63.557 C 66.617 63.557,66.403 63.771,66.403 64.032 C 66.403 64.292,66.190 64.506,65.929 64.506 C 65.668 64.506,65.455 64.719,65.455 64.980 C 65.455 65.241,65.241 65.455,64.980 65.455 C 64.719 65.455,64.506 65.668,64.506 65.929 C 64.506 66.190,64.354 66.403,64.169 66.403 C 63.984 66.403,62.132 68.111,60.053 70.198 C 57.975 72.285,56.134 73.992,55.963 73.992 C 55.792 73.992,55.652 74.206,55.652 74.466 C 55.652 74.727,55.439 74.941,55.178 74.941 C 54.917 74.941,54.704 75.154,54.704 75.415 C 54.704 75.676,54.490 75.889,54.229 75.889 C 53.968 75.889,53.755 76.071,53.755 76.293 C 53.755 76.747,52.651 77.787,52.170 77.787 C 51.998 77.787,51.858 77.920,51.858 78.084 C 51.858 78.247,50.791 79.451,49.486 80.760 C 48.182 82.068,47.115 83.287,47.115 83.467 C 47.115 83.647,46.901 83.794,46.640 83.794 C 46.379 83.794,46.166 84.008,46.166 84.269 C 46.166 84.563,45.868 84.743,45.381 84.743 C 44.596 84.743,42.134 86.803,42.292 87.328 C 42.336 87.471,42.205 87.589,42.001 87.589 C 41.797 87.589,41.017 88.229,40.267 89.012 C 39.517 89.794,38.759 90.435,38.582 90.435 C 38.406 90.435,38.261 90.648,38.261 90.909 C 38.261 91.170,38.047 91.383,37.787 91.383 C 37.526 91.383,37.312 91.597,37.312 91.858 C 37.312 92.119,37.099 92.332,36.838 92.332 C 36.577 92.332,36.364 92.545,36.364 92.806 C 36.364 93.067,36.150 93.281,35.889 93.281 C 35.628 93.281,35.415 93.494,35.415 93.755 C 35.415 94.016,35.202 94.229,34.941 94.229 C 34.680 94.229,34.466 94.443,34.466 94.704 C 34.466 94.964,34.253 95.178,33.992 95.178 C 33.731 95.178,33.518 95.391,33.518 95.652 C 33.518 95.913,33.304 96.126,33.043 96.126 C 32.783 96.126,32.569 96.268,32.569 96.441 C 32.569 96.614,31.715 97.588,30.672 98.606 C 29.628 99.624,28.775 100.621,28.775 100.821 C 28.775 101.022,28.668 101.150,28.538 101.107 C 28.229 101.004,26.877 102.356,26.877 102.767 C 26.877 102.941,26.664 103.083,26.403 103.083 C 26.142 103.083,25.929 103.296,25.929 103.557 C 25.929 103.818,25.715 104.032,25.455 104.032 C 25.194 104.032,24.980 104.245,24.980 104.506 C 24.980 104.767,24.838 104.980,24.664 104.980 C 24.253 104.980,22.901 106.332,23.004 106.640 C 23.047 106.771,22.921 106.877,22.722 106.877 C 22.524 106.877,21.312 107.945,20.028 109.249 C 18.745 110.553,17.556 111.621,17.385 111.621 C 17.215 111.621,17.075 111.834,17.075 112.095 C 17.075 112.356,16.862 112.569,16.601 112.569 C 16.340 112.569,16.126 112.783,16.126 113.043 C 16.126 113.304,15.913 113.518,15.652 113.518 C 15.391 113.518,15.178 113.731,15.178 113.992 C 15.178 114.253,14.964 114.466,14.704 114.466 C 14.443 114.466,14.229 114.680,14.229 114.941 C 14.229 115.202,14.016 115.415,13.755 115.415 C 13.494 115.415,13.281 115.555,13.281 115.725 C 13.281 115.896,12.213 117.085,10.909 118.368 C 9.605 119.652,8.538 120.864,8.538 121.062 C 8.538 121.261,8.431 121.387,8.300 121.344 C 7.992 121.241,6.640 122.593,6.640 123.004 C 6.640 123.178,6.427 123.320,6.166 123.320 C 5.905 123.320,5.692 123.534,5.692 123.794 C 5.692 124.055,5.478 124.269,5.217 124.269 C 4.957 124.269,4.743 124.482,4.743 124.743 C 4.743 125.004,4.601 125.217,4.427 125.217 C 4.016 125.217,2.664 126.569,2.767 126.877 C 2.810 127.008,2.682 127.115,2.483 127.115 C 1.667 127.115,-0.000 129.282,0.002 130.340 L 0.005 131.383 1.188 130.200 C 1.839 129.549,4.517 126.916,7.140 124.350 C 9.763 121.784,17.752 113.921,24.892 106.877 C 46.511 85.554,68.757 63.628,79.110 53.439 C 84.500 48.134,94.127 38.640,100.503 32.340 C 106.878 26.041,116.791 16.259,122.530 10.602 L 132.964 0.318 199.545 0.317 L 266.126 0.316 276.939 10.988 C 282.886 16.858,292.980 26.811,299.370 33.106 C 324.108 57.478,352.733 85.736,370.735 103.557 C 399.495 132.028,399.833 132.348,399.941 131.268 C 400.041 130.268,397.477 127.115,396.564 127.115 C 396.367 127.115,396.206 126.901,396.206 126.640 C 396.206 126.379,395.992 126.166,395.731 126.166 C 395.470 126.166,395.257 125.953,395.257 125.692 C 395.257 125.431,395.043 125.217,394.783 125.217 C 394.522 125.217,394.308 125.004,394.308 124.743 C 394.308 124.482,394.095 124.269,393.834 124.269 C 393.573 124.269,393.360 124.055,393.360 123.794 C 393.360 123.534,393.146 123.320,392.885 123.320 C 392.625 123.320,392.411 123.185,392.411 123.020 C 392.411 122.625,390.836 120.930,390.810 121.298 C 390.799 121.454,390.658 121.252,390.496 120.849 C 390.335 120.447,390.059 120.206,389.884 120.315 C 389.709 120.423,389.565 120.357,389.565 120.168 C 389.565 119.980,388.925 119.185,388.142 118.402 C 387.360 117.620,386.719 116.841,386.719 116.672 C 386.719 116.502,386.506 116.364,386.245 116.364 C 385.984 116.364,385.771 116.150,385.771 115.889 C 385.771 115.628,385.633 115.415,385.465 115.415 C 385.067 115.415,382.925 113.273,382.925 112.875 C 382.925 112.707,382.711 112.569,382.451 112.569 C 382.190 112.569,381.976 112.356,381.976 112.095 C 381.976 111.834,381.763 111.621,381.502 111.621 C 381.241 111.621,381.028 111.407,381.028 111.146 C 381.028 110.885,380.892 110.672,380.727 110.672 C 380.562 110.672,379.570 109.818,378.523 108.775 C 377.477 107.731,376.474 106.877,376.294 106.877 C 376.115 106.877,375.968 106.664,375.968 106.403 C 375.968 106.142,375.755 105.929,375.494 105.929 C 375.233 105.929,375.020 105.715,375.020 105.455 C 375.020 105.194,374.806 104.980,374.545 104.980 C 374.285 104.980,374.071 104.767,374.071 104.506 C 374.071 104.245,373.858 104.032,373.597 104.032 C 373.336 104.032,373.123 103.818,373.123 103.557 C 373.123 103.296,372.909 103.083,372.648 103.083 C 372.387 103.083,372.174 102.948,372.174 102.783 C 372.174 102.388,370.599 100.693,370.573 101.061 C 370.562 101.216,370.421 101.015,370.259 100.612 C 370.098 100.210,369.822 99.969,369.647 100.077 C 369.472 100.186,369.328 100.082,369.328 99.846 C 369.328 99.610,368.907 99.068,368.393 98.641 C 367.878 98.215,367.452 97.688,367.444 97.470 C 367.437 97.253,367.217 97.075,366.957 97.075 C 366.696 97.075,366.482 96.862,366.482 96.601 C 366.482 96.340,366.345 96.126,366.177 96.126 C 365.779 96.126,363.636 93.984,363.636 93.586 C 363.636 93.418,363.423 93.281,363.162 93.281 C 362.901 93.281,362.688 93.067,362.688 92.806 C 362.688 92.545,362.545 92.332,362.372 92.332 C 361.961 92.332,360.791 91.161,360.791 90.751 C 360.791 90.577,360.613 90.429,360.395 90.421 C 360.178 90.414,359.651 89.987,359.224 89.473 C 358.797 88.957,358.138 88.538,357.756 88.538 C 357.375 88.538,356.982 88.324,356.882 88.063 C 356.782 87.802,356.482 87.589,356.215 87.589 C 355.949 87.589,355.731 87.375,355.731 87.115 C 355.731 86.854,355.518 86.640,355.257 86.640 C 354.996 86.640,354.783 86.427,354.783 86.166 C 354.783 85.905,354.569 85.692,354.308 85.692 C 354.047 85.692,353.834 85.478,353.834 85.217 C 353.834 84.957,353.621 84.743,353.360 84.743 C 353.099 84.743,352.885 84.530,352.885 84.269 C 352.885 84.008,352.672 83.794,352.411 83.794 C 352.150 83.794,351.937 83.652,351.937 83.478 C 351.937 83.067,350.585 81.715,350.277 81.818 C 350.146 81.862,350.040 81.733,350.040 81.533 C 350.040 81.332,349.186 80.336,348.142 79.318 C 347.099 78.300,346.245 77.325,346.245 77.152 C 346.245 76.979,346.108 76.838,345.939 76.838 C 345.542 76.838,343.399 74.696,343.399 74.298 C 343.399 74.130,343.186 73.992,342.925 73.992 C 342.664 73.992,342.451 73.779,342.451 73.518 C 342.451 73.257,342.318 73.043,342.156 73.043 C 341.993 73.043,340.576 71.763,339.007 70.198 C 337.437 68.632,336.004 67.352,335.823 67.352 C 335.642 67.352,335.494 67.138,335.494 66.877 C 335.494 66.617,335.281 66.403,335.020 66.403 C 334.759 66.403,334.545 66.190,334.545 65.929 C 334.545 65.668,334.332 65.455,334.071 65.455 C 333.810 65.455,333.597 65.241,333.597 64.980 C 333.597 64.719,333.383 64.506,333.123 64.506 C 332.862 64.506,332.648 64.292,332.648 64.032 C 332.648 63.771,332.435 63.557,332.174 63.557 C 331.913 63.557,331.700 63.415,331.700 63.241 C 331.700 62.830,330.348 61.478,330.040 61.581 C 329.909 61.625,329.802 61.493,329.802 61.290 C 329.802 61.086,329.162 60.306,328.379 59.556 C 327.597 58.806,326.957 58.048,326.957 57.871 C 326.957 57.694,326.819 57.549,326.651 57.549 C 326.253 57.549,324.111 55.407,324.111 55.009 C 324.111 54.841,323.970 54.704,323.797 54.704 C 323.625 54.704,321.997 53.209,320.180 51.383 C 318.363 49.557,316.725 48.063,316.541 48.063 C 316.356 48.063,316.206 47.850,316.206 47.589 C 316.206 47.328,315.992 47.115,315.731 47.115 C 315.470 47.115,315.257 46.901,315.257 46.640 C 315.257 46.379,315.043 46.166,314.783 46.166 C 314.522 46.166,314.308 45.953,314.308 45.692 C 314.308 45.431,314.095 45.217,313.834 45.217 C 313.573 45.217,313.360 45.004,313.360 44.743 C 313.360 44.482,313.146 44.269,312.885 44.269 C 312.625 44.269,312.411 44.134,312.411 43.969 C 312.411 43.574,310.836 41.879,310.810 42.246 C 310.799 42.402,310.658 42.200,310.496 41.798 C 310.335 41.395,310.059 41.155,309.884 41.263 C 309.709 41.372,309.565 41.288,309.565 41.077 C 309.565 40.866,308.711 39.861,307.668 38.843 C 306.625 37.825,305.771 36.851,305.771 36.678 C 305.771 36.505,305.557 36.364,305.296 36.364 C 305.036 36.364,304.822 36.150,304.822 35.889 C 304.822 35.628,304.680 35.415,304.506 35.415 C 304.096 35.415,302.925 34.244,302.925 33.834 C 302.925 33.660,302.711 33.518,302.451 33.518 C 302.190 33.518,301.976 33.304,301.976 33.043 C 301.976 32.783,301.763 32.569,301.502 32.569 C 301.241 32.569,301.028 32.356,301.028 32.095 C 301.028 31.834,300.886 31.621,300.713 31.621 C 300.540 31.621,299.566 30.767,298.548 29.723 C 297.530 28.680,296.533 27.826,296.333 27.826 C 296.132 27.826,295.968 27.613,295.968 27.352 C 295.968 27.091,295.755 26.877,295.494 26.877 C 295.233 26.877,295.020 26.664,295.020 26.403 C 295.020 26.142,294.806 25.929,294.545 25.929 C 294.285 25.929,294.071 25.715,294.071 25.455 C 294.071 25.194,293.858 24.980,293.597 24.980 C 293.336 24.980,293.123 24.782,293.123 24.540 C 293.123 24.298,292.755 24.008,292.305 23.895 C 291.855 23.782,291.127 23.304,290.686 22.833 C 290.245 22.362,289.759 22.012,289.606 22.055 C 289.453 22.099,289.328 21.970,289.328 21.770 C 289.328 21.569,288.474 20.573,287.431 19.555 C 286.387 18.537,285.534 17.563,285.534 17.390 C 285.534 17.217,285.393 17.075,285.221 17.075 C 285.049 17.075,282.997 15.154,280.661 12.806 C 278.325 10.458,276.261 8.538,276.073 8.538 C 275.885 8.538,275.731 8.324,275.731 8.063 C 275.731 7.802,275.518 7.589,275.257 7.589 C 274.996 7.589,274.783 7.375,274.783 7.115 C 274.783 6.854,274.569 6.640,274.308 6.640 C 274.047 6.640,273.834 6.427,273.834 6.166 C 273.834 5.905,273.621 5.692,273.360 5.692 C 273.099 5.692,272.885 5.478,272.885 5.217 C 272.885 4.957,272.672 4.743,272.411 4.743 C 272.150 4.743,271.937 4.601,271.937 4.427 C 271.937 4.016,270.585 2.664,270.277 2.767 C 270.146 2.810,270.040 2.682,270.040 2.483 C 270.040 2.283,269.549 1.642,268.948 1.060 L 267.857 -0.000 199.462 0.014 L 131.067 0.028 129.091 2.069 M150.498 20.727 C 149.898 21.357,145.209 26.000,140.079 31.046 C 125.702 45.184,96.571 73.908,87.865 82.530 C 83.563 86.791,74.766 95.470,68.317 101.818 C 61.868 108.166,52.218 117.700,46.872 123.004 L 37.154 132.648 18.498 132.811 L -0.158 132.974 19.861 133.048 C 33.985 133.101,39.818 133.023,39.671 132.785 C 39.556 132.599,39.761 132.369,40.126 132.274 C 40.492 132.178,40.791 131.903,40.791 131.663 C 40.791 131.422,41.004 131.225,41.265 131.225 C 41.526 131.225,41.739 131.012,41.739 130.751 C 41.739 130.490,41.953 130.277,42.213 130.277 C 42.474 130.277,42.688 130.063,42.688 129.802 C 42.688 129.542,42.901 129.328,43.162 129.328 C 43.423 129.328,43.636 129.115,43.636 128.854 C 43.636 128.593,43.850 128.379,44.111 128.379 C 44.372 128.379,44.585 128.166,44.585 127.905 C 44.585 127.644,44.798 127.431,45.059 127.431 C 45.320 127.431,45.534 127.217,45.534 126.957 C 45.534 126.696,45.747 126.482,46.008 126.482 C 46.269 126.482,46.482 126.269,46.482 126.008 C 46.482 125.747,46.696 125.534,46.957 125.534 C 47.217 125.534,47.431 125.320,47.431 125.059 C 47.431 124.798,47.644 124.585,47.905 124.585 C 48.166 124.585,48.379 124.372,48.379 124.111 C 48.379 123.850,48.593 123.636,48.854 123.636 C 49.115 123.636,49.328 123.423,49.328 123.162 C 49.328 122.901,49.542 122.688,49.802 122.688 C 50.063 122.688,50.277 122.545,50.277 122.372 C 50.277 121.961,51.448 120.791,51.858 120.791 C 52.032 120.791,52.174 120.577,52.174 120.316 C 52.174 120.055,52.387 119.842,52.648 119.842 C 52.909 119.842,53.123 119.628,53.123 119.368 C 53.123 119.107,53.336 118.893,53.597 118.893 C 53.858 118.893,54.071 118.761,54.071 118.600 C 54.071 118.205,59.408 112.885,59.804 112.885 C 59.976 112.885,60.023 112.734,59.908 112.548 C 59.793 112.362,59.998 112.132,60.363 112.037 C 60.729 111.941,61.028 111.666,61.028 111.426 C 61.028 111.185,61.241 110.988,61.502 110.988 C 61.763 110.988,61.976 110.775,61.976 110.514 C 61.976 110.253,62.190 110.040,62.451 110.040 C 62.711 110.040,62.925 109.897,62.925 109.723 C 62.925 109.313,64.096 108.142,64.506 108.142 C 64.680 108.142,64.822 107.929,64.822 107.668 C 64.822 107.407,65.036 107.194,65.296 107.194 C 65.557 107.194,65.771 106.980,65.771 106.719 C 65.771 106.458,65.984 106.245,66.245 106.245 C 66.506 106.245,66.719 106.110,66.719 105.944 C 66.719 105.551,69.820 102.451,70.213 102.451 C 70.378 102.451,70.514 102.237,70.514 101.976 C 70.514 101.715,70.727 101.502,70.988 101.502 C 71.249 101.502,71.462 101.289,71.462 101.028 C 71.462 100.767,71.676 100.553,71.937 100.553 C 72.198 100.553,72.411 100.340,72.411 100.079 C 72.411 99.818,72.625 99.605,72.885 99.605 C 73.146 99.605,73.360 99.462,73.360 99.289 C 73.360 98.878,74.531 97.708,74.941 97.708 C 75.115 97.708,75.257 97.574,75.257 97.412 C 75.257 97.027,78.687 93.597,79.072 93.597 C 79.235 93.597,79.368 93.383,79.368 93.123 C 79.368 92.862,79.581 92.648,79.842 92.648 C 80.103 92.648,80.316 92.435,80.316 92.174 C 80.316 91.913,80.530 91.700,80.791 91.700 C 81.051 91.700,81.265 91.486,81.265 91.225 C 81.265 90.964,81.478 90.751,81.739 90.751 C 82.000 90.751,82.213 90.538,82.213 90.277 C 82.213 90.016,82.427 89.802,82.688 89.802 C 82.949 89.802,83.162 89.589,83.162 89.328 C 83.162 89.067,83.375 88.854,83.636 88.854 C 83.897 88.854,84.111 88.711,84.111 88.538 C 84.111 88.364,84.395 87.937,84.743 87.589 C 85.091 87.241,85.518 86.957,85.692 86.957 C 85.866 86.957,86.008 86.743,86.008 86.482 C 86.008 86.221,86.221 86.008,86.482 86.008 C 86.743 86.008,86.957 85.794,86.957 85.534 C 86.957 85.273,87.170 85.059,87.431 85.059 C 87.692 85.059,87.905 84.846,87.905 84.585 C 87.905 84.324,88.119 84.111,88.379 84.111 C 88.640 84.111,88.854 83.897,88.854 83.636 C 88.854 83.375,89.067 83.162,89.328 83.162 C 89.589 83.162,89.802 83.020,89.802 82.846 C 89.802 82.672,90.087 82.245,90.435 81.897 C 90.783 81.549,91.209 81.265,91.383 81.265 C 91.557 81.265,91.700 81.051,91.700 80.791 C 91.700 80.530,91.913 80.316,92.174 80.316 C 92.435 80.316,92.648 80.103,92.648 79.842 C 92.648 79.581,92.862 79.368,93.123 79.368 C 93.383 79.368,93.597 79.154,93.597 78.893 C 93.597 78.632,93.810 78.419,94.071 78.419 C 94.332 78.419,94.545 78.269,94.545 78.085 C 94.545 77.575,96.473 75.902,97.628 75.411 C 98.194 75.170,98.656 74.823,98.656 74.641 C 98.656 74.458,98.870 74.308,99.130 74.308 C 99.391 74.308,99.605 74.095,99.605 73.834 C 99.605 73.573,99.818 73.360,100.079 73.360 C 100.340 73.360,100.553 73.146,100.553 72.885 C 100.553 72.625,100.767 72.411,101.028 72.411 C 101.289 72.411,101.502 72.198,101.502 71.937 C 101.502 71.676,101.715 71.462,101.976 71.462 C 102.237 71.462,102.451 71.249,102.451 70.988 C 102.451 70.727,102.664 70.514,102.925 70.514 C 103.186 70.514,103.399 70.300,103.399 70.040 C 103.399 69.779,103.613 69.565,103.874 69.565 C 104.134 69.565,104.348 69.352,104.348 69.091 C 104.348 68.830,104.561 68.617,104.822 68.617 C 105.083 68.617,105.296 68.482,105.296 68.318 C 105.296 67.928,109.351 63.874,109.741 63.874 C 109.905 63.874,110.040 63.660,110.040 63.399 C 110.040 63.138,110.253 62.925,110.514 62.925 C 110.775 62.925,110.988 62.783,110.988 62.609 C 110.988 62.199,112.159 61.028,112.569 61.028 C 112.743 61.028,112.885 60.814,112.885 60.553 C 112.885 60.292,113.082 60.079,113.323 60.079 C 113.563 60.079,113.838 59.780,113.934 59.415 C 114.030 59.049,114.259 58.844,114.445 58.959 C 114.631 59.074,114.783 59.032,114.783 58.866 C 114.783 58.471,119.183 54.071,119.577 54.071 C 119.743 54.071,119.785 53.919,119.671 53.734 C 119.556 53.548,119.761 53.318,120.126 53.222 C 120.492 53.127,120.791 52.852,120.791 52.611 C 120.791 52.371,121.004 52.174,121.265 52.174 C 121.526 52.174,121.739 52.038,121.739 51.873 C 121.739 51.480,124.840 48.379,125.232 48.379 C 125.398 48.379,125.534 48.166,125.534 47.905 C 125.534 47.644,125.747 47.431,126.008 47.431 C 126.269 47.431,126.482 47.297,126.482 47.134 C 126.482 46.746,131.489 41.739,131.877 41.739 C 132.040 41.739,132.174 41.526,132.174 41.265 C 132.174 41.004,132.387 40.791,132.648 40.791 C 132.909 40.791,133.123 40.577,133.123 40.316 C 133.123 40.055,133.336 39.842,133.597 39.842 C 133.858 39.842,134.071 39.710,134.071 39.548 C 134.071 39.165,139.402 33.834,139.785 33.834 C 139.947 33.834,140.079 33.621,140.079 33.360 C 140.079 33.099,140.292 32.885,140.553 32.885 C 140.814 32.885,141.028 32.672,141.028 32.411 C 141.028 32.150,141.241 31.937,141.502 31.937 C 141.763 31.937,141.976 31.723,141.976 31.462 C 141.976 31.202,142.190 30.988,142.451 30.988 C 142.711 30.988,142.925 30.775,142.925 30.514 C 142.925 30.253,143.138 30.040,143.399 30.040 C 143.660 30.040,143.874 29.904,143.874 29.738 C 143.874 29.346,146.974 26.245,147.367 26.245 C 147.532 26.245,147.668 26.108,147.668 25.939 C 147.668 25.542,149.810 23.399,150.208 23.399 C 150.376 23.399,150.514 23.186,150.514 22.925 C 150.514 22.664,150.727 22.451,150.988 22.451 C 151.249 22.451,151.462 22.237,151.462 21.976 C 151.462 21.715,151.605 21.502,151.779 21.502 C 151.953 21.502,152.095 21.715,152.095 21.976 C 152.095 22.237,152.308 22.451,152.569 22.451 C 152.830 22.451,153.043 22.664,153.043 22.925 C 153.043 23.186,153.257 23.399,153.518 23.399 C 153.779 23.399,153.992 23.613,153.992 23.874 C 153.992 24.134,154.206 24.348,154.466 24.348 C 154.727 24.348,154.941 24.561,154.941 24.822 C 154.941 25.083,155.154 25.296,155.415 25.296 C 155.676 25.296,155.889 25.510,155.889 25.771 C 155.889 26.032,156.103 26.245,156.364 26.245 C 156.625 26.245,156.838 26.458,156.838 26.719 C 156.838 26.980,157.051 27.194,157.312 27.194 C 157.573 27.194,157.787 27.407,157.787 27.668 C 157.787 27.929,158.000 28.142,158.261 28.142 C 158.522 28.142,158.735 28.356,158.735 28.617 C 158.735 28.877,158.949 29.091,159.209 29.091 C 159.470 29.091,159.684 29.304,159.684 29.565 C 159.684 29.826,159.862 30.046,160.079 30.053 C 160.296 30.060,160.823 30.487,161.250 31.002 C 161.677 31.516,162.210 31.937,162.436 31.937 C 162.661 31.937,162.810 32.043,162.767 32.174 C 162.664 32.482,164.016 33.834,164.427 33.834 C 164.601 33.834,164.743 34.047,164.743 34.308 C 164.743 34.569,164.957 34.783,165.217 34.783 C 165.478 34.783,165.692 34.996,165.692 35.257 C 165.692 35.518,165.889 35.731,166.129 35.731 C 166.370 35.731,166.633 35.984,166.713 36.293 C 166.794 36.602,167.150 36.876,167.503 36.903 C 168.155 36.952,171.383 39.936,171.383 40.489 C 171.383 40.655,171.597 40.791,171.858 40.791 C 172.119 40.791,172.332 41.004,172.332 41.265 C 172.332 41.526,172.545 41.739,172.806 41.739 C 173.067 41.739,173.281 41.953,173.281 42.213 C 173.281 42.474,173.494 42.688,173.755 42.688 C 174.016 42.688,174.229 42.901,174.229 43.162 C 174.229 43.423,174.443 43.636,174.704 43.636 C 174.964 43.636,175.178 43.850,175.178 44.111 C 175.178 44.372,175.391 44.585,175.652 44.585 C 175.913 44.585,176.126 44.798,176.126 45.059 C 176.126 45.320,176.340 45.534,176.601 45.534 C 176.862 45.534,177.075 45.747,177.075 46.008 C 177.075 46.269,177.214 46.482,177.384 46.482 C 177.553 46.482,178.753 47.549,180.049 48.854 C 181.344 50.158,182.557 51.225,182.744 51.225 C 182.930 51.225,183.047 51.332,183.004 51.462 C 182.901 51.771,184.253 53.123,184.664 53.123 C 184.838 53.123,184.980 53.336,184.980 53.597 C 184.980 53.858,185.194 54.071,185.455 54.071 C 185.715 54.071,185.929 54.285,185.929 54.545 C 185.929 54.806,186.142 55.020,186.403 55.020 C 186.664 55.020,186.877 55.233,186.877 55.494 C 186.877 55.755,187.091 55.968,187.352 55.968 C 187.613 55.968,187.826 56.128,187.826 56.323 C 187.826 56.517,188.466 57.290,189.249 58.040 C 190.032 58.790,190.672 59.555,190.672 59.741 C 190.672 59.927,190.885 60.079,191.146 60.079 C 191.407 60.079,191.621 60.292,191.621 60.553 C 191.621 60.814,191.834 61.028,192.095 61.028 C 192.356 61.028,192.569 61.241,192.569 61.502 C 192.569 61.763,192.783 61.976,193.043 61.976 C 193.304 61.976,193.518 62.190,193.518 62.451 C 193.518 62.711,193.731 62.925,193.992 62.925 C 194.253 62.925,194.466 63.138,194.466 63.399 C 194.466 63.660,194.680 63.874,194.941 63.874 C 195.202 63.874,195.415 64.087,195.415 64.348 C 195.415 64.609,195.628 64.822,195.889 64.822 C 196.150 64.822,196.364 65.036,196.364 65.296 C 196.364 65.557,196.577 65.771,196.838 65.771 C 197.099 65.771,197.312 65.984,197.312 66.245 C 197.312 66.506,197.526 66.719,197.787 66.719 C 198.047 66.719,198.261 66.933,198.261 67.194 C 198.261 67.455,198.474 67.668,198.735 67.668 C 198.996 67.668,199.209 67.881,199.209 68.142 C 199.209 68.403,199.427 68.617,199.694 68.617 C 199.960 68.617,200.260 68.830,200.360 69.091 C 200.460 69.352,200.740 69.565,200.982 69.565 C 201.225 69.565,201.387 69.677,201.344 69.813 C 201.235 70.157,203.458 72.411,203.905 72.411 C 204.105 72.411,204.269 72.625,204.269 72.885 C 204.269 73.146,204.482 73.360,204.743 73.360 C 205.004 73.360,205.217 73.573,205.217 73.834 C 205.217 74.095,205.431 74.308,205.692 74.308 C 205.953 74.308,206.166 74.522,206.166 74.783 C 206.166 75.043,206.379 75.257,206.640 75.257 C 206.901 75.257,207.115 75.394,207.115 75.561 C 207.115 75.729,207.968 76.730,209.012 77.787 C 210.055 78.843,210.909 79.853,210.909 80.031 C 210.909 80.208,211.061 80.260,211.247 80.145 C 211.432 80.030,211.662 80.235,211.758 80.601 C 211.853 80.966,212.128 81.265,212.369 81.265 C 212.609 81.265,212.806 81.478,212.806 81.739 C 212.806 82.000,213.020 82.213,213.281 82.213 C 213.542 82.213,213.755 82.427,213.755 82.688 C 213.755 82.949,213.968 83.162,214.229 83.162 C 214.490 83.162,214.704 83.375,214.704 83.636 C 214.704 83.897,214.917 84.111,215.178 84.111 C 215.439 84.111,215.652 84.324,215.652 84.585 C 215.652 84.846,215.866 85.059,216.126 85.059 C 216.387 85.059,216.601 85.273,216.601 85.534 C 216.601 85.794,216.814 86.008,217.075 86.008 C 217.336 86.008,217.549 86.221,217.549 86.482 C 217.549 86.743,217.763 86.957,218.024 86.957 C 218.285 86.957,218.498 87.170,218.498 87.431 C 218.498 87.692,218.690 87.905,218.925 87.905 C 219.160 87.905,219.679 88.332,220.079 88.854 C 220.479 89.375,220.998 89.802,221.233 89.802 C 221.468 89.802,221.625 89.920,221.581 90.064 C 221.483 90.388,223.770 92.648,224.195 92.648 C 224.366 92.648,224.506 92.862,224.506 93.123 C 224.506 93.383,224.719 93.597,224.980 93.597 C 225.241 93.597,225.455 93.739,225.455 93.913 C 225.455 94.323,226.625 95.494,227.036 95.494 C 227.209 95.494,227.352 95.708,227.352 95.968 C 227.352 96.229,227.565 96.443,227.826 96.443 C 228.087 96.443,228.300 96.590,228.300 96.770 C 228.300 96.949,228.727 97.514,229.249 98.024 C 229.771 98.534,230.198 99.098,230.198 99.278 C 230.198 99.458,230.411 99.605,230.672 99.605 C 230.933 99.605,231.146 99.818,231.146 100.079 C 231.146 100.340,231.360 100.553,231.621 100.553 C 231.881 100.553,232.095 100.767,232.095 101.028 C 232.095 101.289,232.308 101.502,232.569 101.502 C 232.830 101.502,233.043 101.715,233.043 101.976 C 233.043 102.237,233.257 102.451,233.518 102.451 C 233.779 102.451,233.992 102.664,233.992 102.925 C 233.992 103.186,234.206 103.399,234.466 103.399 C 234.727 103.399,234.941 103.613,234.941 103.874 C 234.941 104.134,235.154 104.348,235.415 104.348 C 235.676 104.348,235.889 104.561,235.889 104.822 C 235.889 105.083,236.103 105.296,236.364 105.296 C 236.625 105.296,236.838 105.510,236.838 105.771 C 236.838 106.032,237.051 106.245,237.312 106.245 C 237.573 106.245,237.787 106.442,237.787 106.682 C 237.787 106.923,238.085 107.198,238.451 107.294 C 238.817 107.389,239.021 107.619,238.906 107.805 C 238.784 108.002,238.968 108.142,239.349 108.142 C 239.707 108.142,240.000 108.292,240.000 108.474 C 240.000 108.929,242.033 110.988,242.483 110.988 C 242.682 110.988,242.810 111.095,242.767 111.225 C 242.664 111.534,244.016 112.885,244.427 112.885 C 244.601 112.885,244.743 113.028,244.743 113.202 C 244.743 113.592,245.906 114.783,246.287 114.783 C 246.441 114.783,246.645 115.082,246.740 115.447 C 246.836 115.813,247.066 116.017,247.251 115.902 C 247.437 115.788,247.589 115.849,247.589 116.039 C 247.589 116.229,248.016 116.802,248.538 117.312 C 249.059 117.822,249.486 118.387,249.486 118.566 C 249.486 118.746,249.628 118.893,249.802 118.893 C 250.212 118.893,251.383 120.064,251.383 120.474 C 251.383 120.648,251.597 120.791,251.858 120.791 C 252.119 120.791,252.332 121.004,252.332 121.265 C 252.332 121.526,252.545 121.739,252.806 121.739 C 253.067 121.739,253.281 121.953,253.281 122.213 C 253.281 122.474,253.494 122.688,253.755 122.688 C 254.016 122.688,254.229 122.901,254.229 123.162 C 254.229 123.423,254.443 123.636,254.704 123.636 C 254.964 123.636,255.178 123.850,255.178 124.111 C 255.178 124.427,255.494 124.585,256.126 124.585 C 256.759 124.585,257.075 124.743,257.075 125.059 C 257.075 125.320,257.212 125.534,257.379 125.534 C 257.547 125.534,258.548 126.387,259.605 127.431 C 260.661 128.474,261.671 129.328,261.849 129.328 C 262.026 129.328,262.083 129.472,261.975 129.647 C 261.866 129.822,262.107 130.098,262.509 130.259 C 262.912 130.421,263.114 130.562,262.958 130.573 C 262.590 130.599,264.285 132.174,264.680 132.174 C 264.845 132.174,264.980 132.387,264.980 132.648 C 264.980 133.069,272.613 133.114,332.095 133.044 L 399.209 132.966 333.049 132.885 L 266.889 132.805 260.796 126.789 C 257.445 123.481,254.561 120.642,254.387 120.480 C 254.213 120.319,252.791 118.900,251.225 117.328 C 242.024 108.085,223.741 90.119,223.536 90.119 C 223.403 90.119,223.246 89.982,223.188 89.815 C 223.076 89.492,216.324 82.530,216.123 82.530 C 216.057 82.530,212.486 79.043,208.186 74.783 C 203.886 70.522,200.250 67.036,200.105 67.036 C 199.960 67.036,199.842 66.899,199.842 66.732 C 199.842 66.565,199.165 65.795,198.337 65.021 C 197.509 64.246,192.493 59.321,187.191 54.075 C 148.546 15.845,152.085 19.061,150.498 20.727 M149.249 50.435 C 149.249 50.696,149.036 50.909,148.775 50.909 C 148.514 50.909,148.300 51.123,148.300 51.383 C 148.300 51.644,148.087 51.858,147.826 51.858 C 147.565 51.858,147.352 52.071,147.352 52.332 C 147.352 52.593,147.138 52.806,146.877 52.806 C 146.617 52.806,146.403 53.020,146.403 53.281 C 146.403 53.542,146.190 53.755,145.929 53.755 C 145.668 53.755,145.455 53.968,145.455 54.229 C 145.455 54.490,145.241 54.704,144.980 54.704 C 144.719 54.704,144.506 54.917,144.506 55.178 C 144.506 55.439,144.387 55.652,144.241 55.652 C 143.825 55.652,139.447 59.938,139.447 60.346 C 139.447 60.547,139.329 60.676,139.186 60.632 C 138.861 60.534,136.601 62.821,136.601 63.247 C 136.601 63.418,136.387 63.557,136.126 63.557 C 135.866 63.557,135.652 63.771,135.652 64.032 C 135.652 64.292,135.439 64.506,135.178 64.506 C 134.917 64.506,134.704 64.719,134.704 64.980 C 134.704 65.241,134.490 65.455,134.229 65.455 C 133.968 65.455,133.755 65.668,133.755 65.929 C 133.755 66.190,133.542 66.403,133.281 66.403 C 133.020 66.403,132.806 66.617,132.806 66.877 C 132.806 67.138,132.593 67.352,132.332 67.352 C 132.071 67.352,131.858 67.565,131.858 67.826 C 131.858 68.087,131.644 68.300,131.383 68.300 C 131.123 68.300,130.909 68.443,130.909 68.617 C 130.909 69.027,129.738 70.198,129.328 70.198 C 129.154 70.198,129.012 70.411,129.012 70.672 C 129.012 70.933,128.798 71.146,128.538 71.146 C 128.277 71.146,128.063 71.360,128.063 71.621 C 128.063 71.881,127.850 72.095,127.589 72.095 C 127.328 72.095,127.115 72.308,127.115 72.569 C 127.115 72.830,126.901 73.043,126.640 73.043 C 126.379 73.043,126.166 73.257,126.166 73.518 C 126.166 73.779,125.953 73.992,125.692 73.992 C 125.431 73.992,125.217 74.206,125.217 74.466 C 125.217 74.727,125.004 74.941,124.743 74.941 C 124.482 74.941,124.269 75.154,124.269 75.415 C 124.269 75.676,124.117 75.889,123.931 75.889 C 123.505 75.889,116.364 83.053,116.364 83.480 C 116.364 83.653,116.150 83.794,115.889 83.794 C 115.628 83.794,115.415 83.937,115.415 84.111 C 115.415 84.285,115.130 84.711,114.783 85.059 C 114.435 85.407,114.008 85.692,113.834 85.692 C 113.660 85.692,113.518 85.905,113.518 86.166 C 113.518 86.427,113.304 86.640,113.043 86.640 C 112.783 86.640,112.569 86.854,112.569 87.115 C 112.569 87.375,112.356 87.589,112.095 87.589 C 111.834 87.589,111.621 87.802,111.621 88.063 C 111.621 88.324,111.407 88.538,111.146 88.538 C 110.885 88.538,110.672 88.751,110.672 89.012 C 110.672 89.273,110.458 89.486,110.198 89.486 C 109.937 89.486,109.723 89.700,109.723 89.960 C 109.723 90.221,109.510 90.435,109.249 90.435 C 108.988 90.435,108.775 90.648,108.775 90.909 C 108.775 91.170,108.561 91.383,108.300 91.383 C 108.040 91.383,107.826 91.597,107.826 91.858 C 107.826 92.174,107.510 92.332,106.877 92.332 C 106.245 92.332,105.929 92.490,105.929 92.806 C 105.929 93.067,105.715 93.281,105.455 93.281 C 105.194 93.281,104.980 93.494,104.980 93.755 C 104.980 94.016,104.847 94.229,104.684 94.229 C 104.251 94.229,98.972 99.447,98.972 99.875 C 98.972 100.074,98.855 100.202,98.711 100.158 C 98.387 100.060,96.126 102.347,96.126 102.773 C 96.126 102.943,95.913 103.083,95.652 103.083 C 95.391 103.083,95.178 103.296,95.178 103.557 C 95.178 103.818,94.964 104.032,94.704 104.032 C 94.443 104.032,94.229 104.245,94.229 104.506 C 94.229 104.767,94.016 104.980,93.755 104.980 C 93.494 104.980,93.281 105.194,93.281 105.455 C 93.281 105.715,93.067 105.929,92.806 105.929 C 92.545 105.929,92.332 106.142,92.332 106.403 C 92.332 106.664,92.119 106.877,91.858 106.877 C 91.597 106.877,91.383 107.091,91.383 107.352 C 91.383 107.613,91.170 107.826,90.909 107.826 C 90.648 107.826,90.435 107.968,90.435 108.142 C 90.435 108.316,90.150 108.743,89.802 109.091 C 89.455 109.439,89.028 109.723,88.854 109.723 C 88.680 109.723,88.538 109.937,88.538 110.198 C 88.538 110.458,88.324 110.672,88.063 110.672 C 87.802 110.672,87.589 110.885,87.589 111.146 C 87.589 111.407,87.375 111.621,87.115 111.621 C 86.854 111.621,86.640 111.834,86.640 112.095 C 86.640 112.356,86.427 112.569,86.166 112.569 C 85.905 112.569,85.692 112.783,85.692 113.043 C 85.692 113.304,85.478 113.518,85.217 113.518 C 84.957 113.518,84.743 113.731,84.743 113.992 C 84.743 114.253,84.600 114.466,84.426 114.466 C 84.029 114.466,75.889 122.631,75.889 123.029 C 75.889 123.189,75.676 123.320,75.415 123.320 C 75.154 123.320,74.941 123.534,74.941 123.794 C 74.941 124.055,74.727 124.269,74.466 124.269 C 74.206 124.269,73.992 124.482,73.992 124.743 C 73.992 125.004,73.779 125.217,73.518 125.217 C 73.257 125.217,73.043 125.431,73.043 125.692 C 73.043 125.953,72.830 126.166,72.569 126.166 C 72.308 126.166,72.095 126.379,72.095 126.640 C 72.095 126.901,71.881 127.115,71.621 127.115 C 71.360 127.115,71.146 127.328,71.146 127.589 C 71.146 127.850,70.933 128.063,70.672 128.063 C 70.411 128.063,70.198 128.277,70.198 128.538 C 70.198 128.798,69.984 129.012,69.723 129.012 C 69.462 129.012,69.249 129.225,69.249 129.486 C 69.249 129.747,69.036 129.960,68.775 129.960 C 68.514 129.960,68.300 130.174,68.300 130.435 C 68.300 130.696,68.087 130.909,67.826 130.909 C 67.565 130.909,67.352 131.123,67.352 131.383 C 67.352 131.644,67.138 131.858,66.877 131.858 C 66.617 131.858,66.403 132.071,66.403 132.332 C 66.403 132.593,66.190 132.806,65.929 132.806 C 65.582 132.806,65.455 133.167,65.455 134.152 L 65.455 135.497 73.604 127.432 C 78.086 122.997,91.782 109.480,104.039 97.396 C 136.634 65.259,148.898 53.123,150.813 51.107 L 151.903 49.960 150.576 49.960 C 149.607 49.960,149.249 50.089,149.249 50.435 M162.534 60.479 C 168.363 66.259,183.090 80.802,195.261 92.797 C 207.433 104.793,222.016 119.189,227.668 124.789 C 233.320 130.390,242.405 139.358,247.857 144.719 L 257.769 154.466 295.446 154.625 L 333.123 154.783 333.222 186.087 C 333.327 219.201,333.276 220.636,331.869 224.663 C 329.739 230.761,324.486 235.931,317.945 238.369 C 315.222 239.384,313.019 239.481,290.435 239.581 L 267.668 239.683 267.588 277.628 C 267.534 302.869,267.614 315.573,267.825 315.573 C 268.036 315.573,268.142 302.920,268.142 277.945 L 268.142 240.316 292.468 240.316 C 313.668 240.316,316.854 240.255,317.267 239.842 C 317.528 239.581,318.168 239.368,318.690 239.368 C 319.212 239.368,319.852 239.154,320.113 238.893 C 320.374 238.632,320.886 238.419,321.252 238.419 C 321.618 238.419,321.999 238.206,322.099 237.945 C 322.199 237.684,322.626 237.470,323.048 237.470 C 323.469 237.470,323.896 237.257,323.996 236.996 C 324.096 236.735,324.451 236.522,324.784 236.522 C 325.406 236.522,328.854 233.313,328.854 232.734 C 328.854 232.556,329.067 232.411,329.328 232.411 C 329.644 232.411,329.802 232.095,329.802 231.462 C 329.802 230.830,329.960 230.514,330.277 230.514 C 330.538 230.514,330.751 230.300,330.751 230.040 C 330.751 229.779,330.964 229.565,331.225 229.565 C 331.577 229.565,331.700 229.196,331.700 228.142 C 331.700 227.088,331.823 226.719,332.174 226.719 C 332.490 226.719,332.648 226.403,332.648 225.771 C 332.648 225.138,332.806 224.822,333.123 224.822 C 333.541 224.822,333.597 220.676,333.597 189.407 L 333.597 153.992 296.771 153.992 L 259.945 153.992 258.024 152.095 C 256.967 151.051,255.966 150.198,255.798 150.198 C 255.631 150.198,255.494 149.984,255.494 149.723 C 255.494 149.462,255.281 149.249,255.020 149.249 C 254.759 149.249,254.545 149.036,254.545 148.775 C 254.545 148.514,254.332 148.300,254.071 148.300 C 253.810 148.300,253.597 148.087,253.597 147.826 C 253.597 147.565,253.383 147.352,253.123 147.352 C 252.862 147.352,252.648 147.138,252.648 146.877 C 252.648 146.617,252.435 146.403,252.174 146.403 C 251.913 146.403,251.700 146.190,251.700 145.929 C 251.700 145.668,251.486 145.455,251.225 145.455 C 250.964 145.455,250.751 145.241,250.751 144.980 C 250.751 144.719,250.538 144.506,250.277 144.506 C 250.016 144.506,249.802 144.292,249.802 144.032 C 249.802 143.771,249.589 143.557,249.328 143.557 C 249.067 143.557,248.854 143.344,248.854 143.083 C 248.854 142.822,248.640 142.609,248.379 142.609 C 248.119 142.609,247.905 142.474,247.905 142.309 C 247.905 141.805,246.441 140.395,245.917 140.395 C 245.646 140.395,243.273 138.261,240.643 135.652 C 238.013 133.043,235.725 130.909,235.559 130.909 C 235.393 130.909,235.257 130.696,235.257 130.435 C 235.257 130.174,235.043 129.960,234.783 129.960 C 234.522 129.960,234.308 129.747,234.308 129.486 C 234.308 129.225,234.095 129.012,233.834 129.012 C 233.573 129.012,233.360 128.798,233.360 128.538 C 233.360 128.277,233.146 128.063,232.885 128.063 C 232.625 128.063,232.411 127.850,232.411 127.589 C 232.411 127.328,232.198 127.115,231.937 127.115 C 231.676 127.115,231.462 126.901,231.462 126.640 C 231.462 126.379,231.249 126.166,230.988 126.166 C 230.727 126.166,230.514 125.953,230.514 125.692 C 230.514 125.431,230.300 125.217,230.040 125.217 C 229.779 125.217,229.565 125.004,229.565 124.743 C 229.565 124.482,229.352 124.269,229.091 124.269 C 228.830 124.269,228.617 124.055,228.617 123.794 C 228.617 123.534,228.403 123.320,228.142 123.320 C 227.881 123.320,227.668 123.192,227.668 123.036 C 227.668 122.650,225.357 120.321,225.059 120.407 C 224.929 120.444,224.822 120.322,224.822 120.135 C 224.822 119.705,215.771 110.672,215.340 110.672 C 215.164 110.672,215.020 110.458,215.020 110.198 C 215.020 109.937,214.806 109.723,214.545 109.723 C 214.285 109.723,214.071 109.510,214.071 109.249 C 214.071 108.988,213.858 108.775,213.597 108.775 C 213.336 108.775,213.123 108.561,213.123 108.300 C 213.123 108.040,212.909 107.826,212.648 107.826 C 212.387 107.826,212.174 107.613,212.174 107.352 C 212.174 107.091,211.960 106.877,211.700 106.877 C 211.439 106.877,211.225 106.664,211.225 106.403 C 211.225 106.142,211.012 105.929,210.751 105.929 C 210.490 105.929,210.277 105.715,210.277 105.455 C 210.277 105.194,210.063 104.980,209.802 104.980 C 209.542 104.980,209.328 104.767,209.328 104.506 C 209.328 104.245,209.115 104.032,208.854 104.032 C 208.593 104.032,208.379 103.818,208.379 103.557 C 208.379 103.296,208.166 103.083,207.905 103.083 C 207.644 103.083,207.431 102.934,207.431 102.752 C 207.431 102.318,196.497 91.383,196.064 91.383 C 195.881 91.383,195.731 91.170,195.731 90.909 C 195.731 90.648,195.518 90.435,195.257 90.435 C 194.996 90.435,194.783 90.221,194.783 89.960 C 194.783 89.700,194.569 89.486,194.308 89.486 C 194.047 89.486,193.834 89.273,193.834 89.012 C 193.834 88.751,193.621 88.538,193.360 88.538 C 193.099 88.538,192.885 88.324,192.885 88.063 C 192.885 87.802,192.672 87.589,192.411 87.589 C 192.150 87.589,191.937 87.375,191.937 87.115 C 191.937 86.854,191.723 86.640,191.462 86.640 C 191.202 86.640,190.988 86.427,190.988 86.166 C 190.988 85.905,190.775 85.692,190.514 85.692 C 190.253 85.692,190.040 85.478,190.040 85.217 C 190.040 84.957,189.826 84.743,189.565 84.743 C 189.304 84.743,189.091 84.530,189.091 84.269 C 189.091 84.008,188.877 83.794,188.617 83.794 C 188.356 83.794,188.142 83.657,188.142 83.489 C 188.142 83.086,185.839 80.776,185.534 80.873 C 185.403 80.915,185.296 80.789,185.296 80.594 C 185.296 80.151,176.266 71.146,175.820 71.146 C 175.641 71.146,175.494 70.933,175.494 70.672 C 175.494 70.356,175.178 70.198,174.545 70.198 C 173.913 70.198,173.597 70.040,173.597 69.723 C 173.597 69.462,173.383 69.249,173.123 69.249 C 172.862 69.249,172.648 69.036,172.648 68.775 C 172.648 68.514,172.435 68.300,172.174 68.300 C 171.913 68.300,171.700 68.087,171.700 67.826 C 171.700 67.565,171.486 67.352,171.225 67.352 C 170.964 67.352,170.751 67.138,170.751 66.877 C 170.751 66.617,170.538 66.403,170.277 66.403 C 170.016 66.403,169.802 66.190,169.802 65.929 C 169.802 65.668,169.589 65.455,169.328 65.455 C 169.067 65.455,168.854 65.241,168.854 64.980 C 168.854 64.719,168.640 64.506,168.379 64.506 C 168.119 64.506,167.905 64.292,167.905 64.032 C 167.905 63.771,167.692 63.557,167.431 63.557 C 167.170 63.557,166.957 63.409,166.957 63.228 C 166.957 62.795,156.025 51.858,155.592 51.858 C 155.408 51.858,155.257 51.644,155.257 51.383 C 155.257 51.123,155.043 50.909,154.783 50.909 C 154.522 50.909,154.308 50.696,154.308 50.435 C 154.308 50.097,153.968 49.962,153.123 49.965 C 151.940 49.970,151.962 49.995,162.534 60.479 M65.530 180.316 C 65.463 219.700,65.509 224.822,65.929 224.822 C 66.280 224.822,66.403 225.191,66.403 226.245 C 66.403 227.299,66.526 227.668,66.877 227.668 C 67.194 227.668,67.352 227.984,67.352 228.617 C 67.352 229.249,67.510 229.565,67.826 229.565 C 68.142 229.565,68.300 229.881,68.300 230.514 C 68.300 231.146,68.458 231.462,68.775 231.462 C 69.036 231.462,69.249 231.676,69.249 231.937 C 69.249 232.198,69.462 232.411,69.723 232.411 C 69.984 232.411,70.198 232.542,70.198 232.701 C 70.198 233.077,72.721 235.709,72.747 235.362 C 72.758 235.217,72.896 235.419,73.053 235.810 C 73.240 236.274,73.606 236.522,74.106 236.522 C 74.528 236.522,74.955 236.735,75.055 236.996 C 75.155 237.257,75.582 237.470,76.004 237.470 C 76.425 237.470,76.852 237.684,76.952 237.945 C 77.052 238.206,77.434 238.419,77.799 238.419 C 78.165 238.419,78.678 238.632,78.938 238.893 C 79.199 239.154,79.840 239.368,80.361 239.368 C 80.883 239.368,81.523 239.581,81.784 239.842 C 82.202 240.260,88.598 240.316,135.517 240.316 C 182.646 240.316,188.775 240.371,188.775 240.791 C 188.775 241.051,188.917 241.265,189.091 241.265 C 189.501 241.265,190.672 242.436,190.672 242.846 C 190.672 243.020,190.814 243.162,190.988 243.162 C 191.398 243.162,192.569 244.333,192.569 244.743 C 192.569 244.917,192.783 245.059,193.043 245.059 C 193.304 245.059,193.518 245.273,193.518 245.534 C 193.518 245.794,193.731 246.008,193.992 246.008 C 194.253 246.008,194.466 246.221,194.466 246.482 C 194.466 246.743,194.680 246.957,194.941 246.957 C 195.202 246.957,195.415 247.170,195.415 247.431 C 195.415 247.692,195.628 247.905,195.889 247.905 C 196.150 247.905,196.364 248.119,196.364 248.379 C 196.364 248.640,196.577 248.854,196.838 248.854 C 197.099 248.854,197.312 249.067,197.312 249.328 C 197.312 249.589,197.526 249.802,197.787 249.802 C 198.047 249.802,198.261 250.016,198.261 250.277 C 198.261 250.538,198.474 250.751,198.735 250.751 C 198.996 250.751,199.209 250.948,199.209 251.188 C 199.209 251.429,199.508 251.704,199.874 251.800 C 200.239 251.895,200.444 252.125,200.329 252.311 C 200.215 252.496,200.307 252.658,200.535 252.671 C 200.762 252.684,201.518 253.385,202.213 254.229 C 202.909 255.074,203.656 255.775,203.874 255.787 C 204.091 255.800,204.269 256.024,204.269 256.285 C 204.269 256.545,204.482 256.759,204.743 256.759 C 205.004 256.759,205.217 256.972,205.217 257.233 C 205.217 257.494,205.431 257.708,205.692 257.708 C 205.953 257.708,206.166 257.921,206.166 258.182 C 206.166 258.443,206.379 258.656,206.640 258.656 C 206.901 258.656,207.115 258.870,207.115 259.130 C 207.115 259.391,207.328 259.605,207.589 259.605 C 207.850 259.605,208.063 259.818,208.063 260.079 C 208.063 260.340,208.206 260.553,208.379 260.553 C 208.553 260.553,208.980 260.838,209.328 261.186 C 209.676 261.534,209.960 261.960,209.960 262.134 C 209.960 262.308,210.174 262.451,210.435 262.451 C 210.696 262.451,210.909 262.664,210.909 262.925 C 210.909 263.186,211.123 263.399,211.383 263.399 C 211.644 263.399,211.858 263.613,211.858 263.874 C 211.858 264.134,212.000 264.348,212.174 264.348 C 212.348 264.348,212.775 264.632,213.123 264.980 C 213.470 265.328,213.755 265.755,213.755 265.929 C 213.755 266.103,213.968 266.245,214.229 266.245 C 214.490 266.245,214.704 266.458,214.704 266.719 C 214.704 266.980,214.917 267.194,215.178 267.194 C 215.439 267.194,215.652 267.407,215.652 267.668 C 215.652 267.929,215.866 268.142,216.126 268.142 C 216.387 268.142,216.601 268.356,216.601 268.617 C 216.601 268.877,216.814 269.091,217.075 269.091 C 217.336 269.091,217.549 269.304,217.549 269.565 C 217.549 269.826,217.763 270.040,218.024 270.040 C 218.285 270.040,218.498 270.253,218.498 270.514 C 218.498 270.775,218.711 270.988,218.972 270.988 C 219.233 270.988,219.447 271.185,219.447 271.426 C 219.447 271.666,219.746 271.941,220.111 272.037 C 220.477 272.132,220.681 272.362,220.567 272.548 C 220.452 272.734,220.487 272.885,220.645 272.885 C 221.007 272.885,224.506 276.367,224.506 276.728 C 224.506 276.875,224.719 276.996,224.980 276.996 C 225.241 276.996,225.455 277.209,225.455 277.470 C 225.455 277.731,225.668 277.945,225.929 277.945 C 226.190 277.945,226.403 278.158,226.403 278.419 C 226.403 278.735,226.719 278.893,227.352 278.893 C 227.984 278.893,228.300 279.051,228.300 279.368 C 228.300 279.628,228.514 279.842,228.775 279.842 C 229.036 279.842,229.249 280.055,229.249 280.316 C 229.249 280.577,229.462 280.791,229.723 280.791 C 229.984 280.791,230.198 281.004,230.198 281.265 C 230.198 281.526,230.411 281.739,230.672 281.739 C 230.933 281.739,231.146 281.953,231.146 282.213 C 231.146 282.474,231.360 282.688,231.621 282.688 C 231.881 282.688,232.095 282.901,232.095 283.162 C 232.095 283.423,232.308 283.636,232.569 283.636 C 232.830 283.636,233.043 283.850,233.043 284.111 C 233.043 284.372,233.257 284.585,233.518 284.585 C 233.779 284.585,233.992 284.798,233.992 285.059 C 233.992 285.320,234.206 285.534,234.466 285.534 C 234.727 285.534,234.941 285.747,234.941 286.008 C 234.941 286.269,235.154 286.482,235.415 286.482 C 235.676 286.482,235.889 286.696,235.889 286.957 C 235.889 287.217,236.103 287.431,236.364 287.431 C 236.625 287.431,236.838 287.644,236.838 287.905 C 236.838 288.166,237.051 288.379,237.312 288.379 C 237.573 288.379,237.787 288.593,237.787 288.854 C 237.787 289.115,238.000 289.328,238.261 289.328 C 238.522 289.328,238.735 289.542,238.735 289.802 C 238.735 290.063,238.949 290.277,239.209 290.277 C 239.470 290.277,239.684 290.490,239.684 290.751 C 239.684 291.012,239.826 291.225,240.000 291.225 C 240.354 291.225,243.777 294.727,243.788 295.099 C 243.791 295.229,244.008 295.336,244.269 295.336 C 244.530 295.336,244.743 295.558,244.743 295.829 C 244.743 296.100,244.895 296.228,245.081 296.113 C 245.266 295.998,245.496 296.203,245.592 296.569 C 245.687 296.934,245.962 297.233,246.203 297.233 C 246.443 297.233,246.640 297.447,246.640 297.708 C 246.640 297.968,246.854 298.182,247.115 298.182 C 247.375 298.182,247.589 298.395,247.589 298.656 C 247.589 298.917,247.802 299.130,248.063 299.130 C 248.324 299.130,248.538 299.344,248.538 299.605 C 248.538 299.866,248.719 300.079,248.942 300.079 C 249.395 300.079,250.435 301.183,250.435 301.664 C 250.435 301.836,250.577 301.976,250.751 301.976 C 251.161 301.976,252.332 303.147,252.332 303.557 C 252.332 303.731,252.474 303.874,252.648 303.874 C 252.822 303.874,253.249 304.158,253.597 304.506 C 253.945 304.854,254.229 305.281,254.229 305.455 C 254.229 305.628,254.443 305.771,254.704 305.771 C 254.964 305.771,255.178 305.984,255.178 306.245 C 255.178 306.506,255.391 306.719,255.652 306.719 C 255.913 306.719,256.126 306.933,256.126 307.194 C 256.126 307.455,256.340 307.668,256.601 307.668 C 256.862 307.668,257.075 307.881,257.075 308.142 C 257.075 308.403,257.289 308.617,257.549 308.617 C 257.810 308.617,258.024 308.830,258.024 309.091 C 258.024 309.352,258.237 309.565,258.498 309.565 C 258.759 309.565,258.972 309.779,258.972 310.040 C 258.972 310.300,259.186 310.514,259.447 310.514 C 259.708 310.514,259.921 310.727,259.921 310.988 C 259.921 311.249,260.134 311.462,260.395 311.462 C 260.656 311.462,260.870 311.676,260.870 311.937 C 260.870 312.198,260.993 312.411,261.145 312.411 C 261.296 312.411,262.286 313.274,263.344 314.329 C 265.014 315.994,265.404 316.234,266.294 316.148 C 267.291 316.050,267.033 315.766,256.742 305.619 C 250.925 299.883,240.241 289.301,233.000 282.102 C 225.758 274.903,219.663 268.909,219.456 268.780 C 219.248 268.652,213.434 262.935,206.535 256.076 C 199.636 249.218,193.055 242.723,191.909 241.644 L 189.825 239.682 137.838 239.579 C 100.750 239.506,85.306 239.374,83.953 239.118 C 75.696 237.554,68.916 231.328,66.491 223.083 C 65.974 221.324,65.921 218.072,65.769 178.498 L 65.605 135.810 65.530 180.316 " stroke="none" fill="#dedfdb" fill-rule="evenodd"></path></g></svg>