<svg xmlns="http://www.w3.org/2000/svg" fillRule="evenodd" clipRule="evenodd" viewBox="0 0 5080 2540">
    <path d="M1013 1393H753c8-20 32-54 44-71 23-31 45-23 88-23 106 0 128-15 130 32 0 20-1 43-2 62zm0-210c-24 10-95 6-125 4-3-17 46-83 58-101 23-35 48-87 73-92 0 36 3 165-6 189zm-79-393c15 11 35 33 43 48-31 39-65 96-95 140-32 48-62 93-94 139l-168 247c-9 14-13 26-27 29H411c0-44 7-158-3-191-15-19-17-11-35-23 0-27 25-34 64-62 24-18 52-34 72-50l-2-143 52-1 2 105 373-238zM586 978c-5-43 7-25 7-80l-118-1c0 57 8 81 5 153l-133 94c-1 52-10 57 36 69v206c46 6 650 2 749 2 30 0 34-5 34-35 0-73 6-520-4-553-27-9-118-5-155-5-19-24-44-49-62-74-22 7-69 40-90 54-62 38-218 143-269 170zM1371 1044l-3-59c-27-6-99-7-123 0-10 25-10 404 0 432 23 6 103 10 124-1 16-23 8-155 8-193 0-73-21-144 62-147 85-4 66 69 66 142 0 40-9 174 7 198 22 11 102 7 126 1 10-29 4-156 4-199 0-71-18-137 59-142 87-6 69 62 69 132 0 39-6 179 3 203 19 15 100 18 125 5 18-23 9-149 9-188 0-53 8-149-12-190-19-40-75-68-135-66-72 2-103 32-130 72-19-22-21-34-46-50-52-33-108-27-158 4-20 13-44 42-55 46zM3106 1043c0-24 6-43-11-59-26-9-89-6-116 2-8 28-8 405 1 430 23 7 101 11 123 0 21-23 10-154 10-193 0-72-21-143 60-147 86-4 67 64 67 137 0 45-6 173 5 204 25 6 102 6 127 0 13-32 6-151 6-199 0-73-20-143 66-142 82 0 62 75 62 147 0 29-8 184 11 195 26 8 95 6 120-2 9-32 4-149 4-193 0-103 33-253-142-251-84 1-104 37-134 70l-5-5c-3-4-4-5-7-9-65-83-166-63-218-10-6 7-5 7-11 13l-18 12zM3996 1213c1 47 0 81-28 109-74 76-169-30-83-83 25-15 77-27 111-26zm-261-94c25 12 82 3 112 3 13-39 29-65 86-63s65 33 65 86c-67 6-147 8-202 34-52 25-99 67-88 147 15 111 161 121 232 86 31-16 39-34 61-54l7 62 104 1c17 0 24 1 28-11 0-1-4-122-4-137 0-82 18-206-34-253-66-62-256-68-329 3-18 17-52 59-38 96z" fill="white"></path>
    <path d="M2113 1142c-16-85 147-142 155 4-34 0-128 6-155-4zm284 130c-25-7-87-4-119-4-14 56-56 78-106 66-23-5-40-20-51-38-5-9-10-21-12-31-14-57 16-42 145-42 39 0 117 5 148-4 10-56-21-138-46-172-26-36-81-66-145-73-287-34-353 383-87 448 63 15 128 8 180-20 36-19 100-71 93-130zM4203 984c-4 18 73 127 94 158 13 19 29 34 16 61-18 37-139 188-130 215 37 5 59 3 96 3 25 0 32-3 44-20 19-29 65-111 81-121 18 7 67 94 82 117 21 32 64 26 124 24l18-2c9-35-123-185-135-222-9-28 43-91 59-116 76-113 89-100-41-100-56 0-58 73-98 108-24-7-41-59-67-91-17-21-27-17-62-17-25 0-61-4-81 3zM2595 1056l-3-70c-26-8-97-8-122-1-9 30-9 402 1 431 23 7 102 11 123 0 22-24 9-167 10-208 0-37 9-58 33-75s58-16 79-31c7-25 4-55 4-82 0-31-1-50-36-48-52 4-65 50-89 84zM2773 1006v390c0 33 52 28 103 25l30-4c9-30 9-404 0-431-24-8-73-5-104-5-20 0-29 5-29 25zM397 1533c385 2 4230 8 4251-3-5-12 7-9-52-9-686 5-1390 0-2076 0l-2105-1c-25 2-16-4-18 13zm3836 149c5 3 1 4 11 5s6 0 14-1l-3-10c-14-48-98-61-98 36 0 94 87 88 100 25-41 1-13 0-35 17-14 11-26 3-36-2-9-30-7-61 2-86 23-6 37-8 45 16zm-2058 38l1 60c8 2 4 3 13 2 9 0 8-2 11-4l-1-136h-18c-9 15-6 34-6 56h-49c0-21 3-41-4-57l-22 1 1 138h22l1-59 51-1zm453 59c12 6 12 5 25 1l-2-135c-1-1-2-2-2-3h-21l-38 79c-6-12-15-28-21-42-8-16-9-29-24-37l-14 1c-9 16-6 125-1 139l15 4c16-13 9 8 11-44l3-32c9 16 13 38 31 45 17 2 18-26 39-56l-1 80zm-1556-74c-6-14-23-9-55-9v-34c19 1 50 6 63-4-1-23-9-17-37-16h-49c-7 11-5 13-5 31l1 107c23 6 68 6 92 0l-1-21-65-2v-38l55 1 1-15zm-593 1c-7-9 6-9-23-10-10 0-22 1-32 1v-35c30 2 64 8 64-9 1-12 1-12-37-11h-52v136l91 3-1-19c-18-9-46-2-68-7l1-32 56-3 1-14zm3257-64c-3 7-2-6-5 16l1 122c21 5 52 8 68-4 20-4 26-12 31-34 2-15 2-49-1-64-9-40-52-37-94-36zm-1977-1c-9 17-5 52-5 71 0 62-9 75 25 70l4-57h23l27 56 24-1-27-57c15-16 40-36 16-67-16-20-58-14-87-15zm-940 22c0 34-9 94 7 122l19-3c9-25 4-89 4-120 17 1 23 4 35-4-2-24-9-17-38-16h-60v21h33zm3568 0l-1 94c1 25-3 17 12 28l15-2c8-24 3-92 3-121 18 1 23 4 35-4-2-27-23-16-99-16v21h35zm-1617 115c2 1 3 0 4 2 3 5 76 2 87 1l1-19c-17-8-46-4-66-4v-35h55v-24l-55-1v-36c31 2 64 8 64-9 0-11 2-12-38-11h-51l-1 136zm-1365 2l21-1c2-23 1-48 1-72 0-64 9-65-23-65l1 138zm-819-1l25 1 27-47c28 25 8 47 55 47-6-18-37-59-38-69-1-14 29-52 35-67-42-7-26 16-51 42-16-26-15-45-50-44 6 19 36 59 35 69-1 6-32 55-38 68zm4035-25c-38 14-35 2-62-4l-13 15c32 19 93 30 99-19 9-68-83-22-68-78 21-10 31-5 52 3 8-9 6-4 10-17-33-16-89-21-88 29 1 64 74 9 70 71zm-1493-91h15c32 0 39 2 34 35-17 11-23 8-48 8l-1-18v-25zm0 64c40 0 83-4 73-53-7-37-57-36-96-30v136h23v-53zm893-85c0 33 3 83-4 110-22 11-21 11-44 1-8-29-5-77-5-111-28 0-24-4-24 25-1 54-8 113 49 114 37 1 51-19 52-54 2-95 6-84-24-85zm-2409 26c8 22 11 59 2 81-18 17-26 12-44 5-10-42-19-105 42-86zm-70 34c0 118 100 93 100 20 0-32 2-81-50-81-39 1-50 24-50 61zm2004 52c-10-42-17-106 42-86 9 22 11 57 2 81-17 17-28 11-44 5zm-28-56v24c0 72 100 100 101-20 0-84-101-82-101-4zm238-35c37 0 53-2 53 39-1 56-1 57-53 57v-96zm-1414 90c-11-44-17-101 42-87 14 40 20 114-42 87zm0-107c-49 24-41 165 45 131 50-20 38-172-45-131zm-561 18c21-2 28-4 48 6l-2 27c-8 3-20 9-33 7l-13-2v-38zm1553-1h16c33 0 40 5 32 37l-32 4h-16v-41zm-23 99l1 18h21l2-56c34 0 21-3 52 56h25l-28-57c13-14 31-24 23-52-10-36-55-29-96-29v120zm-2095-99h20c45 0 44 41-5 41h-15v-41zm51 59c9-10 19-13 22-31 10-56-57-53-96-47v136h22l2-56c30 0 23-3 51 56l26-1-27-57zM4688 1030c14-6 9 3 11-21 11 10 12 16 23-1l5 22c7-4 7-12 7-19 1-8 0-21 0-30-14 4-6-6-23 23-13-17-4-17-23-23v49zM4658 996v20c4 23 0 6 7 13 8-15 2-8 4-23l12-25h-36c8 15 0 3 13 15z" fill="white"></path>
</svg>