<svg version="1.1" id="Layer_1" xmlns="http://www.w3.org/2000/svg" xmlns:xlink="http://www.w3.org/1999/xlink" x="0px" y="0px"
	 width="1731.5px" height="1080px" viewBox="0 0 1731.5 1080" style="enable-background:new 0 0 1731.5 1080;" xml:space="preserve"
	>
<style type="text/css">
	.st0{display:none;fill:#FFFFFF;}
	.st1{fill:#FFFFFF;}
</style>
<g id="bf32f727-54f6-4d7f-bdf5-60df75f1df86" transform="matrix(1 0 0 1 540 540)">
	<rect x="-214.2" y="-540" vector-effect="non-scaling-stroke" class="st0" width="1080" height="1080"/>
</g>
<g>
	<g transform="matrix(1.93 0 0 1.93 -272.11 729.92)">
		<polygon vector-effect="non-scaling-stroke" class="st1" points="141,-92.2 151.9,-55.7 161.6,-55.7 168.8,-76.8 176,-55.7 
			185.7,-55.7 196.6,-92.2 186.7,-92.2 180.4,-68.6 172.6,-92.2 165,-92.2 157.3,-68.6 151,-92.2 		"/>
	</g>
	<g transform="matrix(1.93 0 0 1.93 -157.32 729.92)">
		<rect x="164.1" y="-92.2" vector-effect="non-scaling-stroke" class="st1" width="9.5" height="36.5"/>
	</g>
	<g transform="matrix(1.93 0 0 1.93 -49.75 729.92)">
		<polygon vector-effect="non-scaling-stroke" class="st1" points="160.1,-55.7 160.1,-78 177.6,-55.7 187.1,-55.7 187.1,-92.2 
			177.6,-92.2 177.6,-69.9 160.1,-92.2 150.6,-92.2 150.6,-55.7 		"/>
	</g>
	<g transform="matrix(1.93 0 0 1.93 79.49 729.92)">
		<path vector-effect="non-scaling-stroke" class="st1" d="M183.4-80.9c-0.9-2.2-2.2-4.1-3.9-5.8c-1.6-1.7-3.5-3-5.7-4
			s-4.5-1.5-7-1.5h-14.1v36.5h14.1c2.5,0,4.9-0.5,7.1-1.5c2.2-1,4.1-2.3,5.7-4c1.6-1.7,2.9-3.6,3.8-5.8c0.9-2.2,1.4-4.5,1.4-6.9
			C184.8-76.4,184.4-78.7,183.4-80.9L183.4-80.9z M174.2-69.9c-0.5,1.2-1.2,2.3-2,3.2c-0.9,0.9-2,1.6-3.3,2.1s-2.8,0.8-4.4,0.8h-2.2
			v-20.5h2.2c1.6,0,3.1,0.3,4.4,0.8c1.3,0.5,2.4,1.2,3.3,2.1s1.6,2,2.1,3.2s0.7,2.6,0.7,4.1C174.9-72.5,174.7-71.1,174.2-69.9
			L174.2-69.9z"/>
	</g>
	<g transform="matrix(1.93 0 0 1.93 206.37 729.91)">
		<path vector-effect="non-scaling-stroke" class="st1" d="M187.5-81.5c-1-2.3-2.4-4.4-4.2-6.1s-3.9-3.1-6.4-4.1s-5.2-1.5-8.1-1.5
			s-5.7,0.5-8.2,1.5s-4.6,2.4-6.4,4.1c-1.8,1.7-3.2,3.8-4.2,6.1c-1,2.3-1.5,4.9-1.5,7.6s0.5,5.2,1.5,7.6c1,2.3,2.4,4.4,4.2,6.1
			c1.8,1.7,3.9,3.1,6.4,4.1s5.2,1.5,8.2,1.5s5.7-0.5,8.1-1.5c2.5-1,4.6-2.4,6.4-4.1c1.8-1.7,3.2-3.8,4.2-6.1c1-2.3,1.5-4.9,1.5-7.6
			S188.5-79.2,187.5-81.5z M178.3-69.9c-0.5,1.2-1.3,2.3-2.2,3.2c-1,0.9-2.1,1.6-3.3,2.1s-2.6,0.7-4,0.7s-2.7-0.2-4-0.7
			c-1.2-0.5-2.3-1.2-3.3-2.1c-0.9-0.9-1.7-2-2.2-3.2s-0.8-2.6-0.8-4c0-1.5,0.3-2.8,0.8-4c0.6-1.2,1.3-2.3,2.2-3.2
			c0.9-0.9,2-1.6,3.3-2.1c1.2-0.5,2.6-0.8,4-0.8s2.7,0.2,4,0.8c1.2,0.5,2.3,1.2,3.3,2.1s1.7,2,2.2,3.2s0.8,2.6,0.8,4
			S178.8-71.1,178.3-69.9z"/>
	</g>
	<g transform="matrix(1.93 0 0 1.93 350.44 729.92)">
		<polygon vector-effect="non-scaling-stroke" class="st1" points="141,-92.2 151.9,-55.7 161.6,-55.7 168.8,-76.8 176,-55.7 
			185.7,-55.7 196.6,-92.2 186.6,-92.2 180.3,-68.6 172.6,-92.2 165,-92.2 157.3,-68.6 151,-92.2 		"/>
	</g>
	<g transform="matrix(1.93 0 0 1.93 481.15 729.95)">
		<path vector-effect="non-scaling-stroke" class="st1" d="M180.8-90.3c-1.8-1-3.7-1.7-5.7-2.2s-3.9-0.8-5.7-0.8
			c-1.9,0-3.7,0.3-5.3,0.9s-2.9,1.4-4,2.4c-1.1,1.1-1.9,2.3-2.5,3.8s-0.9,3.1-0.9,4.9s0.3,3.3,0.8,4.5c0.6,1.2,1.3,2.1,2.2,2.9
			s2,1.4,3.2,1.9s2.4,0.9,3.6,1.3c1,0.3,1.9,0.7,2.6,1c0.7,0.3,1.3,0.6,1.8,0.9s0.8,0.7,1,1.1s0.3,0.9,0.3,1.4
			c0,0.9-0.4,1.7-1.1,2.4c-0.8,0.7-1.9,1.1-3.5,1.1c-1.4,0-2.7-0.3-4.1-0.9c-1.4-0.6-2.8-1.5-4.2-2.8l-4.1,7.7
			c3.9,2.8,8.2,4.1,12.8,4.1c2.2,0,4.2-0.3,6-0.9c1.8-0.6,3.2-1.4,4.5-2.5c1.2-1.1,2.1-2.4,2.8-3.9c0.6-1.5,0.9-3.2,0.9-5.1
			c0-2.8-0.7-5-2.2-6.8c-1.4-1.7-3.7-3.1-6.8-4.1c-0.8-0.3-1.6-0.5-2.3-0.7c-0.8-0.2-1.5-0.5-2.1-0.8s-1.1-0.7-1.5-1.1
			s-0.6-1-0.6-1.6c0-0.9,0.4-1.7,1.2-2.3c0.8-0.6,1.8-0.9,3-0.9c1,0,2,0.2,3,0.6s2.1,1,3.1,1.9L180.8-90.3L180.8-90.3z"/>
	</g>
	<g transform="matrix(1.93 0 0 1.93 678.37 729.98)">
		<path vector-effect="non-scaling-stroke" class="st1" d="M180.3-64.4L181-65c0.9-0.8,1.7-1.6,2.4-2.4s1.3-1.5,1.9-2.2l-5.4-5.2
			c-1.2,1.6-2.8,3.4-4.8,5.2l-4.6-4.8c1.3-0.6,2.3-1.3,3.2-1.9s1.5-1.3,2.1-2c0.5-0.7,0.9-1.4,1.1-2.2c0.2-0.8,0.3-1.7,0.3-2.6
			c0-1.4-0.3-2.7-0.8-3.9c-0.6-1.2-1.4-2.3-2.4-3.2c-1-0.9-2.2-1.6-3.6-2.1c-1.4-0.5-2.9-0.8-4.5-0.8s-3.1,0.2-4.5,0.8
			c-1.4,0.5-2.6,1.2-3.6,2.1s-1.8,2-2.4,3.2c-0.6,1.2-0.9,2.6-0.9,4c0,2.1,0.9,4.4,2.8,6.7l0.6,0.7l-1,0.5c-1.2,0.6-2.2,1.1-3,1.6
			s-1.6,1.2-2.2,1.9c-0.9,1-1.5,2-1.9,3s-0.6,2.2-0.6,3.6c0,1.5,0.3,2.9,0.9,4.2c0.6,1.3,1.4,2.4,2.4,3.3c1,0.9,2.3,1.7,3.7,2.2
			s3,0.8,4.7,0.8c4,0,8.2-1.4,12.6-4.4l3.2,3.4h11.8L180.3-64.4L180.3-64.4z M163.2-63.2c-0.6,0-1.1-0.1-1.6-0.3s-1-0.4-1.3-0.7
			c-0.4-0.3-0.7-0.7-0.9-1.1s-0.3-0.9-0.3-1.4c0-1.4,1.1-2.8,3.5-4.3l5.8,6.2C166.5-63.7,164.8-63.2,163.2-63.2L163.2-63.2z
			 M166.4-78.9c-1.9-2.1-2.9-3.7-2.9-4.8c0-0.9,0.3-1.6,0.9-2.2c0.6-0.6,1.3-0.9,2.2-0.9s1.7,0.3,2.3,1s0.9,1.5,0.9,2.4
			C169.8-81.8,168.6-80.3,166.4-78.9z"/>
	</g>
	<g transform="matrix(1.93 0 0 1.93 883.11 729.92)">
		<path vector-effect="non-scaling-stroke" class="st1" d="M183.4-80.9c-0.9-2.2-2.2-4.1-3.9-5.8c-1.6-1.7-3.5-3-5.7-4
			s-4.5-1.5-7-1.5h-14.1v36.5h14.1c2.5,0,4.9-0.5,7-1.5c2.2-1,4.1-2.3,5.7-4c1.6-1.7,2.9-3.6,3.8-5.8c0.9-2.2,1.4-4.5,1.4-6.9
			C184.8-76.4,184.4-78.7,183.4-80.9L183.4-80.9z M174.2-69.9c-0.5,1.2-1.2,2.3-2,3.2c-0.9,0.9-2,1.6-3.3,2.1s-2.8,0.8-4.4,0.8h-2.2
			v-20.5h2.2c1.6,0,3.1,0.3,4.4,0.8c1.3,0.5,2.4,1.2,3.3,2.1s1.6,2,2.1,3.2s0.7,2.6,0.7,4.1C174.9-72.5,174.7-71.1,174.2-69.9
			L174.2-69.9z"/>
	</g>
	<g transform="matrix(1.93 0 0 1.93 1009.98 729.91)">
		<path vector-effect="non-scaling-stroke" class="st1" d="M187.5-81.5c-1-2.3-2.4-4.4-4.2-6.1s-3.9-3.1-6.4-4.1s-5.2-1.5-8.1-1.5
			c-2.9,0-5.7,0.5-8.2,1.5s-4.6,2.4-6.4,4.1c-1.8,1.8-3.2,3.8-4.2,6.1c-1,2.3-1.5,4.9-1.5,7.6s0.5,5.2,1.5,7.6
			c1,2.3,2.4,4.4,4.2,6.1c1.8,1.7,3.9,3.1,6.4,4.1s5.2,1.5,8.2,1.5s5.7-0.5,8.1-1.5c2.5-1,4.6-2.4,6.4-4.1c1.8-1.7,3.2-3.8,4.2-6.1
			c1-2.3,1.5-4.9,1.5-7.6S188.5-79.2,187.5-81.5z M178.3-69.9c-0.5,1.2-1.3,2.3-2.2,3.2c-0.9,0.9-2.1,1.6-3.3,2.1s-2.6,0.7-4,0.7
			s-2.7-0.2-3.9-0.7s-2.3-1.2-3.3-2.1c-0.9-0.9-1.7-2-2.2-3.2c-0.6-1.2-0.8-2.6-0.8-4c0-1.5,0.3-2.8,0.8-4c0.6-1.2,1.3-2.3,2.2-3.2
			c0.9-0.9,2-1.6,3.3-2.1s2.6-0.8,3.9-0.8s2.7,0.2,4,0.8c1.2,0.5,2.3,1.2,3.3,2.1s1.7,2,2.2,3.2c0.6,1.2,0.8,2.6,0.8,4
			S178.8-71.1,178.3-69.9z"/>
	</g>
	<g transform="matrix(1.93 0 0 1.93 1144.85 729.91)">
		<path vector-effect="non-scaling-stroke" class="st1" d="M187.6-81.5c-1-2.3-2.4-4.4-4.2-6.1s-3.9-3.1-6.4-4.1s-5.2-1.5-8.1-1.5
			c-2.9,0-5.7,0.5-8.2,1.5s-4.6,2.4-6.4,4.1s-3.2,3.8-4.2,6.1c-1,2.3-1.5,4.9-1.5,7.6s0.5,5.2,1.5,7.6c1,2.3,2.4,4.4,4.2,6.1
			c1.8,1.7,3.9,3.1,6.4,4.1s5.2,1.5,8.2,1.5s5.7-0.5,8.1-1.5c2.5-1,4.6-2.4,6.4-4.1c1.8-1.7,3.2-3.8,4.2-6.1c1-2.3,1.5-4.9,1.5-7.6
			S188.6-79.2,187.6-81.5z M178.3-69.9c-0.6,1.2-1.3,2.3-2.2,3.2c-0.9,0.9-2.1,1.6-3.3,2.1s-2.6,0.7-3.9,0.7s-2.7-0.2-3.9-0.7
			s-2.3-1.2-3.3-2.1c-0.9-0.9-1.7-2-2.2-3.2s-0.8-2.6-0.8-4c0-1.5,0.3-2.8,0.8-4s1.3-2.3,2.2-3.2c0.9-0.9,2-1.6,3.3-2.1
			c1.2-0.5,2.6-0.8,3.9-0.8s2.7,0.2,3.9,0.8s2.3,1.2,3.3,2.1c0.9,0.9,1.7,2,2.2,3.2c0.6,1.2,0.8,2.6,0.8,4S178.8-71.1,178.3-69.9z"
			/>
	</g>
	<g transform="matrix(1.93 0 0 1.93 1273.2 729.89)">
		<path vector-effect="non-scaling-stroke" class="st1" d="M172.5-70.6c2.6-0.6,4.6-1.8,5.9-3.5c1.3-1.7,2-4,2-6.8
			c0-1.6-0.2-3-0.8-4.4c-0.5-1.4-1.2-2.6-2.2-3.6s-2.2-1.9-3.8-2.4c-1.5-0.6-3.3-0.9-5.3-0.9h-14.8v36.6h9.5v-14.1l9.1,14.1H184
			L172.5-70.6L172.5-70.6z M169.2-77c-1,0.8-2.4,1.2-4.3,1.2h-1.8v-9h1.8c1.9,0,3.3,0.4,4.3,1.2c1,0.8,1.5,1.9,1.5,3.3
			S170.2-77.8,169.2-77L169.2-77z"/>
	</g>
	<g transform="matrix(1.93 0 0 1.93 1379.59 729.95)">
		<path vector-effect="non-scaling-stroke" class="st1" d="M180.8-90.3c-1.8-1-3.7-1.7-5.7-2.2s-3.9-0.8-5.7-0.8
			c-1.9,0-3.7,0.3-5.3,0.9s-2.9,1.4-4,2.4c-1.1,1.1-1.9,2.3-2.5,3.8s-0.9,3.1-0.9,4.9s0.3,3.3,0.9,4.5c0.6,1.2,1.3,2.1,2.2,2.9
			s2,1.4,3.2,1.9s2.4,0.9,3.6,1.3c1,0.3,1.9,0.7,2.6,1c0.7,0.3,1.3,0.6,1.8,0.9s0.8,0.7,1,1.1s0.3,0.9,0.3,1.4
			c0,0.9-0.4,1.7-1.1,2.4c-0.8,0.7-1.9,1.1-3.5,1.1c-1.4,0-2.7-0.3-4.1-0.9c-1.4-0.6-2.8-1.5-4.2-2.8l-4.1,7.7
			c3.9,2.8,8.2,4.1,12.9,4.1c2.2,0,4.2-0.3,6-0.9c1.8-0.6,3.2-1.4,4.5-2.5s2.1-2.4,2.8-3.9c0.6-1.5,0.9-3.2,0.9-5.1
			c0-2.8-0.7-5-2.1-6.8c-1.4-1.7-3.7-3.1-6.8-4.1c-0.8-0.3-1.6-0.5-2.3-0.7c-0.8-0.2-1.5-0.5-2.1-0.8s-1.1-0.7-1.5-1.1
			s-0.6-1-0.6-1.6c0-0.9,0.4-1.7,1.2-2.3c0.8-0.6,1.8-0.9,3-0.9c1,0,2,0.2,3,0.6s2.1,1,3.1,1.9L180.8-90.3L180.8-90.3z"/>
	</g>
	<g transform="matrix(1.93 0 0 1.93 -221.94 512.88)">
		<path vector-effect="non-scaling-stroke" class="st1" d="M168.8-134.1l53.9,120.4H197l-8-17.9h-40.4l-8,17.9H115L168.8-134.1z
			 M179.6-52.6l-10.8-25l-10.9,25H179.6z"/>
	</g>
	<g transform="matrix(1.93 0 0 1.93 25.28 515.15)">
		<path vector-effect="non-scaling-stroke" class="st1" d="M192.5-67.7v-65.5h23.8v120.7l-71.1-67.8v65.5h-23.7v-120.6L192.5-67.7z"
			/>
	</g>
	<g transform="matrix(1.93 0 0 1.93 271.95 515.2)">
		<path vector-effect="non-scaling-stroke" class="st1" d="M155.1-132.9c18.5,0,33,7.4,43.1,17.3C208.7-105,214-91.1,214-73.8
			s-5.3,31.1-15.8,41.6c-11.6,11.5-26,17.3-43.1,17.3h-31.4v-117.9L155.1-132.9L155.1-132.9L155.1-132.9z M155-109.4h-7.7v70.8h7.9
			c21.3,0,35.1-14.1,35.1-35.4C190.3-95.1,176.2-109.4,155-109.4z"/>
	</g>
	<g transform="matrix(1.93 0 0 1.93 486.32 515.06)">
		<path vector-effect="non-scaling-stroke" class="st1" d="M204.4-133.1v23.6H157v23.8h35.6v23.6H157v23.8h47.4v23.6h-71.1v-118.4
			L204.4-133.1L204.4-133.1z"/>
	</g>
	<g transform="matrix(1.93 0 0 1.93 696.52 515.21)">
		<path vector-effect="non-scaling-stroke" class="st1" d="M125.5-132.9H164c13.1,0,23.8,5,30.9,12c7.2,7.2,11.4,13.7,11.4,26.8v3.1
			c0,8-2.5,15.4-7.5,22.5c-4.2,5.8-7.4,8.3-14.1,10.9l27.4,42.8h-29L149.2-67v52.2h-23.7L125.5-132.9L125.5-132.9z M181.8-93.4
			c0-4.3-1.6-8.1-4.7-11.3c-3.1-3-8.9-4.7-14.6-4.7h-13.3v32.6h9.1v0.1h7.9C174.9-76.8,181.9-84.4,181.8-93.4L181.8-93.4z"/>
	</g>
	<g transform="matrix(1.93 0 0 1.93 895.84 515.08)">
		<path vector-effect="non-scaling-stroke" class="st1" d="M168.5-38.1c6.5,0,13.8-5.4,13.8-12c0-10.8-14.5-12.3-22.6-15.1
			c-14.4-4.9-27.1-16.7-27.1-32.8c0-19.9,16.1-35.9,36-35.9c18.1,0,33.2,13.4,35.6,30.9l-23.5,5c0-6.5-5.4-11.9-11.9-11.9
			s-12,5.4-12,12c0,10.6,13.5,13.4,21.7,15.9c14.9,4.3,28,15.6,28,32.1c0,19.9-17.9,36-37.7,36c-18.2,0-34.7-13.4-37.4-31l23.5-5
			c0,6.6,7.2,12,13.8,12L168.5-38.1L168.5-38.1z"/>
	</g>
	<g transform="matrix(1.93 0 0 1.93 1095.47 515.06)">
		<path vector-effect="non-scaling-stroke" class="st1" d="M204.4-133.1v23.6H157v23.8h35.6v23.6H157v23.8h47.4v23.6h-71.1v-118.4
			L204.4-133.1L204.4-133.1z"/>
	</g>
	<g transform="matrix(1.93 0 0 1.93 1314.18 515.15)">
		<path vector-effect="non-scaling-stroke" class="st1" d="M192.5-67.7v-65.5h23.8v120.7l-71.1-67.8v65.5h-23.7v-120.6L192.5-67.7z"
			/>
	</g>
	<g>
		<path class="st1" d="M89.7,819.9c-6.4,3.4-14.9,6.2-26.4,6.2c-18.7,0-30.1-6.4-39.1-14.9C11.9,799.4,7,786.1,7,770.4
			c0-19.4,8-33.3,17.1-41.8c10.7-10.1,24-14.1,39.3-14.1c7.5,0,16.5,1.3,26.3,6.6v24.4c-9.8-11.2-21.9-12-25.8-12
			c-21.5,0-35.4,17.6-35.4,37.3c0,23.7,18.3,36.5,36.2,36.5c9.9,0,18.7-4.3,25-11.7V819.9z"/>
		<path class="st1" d="M168.2,734.8h-38.5v23.9h36.8v17.9h-36.8v29.2h38.5v17.9h-59.3V716.9h59.3V734.8z"/>
		<path class="st1" d="M219.3,716.9c14.7,0,22.3,3.8,27.2,8c8.2,6.9,10.6,16,10.6,24c0,10.4-4.2,19.5-12.5,25.2
			c-2.7,1.9-6.6,3.7-11.7,4.6l33.3,45h-26l-28.5-42.9h-2.6v42.9h-20.8V716.9H219.3z M209.2,766.1h5.9c4,0,20.5-0.5,20.5-16.2
			c0-15.9-16.3-16-20.2-16h-6.2V766.1z"/>
		<path class="st1" d="M314,734.8v88.9h-20.8v-88.9h-24v-17.9H338v17.9H314z"/>
		<path class="st1" d="M372,716.9v106.9h-20.8V716.9H372z"/>
		<path class="st1" d="M453.1,734.8h-35.9v23.9h33.6v17.9h-33.6v47.1h-20.8V716.9h56.7L453.1,734.8L453.1,734.8z"/>
		<path class="st1" d="M491.8,716.9v106.9H471V716.9H491.8z"/>
		<path class="st1" d="M575.5,734.8H537v23.9h36.8v17.9H537v29.2h38.5v17.9h-59.3V716.9h59.3V734.8z"/>
		<path class="st1" d="M623.5,716.9c14.9,0,27.9,1.6,39.7,10.4c13,9.8,20.5,25.3,20.5,43.1s-7.4,33.2-21.5,43.1
			c-12.5,8.8-24.2,10.3-39.1,10.3h-27.6V716.9H623.5z M616.5,805.8h6.4c5.3,0,16.8-0.3,26.1-7c8.5-6.1,13.3-17,13.3-28.4
			c0-11.2-4.6-22.1-13.1-28.5c-8.7-6.4-19.2-7-26.3-7h-6.4V805.8z"/>
		<path class="st1" d="M817.9,819.9c-6.4,3.4-14.9,6.2-26.4,6.2c-18.7,0-30.1-6.4-39.1-14.9c-12.3-11.9-17.1-25.2-17.1-40.9
			c0-19.4,8-33.3,17.1-41.8c10.7-10.1,24-14.1,39.3-14.1c7.5,0,16.5,1.3,26.3,6.6v24.4c-9.8-11.2-21.9-12-25.8-12
			c-21.5,0-35.4,17.6-35.4,37.3c0,23.7,18.3,36.5,36.2,36.5c9.9,0,18.7-4.3,25-11.7L817.9,819.9L817.9,819.9z"/>
		<path class="st1" d="M946,770.4c0,32.5-23.4,55.8-57,55.8s-57-23.2-57-55.8s23.4-55.9,57-55.9S946,737.9,946,770.4z M924.6,770.4
			c0-21.6-14.7-37-35.6-37c-20.8,0-35.6,15.4-35.6,37s14.7,36.9,35.6,36.9C909.8,807.2,924.6,792,924.6,770.4z"/>
		<path class="st1" d="M965.3,823.7V716.9h14.4l65,71.3v-71.3h20.8v106.9h-14.4l-65-71.5v71.5h-20.8V823.7z"/>
		<path class="st1" d="M1123.5,734.8v88.9h-20.8v-88.9h-24v-17.9h68.9v17.9H1123.5z"/>
		<path class="st1" d="M1191.6,716.9c14.7,0,22.3,3.8,27.2,8c8.2,6.9,10.6,16,10.6,24c0,10.4-4.2,19.5-12.5,25.2
			c-2.7,1.9-6.6,3.7-11.7,4.6l33.3,45h-26l-28.5-42.9h-2.6v42.9h-20.8V716.9H1191.6z M1181.5,766.1h5.9c4,0,20.5-0.5,20.5-16.2
			c0-15.9-16.3-16-20.2-16h-6.2L1181.5,766.1L1181.5,766.1z"/>
		<path class="st1" d="M1316,801.3h-43.1l-9.5,22.4h-22.6l46-106.9h16.3l44.7,106.9h-22.4L1316,801.3z M1309.9,784.3l-15.2-38.5
			l-15.2,38.5H1309.9z"/>
		<path class="st1" d="M1434.5,819.9c-6.4,3.4-14.9,6.2-26.4,6.2c-18.7,0-30.1-6.4-39.1-14.9c-12.3-11.9-17.1-25.2-17.1-40.9
			c0-19.4,8-33.3,17.1-41.8c10.7-10.1,24-14.1,39.3-14.1c7.5,0,16.5,1.3,26.3,6.6v24.4c-9.8-11.2-22-12-25.8-12
			c-21.5,0-35.4,17.6-35.4,37.3c0,23.7,18.3,36.5,36.2,36.5c9.9,0,18.7-4.3,25-11.7L1434.5,819.9L1434.5,819.9z"/>
		<path class="st1" d="M1489.1,734.8v88.9h-20.8v-88.9h-24v-17.9h68.9v17.9H1489.1z"/>
		<path class="st1" d="M1630.6,770.4c0,32.5-23.4,55.8-57,55.8s-57-23.2-57-55.8s23.4-55.9,57-55.9S1630.6,737.9,1630.6,770.4z
			 M1609.1,770.4c0-21.6-14.7-37-35.6-37s-35.6,15.4-35.6,37s14.7,36.9,35.6,36.9S1609.1,792,1609.1,770.4z"/>
		<path class="st1" d="M1680.8,716.9c14.7,0,22.3,3.8,27.2,8c8.2,6.9,10.6,16,10.6,24c0,10.4-4.2,19.5-12.5,25.2
			c-2.7,1.9-6.6,3.7-11.7,4.6l33.3,45h-26l-28.5-42.9h-2.6v42.9h-20.8V716.9H1680.8z M1670.7,766.1h5.9c4,0,20.5-0.5,20.5-16.2
			c0-15.9-16.3-16-20.2-16h-6.2L1670.7,766.1L1670.7,766.1z"/>
	</g>
</g>
</svg>