<svg version="1.1" id="Layer_1" xmlns="http://www.w3.org/2000/svg" xmlns:xlink="http://www.w3.org/1999/xlink" x="0px" y="0px"
	 width="219px" height="136px" viewBox="0 0 219 136" style="enable-background:new 0 0 219 136;" xml:space="preserve">
<style type="text/css">
	.st0{fill:#FFFFFF;}
	.st1{fill:#D1B750;}
</style>
<path class="st0" d="M43.8,75.4l-3.4,11H29.1l14.7-42.8h14.4l15,42.8H61.4l-3.8-11H43.8z M56.1,68.2l-3-9.1
	c-0.9-2.5-1.7-5.7-2.4-8.2h-0.1c-0.7,2.5-1.5,5.8-2.2,8.2l-2.9,9.1H56.1z M76.7,65.2c0-3.9-0.1-7.2-0.3-9.9h9.5l0.5,4.2h0.2
	c1.5-1.9,5-4.9,10.9-4.9c7.2,0,12.6,4.2,12.6,13.4v18.4H99.1V69.1c0-4-1.6-6.7-5.5-6.7c-3,0-4.8,1.8-5.5,3.7
	c-0.3,0.6-0.5,1.5-0.5,2.4v17.9H76.9L76.7,65.2L76.7,65.2z M118,40h10.9v46.5H118V40z M137.1,86.4V55.3h10.9v31.1H137.1z
	 M155.9,65.2c0-3.9-0.1-7.2-0.3-9.9h9.5l0.5,4.2h0.2c1.5-1.9,5-4.9,10.9-4.9c7.2,0,12.6,4.2,12.6,13.4v18.4h-10.9V69.1
	c0-4-1.6-6.7-5.5-6.7c-3,0-4.8,1.8-5.5,3.7c-0.3,0.6-0.5,1.5-0.5,2.4v17.9H156L155.9,65.2L155.9,65.2z"/>
<path class="st0" d="M142.3,51.6c2.7,0,4.8-2.1,4.8-4.8c0-2.7-2.1-4.8-4.8-4.8c-2.6,0-4.8,2.1-4.8,4.8
	C137.5,49.5,139.7,51.6,142.3,51.6z"/>
<path class="st0" d="M33,90.1l3.5,14.2l3.8-14.2h1.8l3.9,14.2l3.5-14.2H51l-4.3,16.2h-1.6l-3.7-14.5l-4,14.5h-1.7l-4.3-16.2H33
	L33,90.1z M54.9,90.1v2.3h-1.4v-2.3H54.9z M54.9,94.7v11.7h-1.4V94.7H54.9z M59.1,94.7v2.1c0.2-0.7,0.7-1.3,1.4-1.7
	c0.7-0.5,1.4-0.7,2.2-0.7s1.5,0.1,1.9,0.3c0.6,0.2,0.9,0.5,1.3,0.9c0.3,0.3,0.6,0.9,0.7,1.4c0.1,0.6,0.2,1.1,0.2,1.8v7.5h-1.4V99
	c0-0.5,0-0.9-0.1-1.4c-0.1-0.5-0.2-0.8-0.5-1.1c-0.2-0.3-0.6-0.6-0.9-0.8c-0.3-0.2-0.8-0.2-1.4-0.2c-0.6,0-1,0.1-1.5,0.3
	c-0.5,0.2-0.8,0.5-1.1,0.8c-0.3,0.3-0.6,0.8-0.7,1.3c-0.1,0.5-0.2,1-0.2,1.6v6.9h-1.4V94.7H59.1z M78.6,106.4v-2.2
	c-0.1,0.3-0.3,0.7-0.7,1c-0.3,0.3-0.6,0.6-1,0.8c-0.3,0.2-0.8,0.3-1.1,0.5c-0.5,0.1-0.8,0.2-1.3,0.2c-0.9,0-1.6-0.1-2.3-0.5
	s-1.1-0.8-1.6-1.4s-0.7-1.3-0.9-1.9c-0.2-0.8-0.3-1.5-0.3-2.4c0-0.8,0.1-1.6,0.3-2.4c0.2-0.8,0.6-1.4,0.9-1.9c0.5-0.6,0.9-1,1.6-1.4
	c0.7-0.3,1.4-0.5,2.3-0.5c0.5,0,0.8,0,1.3,0.1c0.5,0.1,0.8,0.2,1.1,0.5c0.3,0.2,0.7,0.5,0.9,0.8c0.2,0.3,0.5,0.7,0.6,1.1v-6.7h1.4
	v16.2H78.6z M71,102.4c0.1,0.6,0.3,1.1,0.7,1.6c0.3,0.5,0.7,0.8,1.1,1.1c0.5,0.3,1,0.5,1.7,0.5c0.7,0,1.4-0.1,1.8-0.5
	c0.5-0.3,0.9-0.7,1.3-1.1c0.3-0.5,0.6-1,0.7-1.6c0.1-0.6,0.2-1.1,0.2-1.8c0-0.6-0.1-1.3-0.2-1.8c-0.1-0.6-0.3-1.1-0.7-1.6
	c-0.3-0.5-0.7-0.8-1.3-1.1c-0.5-0.3-1.1-0.5-1.8-0.5c-0.7,0-1.3,0.1-1.7,0.5c-0.5,0.3-0.8,0.7-1.1,1.1c-0.3,0.5-0.6,1-0.7,1.6
	c-0.1,0.6-0.2,1.1-0.2,1.8C70.8,101.1,70.8,101.7,71,102.4z M89.9,94.8c0.7,0.3,1.3,0.8,1.7,1.4c0.5,0.6,0.8,1.3,1,1.9
	c0.2,0.8,0.3,1.6,0.3,2.4c0,0.8-0.1,1.6-0.3,2.4c-0.2,0.8-0.6,1.4-1,1.9c-0.5,0.6-1,1-1.7,1.4s-1.5,0.5-2.3,0.5
	c-0.8,0-1.6-0.1-2.3-0.5c-0.7-0.3-1.3-0.8-1.7-1.4c-0.5-0.6-0.8-1.3-1-1.9c-0.2-0.8-0.3-1.6-0.3-2.4c0-0.8,0.1-1.6,0.3-2.4
	s0.6-1.4,1-1.9c0.5-0.6,1-1,1.7-1.4c0.7-0.3,1.5-0.5,2.3-0.5C88.4,94.4,89.2,94.5,89.9,94.8z M85.8,96c-0.5,0.3-0.9,0.7-1.3,1.1
	c-0.3,0.5-0.6,1-0.8,1.6c-0.1,0.6-0.2,1.3-0.2,1.8c0,0.6,0.1,1.3,0.2,1.8c0.1,0.6,0.5,1.1,0.8,1.6c0.3,0.5,0.8,0.8,1.3,1.1
	c0.5,0.3,1,0.5,1.7,0.5c0.7,0,1.3-0.1,1.7-0.5c0.5-0.3,0.9-0.7,1.3-1.1c0.3-0.5,0.6-1,0.8-1.6c0.1-0.6,0.2-1.3,0.2-1.8
	c0-0.6-0.1-1.3-0.2-1.8c-0.1-0.6-0.5-1.1-0.8-1.6c-0.3-0.5-0.8-0.8-1.3-1.1c-0.5-0.3-1-0.5-1.7-0.5C86.9,95.5,86.3,95.6,85.8,96z
	 M95.6,94.7l2.9,10.1l2.7-10.1h1.6l2.7,10.1l2.9-10.1h1.5l-3.7,11.7h-1.5l-2.7-9.8l-2.7,9.8h-1.5l-3.7-11.7H95.6L95.6,94.7z
	 M118.3,97c-0.1-0.3-0.3-0.6-0.7-0.8c-0.2-0.2-0.6-0.3-0.9-0.5c-0.3-0.1-0.7-0.1-1.1-0.1c-0.3,0-0.6,0-0.9,0.1
	c-0.3,0.1-0.6,0.2-0.9,0.3c-0.2,0.1-0.5,0.3-0.7,0.6c-0.1,0.2-0.2,0.6-0.2,0.9c0,0.3,0.1,0.6,0.2,0.8c0.1,0.2,0.3,0.5,0.6,0.6
	c0.2,0.1,0.5,0.2,0.8,0.3c0.2,0.1,0.6,0.2,0.8,0.2l1.8,0.5c0.3,0.1,0.8,0.1,1.1,0.3c0.3,0.1,0.7,0.3,1,0.6c0.3,0.2,0.6,0.6,0.7,0.9
	c0.2,0.3,0.3,0.8,0.3,1.4c0,0.7-0.1,1.1-0.5,1.6c-0.2,0.5-0.7,0.8-1,1.1c-0.5,0.2-0.9,0.5-1.5,0.6c-0.6,0.1-1,0.2-1.6,0.2
	c-1.4,0-2.4-0.3-3.2-1c-0.8-0.7-1.3-1.7-1.4-3.1h1.4c0.1,0.9,0.3,1.7,1,2.2c0.6,0.5,1.4,0.7,2.3,0.7c0.3,0,0.7,0,1-0.1l1-0.3
	c0.3-0.2,0.6-0.5,0.8-0.7c0.2-0.2,0.3-0.6,0.3-1c0-0.3-0.1-0.7-0.2-0.9c-0.1-0.2-0.3-0.5-0.6-0.6c-0.2-0.1-0.5-0.3-0.8-0.3
	c-0.3-0.1-0.6-0.2-0.9-0.2l-1.8-0.5c-0.5-0.1-0.9-0.2-1.3-0.5c-0.3-0.1-0.7-0.3-1-0.6c-0.3-0.2-0.5-0.6-0.7-0.9
	c-0.1-0.3-0.2-0.8-0.2-1.3c0-0.6,0.1-1.1,0.3-1.5c0.2-0.5,0.6-0.8,1-1c0.5-0.2,0.9-0.5,1.4-0.6c0.5-0.1,1-0.2,1.5-0.2
	c0.6,0,1.1,0.1,1.6,0.2c0.5,0.1,0.9,0.3,1.3,0.7c0.3,0.3,0.7,0.7,0.9,1.1c0.2,0.5,0.3,1,0.3,1.6h-1.4
	C118.6,97.7,118.4,97.2,118.3,97L118.3,97z M138.7,90.1c2.4,0.1,4.2,0.8,5.4,2.1c1.3,1.4,1.8,3.3,1.8,6.1c0,2.7-0.6,4.7-1.8,6.1
	c-1.3,1.4-3,2.1-5.4,2.1h-5.5V90.1H138.7L138.7,90.1z M138,105c1.1,0,2.1-0.1,3-0.3c0.8-0.2,1.5-0.7,2.1-1.1
	c0.6-0.6,0.9-1.3,1.1-2.1c0.2-0.9,0.3-1.9,0.3-3.1c0-1.3-0.1-2.3-0.3-3.1c-0.2-0.9-0.7-1.6-1.1-2.1c-0.6-0.6-1.1-0.9-2.1-1.1
	c-0.8-0.2-1.8-0.3-3-0.3h-3.2v13.6h3.2V105L138,105z M155.4,94.8c0.7,0.3,1.3,0.8,1.7,1.4c0.5,0.6,0.8,1.3,1,1.9
	c0.2,0.8,0.3,1.6,0.3,2.4c0,0.8-0.1,1.6-0.3,2.4c-0.2,0.8-0.6,1.4-1,1.9s-1,1-1.7,1.4c-0.7,0.3-1.5,0.5-2.3,0.5
	c-0.8,0-1.6-0.1-2.3-0.5c-0.7-0.3-1.3-0.8-1.7-1.4c-0.5-0.6-0.8-1.3-1-1.9c-0.2-0.8-0.3-1.6-0.3-2.4c0-0.8,0.1-1.6,0.3-2.4
	c0.2-0.8,0.6-1.4,1-1.9c0.5-0.6,1-1,1.7-1.4c0.7-0.3,1.5-0.5,2.3-0.5C153.9,94.4,154.8,94.5,155.4,94.8z M151.4,96
	c-0.5,0.3-0.9,0.7-1.3,1.1c-0.3,0.5-0.6,1-0.8,1.6c-0.1,0.6-0.2,1.3-0.2,1.8c0,0.6,0.1,1.3,0.2,1.8c0.1,0.6,0.5,1.1,0.8,1.6
	c0.3,0.5,0.8,0.8,1.3,1.1c0.5,0.3,1,0.5,1.7,0.5c0.7,0,1.3-0.1,1.7-0.5c0.5-0.3,0.9-0.7,1.3-1.1c0.3-0.5,0.6-1,0.8-1.6
	c0.1-0.6,0.2-1.3,0.2-1.8c0-0.6-0.1-1.3-0.2-1.8c-0.1-0.6-0.5-1.1-0.8-1.6c-0.3-0.5-0.8-0.8-1.3-1.1c-0.5-0.3-1-0.5-1.7-0.5
	C152.5,95.5,151.9,95.6,151.4,96z M167.9,94.8c0.7,0.3,1.3,0.8,1.7,1.4c0.5,0.6,0.8,1.3,1,1.9c0.2,0.8,0.3,1.6,0.3,2.4
	c0,0.8-0.1,1.6-0.3,2.4c-0.2,0.8-0.6,1.4-1,1.9s-1,1-1.7,1.4c-0.7,0.3-1.5,0.5-2.3,0.5c-0.8,0-1.6-0.1-2.3-0.5
	c-0.7-0.3-1.3-0.8-1.7-1.4s-0.8-1.3-1-1.9c-0.2-0.8-0.3-1.6-0.3-2.4c0-0.8,0.1-1.6,0.3-2.4c0.2-0.8,0.6-1.4,1-1.9
	c0.5-0.6,1-1,1.7-1.4c0.7-0.3,1.5-0.5,2.3-0.5C166.4,94.4,167.2,94.5,167.9,94.8z M163.8,96c-0.5,0.3-0.9,0.7-1.3,1.1
	c-0.3,0.5-0.6,1-0.8,1.6c-0.1,0.6-0.2,1.3-0.2,1.8c0,0.6,0.1,1.3,0.2,1.8c0.1,0.6,0.5,1.1,0.8,1.6c0.3,0.5,0.8,0.8,1.3,1.1
	c0.5,0.3,1,0.5,1.7,0.5c0.7,0,1.3-0.1,1.7-0.5c0.5-0.3,0.9-0.7,1.3-1.1c0.3-0.5,0.6-1,0.8-1.6c0.1-0.6,0.2-1.3,0.2-1.8
	c0-0.6-0.1-1.3-0.2-1.8c-0.1-0.6-0.5-1.1-0.8-1.6c-0.3-0.5-0.8-0.8-1.3-1.1c-0.5-0.3-1-0.5-1.7-0.5C164.9,95.5,164.4,95.6,163.8,96z
	 M174.5,94.7v2.7c0.3-0.9,0.9-1.7,1.6-2.2c0.7-0.5,1.6-0.8,2.6-0.7v1.5c-0.7,0-1.3,0-1.7,0.2s-0.9,0.5-1.4,0.9
	c-0.3,0.3-0.7,0.8-0.9,1.4c-0.2,0.6-0.3,1.1-0.3,1.7v6.3h-1.4V94.7H174.5L174.5,94.7z M187,97c-0.1-0.3-0.3-0.6-0.7-0.8
	c-0.2-0.2-0.6-0.3-0.9-0.5c-0.3-0.1-0.7-0.1-1.1-0.1c-0.3,0-0.6,0-0.9,0.1c-0.3,0.1-0.6,0.2-0.9,0.3c-0.2,0.1-0.5,0.3-0.7,0.6
	c-0.1,0.2-0.2,0.6-0.2,0.9c0,0.3,0.1,0.6,0.2,0.8c0.1,0.2,0.3,0.5,0.6,0.6c0.2,0.1,0.5,0.2,0.8,0.3c0.2,0.1,0.6,0.2,0.8,0.2l1.8,0.5
	c0.3,0.1,0.8,0.1,1.1,0.3c0.3,0.1,0.7,0.3,1,0.6c0.3,0.2,0.6,0.6,0.7,0.9c0.2,0.3,0.3,0.8,0.3,1.4c0,0.7-0.1,1.1-0.5,1.6
	c-0.2,0.5-0.7,0.8-1,1.1c-0.5,0.2-0.9,0.5-1.5,0.6c-0.6,0.1-1,0.2-1.6,0.2c-1.4,0-2.4-0.3-3.2-1c-0.8-0.7-1.3-1.7-1.4-3.1h1.4
	c0.1,0.9,0.3,1.7,1,2.2c0.6,0.5,1.4,0.7,2.3,0.7c0.3,0,0.7,0,1-0.1l1-0.3c0.3-0.2,0.6-0.5,0.8-0.7c0.2-0.2,0.3-0.6,0.3-1
	c0-0.3-0.1-0.7-0.2-0.9c-0.1-0.2-0.3-0.5-0.6-0.6c-0.2-0.1-0.5-0.3-0.8-0.3c-0.3-0.1-0.6-0.2-0.9-0.2l-1.8-0.5
	c-0.5-0.1-0.9-0.2-1.3-0.5c-0.3-0.1-0.7-0.3-1-0.6s-0.5-0.6-0.7-0.9c-0.1-0.3-0.2-0.8-0.2-1.3c0-0.6,0.1-1.1,0.3-1.5
	c0.2-0.5,0.6-0.8,1-1s0.9-0.5,1.4-0.6c0.5-0.1,1-0.2,1.5-0.2c0.6,0,1.1,0.1,1.6,0.2c0.5,0.1,0.9,0.3,1.3,0.7
	c0.3,0.3,0.7,0.7,0.9,1.1c0.2,0.5,0.3,1,0.3,1.6h-1.4C187.2,97.7,187.2,97.2,187,97L187,97z"/>
<path class="st0" d="M126.2,101.4c0.8,0,1.5-0.7,1.5-1.5c0-0.8-0.7-1.5-1.5-1.5c-0.8,0-1.5,0.7-1.5,1.5
	C124.7,100.8,125.4,101.4,126.2,101.4z"/>
<path class="st1" d="M67.3,32.9c0,0,58-14.9,123.7,7.1c0,0-48.2-22.6-134.1-10.2L79,24.7L67.7,21l0.2-13.6l-8.3,11l-12.2-4l6.5,11.9
	l-8.9,11l13.7-3.5L66.9,46L67.3,32.9L67.3,32.9z"/>
<g>
	<path class="st0" d="M38.4,126.9h-5.5l-1,2.5h-2.8l5.3-11.8H37l5.3,11.8h-2.9L38.4,126.9z M37.5,124.8l-1.9-4.5l-1.9,4.5H37.5z"/>
	<path class="st0" d="M52.3,120.3v9.1h-2.5v-1.1c-0.7,0.8-1.7,1.2-2.8,1.2c-2.3,0-3.9-1.3-3.9-4.1v-5.1h2.6v4.7
		c0,1.5,0.7,2.2,1.8,2.2c1.2,0,2.1-0.8,2.1-2.4v-4.5H52.3z"/>
	<path class="st0" d="M60.6,129c-0.5,0.4-1.3,0.6-2.1,0.6c-2.1,0-3.4-1.1-3.4-3.3v-3.7h-1.4v-2h1.4v-2.2h2.6v2.2H60v2h-2.3v3.7
		c0,0.8,0.4,1.2,1.1,1.2c0.4,0,0.8-0.1,1.1-0.3L60.6,129z"/>
	<path class="st0" d="M71.4,124.2v5.2h-2.6v-4.8c0-1.5-0.7-2.1-1.8-2.1c-1.3,0-2.2,0.8-2.2,2.4v4.5h-2.6v-12.5h2.6v4.4
		c0.7-0.7,1.7-1.1,2.9-1.1C69.8,120.2,71.4,121.4,71.4,124.2z"/>
	<path class="st0" d="M73.2,124.9c0-2.7,2.1-4.7,5-4.7s5,1.9,5,4.7s-2.1,4.7-5,4.7S73.2,127.6,73.2,124.9z M80.5,124.9
		c0-1.6-1-2.5-2.3-2.5c-1.3,0-2.3,0.9-2.3,2.5c0,1.6,1,2.5,2.3,2.5C79.5,127.4,80.5,126.4,80.5,124.9z"/>
	<path class="st0" d="M90.5,120.2v2.4c-0.2,0-0.4,0-0.6,0c-1.5,0-2.4,0.8-2.4,2.5v4.3h-2.6v-9.1h2.5v1.2
		C88.1,120.6,89.1,120.2,90.5,120.2z"/>
	<path class="st0" d="M91.8,117.6c0-0.8,0.7-1.5,1.6-1.5s1.6,0.6,1.6,1.4c0,0.9-0.7,1.5-1.6,1.5S91.8,118.4,91.8,117.6z M92.1,120.3
		h2.6v9.1h-2.6V120.3z"/>
	<path class="st0" d="M104.6,127.4v2h-8.1v-1.6l4.6-5.5h-4.5v-2h7.8v1.6l-4.6,5.5H104.6z"/>
	<path class="st0" d="M115,125.6h-6.9c0.3,1.1,1.2,1.8,2.6,1.8c1,0,1.7-0.3,2.3-0.9l1.4,1.5c-0.8,1-2.1,1.5-3.7,1.5
		c-3.1,0-5.2-2-5.2-4.7c0-2.7,2.1-4.7,4.8-4.7c2.7,0,4.7,1.8,4.7,4.7C115.1,125.1,115.1,125.4,115,125.6z M108.1,124.1h4.5
		c-0.2-1.1-1-1.9-2.2-1.9C109.2,122.2,108.3,122.9,108.1,124.1z"/>
	<path class="st0" d="M126.1,116.9v12.5h-2.5v-1c-0.7,0.8-1.6,1.2-2.8,1.2c-2.6,0-4.5-1.8-4.5-4.7c0-2.8,2-4.7,4.5-4.7
		c1.1,0,2.1,0.4,2.7,1.1v-4.4H126.1z M123.5,124.9c0-1.6-1-2.5-2.3-2.5c-1.3,0-2.3,0.9-2.3,2.5c0,1.6,1,2.5,2.3,2.5
		C122.5,127.4,123.5,126.4,123.5,124.9z"/>
	<path class="st0" d="M133.5,117.6h5.4c3.9,0,6.5,2.3,6.5,5.9s-2.6,5.9-6.5,5.9h-5.4V117.6z M138.7,127.2c2.3,0,3.9-1.4,3.9-3.7
		s-1.5-3.7-3.9-3.7h-2.5v7.3H138.7z"/>
	<path class="st0" d="M156,125.6h-6.9c0.3,1.1,1.2,1.8,2.6,1.8c1,0,1.7-0.3,2.3-0.9l1.4,1.5c-0.8,1-2.1,1.5-3.7,1.5
		c-3.1,0-5.2-2-5.2-4.7c0-2.7,2.1-4.7,4.8-4.7c2.7,0,4.7,1.8,4.7,4.7C156.1,125.1,156.1,125.4,156,125.6z M149.1,124.1h4.5
		c-0.2-1.1-1-1.9-2.2-1.9C150.2,122.2,149.3,122.9,149.1,124.1z"/>
	<path class="st0" d="M165.6,124.2v5.2h-2.5v-1.1c-0.5,0.8-1.4,1.3-2.8,1.3c-2.1,0-3.4-1.2-3.4-2.7c0-1.6,1.1-2.7,3.9-2.7h2.1
		c0-1.1-0.7-1.8-2.1-1.8c-1,0-2,0.3-2.6,0.8l-0.9-1.8c1-0.7,2.5-1.1,3.9-1.1C164,120.2,165.6,121.5,165.6,124.2z M163,126.5v-0.9
		h-1.8c-1.2,0-1.6,0.5-1.6,1.1c0,0.7,0.6,1.1,1.5,1.1C161.9,127.8,162.7,127.4,163,126.5z"/>
	<path class="st0" d="M168,116.9h2.6v12.5H168V116.9z"/>
	<path class="st0" d="M181.9,125.6H175c0.3,1.1,1.2,1.8,2.6,1.8c1,0,1.7-0.3,2.3-0.9l1.4,1.5c-0.8,1-2.1,1.5-3.7,1.5
		c-3.1,0-5.2-2-5.2-4.7c0-2.7,2.1-4.7,4.8-4.7c2.7,0,4.7,1.8,4.7,4.7C182,125.1,181.9,125.4,181.9,125.6z M175,124.1h4.5
		c-0.2-1.1-1-1.9-2.2-1.9C176.1,122.2,175.2,122.9,175,124.1z"/>
	<path class="st0" d="M189.3,120.2v2.4c-0.2,0-0.4,0-0.6,0c-1.5,0-2.4,0.8-2.4,2.5v4.3h-2.6v-9.1h2.5v1.2
		C186.9,120.6,187.9,120.2,189.3,120.2z"/>
</g>
</svg>