<svg width="320" height="96" fill="none" xmlns="http://www.w3.org/2000/svg"><path fill-rule="evenodd" clip-rule="evenodd" d="M319.943 34.777l-.004.481-.011.404-.03.761c-.029.493-.056.988-.099 1.469a37.03 37.03 0 01-.136 1.441c-.045.48-.103.956-.17 1.429a59.464 59.464 0 01-1.042 5.611c-.415 1.855-.95 3.686-1.53 5.5-.297.906-.633 1.802-.952 2.703-.361.885-.706 1.779-1.094 2.655-.411.869-.804 1.746-1.237 2.605-.455.851-.893 1.709-1.37 2.55-.499.827-.989 1.66-1.501 2.481l-1.639 2.405-1.779 2.316c-.604.761-1.279 1.471-1.92 2.203l-.487.545-.519.516-1.041 1.028c-.353.336-.686.693-1.055 1.014l-1.106.956-1.11.953c-.362.326-.771.593-1.155.892l-1.17.873c-.396.283-.771.596-1.186.848-.816.525-1.632 1.052-2.454 1.563-.403.27-.841.479-1.265.712l-1.277.682-1.277.678-1.316.589c-.879.381-1.747.798-2.635 1.147-1.797.635-3.566 1.365-5.402 1.818-.912.246-1.817.524-2.733.737l-2.753.571-1.375.282-1.38.2-2.758.383-.689.095-.691.048-1.378.099-2.754.188c-1.83.042-3.656.048-5.479.07l-5.733.066 1.048-5.494c.033-.164.054-.255.078-.356l.069-.294.14-.549c.095-.359.196-.706.301-1.047a45.3 45.3 0 01.674-2.015c.479-1.314.999-2.6 1.571-3.857a55.662 55.662 0 011.843-3.691c.334-.601.666-1.199 1.027-1.779.355-.588.71-1.175 1.092-1.74.372-.574.748-1.142 1.15-1.697.393-.557.786-1.114 1.208-1.649a47.01 47.01 0 012.596-3.152c.461-.5.912-1.007 1.381-1.498l1.438-1.438c.988-.925 1.967-1.858 3.031-2.691 1.028-.87 2.132-1.647 3.211-2.444 1.118-.745 2.214-1.506 3.374-2.172 1.131-.709 2.321-1.308 3.488-1.936.587-.306 1.196-.571 1.798-.845.604-.272 1.2-.551 1.821-.781l1.838-.719c.611-.24 1.244-.425 1.862-.638.625-.199 1.234-.434 1.867-.6.63-.173 1.255-.357 1.887-.517.315-.081.628-.17.945-.243l.954-.2 1.904-.396c1.27-.243 2.556-.405 3.827-.591l.152.637c-1.221.339-2.452.644-3.665 1.009l-1.808.586-.903.29c-.297.106-.591.225-.888.336l-1.775.675c-.596.216-1.163.498-1.745.744-.576.26-1.166.493-1.73.779l-1.696.849c-.571.272-1.116.592-1.665.903-.548.315-1.106.612-1.644.944-1.063.682-2.145 1.333-3.161 2.086-1.046.707-2.024 1.504-3.017 2.28-.956.825-1.934 1.625-2.831 2.512-.926.853-1.79 1.774-2.658 2.687l-1.252 1.415c-.405.483-.796.977-1.196 1.467a50.216 50.216 0 00-2.235 3.046c-.362.514-.697 1.048-1.032 1.58a35.069 35.069 0 00-.978 1.617 35.42 35.42 0 00-.919 1.651c-.307.55-.579 1.118-.86 1.681a52.018 52.018 0 00-1.534 3.45 48.755 48.755 0 00-1.268 3.553 35.665 35.665 0 00-.796 2.955c1.491-.074 2.984-.137 4.472-.227l2.565-.274 1.282-.136.642-.069.636-.107 2.539-.431 1.27-.221 1.251-.297 2.505-.594c.828-.217 1.641-.496 2.462-.741 1.655-.455 3.227-1.146 4.83-1.748.79-.326 1.552-.717 2.331-1.074l1.16-.546 1.119-.626 1.119-.626c.369-.215.755-.404 1.104-.651l2.138-1.411c.365-.224.688-.505 1.032-.759l1.015-.779c.333-.267.691-.503 1.003-.797l.96-.845.958-.849c.321-.281.606-.601.91-.899l.9-.911.449-.457.42-.483c.551-.648 1.131-1.277 1.66-1.946l1.549-2.038 1.428-2.125c.447-.726.875-1.465 1.314-2.198.416-.744.799-1.506 1.2-2.261.379-.765.722-1.547 1.086-2.32l.981-2.367c.286-.805.593-1.604.865-2.415.527-1.626 1.021-3.263 1.402-4.931.402-1.662.724-3.344.966-5.036.211-1.487.381-3.006.443-4.488l-2.617-.14c-1.072-.019-2.143-.066-3.217-.057-1.069.02-2.143-.007-3.211.058l-1.606.071c-.535.024-1.068.08-1.603.117-2.136.148-4.257.448-6.371.782-2.101.393-4.203.813-6.255 1.414l-.772.211-.765.242c-.509.164-1.02.315-1.527.489-1.003.365-2.016.707-2.998 1.127-.998.385-1.961.847-2.934 1.285-.953.481-1.916.944-2.843 1.479a49.238 49.238 0 00-5.389 3.45 53.613 53.613 0 00-4.921 4.095 53.429 53.429 0 00-4.384 4.667 58.602 58.602 0 00-3.832 5.137c-2.373 3.563-4.362 7.374-6.035 11.316-1.669 3.947-2.992 8.04-4.016 12.208a83.669 83.669 0 00-1.291 6.306c-.344 2.114-.628 4.251-.755 6.377l-.655-.028c-.149-2.194-.08-4.377.03-6.57.028-.548.064-1.096.104-1.643.054-.546.103-1.093.166-1.64a84.613 84.613 0 01.965-6.542 53.06 53.06 0 01.697-3.25 78.79 78.79 0 011.849-6.421 69.595 69.595 0 012.43-6.293 67.146 67.146 0 013.114-6.059 59.641 59.641 0 013.813-5.733c1.385-1.847 2.875-3.636 4.506-5.301a58.683 58.683 0 015.191-4.726c1.824-1.482 3.782-2.804 5.795-4.029 1-.622 2.042-1.176 3.076-1.744 1.056-.522 2.102-1.079 3.188-1.532 1.074-.493 2.176-.906 3.272-1.338.55-.206 1.108-.391 1.662-.587l.834-.289.843-.258 1.684-.511 1.701-.446c1.13-.315 2.278-.524 3.422-.776 2.293-.416 4.596-.788 6.903-.999.576-.053 1.153-.126 1.729-.163l1.729-.115c1.155-.098 2.303-.088 3.457-.125.288-.004.574-.009.862-.009.862 0 1.721.022 2.582.026 1.145.033 2.287.089 3.431.136l5.426.217-.057 5.527zm-57.627.415H233.81c.379 8.327 3.791 12.262 10.386 12.262 4.777 0 7.886-2.347 8.946-7.19.076-.38.455-.607.759-.607h7.582a.57.57 0 01.418.208 60.27 60.27 0 00-3.968 3.722c-1.674 1.708-3.203 3.543-4.624 5.436a65.558 65.558 0 00-2.721 3.939c-1.962.59-4.142.924-6.544.924-12.584 0-19.332-8.402-19.332-20.283 0-12.339 7.202-20.514 19.029-20.514 12.131 0 18.955 8.175 19.181 21.496 0 .303-.302.607-.606.607zm-18.499-15.744c-5.458 0-8.718 3.331-9.703 9.611h18.953c-.379-5.07-3.26-9.611-9.25-9.611zm-6.94 54.165a.192.192 0 01-.182.239h-3.338c-.151 0-.273-.089-.303-.239-.697-2.668-2.609-4.03-5.491-4.03-3.915 0-6.22 3.06-6.22 8.119 0 4.907 2.366 7.997 6.341 7.997 3.549 0 5.643-2.151 5.734-5.848h-5.855c-.123 0-.243-.12-.243-.241v-2.423a.26.26 0 01.243-.243h9.557c.12 0 .243.121.243.243.091 7.602-3.369 11.48-9.709 11.48-6.008 0-10.165-4.423-10.165-11.027 0-6.725 4.157-11.026 10.042-11.026 5.006 0 8.284 2.545 9.346 6.999zM217.509 53.66c-6.14 0-11.674-3.105-11.674-11.808l.076-21.041h-4.474c-.303 0-.606-.303-.606-.607v-5.6c0-.303.303-.606.606-.606h4.474l-.076-9.157c0-.305.303-.607.606-.607h7.962c.303 0 .605.302.605.607l-.074 9.157h8.869c.303 0 .606.303.606.606v5.6c0 .304-.303.607-.606.607h-8.869v20.815c0 3.935 1.666 5.147 4.547 5.147 1.744 0 3.184-.304 4.322-.607.303-.075.606.151.606.454v5.149c0 .378-.226.681-.606.755-1.897.607-4.171 1.136-6.294 1.136zm-24.94 0c-6.14 0-11.676-3.105-11.676-11.808l.076-21.041h-4.472c-.305 0-.607-.303-.607-.607v-5.6c0-.303.302-.606.607-.606h4.472l-.076-9.157c0-.305.303-.607.606-.607h7.962c.302 0 .606.302.606.607l-.075 9.157h8.869c.304 0 .607.303.607.606v5.6c0 .304-.303.607-.607.607h-8.869v20.815c0 3.935 1.666 5.147 4.547 5.147 1.744 0 3.184-.304 4.322-.607.304-.075.607.151.607.454v5.149c0 .378-.228.681-.607.755-1.895.607-4.17 1.136-6.292 1.136zm-17.515-18.468h-28.506c.38 8.327 3.792 12.262 10.387 12.262 4.777 0 7.884-2.346 8.945-7.19.076-.38.456-.607.759-.607h7.581c.304 0 .608.302.531.607-1.061 7.494-7.505 13.622-17.968 13.622-12.584 0-19.332-8.4-19.332-20.283 0-12.339 7.203-20.514 19.029-20.514 12.131 0 18.955 8.175 19.181 21.496 0 .303-.303.607-.607.607zm-18.498-15.744c-5.458 0-8.719 3.331-9.705 9.611h18.955c-.379-5.07-3.261-9.611-9.25-9.611zm-18.575 1.59c-.53-.075-1.213-.075-1.819-.075-7.355 0-13.268 4.238-13.571 13.093l.075 18.318c0 .302-.303.605-.605.605H114.1c-.303 0-.606-.303-.606-.605l.227-19.075-.227-18.695c0-.303.303-.606.606-.606h7.884c.303 0 .607.303.607.606l-.228 6.207c2.881-4.694 8.037-7.114 13.571-7.114.758 0 1.441.074 2.047.151.304.076.607.453.607.756v5.904c0 .303-.303.53-.607.53zm-15.273 56.664c0 6.542-4.156 10.965-10.437 10.965-6.311 0-10.438-4.454-10.438-10.995 0-6.757 4.097-11.058 10.438-11.058 6.281 0 10.437 4.242 10.437 11.088zm-10.437-8.088c-4.217 0-6.583 3.029-6.583 8.088 0 4.937 2.426 7.966 6.583 7.966 4.187 0 6.615-2.999 6.615-7.966 0-4.968-2.428-8.088-6.615-8.088zm-1.736-48.576c-.53-.075-1.212-.075-1.819-.075-7.354 0-13.268 4.238-13.57 13.093l.076 18.318c0 .302-.304.605-.608.605h-7.96c-.302 0-.606-.303-.606-.605l.227-19.075-.227-18.695c0-.303.304-.606.606-.606h7.885c.303 0 .607.303.607.606l-.228 6.207c2.88-4.694 8.037-7.114 13.571-7.114.758 0 1.44.074 2.046.151.303.076.606.453.606.756v5.904c0 .303-.303.53-.606.53zM81.347 52.979h-7.96c-.304 0-.607-.303-.607-.605l.151-4.768c-2.652 3.859-6.747 6.131-11.978 6.131-10.841 0-16.527-8.781-16.527-20.134 0-11.279 6.217-20.362 16.679-20.362 5.155 0 9.174 1.968 11.826 5.753l-.227-4.39c0-.303.305-.606.607-.606h8.036c.304 0 .607.303.607.606l-.227 18.771.227 18.999c0 .302-.303.605-.607.605zm-17.74-33.304c-6.671-.075-9.932 4.997-9.932 13.321 0 9.083 3.336 14.306 9.705 14.306 6.14 0 9.703-4.542 9.779-13.549.075-9.006-3.412-14.002-9.552-14.078zM42.151 37.082c0 11.355-9.4 15.897-19.787 15.897H.606c-.304 0-.607-.303-.607-.605l.303-26.266L-.001.602c0-.303.303-.606.607-.606h21.531c10.766 0 18.499 4.088 18.499 12.943 0 6.509-3.412 10.142-9.704 11.808 7.656 1.59 11.144 6.281 11.219 12.335zm-10.84-22.705c0-5.147-3.866-7.493-9.174-7.493H9.4l-.227 14.911h12.964c5.687 0 9.174-2.347 9.174-7.418zm-9.174 14.23H9.173L9.4 46.091h12.737c6.14 0 10.614-2.196 10.614-9.009 0-6.204-4.927-8.475-10.614-8.475zM10.606 66.614c6.281 0 10.437 4.242 10.437 11.088 0 6.542-4.156 10.965-10.437 10.965-6.311 0-10.438-4.454-10.438-10.995 0-6.757 4.097-11.058 10.438-11.058zm0 19.054c4.187 0 6.615-2.999 6.615-7.966 0-4.968-2.428-8.088-6.615-8.088-4.216 0-6.584 3.029-6.584 8.088 0 4.937 2.428 7.966 6.584 7.966zm12.687-18.63h3.369c.121 0 .243.121.243.243l-.062 6.786v6.209c0 3.3 1.335 5.3 4.521 5.3 3.337 0 4.733-2 4.733-5.3v-6.119l-.06-6.876a.26.26 0 01.243-.243h3.033a.26.26 0 01.243.243l-.061 6.876v6.148c0 5.363-2.7 8.362-8.131 8.362-5.461 0-8.253-2.999-8.253-8.362v-6.148l-.06-6.876c0-.122.121-.243.242-.243zm18.209 0h15.627c.121 0 .242.121.242.243v2.424c0 .12-.121.242-.242.242h-5.917l-.121 7.725L51.243 88c0 .121-.123.242-.243.242h-3.399c-.121 0-.243-.121-.243-.242l.153-10.328-.092-7.725h-5.917c-.12 0-.242-.122-.242-.242v-2.424c0-.122.122-.243.242-.243zm17.966 0h7.13c6.098 0 10.983 3.454 10.983 10.694 0 7.39-5.096 10.51-10.923 10.51h-7.19a.26.26 0 01-.242-.242l.121-10.479-.121-10.24c0-.122.121-.243.242-.243zm3.55 18.296h3.883c3.581 0 6.857-2.211 6.857-7.632 0-5.272-3.094-7.755-6.977-7.755h-3.763c0 .03-.092 4.694-.092 7.482 0 2.876.092 7.875.092 7.905zm26.705-18.72c6.281 0 10.437 4.242 10.437 11.088 0 6.542-4.156 10.965-10.437 10.965-6.312 0-10.438-4.454-10.438-10.995 0-6.757 4.096-11.058 10.438-11.058zm0 19.054c4.186 0 6.615-2.999 6.615-7.966 0-4.968-2.429-8.088-6.615-8.088-4.216 0-6.584 3.029-6.584 8.088 0 4.937 2.428 7.966 6.584 7.966zm35.417-18.63h8.042c5.066 0 8.07 2.184 8.07 6.484 0 3.24-1.822 5.329-4.885 6.149l5.401 8.359c.06.091 0 .212-.122.212h-3.853a.42.42 0 01-.364-.212L135.062 84l-2.64-3.965h-3.823L128.66 88c0 .121-.122.242-.244.242h-3.276c-.121 0-.243-.121-.243-.242l.091-10.479-.091-10.24c0-.122.122-.243.243-.243zm8.344 10.118c2.367 0 4.157-1.03 4.157-3.573 0-2.456-1.547-3.698-4.248-3.698h-4.763l-.061 7.271h4.915zm16.603-10.118h3.306a.26.26 0 01.243.243l-.12 9.934.12 8.119h9.012c.12 0 .243.122.243.242V88c0 .121-.123.242-.243.242h-12.561c-.121 0-.243-.121-.243-.242l.122-10.571-.122-10.148c0-.122.122-.243.243-.243zm18.542 21.204h-3.763V67.038h3.763v21.204zm1.851-21.204h3.641c.152 0 .273.09.304.243l5.612 17.781 5.554-17.781c.029-.153.151-.243.303-.243h3.186c.121 0 .212.121.151.243L182.344 88c-.061.151-.182.242-.333.242h-4.34c-.152 0-.273-.091-.333-.242l-7.009-20.719a.166.166 0 01.151-.243zm24.217 21.204h-3.763V67.038h3.763v21.204zm3.097-21.204h3.974c.152 0 .303.09.364.214l9.831 16.296-.031-1.059-.121-5.091V67.281a.26.26 0 01.243-.243h3.005c.119 0 .241.121.241.243l-.091 10.3L215.3 88c0 .121-.122.242-.241.242h-4.128a.42.42 0 01-.364-.212l-9.679-16.054.061 1.485.091 5.088.029 9.451a.26.26 0 01-.242.242h-3.033c-.122 0-.244-.121-.244-.242l.09-10.419-.09-10.3c0-.122.122-.243.244-.243zm43.333-.424c1.613 0 2.965 1.272 2.965 2.938a2.945 2.945 0 01-2.965 2.967c-1.621 0-2.98-1.271-2.98-2.967 0-1.666 1.359-2.938 2.98-2.938zm0 5.472c1.368 0 2.427-1.09 2.427-2.534 0-1.414-1.059-2.504-2.427-2.504-1.383 0-2.442 1.09-2.442 2.504 0 1.444 1.059 2.534 2.442 2.534zm1.393-3.261c0 .623-.397.885-.91.939l.987 1.523h-.577l-.939-1.483h-.57v1.483h-.538v-3.449h1.336c.822 0 1.211.324 1.211.987zm-2.009-.552v1.098h.561c.475 0 .909-.025.909-.571 0-.457-.395-.527-.758-.527h-.712z" fill="#000"/></svg>