<svg
          xmlns="http://www.w3.org/2000/svg"
          x="0"
          y="0"
          enableBackground="new -3093 -20 652 652"
          version="1.1"
          viewBox="-3093 -20 652 652"
          xmlSpace="preserve"
        >
          <path
            d="M-2755.9 104h121.5c61.1 0 86.1-19.9 86.1-19.9h-207.9c-143 0-204.4 98.1-188.6 182.6 11.1 60.1 66.1 111.1 146.5 116.1 32.6 1.9 63.9-7.6 63.9-7.6-97.5 1.9-166.1-49.1-173.7-119-9.5-85.5 52.8-152.2 152.2-152.2"
            className="st0 fill-orange"
            fill="#f2782a"
          />
          <path
            d="M-2800.4 134.1c100.3-8.9 150.6 57.3 143.4 123.4-5.4 47.5-51.9 85.4-102.9 82.9-21.2-.9-39.9-9.8-39.9-9.8 57.6 2.2 101.6-37.3 107-85.1 7.3-66.1-47.5-104.4-107.6-111.4"
            className="st0 fill-orange"
            fill="#f2782a"
          />
          <path
            d="M-2767.2 168.9c-67.7-13.9-103.8 32.3-99.1 76.3 3.2 31.6 33.9 56.6 68 55.4 13.9-.6 26.6-6.3 26.6-6.3-38.3.9-60.4-22.8-63.6-54.4-4.7-43.7 27-66.9 68.1-71"
            className="st0 fill-orange"
            fill="#f2782a"
          />
          <path
            d="M-2750.3 444.1c-2.9-.9-6.1-1.3-8.9-1.3-6.6 0-13.3 4.7-16.3 11.3h-.3v-9.7h-10.9v62.7h11.5v-28.6c0-15.8 6.8-25.6 17.1-25.6.4 0 1.6.1 1.9.1l5.9-8.9zM-3022.9 454.9c-4.4-1.9-8.9-2.7-12.5-2.7-12.9 0-20.2 11.5-20.2 23.5 0 11.3 6.1 23.5 20.9 23.5 3.9 0 8.9-1.3 12.4-3.5l.9 10.4c-4.8 2.3-10.4 2.5-14.5 2.5-19 0-32-14.9-32-32.9 0-19.1 12.8-32.9 32-32.9 4.7 0 10.8 1.1 14 2.4l-1 9.7zM-2893.1 494.7c4.6 2.9 11.1 4.4 14.4 4.4 5.3 0 11.8-2.3 11.8-9 0-11.4-27.2-10.5-27.2-28.1 0-13 9.7-19.4 22.1-19.4 5.4 0 9.9 1.1 14.4 2.4l-1 10.1c-2.5-1.6-9.5-3.2-12.1-3.2-5.9 0-11.1 2.4-11.1 7.6 0 12.8 27.2 9.1 27.2 29.2 0 13.4-10.8 19.6-21.9 19.6-5.9 0-11.9-.6-17.2-3.4l.6-10.2zM-2974.5 482.7c0 9.4-6.1 16.4-17.5 16.4-5.3 0-11.6-3.5-11.6-10.2 0-11.1 15.6-12 21.8-12 2.4 0 4.9.3 7.3.3v5.5zm12 24.3c-.3-1.9-.5-5.2-.5-12.3v-25.9c0-17.1-7.2-25.9-25.2-25.9-8 0-14.9 2.4-20.6 5.9l.6 9.9c4.7-3.9 11.6-6.5 18.2-6.5 11.6 0 15.6 5.6 15.6 16.3-4.6-.3-7.7-.3-12.3-.3-11.9 0-29.2 4.9-29.2 20.6 0 13.7 9.5 19.6 23 19.6 10.6 0 16.7-5.8 19.5-9.6h.3v8.1c-.1.1 10.6.1 10.6.1zM-2595 444.3h11.3v10h.3c3.4-7.1 11.8-11.5 20.6-11.5 16.2 0 23.5 10.1 23.5 26.9V507h-11.5v-32.5c0-14.7-3.2-21.8-13.3-22.4-13.2 0-19.1 10.6-19.1 25.8V507h-11.5l-.3-62.7zM-2462.8 454.2c-3.2 0-5.6-2.6-5.6-5.9s2.4-5.9 5.6-5.9 5.6 2.6 5.6 5.9c0 3.5-2.5 5.9-5.6 5.9m0-12.6c-3.8 0-6.9 3.1-6.9 6.9s3.1 6.9 6.9 6.9 6.9-3.1 6.9-6.9c0-3.9-3.1-6.9-6.9-6.9"
            className="st1 fill-white"
            fill="#fff"
          />
          <path
            d="M-2464.2 447.8v-2.4h1.6c.9 0 1.6.2 1.6 1.2 0 1.1-.6 1.3-1.6 1.3 0-.1-1.6-.1-1.6-.1zm4.6-1.2c0-1.5-1-2.3-2.8-2.3h-3.1v8h1.3v-3.5h1.1l2.3 3.5h1.4l-2.3-3.5c1.3.1 2.1-.9 2.1-2.2M-2807.7 482.7c0 9.4-6.1 16.4-17.5 16.4-5.3 0-11.8-3.5-11.8-10.2 0-11.1 15.6-12 21.8-12 2.4 0 4.9.3 7.3.3v5.6h.2zm11.5-13.9c0-17.1-7.2-25.9-25.3-25.9-8 0-14.9 2.4-20.6 5.9l.6 9.9c4.7-3.9 11.6-6.5 18.2-6.5 11.5 0 15.6 5.6 15.6 16.3-4.6-.3-7.7-.3-12.3-.3-11.9 0-29.2 4.9-29.2 20.6 0 13.7 9.5 19.6 23 19.6 10.6 0 16.7-5.8 19.5-9.6h.3v8.1h10.9c-.3-1.9-.5-5.2-.5-12.3l-.2-25.8zM-2633 499.2c-13.7 0-19.7-12.3-19.7-23.5 0-11.9 7.2-23.5 19.7-23.5 12.3 0 19.6 11.5 19.6 23.5 0 11.2-6.1 23.5-19.6 23.5m0-56.3c-19.2 0-32 13.8-32 32.9 0 18 13 32.9 32 32.9 18.8 0 31.9-14.9 31.9-32.9-.1-19.1-12.8-32.9-31.9-32.9M-2520.3 469.7c.9-8.1 5.6-17.5 16.8-17.5 10 0 15.7 7.8 15.7 17.5h-32.5zm17.2-26.8c-17.7 0-29.5 13.2-29.5 31.8 0 20.5 10.2 34 32.5 34 10.4 0 15.4-2.4 19.9-4V493c-2.8 2.3-11.6 6.3-19.4 6.3-11 0-20.7-8.5-20.7-20.9h44.8c0-20.4-6.7-35.5-27.6-35.5M-2927 452.2c10 0 15.6 7.8 15.6 17.5h-32.5c.8-8.2 5.5-17.5 16.9-17.5m-17 26.1h44.8c0-20.2-6.8-35.4-27.7-35.4-17.7 0-29.5 13.2-29.5 31.8 0 20.5 10.2 34 32.5 34 10.4 0 15.4-2.4 19.9-4V493c-2.8 2.3-11.6 6.3-19.4 6.3-10.8-.1-20.6-8.6-20.6-21M-2673 499.2c-5.3 0-9.7-3.9-9.7-11.3v-34.2h16.6v-9.4h-16.6v-9.9l-11.5 2.2v7.7h-32.9c-2.3.1-21.6-1.8-21.6 17.8 0 17.6 27.2 16.6 27.2 28.1 0 6.7-6.6 9-11.8 9-3.3 0-9.9-1.5-14.4-4.4l-.6 10.4c5.3 2.8 11.3 3.4 17.2 3.4 11.1 0 21.9-6.2 21.9-19.6 0-20.1-27.7-16.6-27.2-29.5.3-5.6 6.2-5.8 10.6-5.8h31.6v36.7c0 12.5 7.3 18.2 19.4 18.2 3.7 0 7.2-1 9.9-1.8V497c-2 1.1-4.6 2.2-8.1 2.2"
            className="st1 fill-white"
            fill="#fff"
          />
        </svg>