<svg
          xmlns="http://www.w3.org/2000/svg"
          version="1.1"
          xmlSpace="preserve"
          className="orange"
          fill="#f98318"
          viewBox="0 0 354.667 81.333"
        >
          <title>Fieldstone Cabinetry</title>
          <g transform="matrix(1.33333 0 0 -1.33333 0 81.333)">
            <g
              fillOpacity="1"
              fillRule="nonzero"
              stroke="none"
              transform="scale(.1)"
            >
              <path
                className="orange"
                fill="#f98318"
                d="M2599.69 586.129a31.264 31.264 0 01-9.38-22.5 31.552 31.552 0 019.3-22.5c12.54-12.609 32.93-12.609 45.47 0 6.01 5.941 9.37 14.031 9.37 22.5-.07 28.562-34.65 42.781-54.76 22.5zm49.41-48.828c-23.55-23.473-63.75-6.949-63.94 26.328 0 20.711 16.75 37.5 37.5 37.5 33.16-.188 49.72-40.188 26.44-63.828zm-19.41 40.668a18.977 18.977 0 01-8.71 1.48h-6.14v-15h6.53c2.3-.109 4.61.199 6.83.903 4.81 2.378 5.63 8.988 1.49 12.457zm-7.5 6.441c3.79.199 7.58-.308 11.17-1.519 4.18-1.641 6.76-5.86 6.37-10.352.23-3.199-1.33-6.328-4.03-8.09a15.353 15.353 0 00-5.93-1.949c2.81-.309 5.39-1.762 7.03-4.059a11.134 11.134 0 002.26-6.371v-3.011-2.969a5.336 5.336 0 010-2.18v-.551h-6.76c.04.161.04.313 0 .469.04.152.04.313 0 .473v4.328c.47 3.601-1.01 7.191-3.9 9.383-2.54 1.047-5.28 1.519-8.01 1.328h-5.7v-15.981h-7.5v41.051z"
              ></path>
              <path
                className="orange"
                fill="#f98318"
                d="M245.16 211.449H2233.4v88.121H245.16z"
              ></path>
              <path
                className="orange"
                fill="#f98318"
                d="M310.98 527.031v68.239c.309 3.75-.781 7.46-3.05 10.429a22.779 22.779 0 01-10.981 4.223s-62.847-2.113-140.621-1.293c-56.758.512-144.297 2.031-145.347 1.062-3.13 0-10.43-1.601-10.942-8.402-1.559-16.68 47.383-11.949 60-33.828a36.178 36.178 0 005.7-22.891l-.54-262.031c0-.551.54-36.449-13.48-48.988-9.38-8.86-30.738-6.75-30-20.313 0-6.25 7.5-8.859 7.5-8.859s50 1.562 81.761 1.562c29.18 0 74.532-2.621 75.5-1.562 3.168 0 12.54 0 12.54 6.832-.54 17.148-40.11 5.699-56.79 36.449-3.91 7.539-5.859 15.93-5.71 24.449v109.102c0 6.758-1.051 11.949 3.089 16.68a16.379 16.379 0 0013.051 4.73h44.25c16.719 0 28.641-2.109 40.668-13.051 11.992-10.98 15-36.992 15.582-37.5 2.621-6.25 7.5-12.539 13.559-10.98 6.09 1.609 8.359 9.379 7.5 16.14l-2.617 118.282c.468 5.777-3.981 10.777-9.801 10.937-6.332-.508-7.5-5.238-9.922-9.379-.508-.511-6.289-21.371-19.809-31.25-9.879-8.359-22.5-12.808-35.468-12.539h-46.051c-3.09 1.289-6.063 2.848-8.832 4.731-3.598 2.539-3.09 9.879-3.09 16.129V557.77a46.22 46.22 0 005.199 15c6.723 11.41 25.473 9.378 26.012 9.378.512 0 82.5 6.762 106.25-17.226 9.14-10 14.34-22.973 14.57-36.481 0-.511 1.059-14.031 9.379-14.031 7.34-1.09 13.242 5.942 10.941 13.012z"
              ></path>
              <path
                className="orange"
                fill="#f98318"
                d="M465.551 344.57c0 11.45-26.25 1.328-36.961 21.211-2.731 4.918-3.981 10.508-3.668 16.129v177.309a37.366 37.366 0 006.68 23.511c7.5 8.442 20.546 4.071 20.82 13.829 0 3.671-5 5.32-5.313 5.32-.308 0-33.668-2.039-54.879-1.649-18.48 0-47.429 2.04-48.089 1.649-2.032 0-6.762-.981-7.071-5.32-1.019-10.821 29.258-7.071 37.5-21.25 2.5-4.571 3.668-9.758 3.399-15V381.91c.703-8.32-1.989-16.601-7.5-22.89-5.778-6.051-19.219-5.7-18.52-15 0-3.75 4.34-5.071 4.731-5.071.351 0 32.23 1.711 52.5 1.711 18.441 0 47.769-2.031 48.441-1.711 1.949 0 7.5 1.321 7.5 5.391z"
              ></path>
              <path
                className="orange"
                fill="#f98318"
                d="M699.648 403.441s-1.058 4.02-3.398 4.02c-5.699 0-8.75-6.051-8.75-6.051a75.755 75.755 0 00-32.27-31.57c-16.949-6.52-35-9.84-53.16-9.84 0 0-19.879-1.949-26.91 6.09a21.472 21.472 0 00-4.73 16.18v73.281a11.55 11.55 0 002.769 9.758c2.031 2.269 4.961 3.519 8.012 3.363h28.59a33.162 33.162 0 0026.25-8.711c7.5-7.5 10.121-23.91 10.398-24.223 1.75-3.75 4.371-7.5 8.781-6.758 4.418.79 5.04 5.711 5.04 10.43l-2.34 76.059a6.58 6.58 0 01-6.45 7.07c-4.332 0-4.64-3.008-6.359-6.09a47.147 47.147 0 00-13.133-20.32c-6.367-5.149-14.289-8.008-22.5-8.039h-30c-2.027.66-3.976 1.558-5.777 2.73-1.949 3.239-2.691 7.11-2.109 10.86v66.91c.429 3.359 1.597 6.57 3.398 9.461 4.02 7.5 16.48 6.359 16.801 6.359.269 0 53.469 4.031 68.629-11.398 5.781-6.492 8.98-14.891 9.058-23.563 0-.39 1.063-9.058 6.063-9.058 5.039-.7 9.25 3.711 8.398 8.668l-1.019 43.75c.308 2.5-.551 5-2.34 6.761-1.641 2.309-6.371 2.309-7.039 2.309-.699 0-40.071-.981-90.539-.59-36.602 0-93.172.981-93.832.59-2.301 0-6.758-.59-7.032-4.649-1.058-11.101 28.942-7.031 37.5-21.21a27.43 27.43 0 003.672-15V382.969a30.484 30.484 0 00-7.5-23.278c-5.699-6.062-18.832-6.062-18.519-15 .429-2.543 2.269-4.613 4.73-5.39 0 0 32.309 2.027 52.5 2.027 37.028-.668 89.449-2.379 90-2.027a61.16 61.16 0 0119.489 3.668c37.5 16.801 35.32 60 35 60z"
              ></path>
              <path
                className="orange"
                fill="#f98318"
                d="M929.57 401.801c-.191 1.871-1.519 3.469-3.359 4.019-6.051.629-8.789-6.05-8.789-6.05a73.904 73.904 0 00-31.953-31.141 146.352 146.352 0 00-53.438-10.109c-9.57-1.098-19.179 1.402-26.953 7.031-5 4.058-3.668 15-3.668 16.211v177.066c-.43 8.402 1.91 16.684 6.75 23.551 7.5 8.402 20.469 4.07 20.86 13.793 0 3.668-5.11 5.387-5.43 5.387-.27 0-33.668-1.989-54.801-1.719-18.519 0-47.461 2.039-48.09 1.719-2.027 0-6.75-1.329-7.109-5.387-.969-10.703 29.262-7.031 37.5-21.133a28.988 28.988 0 003.289-15V381.602c.82-8.204-1.918-16.403-7.5-22.5-5.707-6.051-19.18-5.782-18.52-15 0-3.672 4.34-4.723 4.731-4.723.39 0 32.262 1.711 52.5 1.711 34.64 0 88.789-2.031 89.488-2.031 6.481-.309 13.012.589 19.184 2.742 37.5 16.789 34.957 60 34.648 60z"
              ></path>
              <path
                className="orange"
                fill="#f98318"
                d="M1186.6 402.07c33.32 50.2 30 119.41-6.76 161.481-32.89 38.328-109.25 38.719-123.04 38.328-.98 0-40.35-.981-65.941-.59-18.519 0-47.379 1.25-48.089.59-2.379 0-6.719-.981-7.11-5.32-.969-10.821 28.949-5.778 37.5-20.188a26.452 26.452 0 003.75-15V383.238a28.83 28.83 0 00-7.5-22.847c-6.09-6.411-19.211-6.09-18.82-15 .351-2.731 2.14-5.082 4.719-6.09 0 0 26.171 2.34 42.66 2.34 22.891 0 58.591-3.012 59.261-2.34 51.13-3.172 100.23 20.66 129.37 62.769zm-40.62 135.629c25.86-50.859 24.49-125.859-17.58-161.488-30-25.59-89.1-28.941-99.88-9.102a29.91 29.91 0 00-3.68 16.129v177.621c-.07 8.2 2.82 16.211 8.09 22.5 14.41 12.731 86.41 5.7 113.05-45.738z"
              ></path>
              <path
                className="orange"
                fill="#f98318"
                d="M1399.18 418.59c0 96.211-133.91 78.359-133.91 130.469 0 26.64 16.8 38.711 40.35 38.711 45 0 64.58-33.282 73.68-64.961 1.05-2.969 5.7-3.668 8.75-2.61a6.01 6.01 0 014.37 6.36l-4.72 62.582c0 3.359-.67 6.718-3.99 7.031-6.44.387-11.76-6.371-19.18-6.371-13.51 0-26.25 14.5-57.54 15-19.72.078-38.67-7.852-52.42-21.992-13.79-14.137-21.17-33.278-20.55-53.008 0-87.461 136.18-63.59 136.18-129.141 0-25.269-23.52-47.109-50.47-47.109-23.32.859-44.81 12.859-57.82 32.269a226.035 226.035 0 00-18.82 40.039c-.59 3.871-4.34 6.442-8.17 5.551-3.83-.859-6.09-4.808-4.96-8.558l13.44-62.622c.35-2.5 1.48-4.761 3.2-6.601a32.716 32.716 0 0110.82-3.078c24.22-5.981 39.96-13.442 62.15-13.442 42.11 0 79.45 30 79.45 81.762z"
              ></path>
              <path
                className="orange"
                fill="#f98318"
                d="M1667.07 546.762l-6.09 48.078c-.39 1.719-1.18 3.32-2.31 4.73a10.68 10.68 0 01-6.44 2.309c-.98 0-64.22-2.309-105-2.617-45-.672-114.38 3.277-115.75 2.617-1.95.031-3.86-.668-5.31-2.039-1.29-.781-2.03-2.18-2.03-3.668l-7.5-55.781c0-4.45 0-9.45 4.73-10.161 8.4-1.64 11.09 11.489 11.48 12.192a73.798 73.798 0 0013.05 27.5 24.261 24.261 0 0018.51 7.5h39.38c4.33 0 7.5.668 11.09-2.301a14.039 14.039 0 003.67-12.851V383.629c.08-8.75-3.86-17.07-10.7-22.5-13.12-9.758-30-2.609-31.29-15-.66-4.719 5.71-6.75 6.1-6.75.35 0 38.32.973 62.54.973 22.5 0 59.18-1.641 60-.973 2.03 0 7.5 2.34 7.5 6.75-.67 11.101-20.86 3.992-37.5 18.172-5.55 4.918-9.07 11.789-9.77 19.179v185.11c.19 2.148.9 4.219 2.03 6.058a7.95 7.95 0 007.07 3.012h43.71c7.74.969 15.55-1.609 21.14-7.07 8.47-8.399 13.12-27.578 13.82-27.891a9.468 9.468 0 018.09-4.027 7.485 7.485 0 015.39 8.398z"
              ></path>
              <path
                className="orange"
                fill="#f98318"
                d="M1942.15 476.801c0 62.89-32.62 127.5-118.05 127.5-90 0-143.63-59.571-143.63-142.973 0-74.34 54.18-125.777 126.17-125.777 99.22 0 135.51 72.301 135.51 140.929zm-43.71-10.672c0-69.957-24.61-112.5-83.09-112.5-58.51 0-87.77 51.84-87.77 124.422 0 72.609 29.02 110.39 80.39 110.39 59.18 0 90.47-56.171 90.47-122.461z"
              ></path>
              <path
                className="orange"
                fill="#f98318"
                d="M2242.93 595.859c.66 2.93-1.37 5.782-4.38 6.02 0 0-27.22-.981-44.37-.981-17.19 0-42.38 1.641-43.09.981-2.46-.508-4.18-2.777-4.02-5.32 0-11.09 22.5-4.45 37.5-22.5 4.61-8.2 6.72-17.579 5.98-26.95v-123.75s.7-5-2.31-5.738a7.378 7.378 0 00-5.7 3.039l-154.42 172.5c-2.03 2.43-2.34 5.43-5.03 7.07a12.256 12.256 0 01-9.07 2.04 338.604 338.604 0 00-35.04-2.04c-9.06.36-23.55 2.7-24.21 2.04-.67-.711-4.34-.629-5.04-6.68-1.33-12.149 26.56-6.102 35.35-28.949a106.925 106.925 0 004.33-35.352V394.73c0-.671 2.31-24.531-16.13-34.339-7.11-3.672-19.57-8.403-20.23-14.411-.55-2.929 1.48-5.71 4.41-6.058 0 0 28.59.937 46.45.937 17.81 0 45.74-1.64 46.01-1.328 2.58.739 4.38 3.09 4.38 5.778 0 11.101-21.18 2.703-36.6 21.14-7.15 8.391-8.79 27.61-8.79 28.281l.39 138.321s-.39 4.648 2.61 5.308c3.01.661 3.36-1.371 4.73-3.007l180-197.461c3.36-2.77 7.93-3.672 12.07-2.34 3.09 1.359 2.34 5.699 2.34 6.359v204.461c0 .699-3.98 30 14.46 39.758 7.5 3.672 17.19 3.672 17.85 9.73z"
              ></path>
              <path
                className="orange"
                fill="#f98318"
                d="M2584.61 299.41s-1.49 6.141-5.08 6.141c-8.79.539-13.36-9.223-13.36-9.223-11.17-20.668-28.32-37.5-49.22-48.238-33.83-15.36-80.97-15-80.97-15s-30-3.051-41.06 9.25a32.659 32.659 0 00-7.5 24.57v111.918c-.86 5.352.63 10.863 4.14 15 3.17 3.402 7.66 5.231 12.31 5.121h43.55c16.45 0 28.75-2.109 40-13.359s15-36.371 15.9-36.918c2.54-5.621 6.68-11.762 13.36-10.274 6.64 1.524 7.5 8.711 7.5 15.903l-3.63 115.898c.54 5.582-3.64 10.5-9.22 10.93-6.68 0-7.5-4.649-9.73-9.219-.55-.539-6.68-21.09-20.04-30.82a54.994 54.994 0 00-33.83-12.461l-46.13.43c-3.08 1.062-6.01 2.421-8.75 4.14a25.12 25.12 0 00-3.01 15.903l.43 101.988c.67 5.121 2.46 10 5.2 14.34 6.13 11.332 25.12 9.769 25.62 9.769.55 0 81.49 6.129 104.57-17.429a54.793 54.793 0 0013.79-35.86c.55-.5 1.6-13.859 9.3-13.859 7.58-.711 13.83 5.82 12.77 13.359l-1.52 66.602c.51 3.789-.82 7.609-3.59 10.269-2.54 3.598-9.73 3.598-10.71 3.598-.97 0-61.05-1.57-137.93-1.059-55.89.551-141.99 1.602-143.04 1.059-3.6 0-10.28-1.059-10.78-7.5-1.53-16.957 44.1-10.707 56.91-32.309 3.98-6.84 5.94-14.648 5.62-22.5V268.121a46.604 46.604 0 00-11.75-35.391c-8.71-9.21-28.75-9.21-28.21-22.5.75-3.941 3.64-7.109 7.5-8.16 0-.55 49.18 3.051 80.47 3.051 56.41-1.062 136.33-3.601 137.39-3.051 10.23.2 20.39 2.11 30 5.629 57.38 25.621 53.86 91.25 53.32 91.789z"
              ></path>
              <path
                className="orange"
                fill="#f98318"
                d="M360.859 132.73c33.75 0 43.051-13.781 48.243-13.781 1.41 0 2.539 1.711 4.339 1.711 1.789 0 1.95-2.851 2.457-14.449.391-9.531 2.032-15.473-1.058-15.473-3.039 0-3.43 4.653-4.102 5.942-11.09 19.179-23.859 30.82-47.027 30.82-34.961 0-51.832-23.32-51.832-56.64 0-31.169 18-62.462 52.5-62.462 28.121 0 45.699 18.012 48.391 26.25a3.084 3.084 0 002.539 2.34 1.776 1.776 0 001.57-2.027l-4.109-17.93c0-.66-12.93-14.101-53.239-14.101a60.011 60.011 0 00-45.39 17.23 59.898 59.898 0 00-17.77 45.149c-.082 37.07 26.68 67.421 64.488 67.421z"
              ></path>
              <path
                className="orange"
                fill="#f98318"
                d="M622.301 47.031c-1.789 4.14-2.852 6.758-7.852 6.758H575c-3.398 0-6.602 0-8.398-3.75l-11.481-25.078a19.322 19.322 0 01-1.293-6.29c0-12.5 12.774-7.5 12.774-11.831 0-3.25-2.582-2.7-4.883-2.7-5.039 0-10.039.739-15 .739-4.957 0-9.688-.738-14.34-.738-1.051 0-1.641.898-1.641 2.03 0 3.75 8.481.669 13.133 10.86l42.731 91.489c10.589 22.5 11.097 25.429 13.437 25.429 2.301 0 3.242-5.16 3.75-6.609l37.5-92.38c2.34-7.07 5.352-13.91 8.981-20.39 5.429-8.28 15.781-4.37 15.781-8.789 0-1.64-1.211-1.64-2.5-1.64-7.5 0-15 .738-22.031.738-4.879 0-9.68-.738-14.571-.738-1.051 0-3.898 0-3.898 1.8 0 4.258 10.738 2.457 10.738 9.29-1.168 5.898-3.008 11.648-5.551 17.109zm-48.352 17.93c-1.289-2.54 0-3.242 2.301-3.242h35.469c3.98 0 3.832 1.21 2.929 3.59l-17.617 43.211c-.902 2.179-1.801 2.179-2.851 0z"
              ></path>
              <path
                className="orange"
                fill="#f98318"
                d="M798.789 113.16c0 13.68-15.98 11.879-15.98 15.469 0 3.601 2.703 2.461 4.89 2.461 3.59 0 7.5-.66 14.332-.66 6.797 0 14.379.66 28.707.66 31.563 0 39.461-17.219 39.461-30.43 0-18.32-16.879-24.21-16.879-25.5 0-2.7 28.2-3.25 28.2-33.012 0-11.84-8.629-38.007-43.668-38.007-6.442 0-17.153.738-23.243.738-8.238 0-16.718-.738-24.961-.738-.898 0-4.449 0-4.449 2.03 0 1.99 2.102 2.227 5.352 3.36 2.027.508 8.238 1.41 8.238 15.43zm14.18-31.05c0-5.66-2.11-6.56 14.019-6.56 29.422 0 30.821 10.93 30.821 19.329 0 19.34-16.36 30-34.411 30-11.328 0-10.429-3-10.429-13.43zm0-56.45c0-12.93-.899-16.68 24.609-16.68 23.832 0 30 15.79 30 26.57 0 10.821-.777 34.41-42.027 34.41-13.789 0-12.891-2.538-12.891-4.1z"
              ></path>
              <path
                className="orange"
                fill="#f98318"
                d="M1015.23 115.66c0 13.129-14.45 9.539-14.45 13.481 0 1.597 0 1.949 1.8 1.949 6.6 0 13.04-.66 19.72-.66 5.55 0 11.1.66 16.65.66 2.85 0 3.35 0 3.35-1.789 0-4.262-12.89 0-12.89-13.641V19.34c0-12.149 15.98-8.012 15.98-13.399 0-1.293-.55-1.8-3.59-1.8-3.09 0-11.8.738-19.5.738-10.97 0-15-.738-17.26-.738-2.27 0-3.75.898-3.75 2.699 0 5.148 13.94-.668 13.94 17.031z"
              ></path>
              <path
                className="orange"
                fill="#f98318"
                d="M1181.13 95.781c0 37.5-21.68 26.918-21.68 33.52 0 1.129 1.8 1.789 2.7 1.789 2.85 0 5.55-.66 8.4-.66 2.85 0 5.54.66 8.28.66 2.69 0 3.59-2.852 4.65-4.102l85.62-95.27c1.06-1.167 1.8-1.949 2.19-1.949.39 0 .51.54.51 1.95v75c0 23.48-19.92 16.64-19.92 22.5-.08 1.09.85 1.953 1.95 1.801 5.39 0 10.62-.668 16.33-.668 5.7 0 13.79.668 18.16.668 1.06 0 1.8-.508 1.8-1.571 0-4.719-10.59-1.48-10.59-14.527V11.02c0-5.16 0-7.5-1.64-7.5s-3.09.89-6.84 4.96l-76.95 86.75c-.35 0-2.54 3.399-3.75 3.399-1.17 0-1.25-.54-1.25-4.14V21.171c0-16.133 15.74-9.844 15.74-15 0-.942 0-2.344-1.95-2.344-4.3 0-9.3.742-18.09.742-6.28 0-15.58-.742-16.87-.742-1.25 0-2.31 1.133-2.31 2.031 0 6.211 15.75-1.64 15.75 23.48z"
              ></path>
              <path
                className="orange"
                fill="#f98318"
                d="M1440.47 78.91c0-6.101 0-6.101 6.83-6.101h19.38c18.59 0 13.79 14.34 18.05 14.34 1.52 0 2.03-1.95 2.03-3.36 0-6.328-.35-12.379-.35-18.168 0-4.64.35-9.293.35-14.172 0-1.57-.74-2.308-2.03-2.308-5.55 0 .54 15.82-14.46 15.82h-26.56c-3.75 0-3.24-3.082-3.24-5.781V26.172c0-10.582-1.49-15 13.67-15 41.41 0 47.46 18.437 49.81 18.437 2.3 0 1.4-1.8 1.4-2.148a28.534 28.534 0 00-8.9-17.422c-5.79-6.45-9.69-6.059-17.62-6.059-13.6 0-27.23 1.141-40.9.75-7.5 0-15-.75-21.88-.75-1.6 0-2.65 0-2.65 1.801 0 1.797 2.11 1.797 7.5 4.649 5.43 2.851 5.04 7.5 5.04 15.59v81.992c0 8.008 0 16.636-9.69 18.078-1.41 0-5.39.75-5.39 2.859 0 2.071 1.05 2.141 6.29 2.141 33.9 0 43.2-.66 50.7-.66 3.6 0 20.12.66 25.67.66 1.48 0 1.79-1.789 1.79-3.981 0-19.839-2.46-21.289-3.59-21.289-4.3 0-1.45 8.629-4.3 12.77-4.65 6.058-23.32 5-30.51 5-17.18 0-16.79.711-16.79-11.32z"
              ></path>
              <path
                className="orange"
                fill="#f98318"
                d="M1667.34 113.051c0 1.168.71 8-1.79 8.238h-28.95c-11.17 0-11.44-2.699-15-12.617-.51-1.793-.74-4.102-3.05-4.102-1.05 0-1.83 1.25-1.83 2.149l2.03 17.422c0 2.07 0 6.949 3.24 6.949 13.95 0 27.74-.66 50.94-.66 32.46 0 48.87.66 52.5.66 3.59 0 5-1.051 5.16-5.149l.97-14.421c0-1.79 0-3.899-2.03-3.899-6.6 0 3.09 13.668-15 13.668h-25.62c-8.05 0-7.5.66-7.5-8.867V21.02c0-15 14.53-9.18 14.53-15 0-.551 0-2.192-1.56-2.192-4.38 0-9.38.742-14.58.742-8.2.2-16.4-.039-24.6-.742-1.57 0-2.08.512-2.08 2.344 0 4.34 14.18 2.539 14.18 13.238z"
              ></path>
              <path
                fclassName="orange"
                fill="#f98318"
                d="M1939.38 23.629c12.92-19.719 21.67-13.117 21.67-17.418 0-2.152-10.03-2.152-11.6-2.152-13.12 0-20.11 9.14-26.95 19.34l-19.84 31.44c-6.49 10.04-3.83 9.5-23.87 9.5-5.78 0-4.73-3.288-4.73-5v-37.5c0-15 18.67-9.85 18.67-15.98 0-1.8-1.56-1.449-3-1.449-1.41 0-5.78.79-20.63.79-6.8 0-13.63-.79-20.47-.79-1.05.04-1.87.98-1.79 2.04 0 4.41 13.12 1.948 13.12 15.538v91.063c0 17.148-15.43 9.801-15.43 15.898 0 1.09 1.41 2.141 3.59 2.141 3.79-.43 7.62-.66 11.45-.66 10.43 0 20.63.66 30 .66 2.85 0 42.54 3.601 42.54-31.051-.63-13.867-9.45-26.09-22.5-30.98zm-65.32 49.262c0-3.36 11.17-2.461 19.57-2.461 14.38-1.02 26.25 11.05 24.96 25.43 0 21.87-16.71 29.261-34.25 29.261-6.45 0-10.28 0-10.28-6.601z"
              ></path>
              <path
                className="orange"
                fill="#f98318"
                d="M2077.97 119.84c-4.65 7.5-13.4 5.551-13.4 8.558-.04 1.372.98 2.5 2.31 2.692 4.88 0 8.28-.66 20.46-.66 5.86 0 10.75.66 12.54.66 1.8 0 3.44 0 3.44-1.789 0-3.09-8.48-3.211-8.48-8.403.39-2.738 1.49-5.347 3.25-7.5l21.75-34.648c1.41-2.11 2.46-3.2 3.52-3.2 1.05 0 2.03 1.25 3.44 3.59l18.47 30.001c2.27 2.808 3.6 6.289 3.75 9.879 0 8.789-13.43 5.039-13.43 9.3 0 2.34 1.79 2.7 3.75 2.7 4.25 0 8.78-.668 13.12-.668s10.35.668 15.59.668a2.265 2.265 0 001.95-2.149c0-1.961-2.97-2.699-4.26-3.402a32.333 32.333 0 01-10.04-12.379l-25.15-39.07c-2.85-4.489-4.26-5.391-4.26-8.079V21.988c0-15.617 15-10.578 15-16.129 0-1.558-1.64-1.8-4.14-1.8-2.46 0-13.13.742-19.73.742-8.08 0-14.53-.742-16.09-.742-1.6 0-2.78 0-2.78 2.152 0 5.039 13.87 0 13.87 13.09v43.468c-.54 3.36-1.95 6.532-4.14 9.141z"
              ></path>
            </g>
          </g>
        </svg>