<svg version="1.1" id="Layer_1" xmlns="http://www.w3.org/2000/svg" xmlns:xlink="http://www.w3.org/1999/xlink" x="0px" y="0px"
	 width="771.8px" height="186.9px" viewBox="0 0 771.8 186.9" style="enable-background:new 0 0 771.8 186.9;" xml:space="preserve"
	>
<style type="text/css">
	.st0{fill:#FFFFFF;}
	.st1{fill-rule:evenodd;clip-rule:evenodd;fill:#FFFFFF;}
</style>
<g>
	<g>
		<path class="st0" d="M231.8,86.4c0,17-7.7,23.6-23.1,23.6c-15.6,0-22.6-8.7-22.6-22.1v-5.2h17.1v3.5c0,4.8,0,9.1,5.1,9.1
			c4.9,0,4.6-5.9,4.6-8.7V47h19v39.4H231.8z M283.2,98.6c0,3.4,0.2,7.2,2.1,10h-17.4c-0.4-1.2-0.7-3-0.6-4.2h-0.2
			c-3.6,4.1-8.9,5.3-14.4,5.3c-8.6,0-15.8-4.2-15.8-13.5c0-14.1,16.6-13.6,25.3-15.3c2.3-0.4,4.7-1.1,4.7-4c0-3-2.9-4.1-5.6-4.1
			c-5.3,0-6.3,2.7-6.4,4.6H239c0.5-12.6,12.4-14.7,23-14.7c21.4,0,21.2,8.9,21.2,17.5L283.2,98.6C283.3,98.6,283.2,98.6,283.2,98.6z
			 M266.8,88.5c-2.1,1-4.4,1.6-6.7,2.1c-3.8,0.9-5.8,1.8-5.8,4.8c0,2.1,2.3,4.1,5.3,4.1c3.9,0,6.9-2.3,7.2-7V88.5z M292.2,63.8h16.5
			v5.9h0.2c3.4-5.2,8.4-7.1,14.7-7.1c4.8,0,10,2.5,12.1,7c0.7-0.5,4.1-7,15.3-7c11.5,0,15.3,7.9,15.3,15.2v30.7h-17.1V84.4
			c0-4.2-0.4-8-5.6-8c-4.3,0-5.8,3.4-5.8,8v24.2h-17.1V84.4c0-4.2-0.4-8-5.6-8c-4.3,0-5.8,3.4-5.8,8v24.2h-17.1
			C292.2,108.6,292.2,63.8,292.2,63.8z M388.6,90c0.4,5.1,3.4,8.7,8.7,8.7c2.8,0,5.8-1,7.2-3.2h15.9c-3.4,9.7-12.8,14.1-23,14.1
			c-14.3,0-25.1-8.4-25.1-23.4c0-13,9.5-23.6,23.6-23.6c17.8,0,25.4,9.9,25.4,27.3L388.6,90L388.6,90L388.6,90z M404.9,81.1
			c0-4.1-3.1-7.5-7.5-7.5c-5.1,0-8,2.7-8.8,7.5H404.9z M453.2,76.8c-0.1-1.5-0.9-2.6-2-3.4c-1-0.9-2.4-1.3-3.8-1.3
			c-2.4,0-5.2,0.5-5.2,3.4c0,1.3,1,1.9,2,2.3c2.9,1.2,9.3,1.5,15,3.4c5.7,1.8,10.7,5.2,10.7,12.5c0,12.4-11.9,15.8-22.7,15.8
			c-10.5,0-22.1-4.2-22.3-15.8h16.3c0.1,1.5,0.8,2.9,2.1,4c0.9,0.8,2.5,1.3,4.6,1.3c2.3,0,5.8-0.9,5.8-3.4c0-2.6-1.5-3.4-9.4-4.8
			c-13-2.3-18.3-6.4-18.3-14.1c0-11.3,12.2-14.2,21.1-14.2c9.7,0,21.3,2.7,21.7,14.1h-15.6V76.8z M476,47h19v21.4h17.8V47h19v61.6
			h-19V84.1H495v24.4h-19V47z M583,98.6c0,3.4,0.2,7.2,2.1,10h-17.4c-0.4-1.2-0.7-3-0.6-4.2h-0.2c-3.6,4.1-8.9,5.3-14.4,5.3
			c-8.6,0-15.8-4.2-15.8-13.5c0-14.1,16.6-13.6,25.3-15.3c2.3-0.4,4.7-1.1,4.7-4c0-3-2.9-4.1-5.6-4.1c-5.3,0-6.3,2.7-6.4,4.6h-15.9
			c0.5-12.6,12.4-14.7,23-14.7c21.4,0,21.2,8.9,21.2,17.5L583,98.6L583,98.6L583,98.6z M566.7,88.5c-2.1,1-4.4,1.6-6.7,2.1
			c-3.8,0.9-5.8,1.8-5.8,4.8c0,2.1,2.2,4.1,5.3,4.1c3.9,0,6.9-2.3,7.2-7V88.5z M591.2,63.8h16.4V71h0.2c2.8-5.3,6.4-8.3,12.6-8.3
			c1.7,0,3.4,0.3,5,0.7v15.1c-1.7-0.6-3.3-1.1-6.7-1.1c-6.7,0-10.3,4-10.3,13.5v17.7h-17.1L591.2,63.8L591.2,63.8z M675.6,108.5
			h-16.5v-4.9H659c-2.1,2.9-4.8,6-13.1,6c-12.7,0-18.8-12.5-18.8-23.7c0-10.5,4-23.3,19.1-23.3c5.1,0,9.7,2.3,12.2,6h0.2V47h17.1
			L675.6,108.5L675.6,108.5z M651.7,75.1c-6.1,0-7.5,5.8-7.5,11c0,5.3,1.4,11.1,7.5,11.1s7.5-5.8,7.5-11.1
			C659.2,80.9,657.8,75.1,651.7,75.1z M700.2,55.6V59h-17.1V47h17.1V55.6z M683.1,63.8h17.1v44.7h-17.1V63.8z M722.6,90
			c0.4,5.1,3.4,8.7,8.7,8.7c2.8,0,5.8-1,7.2-3.2h16c-3.4,9.7-12.8,14.1-23,14.1c-14.3,0-25.1-8.4-25.1-23.4c0-13,9.5-23.6,23.6-23.6
			c17.8,0,25.4,9.9,25.4,27.3L722.6,90L722.6,90L722.6,90z M739,81.1c0-4.1-3.1-7.5-7.5-7.5c-5.1,0-8,2.7-8.8,7.5H739z"/>
	</g>
	<path class="st1" d="M78.5,0C35.2,0,0,35.2,0,78.5S35.2,157,78.5,157S157,121.8,157,78.5S121.8,0,78.5,0z M72.9,142.8l10.9-33.4
		h14.5l-10.7,33.1c-3,0.4-5.9,0.6-9,0.6C76.6,143,74.7,143,72.9,142.8z M106.9,136.5L132.1,59h-17.5l-10.9,33.7H89.1l11-33.7H82.6
		l-26.1,80.2c-24.8-9-42.6-32.8-42.6-60.7c0-32.8,24.4-59.8,56.1-64L49.6,77.3c-0.9,2.5-3.7,3.8-6.2,2.9c-2.4-0.9-3.7-3.4-3-5.8
		l5-15.4H27.9l-3.3,10.1c-3.7,11.3,2.5,23.3,13.8,27s23.3-2.5,27-13.8l22-67.8c31.4,4.4,55.6,31.3,55.6,63.9
		C143,104,128.3,125.9,106.9,136.5z"/>
	<g>
		<path class="st0" d="M757.9,42.9h-2.5v-1.1h6.7v1.1h-2.5v7.2h-1.7C757.9,50.1,757.9,42.9,757.9,42.9z M763,41.7h2.6l1.8,6.2l0,0
			l1.8-6.2h2.6v8.4h-1.6v-7l0,0l-2.1,7h-1.4l-2.1-7l0,0v7H763V41.7L763,41.7z"/>
	</g>
</g>
<g>
	<path class="st0" d="M264.6,175.2v-40h22.9v7h-14.9v9.2h14.5v7h-14.5v9.8h14.9v7H264.6z"/>
	<path class="st0" d="M293.4,175.2v-40h8v32.9h13.4v7.1H293.4z"/>
	<path class="st0" d="M320.1,175.2v-40h8v40H320.1z"/>
	<path class="st0" d="M341.8,175.2v-32.9h-8.9v-7.1h25.9v7.1h-8.9v32.9H341.8z"/>
	<path class="st0" d="M363.6,175.2v-40h22.9v7h-14.9v9.2h14.5v7h-14.5v9.8h14.9v7H363.6z"/>
	<path class="st0" d="M405,175.2v-40h14.8c8.2,0,12.4,5.9,12.4,12.8s-4.1,12.7-12.4,12.7h-6.7v14.5H405z M418.8,142.2h-5.8v11.5h5.8
		c3.1,0,5.1-2.3,5.1-5.8C423.9,144.5,421.9,142.2,418.8,142.2z"/>
	<path class="st0" d="M455.5,175.2l-6.1-14.5H445v14.5h-8v-40h14.9c7.3,0,12.2,5.3,12.2,12.7c0,6.9-3.7,10.4-7,11.5l7.3,15.9H455.5z
		 M450.7,142.2H445v11.5h5.7c3.1,0,5.2-2.3,5.2-5.8C455.9,144.4,453.9,142.2,450.7,142.2z"/>
	<path class="st0" d="M470.1,175.2v-40H493v7h-14.9v9.2h14.5v7h-14.5v9.8H493v7H470.1z"/>
	<path class="st0" d="M498.9,175.2v-40h22.9v7H507v9.2h14.5v7H507v16.9H498.9z"/>
	<path class="st0" d="M527.3,175.2v-40h22.9v7h-14.9v9.2h14.5v7h-14.5v9.8h14.9v7H527.3z"/>
	<path class="st0" d="M574.6,175.2l-6.1-14.5h-4.3v14.5h-8v-40h14.9c7.3,0,12.2,5.3,12.2,12.7c0,6.9-3.7,10.4-7,11.5l7.3,15.9H574.6
		z M569.9,142.2h-5.7v11.5h5.7c3.1,0,5.2-2.3,5.2-5.8C575.1,144.4,573,142.2,569.9,142.2z"/>
	<path class="st0" d="M607.7,175.2l-6.1-14.5h-4.3v14.5h-8v-40h14.9c7.3,0,12.2,5.3,12.2,12.7c0,6.9-3.7,10.4-7,11.5l7.3,15.9H607.7
		z M602.9,142.2h-5.7v11.5h5.7c3.1,0,5.2-2.3,5.2-5.8C608.1,144.4,606.1,142.2,602.9,142.2z"/>
	<path class="st0" d="M622.3,175.2v-40h22.9v7h-14.9v9.2h14.5v7h-14.5v9.8h14.9v7H622.3z"/>
	<path class="st0" d="M651.1,175.2v-40H664c11,0,17.4,8.3,17.4,20c0,11.8-6.3,20-17.4,20H651.1z M659.2,168.1h4.9
		c5.9,0,9.2-5.3,9.2-12.9c0-7.9-3.1-13-9.2-13h-4.9V168.1z"/>
</g>
</svg>