<svg
xmlns="http://www.w3.org/2000/svg"
version="1.1"
viewBox="0 0 448.239 97.365"
className="fill-white"
fill="#fff"
>
<title>Kohler</title>
<path d="M162.403 3.18h24.561v31.078h24.228V3.18h24.561v89.056h-24.561V58.819h-24.228v33.417h-24.561V3.18M242.103 3.18h24.561v66.082h27.068v22.974h-51.629V3.18M298.744 3.18h49.624v20.468h-25.062v13.7h25.062v20.469h-25.062v13.951h25.062v20.468h-49.624V3.18M353.882 3.18h24.561c4.539.1 9.059.423 13.534 1.254 14.035 2.994 25.397 18.127 21.721 32.594-1.67 8.48-7.853 14.966-14.704 19.954 8.536 11.66 16.88 23.46 25.23 35.254h-26.399c-6.674-8.588-13.032-17.49-19.382-26.248v26.248h-24.561V3.18zm24.561 20.588v17.376c4.034-.181 8.69.697 11.696-2.453 3.676-2.828 3.676-9.146.168-12.14-3.173-2.998-7.698-2.551-11.864-2.783M158.895 46.873C158.895 21.263 138.309.5 112.923.5 87.537.5 66.949 21.264 66.949 46.873c0 25.608 20.588 46.372 45.974 46.372 25.385 0 45.972-20.764 45.972-46.372zm-45.972-22.797c11.364 0 20.58 10.207 20.58 22.796 0 12.59-9.216 22.797-20.58 22.797-11.365 0-20.581-10.208-20.581-22.797s9.216-22.796 20.581-22.796" />
<path d="M80.03 3.216C68.45 17.4 56.648 31.406 45.11 45.62l40.1 46.617H52.796L25.56 60.332v31.904H1V3.18h24.56v26.287l23.278-26.25H80.03M439.204 79.294a9.008 9.008 0 016.389 2.646 9.006 9.006 0 012.646 6.39 9.007 9.007 0 01-2.646 6.388 9.01 9.01 0 01-6.389 2.647 9.008 9.008 0 01-6.389-2.647 9.008 9.008 0 01-2.647-6.389 9.007 9.007 0 012.647-6.389 9.006 9.006 0 016.39-2.646zm5.136 3.9a7.244 7.244 0 00-5.136-2.129 7.24 7.24 0 00-5.136 2.128 7.238 7.238 0 00-2.127 5.136c0 2.006.812 3.822 2.127 5.136a7.241 7.241 0 005.136 2.128 7.245 7.245 0 005.136-2.128 7.244 7.244 0 002.128-5.136 7.243 7.243 0 00-2.127-5.136" />
<path d="M442.992 92.912h-1.746l-1.424-3.768h-2.323v3.768h-1.652v-9.165h3.975c1.105 0 1.919.25 2.437.75.52.497.779 1.143.779 1.936 0 1.178-.55 1.987-1.652 2.43l1.606 4.049zm-5.493-5.09h2.055c.594 0 1.038-.124 1.33-.376.29-.25.435-.596.435-1.034 0-.403-.142-.728-.429-.976-.286-.25-.687-.374-1.202-.374h-2.189v2.76" />
</svg>