<svg version="1.1" id="Layer_1" xmlns:x="ns_extend;" xmlns:i="ns_ai;" xmlns:graph="ns_graphs;" xmlns="http://www.w3.org/2000/svg" xmlns:xlink="http://www.w3.org/1999/xlink" x="0px" y="0px" viewBox="0 0 332.2 99" style="enable-background:new 0 0 332.2 99;" xml:space="preserve">
 <style type="text/css">
  .st0{fill:#FFFFFF;}
 </style>
 <metadata>
  <sfw xmlns="ns_sfw;">
   <slices>
   </slices>
   <sliceSourceBounds bottomLeftOrigin="true" height="99" width="332.2" x="34.2" y="-249.7">
   </sliceSourceBounds>
  </sfw>
 </metadata>
 <g>
  <path class="st0" d="M31.8,16.7H16.5v50.1h36.7V52.9H31.8L31.8,16.7L31.8,16.7z M79.6,16.7H58.2v50.1h15.4V53.1H79
		c13.2,0,21.4-7,21.4-18.4v-0.1C100.3,23.6,92.3,16.7,79.6,16.7z M73.5,30.1h5.1c2.9,0,6.4,0.9,6.4,5.1v0.1c0,3.2-2.4,5.1-6.4,5.1
		h-5.2L73.5,30.1L73.5,30.1z">
  </path>
  <path class="st0" d="M0,0v99h115V0H0z M2.2,81.4V2.2h110.6v79.1C112.8,81.4,2.2,81.4,2.2,81.4z">
  </path>
  <path class="st0" d="M85.2,63.5c0,2.2-1.6,3.5-3.5,3.5s-3.4-1.3-3.4-3.5s1.6-3.5,3.4-3.5C83.7,60,85.2,61.3,85.2,63.5z M84.6,63.5
		c0-1.8-1.3-2.9-2.8-2.9c-1.5,0-2.8,1.1-2.8,2.9c0,1.8,1.3,2.9,2.8,2.9C83.3,66.4,84.6,65.3,84.6,63.5L84.6,63.5z M82.6,63.8
		l0.9,1.6h-1l-0.8-1.4h-0.4v1.4h-1v-3.8h1.7c0.9,0,1.4,0.4,1.4,1.2C83.4,63.2,83.1,63.7,82.6,63.8z M81.3,63.3h0.5
		c0.4,0,0.6-0.2,0.6-0.5c0-0.4-0.2-0.5-0.6-0.5h-0.5V63.3L81.3,63.3z M149.4,34.5c0,4.3-2.9,7.2-7.9,7.2H131V16.5h10.2
		c5,0,7.7,2.6,7.7,6.7c0,2.5-1.4,4.5-3.9,5.2C147.7,29.1,149.4,31.2,149.4,34.5L149.4,34.5z M137.6,21v5.8h1.9c1.7,0,2.6-1,2.6-3
		c0-1.7-1-2.7-2.6-2.7L137.6,21C137.6,21.1,137.6,21,137.6,21z M142.4,34.1c0-2.2-1-3.2-2.7-3.2h-2.1v6.3h2.1
		C141.5,37.1,142.4,36,142.4,34.1z M162.6,16.5v17.2c0,1.9,1,3.1,2.7,3.1s2.8-1.1,2.8-3.1V16.5h6.5V34c0,5.1-3.4,8.2-9.3,8.2
		c-5.9,0-9.3-3.1-9.3-8.2V16.5H162.6z M182.7,41.6v-25h6.6v25.1L182.7,41.6L182.7,41.6L182.7,41.6z M197.5,16.5h6.6v19.6h7.7v5.5
		h-14.3V16.5z M218.7,16.5h8.9c6.5,0,10.7,3.4,10.7,12.5c0,9.1-4.2,12.5-10.8,12.5h-8.8L218.7,16.5L218.7,16.5z M227.5,36.9
		c2.6,0,3.9-2.9,3.9-7.8c0-6-1.1-7.8-3.9-7.8h-2.3v15.6L227.5,36.9L227.5,36.9z M245.4,41.6v-25h6.6v25.1L245.4,41.6L245.4,41.6
		L245.4,41.6z M260.1,16.5h7l5,10.9c0.6,1.3,1,2.5,1.2,4.4h0.1c-0.1-1.7-0.1-3.5-0.1-5.2V16.5h6v25.1H273L267.5,30
		c-0.7-1.4-1.1-2.9-1.2-4.4h-0.1c0,1.3,0.1,3.4,0.1,5.1v11h-6.1C260.1,41.6,260.1,16.5,260.1,16.5z M286.6,28.7
		c0-8.8,3.9-12.8,10.4-12.8c5.5,0,9.1,2.4,9.5,7.8l-6.4,1.3c-0.2-3-1.3-4.2-3.1-4.2c-2.3,0-3.5,1.7-3.5,7.8c0,7,1.3,8.4,3.6,8.4
		c1.7,0,3.1-1.3,3.1-4.6v-0.4h-3.6v-4.8h9.9v14.3h-4.8l-0.2-3.6c-0.9,2.6-2.9,4.2-6,4.2C289.8,42.2,286.6,38.3,286.6,28.7z
		 M128.8,75.6l5.5-2.9c1.1,2.7,2.5,4,4.5,4c1.7,0,2.7-1,2.7-2.2c0-1.2-0.5-2.1-2.4-2.6l-3.8-1.2c-3.7-1.1-5.2-3.7-5.2-7.3
		c0-4.8,3.7-7.6,9-7.6c4.5,0,7.9,1.7,9.3,5.7l-5.1,3c-0.9-2.6-2.7-3.8-4.5-3.8c-1.5,0-2.6,0.8-2.6,2c0,1.2,0.9,2.1,2.7,2.7l3.9,1.3
		c3.8,1.3,5.1,3.5,5.1,7.2c0,4.8-3.4,8.2-9.3,8.2C133.6,82,130.4,79.6,128.8,75.6z M152.4,68.8c0-9.5,4-13.1,10.4-13.1
		c6.3,0,10.4,3.6,10.4,13.1c0,9.5-4,13.1-10.4,13.1C156.3,82,152.4,78.4,152.4,68.8z M166.2,68.8c0-6.6-1.3-8-3.5-8
		c-2.2,0-3.6,1.4-3.6,8c0,6.5,1.3,8,3.6,8S166.2,75.3,166.2,68.8z M179,56.3h6.6v19.6h7.7v5.5H179V56.3L179,56.3z M205.9,56.3v17.2
		c0,1.9,1,3.1,2.7,3.1s2.8-1.1,2.8-3.1V56.3h6.5v17.5c0,5.1-3.5,8.2-9.3,8.2c-5.9,0-9.3-3.1-9.3-8.2V56.3
		C199.3,56.3,205.9,56.3,205.9,56.3z M242.4,61.7h-5.8v19.7H230V61.7h-5.8v-5.4h18.1L242.4,61.7C242.4,61.7,242.4,61.7,242.4,61.7z
		 M248.7,81.4V56.3h6.6v25.1C255.3,81.4,248.7,81.4,248.7,81.4z M261.3,68.8c0-9.5,4-13.1,10.4-13.1c6.3,0,10.4,3.6,10.4,13.1
		c0,9.5-4,13.1-10.4,13.1C265.3,82,261.3,78.4,261.3,68.8z M275.1,68.8c0-6.6-1.3-8-3.5-8c-2.2,0-3.6,1.4-3.6,8c0,6.5,1.3,8,3.6,8
		C273.9,76.9,275.1,75.3,275.1,68.8z M287.9,56.3h7l5,10.9c0.6,1.3,1,2.5,1.3,4.4h0.1c-0.1-1.7-0.1-3.4-0.1-5.2V56.3h6v25.1h-6.5
		l-5.5-11.7c-0.7-1.4-1.1-2.9-1.2-4.4h-0.1c0,1.3,0.1,3.4,0.1,5.1v11h-6.1V56.3z M312.6,75.6l5.5-2.9c1.1,2.7,2.5,4,4.5,4
		c1.7,0,2.7-1,2.7-2.2c0-1.2-0.5-2.1-2.4-2.6l-3.8-1.2c-3.7-1.1-5.2-3.7-5.2-7.3c0-4.8,3.7-7.6,9-7.6c4.5,0,7.9,1.7,9.3,5.7l-5.1,3
		c-0.9-2.6-2.7-3.8-4.5-3.8c-1.5,0-2.6,0.8-2.6,2c0,1.2,0.9,2.1,2.7,2.7l3.9,1.3c3.8,1.3,5.1,3.5,5.1,7.2c0,4.8-3.4,8.2-9.3,8.2
		C317.5,82,314.2,79.6,312.6,75.6z">
  </path>
 </g>
</svg>