<svg xmlns="http://www.w3.org/2000/svg" viewBox="15 0 690 344">
    <path
      className="cls-1"
      fill="#fff"
      d="M656.37 209.06c0 4.9-1 9.24-4.5 12.85-3.21 3.29-6.1 3.93-10.6 3.93h-5.62v-33.16h6.43c4.73 0 8.19 1 11.08 4.9 2.49 3.29 3.21 7.39 3.21 11.48m8-.72a19.47 19.47 0 00-5.14-13.81c-4.82-5.14-9.8-5.38-16.46-5.38H622.4v1.76l6 2.41v32l-6 2.33v1.85h19.44c5.13 0 10.27-.81 14.53-3.86 5.62-4 8-10.52 8-17.26m-60.55-17.43v-1.76h-16v1.76l6 2.41V218l-22.25-28.82h-12.12v1.76l6 2.41v32l-6 2.33v1.85h16v-1.85l-5.94-2.33v-28.41l25.13 32.92h3.21v-36.54zm-77.08 19.76h-10.81l5.7-14.38c.64 1.61 1.2 3.3 1.77 4.9 1.12 3.13 2.24 6.35 3.37 9.48M545 229.46v-1.85l-5.47-2.33-13.73-36.53h-4.73l-15.26 36.53-5.38 2.33v1.85h14.77v-1.85l-4.89-2.33 4.41-11.8h12.85l4.18 11.8-5 2.33v1.85zm-70.83-30c0 4.65-2.41 8-7.31 8h-4.41v-15.58h4.49c5.06 0 7.23 2.65 7.23 7.55m14.78 30v-1.85l-4.74-2.33-11.89-15.9c5.14-1.76 9.48-4.73 9.48-10.68a9 9 0 00-3.77-7.46c-2.89-2.17-6.27-2.09-9.72-2.09H449.2v1.76l6 2.41v32l-6 2.33v1.85h19.19v-1.85l-5.94-2.33v-15h2.33l14.05 19.19zm-65.49-13.4c0 6.32-4.51 10.39-10.69 10.39h-6v-20.9H412c6.47 0 11.44 3.76 11.44 10.54m-2.26-24.17c0 5.2-3.61 10.62-9.18 10.62h-5.27v-20.25h5.42c5.87 0 9 4 9 9.63m10.09 24.39c0-8.65-6.77-12.34-14.6-12.72a15.9 15.9 0 006.17-1.88 11.65 11.65 0 006.19-10.46 11.91 11.91 0 00-4.21-9.19c-3-2.48-7.15-2.78-10.92-2.78h-20.6v1.88l6.4 2.63v41.18l-6.4 2.64v1.88h21.46c8.58 0 16.56-3.47 16.56-13.18m-66.79-16.85c0 4.65-2.41 8-7.31 8h-4.41v-15.55h4.49c5.06 0 7.23 2.65 7.23 7.55m14.77 30v-1.85l-4.73-2.33-11.89-15.9c5.14-1.76 9.48-4.73 9.48-10.68a8.94 8.94 0 00-3.78-7.46c-2.89-2.17-6.26-2.09-9.71-2.09h-19.11v1.76l6 2.41v32l-6 2.33v1.85h19.19v-1.85l-5.94-2.33v-15h2.32l14.06 19.19zm-59-9.16h-2.49l-3.78 5.98h-13.34v-16h10.52l2.17 5.22h2.49v-13.15h-2.49l-2.17 5.14h-10.52v-15.58h12.93l2.89 6.42H319v-9.15h-31.59v1.76l6 2.41v32l-6 2.33v1.85h31.8zm-49-21.2v-9.95h-36v9.95h2.57l3.13-6.82h8.67v33l-6.34 2.33v1.85h20v-1.85l-6.42-2.33v-33h9.23l2.73 6.82zm-52.75 19.76c0-6.1-3.46-8.19-8.28-11.24l-6.74-4.26c-2.41-1.52-4.9-2.73-4.9-5.94 0-4.58 4.34-5.54 8.11-5.54a47.16 47.16 0 014.74.32l3 6.9h2.49v-9.31a47.42 47.42 0 00-11.64-1.53c-6.91 0-13.09 3.46-13.09 11 0 5.38 3.13 7.62 7.38 10.27l6.19 3.86c2.81 1.76 5.22 3.13 5.22 6.82 0 4.9-3.94 6.43-8.19 6.43a23.56 23.56 0 01-5.38-.73l-3.13-7.22h-2.49v9.55c3.93.81 8.43 2 12.44 2 7.15 0 14.3-3.37 14.3-11.4M157 210.67h-10.83l5.7-14.38c.64 1.61 1.2 3.3 1.76 4.9 1.13 3.13 2.25 6.35 3.38 9.48m18.23 18.79v-1.85l-5.46-2.33L156 188.75h-4.73l-15.26 36.53-5.38 2.33v1.85h14.77v-1.85l-4.89-2.33 4.41-11.8h12.85l4.18 11.8-5 2.33v1.85zm-57.26 0v-1.88l-6.32-2.64v-41.18l6.32-2.63v-1.88h-14.23L88.47 217l-15-37.71H58.66v1.88l6.4 2.63v41.18l-6.4 2.64v1.88h16.86v-1.88l-6.32-2.64v-37.15l16.79 42h1.5l17-42v37.11l-6.33 2.64v1.88z"
    ></path>
    <g className="cls-1"
    fill="#fff">
      <path
        slassName="cls-1"
        d="M236.66 264.83v-.06a9.81 9.81 0 019.85-10.07 10.13 10.13 0 017.6 3.09l-1.5 1.61a8.46 8.46 0 00-6.13-2.67c-4.31 0-7.54 3.51-7.54 8 0 4.51 3.26 8.05 7.54 8.05a8.44 8.44 0 006.29-2.81l1.45 1.42a10.17 10.17 0 01-7.79 3.42 9.72 9.72 0 01-9.77-9.98zM268.06 254.89h2.06l8.88 19.62h-2.36l-2.28-5.14h-10.62l-2.31 5.14h-2.25zm5.42 12.5l-4.42-9.94-4.45 9.94zM285.59 255h8.3a7.13 7.13 0 015.09 1.73 4.3 4.3 0 011.25 3.12v.05a4.71 4.71 0 01-3.09 4.51c2.31.69 4.18 2 4.18 4.7v.06c0 3.34-2.81 5.31-7.07 5.31h-8.66zm7.94 8.69c2.64 0 4.48-1.2 4.48-3.48v-.06c0-1.92-1.53-3.17-4.32-3.17h-5.93v6.71zm.77 8.82c2.95 0 4.79-1.31 4.79-3.48V269c0-2.11-1.78-3.34-5.17-3.34h-6.16v6.88zM308.67 255h2.2v19.48h-2.2zM319.36 255h2.06l12.27 15.62V255h2.14v19.48h-1.75l-12.58-16v16h-2.14zM344.1 255h14.08v2H346.3v6.65h10.63v2H346.3v6.82h12v2h-14.2zM370.66 257.06h-6.54v-2h15.3v2h-6.54v17.45h-2.22zM385.05 271.67l1.36-1.61a9.27 9.27 0 006.68 2.76c2.62 0 4.34-1.39 4.34-3.32v-.05c0-1.81-1-2.84-5.06-3.7-4.48-1-6.54-2.42-6.54-5.62v-.06c0-3.06 2.7-5.31 6.4-5.31a10.11 10.11 0 016.84 2.39l-1.28 1.7a8.52 8.52 0 00-5.62-2.12c-2.53 0-4.14 1.39-4.14 3.15v.05c0 1.84 1 2.87 5.28 3.79s6.35 2.53 6.35 5.51c0 3.34-2.79 5.51-6.65 5.51a11.39 11.39 0 01-7.96-3.07zM405.45 276.93c1.39-.5 2-1.22 1.87-2.42h-1v-2.92h2.56v2.51c0 2.25-1 3.34-3.09 3.81zM427.83 255H430v19.48h-2.2zM438.52 255h2.06l12.27 15.62V255H455v19.48h-1.75l-12.58-16v16h-2.14zM462.43 264.83v-.06a9.81 9.81 0 019.85-10.07 10.14 10.14 0 017.6 3.09l-1.51 1.61a8.44 8.44 0 00-6.12-2.67c-4.31 0-7.54 3.51-7.54 8 0 4.51 3.26 8.05 7.54 8.05a8.46 8.46 0 006.29-2.81l1.45 1.42a10.17 10.17 0 01-7.79 3.42 9.72 9.72 0 01-9.77-9.98zM486 271.59h2.56v2.92H486z"
      ></path>
    </g>
    <path
      className="cls-1"
      fill="#fff"
      d="M372.94 142L399 131.86l-.39-65L372.55 58l.05 10H352V58l-25.65 8.82-.39 65L351.65 142l.05-10.89h21.19zm3.61-22.78l2.3-1.25v15.4l-2.3-1.25zM347.8 132.1l-2.3 1.25V118l2.3 1.25zm3.91-3L352 70h20.63l.27 59.09zM671.41 189.56v.69h-1.66V195h-.81v-4.71h-1.65v-.69zm5.23 5.4l-.22-3.26v-1.46c-.14.5-.3 1.07-.46 1.54l-1.13 3.11h-.63l-1.1-3.19c-.13-.43-.27-1-.39-1.46v1.46l-.2 3.26h-.79l.42-5.4h1.07l1.06 2.93c.14.41.25.86.38 1.36.12-.5.25-1 .38-1.37l1.06-2.92h1.06l.41 5.4z"
    ></path>
  </svg>