<svg
          xmlns="http://www.w3.org/2000/svg"
          x="0"
          y="0"
          version="1.1"
          viewBox="0 0 300 202"
          xmlSpace="preserve"
        >
          <path
            fill="#ffffff"
            d="M291.3 162.1c0 2.5 2 4.4 4.4 4.4 2.4 0 4.4-1.9 4.4-4.4 0-2.5-2-4.3-4.4-4.3-2.4-.1-4.4 1.8-4.4 4.3m.8 0c0-2.1 1.6-3.7 3.6-3.7s3.6 1.6 3.6 3.7-1.6 3.7-3.6 3.7c-2.1 0-3.6-1.6-3.6-3.7m1.8 2.5h.8v-2.2h.9l1.4 2.2h.8l-1.5-2.2c.8-.1 1.3-.5 1.3-1.4 0-1-.6-1.4-1.8-1.4h-2v5zm.8-4.4h1.1c.5 0 1.1.1 1.1.8 0 .8-.6.8-1.3.8h-.8v-1.6z"
            clipRule="evenodd"
          />
          <path
            fill="#ffffff"
            d="M106.6 194.3L106.6 201.3 85.2 201.3 85.2 161.2 106 161.2 104 168.2 93 168.2 93 177.4 104 177.4 104 184.2 93 184.2 93 194.3z"
          />
          <path
            fill="#ffffff"
            d="M17 178.6c4.7 2.2 8 5.2 8 10.5 0 7.4-5.1 12.9-13.2 12.9-4.4 0-7.9-.8-11.8-2.6l2.5-7.1c2.7 1.3 5.6 2.6 8.7 2.6 3.9 0 6-1.5 6-4.5 0-2.4-1.6-3.4-4.5-4.8L7.4 183c-4.2-2-7.3-4.8-7.3-10.8 0-7.5 6.4-11.6 13.3-11.6 4.1 0 6.6.8 10.3 2.3l-2.6 6.8c-2.4-1-4.6-2.1-7.3-2.1-3.5 0-6 1.3-6 4.2 0 2.2 1.4 3.1 3.6 4.2l5.6 2.6z"
          />
          <path fill="#ffffff" d="M35 161.2H42.9V201.29999999999998H35z" />
          <path
            fill="#ffffff"
            d="M77.2 194.3L77.2 201.3 55.4 201.3 55.4 161.2 63.3 161.2 63.3 194.3z"
          />
          <path
            fill="#ffffff"
            d="M131.4 178.6c4.7 2.2 8 5.2 8 10.5 0 7.4-5.1 12.9-13.2 12.9-4.4 0-7.9-.8-11.8-2.6l2.5-7.1c2.7 1.3 5.6 2.6 8.7 2.6 3.9 0 6-1.5 6-4.5 0-2.4-1.6-3.4-4.5-4.8l-5.4-2.6c-4.2-2-7.3-4.8-7.3-10.8 0-7.5 6.4-11.6 13.3-11.6 4.1 0 6.6.8 10.3 2.3l-2.7 6.8c-2.4-1-4.6-2.1-7.3-2.1-3.5 0-6 1.3-6 4.2 0 2.2 1.4 3.1 3.6 4.2l5.8 2.6z"
          />
          <path
            fill="#ffffff"
            d="M173.1 161.2L173.1 168.3 162.7 168.3 162.7 201.3 154.7 201.3 154.7 168.3 144.4 168.3 144.4 161.2z"
          />
          <path
            fill="#ffffff"
            d="M195.4 160.5c13.8 0 18.2 10.3 18.2 20.7 0 10.1-4.7 20.7-18.2 20.7-13.6 0-18.2-10.5-18.2-20.7s4.6-20.7 18.2-20.7m0 34.5c6.6 0 9.9-5.2 9.9-13.7 0-8.7-3.1-13.7-9.9-13.7-6.6 0-9.9 5.2-9.9 13.7 0 8.6 3.2 13.7 9.9 13.7"
          />
          <path
            fill="#ffffff"
            d="M231 175.3L231.2 201.3 223.9 201.3 223.9 161.2 231 161.2 246.4 186.8 246.1 161.2 253.5 161.2 253.5 200.7 247 202z"
          />
          <path
            fill="#ffffff"
            d="M287.3 194.3L287.3 201.3 265.9 201.3 265.9 161.2 286.8 161.2 284.8 168.2 273.8 168.2 273.8 177.4 284.8 177.4 284.8 184.2 273.8 184.2 273.8 194.3z"
          />
          <path fill="#E1134F" d="M83.4 0H204.10000000000002V120.8H83.4z" />
          <path
            fill="#FFF"
            d="M154.9 102.9c32.5 0 30.6-23.8 27.4-35.3L178 52.3c-2.2-8-3.3-15.8 3.6-19.7v-17c-23.8 4.1-24.7 23-20.1 38.5.5 1.6 4.5 15.8 4.5 15.8 1.8 6.2 3.8 18.3-11 18v15z"
          />
        </svg>
