<svg width="276px" height="48px" viewBox="0 0 276 48" version="1.1" xmlns="http://www.w3.org/2000/svg" xmlns:xlink="http://www.w3.org/1999/xlink">
    <g id="Page-1" stroke="none" stroke-width="1" fill="none" fill-rule="evenodd">
        <g id="TimberTech-Logo-RGB">
            <g id="Group" transform="translate(54.250614, 6.781327)" fill="#000000" fill-rule="nonzero">
                <polygon id="Path" points="139.797052 31.6213268 144.516855 31.6213268 144.516855 2.1022113 135.334939 2.1022113 135.334939 5.33012285 133.022506 5.33012285 133.022506 0.0678132678 158.594889 0.0678132678 158.594889 5.33012285 156.282457 5.33012285 156.282457 2.1022113 147.100541 2.1022113 147.100541 31.6213268 151.881376 31.6213268 151.881376 33.6557248 139.797052 33.6557248"></polygon>
                <path d="M168.644816,21.9240295 C168.549877,17.4890418 166.06113,14.1661916 161.348108,14.1661916 C156.967371,14.1661916 154.336216,17.6789189 154.105651,21.9240295 L168.644816,21.9240295 Z M154.105651,23.6803931 C154.105651,28.7121376 156.594398,32.3604914 161.76855,32.3604914 C164.955774,32.3604914 168.00059,30.6990663 168.597346,27.2812776 L170.909779,27.2812776 C170.584275,31.8518919 165.972973,34.116855 161.910958,34.116855 C155.129631,34.116855 151.528747,30.1429975 151.528747,22.805602 C151.528747,16.9872236 154.899066,12.4166093 161.544767,12.4166093 C168.468501,12.4166093 171.513317,17.3059459 171.235283,23.6803931 L154.105651,23.6803931 L154.105651,23.6803931 Z" id="Shape"></path>
                <path d="M192.020049,20.4931695 L190.168747,20.4931695 C189.938182,16.7498771 187.401966,14.172973 183.38742,14.172973 C178.769337,14.172973 176.043243,18.1400491 176.043243,22.7581327 C176.043243,27.5186241 178.213268,32.3672727 183.38742,32.3672727 C186.805209,32.3672727 189.666929,30.0548403 189.985651,26.6370516 L192.291302,26.6370516 C192.291302,31.9942998 187.028993,34.116855 183.061916,34.116855 C176.463686,34.116855 173.459558,28.3459459 173.459558,22.9886978 C173.459558,17.1296314 176.877346,12.4166093 183.061916,12.4166093 C185.835479,12.4166093 188.785356,13.4744963 189.897494,15.7801474 L189.992432,15.7801474 L189.992432,12.8709582 L192.02683,12.8709582 L192.02683,20.4931695 L192.020049,20.4931695 Z" id="Path"></path>
                <path d="M192.040393,31.8993612 L195.736216,31.8993612 L195.736216,1.8241769 L192.040393,1.8241769 L192.040393,0.0678132678 L198.041867,0.0678132678 L198.041867,16.1056511 L198.136806,16.1056511 C199.38457,13.7050614 201.968256,12.409828 204.64688,12.409828 C212.587813,12.409828 212.079214,18.323145 212.079214,23.0293857 L212.079214,31.8993612 L215.544472,31.8993612 L215.544472,33.6557248 L206.084521,33.6557248 L206.084521,31.8993612 L209.780344,31.8993612 L209.780344,23.0293857 C209.780344,17.9976413 209.96344,14.2543489 204.518034,14.4374447 C199.120098,14.4374447 198.05543,18.7300246 198.05543,23.0293857 L198.05543,31.8993612 L201.744472,31.8993612 L201.744472,33.6557248 L192.053956,33.6557248 L192.053956,31.8993612 L192.040393,31.8993612 Z" id="Path"></path>
                <polygon id="Path" points="30.2243735 0.0678132678 30.2243735 8.95135135 23.3684521 8.95135135 23.3684521 5.14702703 19.631941 5.14702703 19.631941 28.8206388 20.8797052 28.8206388 20.8797052 33.6353808 7.5204914 33.6353808 7.5204914 28.8206388 11.2570025 28.8206388 11.2570025 5.14702703 7.5204914 5.14702703 7.5204914 8.95135135 0.657788698 8.95135135 0.657788698 0.0678132678"></polygon>
                <polygon id="Path" points="20.75086 28.8206388 23.2463882 28.8206388 23.2463882 17.1974447 23.2463882 12.389484 30.2311548 12.389484 30.2311548 28.8206388 32.45543 28.8206388 32.45543 33.6353808 20.75086 33.6353808"></polygon>
                <path d="M33.8523833,28.8206388 L36.3479115,28.8206388 L36.3479115,17.1974447 L33.8523833,17.1974447 L33.8523833,12.389484 L44.2752826,12.389484 L44.2752826,16.2141523 L44.3634398,16.2141523 C45.8349877,13.1015233 48.5475184,11.7588206 51.9314005,11.7588206 C54.8744963,11.7588206 57.234398,12.7353317 58.7873219,15.7191155 C60.3944963,12.6471744 63.1544963,11.7588206 66.0908108,11.7588206 C70.3223587,11.7588206 73.482457,13.9830958 73.482457,18.3909582 L73.482457,28.8138575 L75.930516,28.8138575 L75.930516,33.6218182 L63.2019656,33.6218182 L63.2019656,28.8138575 L65.1142998,28.8138575 L65.1142998,21.5985258 C65.1142998,19.5912531 64.7142015,17.2788206 62.401769,17.2788206 C59.5468305,17.2788206 59.1060442,19.9981327 59.1060442,22.1342506 L59.1060442,28.8138575 L61.0183784,28.8138575 L61.0183784,33.6218182 L48.8662408,33.6218182 L48.8662408,28.8138575 L50.7311057,28.8138575 L50.7311057,21.5985258 C50.7311057,19.2386241 50.6429484,17.2788206 48.0117936,17.2788206 C45.2111057,17.2788206 44.7160688,20.0388206 44.7160688,22.1342506 L44.7160688,28.8138575 L46.6351843,28.8138575 L46.6351843,33.6218182 L33.8523833,33.6218182 L33.8523833,28.8206388 L33.8523833,28.8206388 Z" id="Path"></path>
                <path d="M92.0565111,22.9005405 C92.0565111,20.1812285 91.473317,16.8448157 88.0894349,16.8448157 C84.7937101,16.8448157 83.857887,20.1812285 83.857887,22.9005405 C83.857887,25.7080098 84.7937101,29.1800491 88.2250614,29.1800491 C91.6089435,29.1800491 92.0565111,25.5316953 92.0565111,22.9005405 L92.0565111,22.9005405 Z M73.1772973,28.8274201 L75.7135135,28.8274201 L75.7135135,4.95036855 L73.1772973,4.95036855 L73.1772973,0.142407862 L84.0816708,0.142407862 L84.0816708,15.2376413 L84.169828,15.2376413 C85.6888452,12.742113 88.713317,11.7588206 91.5614742,11.7588206 C98.1054545,11.7588206 100.648452,17.0143489 100.648452,22.9412285 C100.648452,29.1325799 97.9766093,34.2524816 91.1613759,34.2524816 C88.2250614,34.2524816 85.2344963,32.9572482 83.4984767,30.5973464 L83.4103194,30.5973464 L83.4103194,33.6285995 L73.170516,33.6285995 L73.170516,28.8274201 L73.1772973,28.8274201 Z" id="Shape"></path>
                <path d="M112.895528,20.6762654 C112.895528,18.4045209 112.407273,16.3565602 109.647273,16.3565602 C106.97543,16.3565602 106.663489,18.5333661 106.663489,20.6762654 L112.895528,20.6762654 Z M106.663489,25.0366585 C106.663489,27.2202457 107.199214,29.6683047 109.871057,29.6683047 C111.47145,29.6683047 112.454742,29.0444226 112.85484,27.4440295 L120.646585,27.4440295 C120.605897,27.7627518 120.558428,28.0679115 120.47027,28.3798526 C118.869877,33.1471253 114.502703,34.2592629 109.871057,34.2592629 C102.743882,34.2592629 98.5191155,30.0751843 98.5191155,22.9480098 C98.5191155,16.1802457 102.743882,11.7723833 109.647273,11.7723833 C116.103096,11.7723833 118.822408,14.4916953 119.982015,17.4754791 C121.053464,20.5067322 121.053464,23.802457 121.053464,25.0434398 L106.663489,25.0434398 L106.663489,25.0366585 Z" id="Shape"></path>
                <path d="M121.494251,28.8206388 L123.94231,28.8206388 L123.94231,17.1974447 L121.494251,17.1974447 L121.494251,12.389484 L131.693366,12.389484 L131.693366,17.5093857 L131.781523,17.5093857 C131.869681,17.1092875 132.005307,16.7498771 132.134152,16.3972482 C132.934349,13.9491892 135.077248,11.765602 137.789779,11.765602 C138.806978,11.765602 139.525799,11.9012285 140.061523,12.077543 L140.061523,19.6048157 C139.390172,19.3810319 138.413661,19.2928747 137.430369,19.2928747 C134.182113,19.2928747 132.310467,21.2526781 132.310467,24.4602457 L132.310467,28.8206388 L135.382408,28.8206388 L135.382408,33.6285995 L121.487469,33.6285995 L121.487469,28.8206388 L121.494251,28.8206388 Z" id="Path"></path>
            </g>
            <path d="M0.820540541,18.0383292 C-0.623882064,23.7414251 0.278034398,29.7225553 3.36353808,34.8763636 C6.72707617,40.5116462 12.4030467,44.6821622 18.9334644,46.3300246 C32.0146437,49.6189681 45.3535135,41.6644717 48.6763636,28.596855 C48.9204914,27.640688 48.3372973,26.6709582 47.3879115,26.4268305 C46.4317445,26.1827027 45.4687961,26.7591155 45.2246683,27.7152826 C42.3832924,38.8909091 30.9906634,45.6857985 19.8082555,42.8783292 C14.1797543,41.4678133 9.30398034,37.8804914 6.42191646,33.0589681 C3.83144963,28.7189189 3.06515971,23.7007371 4.27223587,18.9199017 C6.89660934,8.54447174 16.8176904,2.06830467 26.3861425,4.482457 C31.2483538,5.70987715 35.4527764,8.79538084 37.9211794,12.9319902 C40.0912039,16.5735627 40.7286486,20.7712039 39.7250123,24.7721867 C37.5142998,33.5268796 29.2478624,39.0265356 21.2933661,37.0124816 C17.1974447,35.9817199 13.6643735,33.4048157 11.6096314,29.9599017 C9.82614251,26.9761179 9.317543,23.6736118 10.1448649,20.4117936 C11.9419165,13.2710565 18.5672727,8.76825553 24.9010319,10.3686486 C30.4210319,11.7588206 35.4120885,17.0957248 33.8591646,23.2938575 C32.6453071,28.1018182 28.0679115,32.475774 22.7784767,31.1466339 C18.5808354,30.0887469 14.9121376,26.3454545 16.0242752,21.8969042 C16.892285,18.4248649 19.9031941,15.3597052 23.429484,16.2412776 C26.1759214,16.9261916 28.6307617,19.1979361 27.9865356,21.8223096 C27.5050614,23.802457 26.0199509,25.6876658 24.2364619,25.2672236 C23.2396069,25.0298771 21.7205897,24.2907125 21.9172482,23.2938575 C21.9375921,23.1785749 22.1410319,22.1885012 22.5140049,22.1613759 C22.7174447,22.1478133 22.7174447,22.1478133 22.8937592,22.2563145 C23.7210811,22.785258 24.819656,22.5411302 25.3485995,21.7205897 C25.877543,20.8932678 25.6334152,19.7879115 24.8060934,19.2589681 C23.9855528,18.7368059 23.2192629,18.5401474 22.2495332,18.614742 C20.2829484,18.7571499 18.8859951,20.2151351 18.4248649,22.6157248 C17.8823587,25.4096314 19.9438821,27.9255037 23.429484,28.7392629 C27.4440295,29.6818673 30.5566585,26.3115479 31.4450123,22.6699754 C32.6114005,17.88914 28.7257002,13.8949386 24.2907125,12.7895823 C18.6011794,11.372285 13.8610319,15.875086 12.5725799,21.0356757 C10.9111548,27.640688 16.0174939,33.12 21.9172482,34.6051106 C28.5358231,36.273317 35.4527764,31.5874201 37.3176413,24.1686486 C39.1892875,16.7295332 34.0151351,8.99203931 25.7826044,6.91695332 C17.5432924,4.835086 8.98525799,10.5042752 6.69995086,19.5437838 C5.65562654,23.6803931 6.32019656,28.0340049 8.56481572,31.79086 C11.1010319,36.0427518 15.4275184,39.2096314 20.4321376,40.4709582 C30.2854054,42.9597052 40.4980835,36.3140049 43.1902703,25.6469779 C44.4312531,20.730516 43.6514005,15.5699263 40.9931204,11.1145946 C38.0364619,6.17100737 33.0386241,2.49552826 27.267715,1.037543 C15.7733661,-1.87164619 3.91960688,5.75734644 0.820540541,18.0383292" id="Path" fill="#935E01"></path>
            <path d="M272.887371,6.84914005 C274.582703,6.84914005 275.972875,8.24609337 275.972875,9.93464373 C275.972875,11.6435381 274.589484,13.0337101 272.887371,13.0337101 C271.178477,13.0337101 269.78828,11.6367568 269.78828,9.93464373 C269.781523,8.23931204 271.178477,6.84914005 272.887371,6.84914005 Z M272.887371,12.6268305 C274.419951,12.6268305 275.511744,11.4468796 275.511744,9.92786241 C275.511744,8.42918919 274.392826,7.24923833 272.887371,7.24923833 C271.375135,7.24923833 270.242654,8.42240786 270.242654,9.92786241 C270.242654,11.4536609 271.354791,12.6268305 272.887371,12.6268305 Z M271.714201,8.13081081 L273.145061,8.13081081 C273.972383,8.13081081 274.3657,8.46987715 274.3657,9.12088452 C274.3657,9.77189189 273.918133,10.0702703 273.423096,10.1516462 L274.514889,11.7791646 L273.985946,11.7791646 L272.955184,10.1516462 L272.175332,10.1516462 L272.175332,11.7791646 L271.714201,11.7791646 L271.714201,8.13081081 L271.714201,8.13081081 Z M272.16855,9.7990172 L272.812776,9.7990172 C273.362064,9.7990172 273.90457,9.75154791 273.90457,9.11410319 C273.90457,8.59872236 273.484128,8.4834398 273.043342,8.4834398 L272.16855,8.4834398 L272.16855,9.7990172 L272.16855,9.7990172 Z" id="Shape" fill="#000000" fill-rule="nonzero"></path>
        </g>
    </g>
</svg>