<svg
          xmlns="http://www.w3.org/2000/svg"
          version="1.1"
          viewBox="0 0 400 136.667"
        >
          <g>
            <path
              fill="#fff"
              fillRule="evenodd"
              stroke="none"
              d="M338.417 24c-.058.094-.863.167-1.844.167-1.049 0-1.74.066-1.74.166 0 .096-.5.167-1.166.167-.667 0-1.167.071-1.167.167 0 .091-.408.166-.907.166-.499 0-.953.075-1.01.167-.056.092-.394.167-.75.167s-.693.075-.75.166c-.056.092-.436.167-.843.167s-.74.075-.74.167c0 .091-.258.166-.573.166-.316 0-.62.075-.677.167-.057.092-.324.167-.593.167-.27 0-.49.075-.49.166 0 .092-.225.167-.5.167s-.5.075-.5.167c0 .091-.225.166-.5.166s-.5.075-.5.167c0 .092-.225.167-.5.167s-.5.075-.5.166c0 .092-.225.167-.5.167s-.5.075-.5.167c0 .091-.15.166-.334.166-.183 0-.333.075-.333.167 0 .092-.183.167-.407.167-.224 0-.453.075-.51.166-.056.092-.248.167-.426.167s-.324.075-.324.167c0 .091-.15.166-.333.166-.183 0-.333.075-.333.167 0 .092-.15.167-.334.167-.183 0-.333.075-.333.166 0 .092-.15.167-.333.167-.184 0-.334.075-.334.167 0 .091-.15.166-.333.166-.183 0-.333.075-.333.167 0 .092-.15.167-.334.167-.183 0-.333.075-.333.166 0 .092-.098.167-.219.167-.12 0-.379.15-.576.333-.197.184-.473.334-.615.334-.141 0-.257.075-.257.166 0 .092-.098.167-.218.167s-.38.15-.577.333c-.196.184-.424.334-.506.334-.082 0-.385.225-.672.5-.288.275-.607.5-.708.5-.102 0-.395.225-.652.5s-.55.5-.651.5c-.215 0-5.682 5.407-5.682 5.619 0 .079-.3.476-.667.881-.367.405-.667.817-.667.915 0 .098-.15.286-.333.418-.183.132-.333.339-.333.46 0 .122-.15.382-.334.578-.183.197-.333.457-.333.577 0 .12-.075.218-.167.218-.091 0-.166.116-.166.257 0 .142-.15.418-.334.615-.183.197-.333.456-.333.576 0 .121-.075.219-.167.219-.091 0-.166.15-.166.333 0 .184-.075.334-.167.334-.092 0-.167.15-.167.333 0 .183-.075.333-.166.333-.092 0-.167.114-.167.253 0 .138-.075.401-.167.583l-.333.662c-.092.182-.167.445-.167.583 0 .139-.075.253-.166.253-.092 0-.167.151-.167.335 0 .185-.075.485-.167.667l-.333.662a1.748 1.748 0 00-.167.657c0 .179-.075.372-.166.429-.092.056-.167.361-.167.676 0 .316-.075.574-.167.574-.091 0-.166.22-.166.49 0 .269-.075.536-.167.593-.092.057-.167.436-.167.843s-.075.74-.166.74c-.092 0-.167.375-.167.834 0 .458-.075.833-.167.833-.095 0-.166.5-.166 1.167 0 .666-.072 1.166-.167 1.166-.103 0-.167.886-.167 2.324 0 1.369-.068 2.366-.166 2.426-.092.057-.167.507-.167 1 0 .494.075.944.167 1 .1.062.166 1.197.166 2.844 0 1.715.063 2.74.167 2.74.096 0 .167.524.167 1.24 0 .682.075 1.286.166 1.343.092.057.167.469.167.917 0 .447.075.86.167.916.091.057.166.432.166.834 0 .401.075.776.167.833.092.057.167.357.167.667 0 .31.075.61.166.666.092.057.167.361.167.677 0 .315.075.573.167.573.091 0 .166.221.166.49 0 .27.075.537.167.594.092.056.167.319.167.583 0 .264.075.527.166.583.092.057.167.249.167.427s.075.323.167.323c.091 0 .166.225.166.5s.075.5.167.5c.092 0 .167.183.167.407 0 .224.075.453.166.51.092.057.167.249.167.427 0 .177.075.323.167.323.091 0 .166.15.166.333 0 .184.075.334.167.334.092 0 .167.15.167.333 0 .183.075.333.166.333.092 0 .167.15.167.334 0 .183.075.333.167.333.091 0 .166.15.166.333 0 .184.075.334.167.334.092 0 .167.15.167.333 0 .183.075.333.166.333.092 0 .167.15.167.334 0 .183.075.333.167.333.091 0 .166.133.166.297 0 .163.15.404.334.536.183.132.333.374.333.537 0 .163.062.297.139.297.076 0 .244.206.373.458.13.252.367.58.529.728.161.148.292.355.292.46 0 .104.225.425.5.713s.5.593.5.678c0 .086.284.431.631.767.346.337.814.875 1.04 1.196.527.751 2.245 2.468 2.996 2.996.321.225.859.693 1.195 1.04.337.347.682.63.767.63.085 0 .391.225.678.5.288.275.609.5.714.5.105 0 .312.132.46.293.148.161.476.399.728.528.252.13.458.298.458.374 0 .076.133.139.297.139.163 0 .404.15.536.333.132.183.374.333.537.333.163 0 .297.075.297.167 0 .092.143.167.319.167.176 0 .345.057.375.126.075.17 2.834 1.543 3.097 1.542.115-.001.209.073.209.165 0 .092.15.167.333.167.183 0 .333.075.333.166 0 .092.183.167.407.167.224 0 .453.075.51.167.057.091.249.166.427.166.177 0 .323.075.323.167 0 .092.225.167.5.167s.5.075.5.166c0 .092.225.167.5.167s.5.075.5.167c0 .091.225.166.5.166s.5.075.5.167c0 .092.225.167.5.167s.5.075.5.166c0 .092.3.167.667.167.366 0 .666.075.666.167 0 .091.3.166.667.166.367 0 .667.075.667.167 0 .092.375.167.833.167.458 0 .833.075.833.166 0 .092.371.167.824.167.453 0 .87.075.926.167.057.091.582.166 1.167.166.585 0 1.11.075 1.167.167.059.095.918.167 2.01.167 1.16 0 1.906.065 1.906.166 0 .228 9.776.228 9.917 0 .058-.093.86-.166 1.833-.166.974 0 1.776-.073 1.834-.167.056-.092.623-.167 1.26-.167.66 0 1.156-.071 1.156-.166 0-.093.445-.167 1-.167.556 0 1-.074 1-.167 0-.091.375-.166.834-.166.458 0 .833-.075.833-.167 0-.092.3-.167.667-.167.366 0 .666-.075.666-.166 0-.092.258-.167.574-.167.315 0 .62-.075.676-.167.057-.091.324-.166.594-.166.269 0 .49-.075.49-.167 0-.092.225-.167.5-.167s.5-.075.5-.166c0-.092.225-.167.5-.167s.5-.075.5-.167c0-.091.225-.166.5-.166s.5-.075.5-.167c0-.092.15-.167.333-.167.183 0 .333-.075.333-.166 0-.092.225-.167.5-.167s.5-.075.5-.167c0-.091.15-.166.334-.166.183 0 .333-.075.333-.167 0-.092.15-.167.333-.167.184 0 .334-.075.334-.166 0-.092.15-.167.333-.167.183 0 .333-.075.333-.167 0-.091.15-.166.334-.166.183 0 .333-.075.333-.167 0-.092.15-.167.333-.167.184 0 .334-.075.334-.166 0-.092.15-.167.333-.167.183 0 .333-.075.333-.167 0-.091.099-.166.219-.166s.379-.15.576-.334c.197-.183.474-.333.615-.333.141 0 .257-.062.257-.139 0-.076.206-.244.458-.373.252-.13.58-.367.728-.529.148-.161.362-.292.475-.292.113 0 .415-.225.672-.5.257-.275.555-.5.661-.5.107 0 .56-.375 1.006-.834.446-.458.88-.833.963-.833.23 0 4.037-4.128 4.037-4.378 0-.085.225-.365.5-.622s.5-.57.5-.697c0-.126.15-.338.333-.47.184-.132.334-.357.334-.5 0-.143.15-.368.333-.5.183-.132.333-.339.333-.46s.15-.381.334-.578c.183-.197.333-.456.333-.576 0-.121.075-.219.167-.219.091 0 .166-.15.166-.333 0-.184.075-.334.167-.334.092 0 .167-.15.167-.333 0-.183.075-.333.166-.333.092 0 .167-.15.167-.334 0-.183.075-.333.167-.333.091 0 .166-.15.166-.333 0-.184.075-.334.167-.334.092 0 .167-.15.167-.333 0-.183.075-.333.166-.333.092 0 .167-.183.167-.407 0-.224.075-.453.167-.51.091-.057.166-.249.166-.427 0-.177.075-.323.167-.323.092 0 .167-.151.167-.336 0-.184.075-.484.166-.666l.334-.662c.091-.182.166-.478.166-.657 0-.179.075-.372.167-.429.092-.057.167-.361.167-.677 0-.315.075-.573.166-.573.092 0 .167-.225.167-.5s.075-.5.167-.5c.091 0 .166-.296.166-.657 0-.361.075-.703.167-.76.092-.056.167-.436.167-.843s.075-.74.166-.74c.092 0 .167-.375.167-.833 0-.459.075-.834.167-.834.094 0 .166-.469.166-1.073 0-.591.075-1.12.167-1.177.092-.056.167-.731.167-1.5 0-.768.075-1.443.166-1.5.106-.065.167-2.026.167-5.333 0-3.307-.061-5.268-.167-5.333-.091-.057-.166-.657-.166-1.334 0-.676-.075-1.276-.167-1.333-.092-.057-.167-.507-.167-1s-.075-.943-.166-1c-.092-.057-.167-.399-.167-.76s-.075-.657-.167-.657c-.091 0-.166-.3-.166-.666 0-.367-.075-.667-.167-.667-.092 0-.167-.3-.167-.667 0-.366-.075-.666-.166-.666-.092 0-.167-.225-.167-.5s-.075-.5-.167-.5c-.091 0-.166-.225-.166-.5s-.075-.5-.167-.5c-.092 0-.167-.183-.167-.407 0-.224-.075-.453-.166-.51-.092-.057-.167-.249-.167-.427 0-.177-.075-.323-.167-.323-.091 0-.166-.146-.166-.323 0-.178-.075-.37-.167-.427-.092-.057-.167-.286-.167-.51 0-.224-.075-.407-.166-.407-.092 0-.167-.15-.167-.333 0-.183-.075-.333-.167-.333-.091 0-.166-.15-.166-.334 0-.183-.075-.333-.167-.333-.092 0-.167-.15-.167-.333 0-.184-.075-.334-.166-.334-.092 0-.167-.098-.167-.218s-.15-.38-.333-.577c-.184-.196-.334-.473-.334-.614 0-.142-.075-.257-.166-.257-.092 0-.167-.099-.167-.219s-.15-.379-.333-.576c-.184-.197-.334-.425-.334-.507 0-.082-.225-.384-.5-.672-.275-.288-.5-.606-.5-.708 0-.102-.209-.383-.464-.626a8.08 8.08 0 01-.872-1.026c-.495-.71-4.125-4.333-4.342-4.333-.085 0-.464-.3-.842-.667-.377-.366-.773-.666-.88-.666-.106 0-.301-.15-.433-.334-.132-.183-.322-.333-.422-.333-.1 0-.327-.131-.505-.292a4.475 4.475 0 00-.781-.528c-.252-.13-.459-.299-.459-.375 0-.076-.115-.138-.257-.138-.141 0-.418-.15-.614-.334-.197-.183-.457-.333-.577-.333-.12 0-.218-.075-.218-.167 0-.091-.15-.166-.334-.166-.183 0-.333-.075-.333-.167 0-.092-.15-.167-.333-.167-.184 0-.334-.075-.334-.166 0-.092-.15-.167-.333-.167-.183 0-.333-.075-.333-.167 0-.091-.15-.166-.334-.166-.183 0-.333-.075-.333-.167 0-.092-.15-.167-.333-.167-.184 0-.334-.075-.334-.166 0-.092-.145-.167-.323-.167-.178 0-.37-.075-.427-.167-.056-.091-.286-.166-.51-.166-.223 0-.406-.075-.406-.167 0-.092-.15-.167-.334-.167-.183 0-.333-.075-.333-.166 0-.092-.225-.167-.5-.167s-.5-.075-.5-.167c0-.091-.225-.166-.5-.166s-.5-.075-.5-.167c0-.092-.225-.167-.5-.167s-.5-.075-.5-.166c0-.092-.225-.167-.5-.167s-.5-.075-.5-.167c0-.091-.258-.166-.573-.166-.316 0-.62-.075-.677-.167-.057-.092-.319-.167-.583-.167-.265 0-.527-.075-.584-.166-.056-.092-.436-.167-.843-.167s-.74-.075-.74-.167c0-.091-.333-.166-.74-.166s-.787-.075-.843-.167c-.057-.092-.469-.167-.917-.167-.448 0-.86-.075-.917-.166-.056-.092-.619-.167-1.25-.167s-1.193-.075-1.25-.167c-.057-.093-.831-.166-1.75-.166-.918 0-1.692-.074-1.75-.167-.064-.105-1.859-.167-4.833-.167s-4.769.062-4.833.167m-193.167.333c-.057.092-.769.167-1.583.167-.815 0-1.527.075-1.584.167-.056.091-.581.166-1.166.166s-1.11.075-1.167.167c-.057.092-.511.167-1.01.167s-.907.075-.907.166c0 .092-.333.167-.74.167s-.786.075-.843.167c-.057.091-.399.166-.76.166s-.657.075-.657.167c0 .092-.3.167-.666.167-.367 0-.667.075-.667.166 0 .092-.225.167-.5.167s-.5.075-.5.167c0 .091-.221.166-.49.166-.27 0-.537.075-.593.167-.057.092-.286.167-.51.167-.224 0-.407.075-.407.166 0 .092-.225.167-.5.167s-.5.075-.5.167c0 .091-.225.166-.5.166s-.5.075-.5.167c0 .092-.15.167-.333.167-.184 0-.334.075-.334.166 0 .092-.183.167-.406.167-.224 0-.454.075-.51.167-.057.091-.249.166-.427.166s-.323.075-.323.167c0 .092-.15.167-.334.167-.183 0-.333.075-.333.166 0 .092-.15.167-.333.167-.184 0-.334.075-.334.167 0 .091-.15.166-.333.166-.183 0-.333.075-.333.167 0 .092-.15.167-.334.167-.183 0-.333.075-.333.166 0 .092-.15.167-.333.167-.184 0-.334.075-.334.167 0 .091-.098.166-.218.166s-.38.15-.577.334c-.196.183-.473.333-.614.333-.142 0-.257.075-.257.167 0 .091-.099.166-.219.166s-.379.15-.576.334c-.197.183-.425.333-.507.333-.082 0-.384.225-.672.5-.288.275-.606.5-.708.5-.102 0-.395.225-.652.5s-.547.5-.645.5c-.241 0-5.688 5.435-5.688 5.675 0 .105-.225.401-.5.658s-.5.531-.5.609c-.001.078-.225.404-.5.725-.275.32-.499.677-.5.791 0 .115-.075.209-.167.209-.091 0-.166.098-.166.218s-.15.38-.334.577c-.183.196-.333.473-.333.614 0 .142-.075.257-.167.257-.091 0-.166.15-.166.334 0 .183-.064.333-.142.333-.078 0-.386.506-.684 1.125-.299.619-.61 1.255-.692 1.414-.082.16-.149.403-.149.542s-.075.252-.167.252c-.091 0-.166.15-.166.334 0 .183-.075.333-.167.333-.092 0-.167.225-.167.5s-.075.5-.166.5c-.092 0-.167.225-.167.5s-.075.5-.167.5c-.091 0-.166.183-.166.407 0 .224-.075.453-.167.51-.092.056-.167.323-.167.593 0 .269-.075.49-.166.49-.092 0-.167.3-.167.667 0 .366-.075.666-.167.666-.091 0-.166.3-.166.667 0 .367-.075.667-.167.667-.092 0-.167.408-.167.906 0 .499-.075.954-.166 1.01-.092.057-.167.624-.167 1.26 0 .66-.072 1.157-.167 1.157-.108 0-.166 2.024-.166 5.74 0 3.647.06 5.778.166 5.843.092.057.167.657.167 1.334 0 .676.075 1.276.167 1.333.091.057.166.507.166 1s.075.943.167 1c.092.057.167.432.167.833 0 .402.075.777.166.834.092.056.167.356.167.666 0 .31.075.61.167.667.091.057.166.357.166.667 0 .31.075.61.167.666.092.057.167.324.167.594 0 .269.075.49.166.49.092 0 .167.225.167.5s.075.5.167.5c.091 0 .166.225.166.5s.075.5.167.5c.092 0 .167.183.167.406 0 .224.075.454.166.51.092.057.167.249.167.427s.075.323.167.323c.091 0 .166.146.166.324 0 .178.075.37.167.426.092.057.167.286.167.51 0 .224.075.407.166.407.092 0 .167.15.167.333 0 .184.075.334.167.334.091 0 .166.15.166.333 0 .183.075.333.167.333.092 0 .167.15.167.334 0 .183.075.333.166.333.092 0 .167.15.167.333 0 .184.075.334.167.334.091 0 .166.098.166.218s.15.38.334.577c.183.196.333.473.333.614 0 .142.075.257.167.257.091 0 .166.099.166.219s.15.379.334.576c.183.197.333.437.333.533 0 .097.225.411.5.699.275.287.5.587.5.666 0 .079.225.379.5.667.275.288.5.592.5.676 0 .084.375.518.833.964.459.447.834.88.834.963 0 .083.506.62 1.125 1.192a538.14 538.14 0 012.085 1.943c.529.496 1.019.902 1.09.902.071 0 .461.3.866.667.405.367.817.667.915.667.098 0 .287.15.419.333.132.183.339.333.46.333s.381.15.578.334c.197.183.456.333.576.333.121 0 .219.075.219.167 0 .091.098.166.219.166.12 0 .379.15.576.334.197.183.473.333.615.333.141 0 .257.075.257.167 0 .091.15.166.333.166.183 0 .333.075.333.167 0 .092.15.167.334.167.183 0 .333.075.333.166 0 .092.15.167.333.167.184 0 .334.075.334.167 0 .091.15.166.333.166.183 0 .333.075.333.167 0 .092.15.167.334.167.183 0 .333.075.333.166 0 .092.146.167.323.167.178 0 .37.075.427.167.057.091.286.166.51.166.224 0 .407.075.407.167 0 .092.145.167.323.167.178 0 .37.075.427.166.056.092.286.167.51.167.223 0 .406.075.406.167 0 .091.225.166.5.166s.5.075.5.167c0 .092.225.167.5.167s.5.075.5.166c0 .092.3.167.667.167.367 0 .667.075.667.167 0 .091.22.166.49.166.269 0 .536.075.593.167.057.092.436.167.843.167s.74.075.74.166c0 .092.296.167.657.167.361 0 .703.075.76.167.057.091.511.166 1.01.166s.907.075.907.167c0 .095.496.167 1.156.167.637 0 1.204.075 1.26.166.06.097.974.167 2.177.167 1.271 0 2.073.064 2.073.167 0 .107 1.556.166 4.334.166 2.777 0 4.333-.059 4.333-.166 0-.102.778-.167 2-.167s2-.065 2-.167c0-.096.524-.166 1.24-.166.682 0 1.287-.075 1.343-.167.057-.092.507-.167 1-.167.494 0 .944-.075 1-.166.057-.092.394-.167.75-.167s.694-.075.75-.167c.057-.091.394-.166.75-.166s.694-.075.75-.167c.057-.092.319-.167.584-.167.264 0 .526-.075.583-.166.057-.092.361-.167.677-.167.315 0 .573-.075.573-.167 0-.091.225-.166.5-.166s.5-.075.5-.167c0-.092.225-.167.5-.167s.5-.075.5-.166c0-.092.183-.167.407-.167.224 0 .453-.075.51-.167.056-.091.248-.166.426-.166s.324-.075.324-.167c0-.092.183-.167.406-.167.224 0 .454-.075.51-.166.057-.092.249-.167.427-.167s.323-.075.323-.167c0-.091.15-.166.334-.166.183 0 .333-.075.333-.167 0-.092.15-.167.333-.167.184 0 .334-.075.334-.166 0-.092.15-.167.333-.167.183 0 .333-.075.333-.167 0-.091.15-.166.334-.166.183 0 .333-.075.333-.167 0-.092.116-.167.257-.167.141 0 .418-.15.615-.333.197-.183.456-.333.576-.333.12 0 .219-.075.219-.167 0-.092.133-.167.296-.167.163 0 .405-.15.537-.333.132-.183.357-.333.5-.333.143 0 .368-.15.5-.334.132-.183.344-.333.47-.333s.44-.225.697-.5c.257-.275.537-.5.622-.5.086 0 .627-.431 1.203-.958l1.945-1.775c.493-.448.896-.879.896-.957 0-.078.45-.598 1-1.157.55-.558 1-1.091 1-1.184 0-.093.225-.379.5-.636s.5-.57.5-.696c0-.127.15-.338.334-.47.183-.132.333-.357.333-.5 0-.143.15-.368.333-.5.184-.132.334-.34.334-.461s.15-.381.333-.578c.183-.197.333-.456.333-.576 0-.12.075-.219.167-.219.092 0 .167-.15.167-.333 0-.183.075-.333.166-.333.092 0 .167-.15.167-.334 0-.183.075-.333.167-.333.091 0 .166-.15.166-.333 0-.184.075-.334.167-.334.092 0 .167-.15.167-.333 0-.183.075-.333.166-.333.092 0 .167-.15.167-.334 0-.183.075-.333.167-.333.091 0 .166-.183.166-.407 0-.224.075-.453.167-.51.092-.056.167-.248.167-.426s.075-.324.166-.324c.092 0 .167-.145.167-.323 0-.178.075-.37.167-.427.091-.056.166-.281.166-.5 0-.218.075-.443.167-.5.092-.056.167-.286.167-.51 0-.223.075-.406.166-.406.092 0 .167-.258.167-.574 0-.315.075-.62.167-.676.091-.057.166-.324.166-.594 0-.269.075-.49.167-.49.092 0 .167-.3.167-.666 0-.367.075-.667.166-.667.092 0 .167-.296.167-.657 0-.361.075-.703.167-.76.091-.056.166-.431.166-.833 0-.402.075-.777.167-.833.092-.057.167-.586.167-1.177 0-.604.072-1.073.166-1.073.098 0 .167-.58.167-1.407 0-.774.075-1.453.167-1.51.105-.065.166-2.168.166-5.76 0-3.66-.058-5.657-.166-5.657-.098 0-.167-.555-.167-1.333 0-.778-.069-1.333-.167-1.333-.091 0-.166-.371-.166-.824 0-.453-.075-.87-.167-.926-.092-.057-.167-.436-.167-.844 0-.407-.075-.74-.166-.74-.092 0-.167-.3-.167-.666 0-.367-.075-.667-.167-.667-.091 0-.166-.258-.166-.573 0-.316-.075-.62-.167-.677-.092-.057-.167-.282-.167-.5 0-.218-.075-.443-.166-.5-.092-.057-.167-.282-.167-.5 0-.218-.075-.443-.167-.5-.091-.057-.166-.249-.166-.427 0-.177-.075-.323-.167-.323-.092 0-.167-.225-.167-.5s-.075-.5-.166-.5c-.092 0-.167-.15-.167-.333 0-.184-.075-.334-.167-.334-.091 0-.166-.15-.166-.333 0-.183-.075-.333-.167-.333-.092 0-.167-.15-.167-.334 0-.183-.075-.333-.166-.333-.092 0-.167-.15-.167-.333 0-.184-.075-.334-.167-.334-.091 0-.166-.15-.166-.333 0-.183-.075-.333-.167-.333-.092 0-.167-.15-.167-.334 0-.183-.075-.333-.166-.333-.092 0-.167-.098-.167-.219 0-.12-.15-.379-.333-.576-.184-.197-.334-.473-.334-.615 0-.141-.062-.257-.138-.257-.076 0-.245-.206-.374-.458a3.107 3.107 0 00-.528-.728c-.161-.148-.293-.362-.293-.475 0-.113-.225-.415-.5-.672-.275-.257-.5-.548-.5-.646 0-.235-5.453-5.687-5.687-5.687-.099 0-.389-.225-.646-.5s-.571-.5-.697-.5-.338-.15-.47-.334c-.132-.183-.357-.333-.5-.333-.143 0-.368-.15-.5-.333-.132-.184-.339-.334-.46-.334-.122 0-.382-.15-.578-.333-.197-.183-.457-.333-.577-.333-.12 0-.218-.075-.218-.167 0-.092-.15-.167-.334-.167-.183 0-.333-.057-.333-.127s-.281-.257-.625-.415a18.076 18.076 0 01-1.338-.706c-.392-.23-.861-.418-1.041-.418-.181 0-.329-.075-.329-.167 0-.092-.15-.167-.334-.167-.183 0-.333-.075-.333-.166 0-.092-.15-.167-.333-.167-.184 0-.334-.075-.334-.167 0-.091-.225-.166-.5-.166s-.5-.075-.5-.167c0-.092-.145-.167-.323-.167-.178 0-.37-.075-.427-.166-.056-.092-.286-.167-.51-.167-.223 0-.406-.075-.406-.167 0-.091-.225-.166-.5-.166s-.5-.075-.5-.167c0-.092-.258-.167-.574-.167-.315 0-.62-.075-.676-.166-.057-.092-.324-.167-.594-.167-.269 0-.49-.075-.49-.167 0-.091-.3-.166-.666-.166-.367 0-.667-.075-.667-.167 0-.092-.3-.167-.667-.167-.366 0-.666-.075-.666-.166 0-.092-.375-.167-.834-.167-.458 0-.833-.075-.833-.167 0-.092-.444-.166-1-.166s-1-.074-1-.167c0-.095-.5-.167-1.167-.167-.666 0-1.166-.071-1.166-.166 0-.1-.667-.167-1.667-.167s-1.667-.067-1.667-.167c0-.107-1.857-.166-5.24-.166-3.313 0-5.278.061-5.343.166M10.833 35.657c0 4.813.06 7.527.167 7.593.107.066.167 3.03.167 8.343v8.24h12v-1.99c0-1.147.07-2.034.166-2.093.092-.057.167-.619.167-1.25s.075-1.193.167-1.25c.091-.057.166-.394.166-.75s.075-.693.167-.75c.092-.057.167-.361.167-.677 0-.315.075-.573.166-.573.092 0 .167-.183.167-.407 0-.224.075-.453.167-.51.091-.056.166-.248.166-.426s.075-.324.167-.324c.092 0 .167-.15.167-.333 0-.183.075-.333.166-.333.092 0 .167-.15.167-.334 0-.183.075-.333.167-.333.091 0 .166-.133.166-.297 0-.163.15-.404.334-.536.183-.132.333-.329.333-.437 0-.272 2.315-2.594 2.875-2.883.252-.13.458-.299.458-.375 0-.076.15-.139.334-.139.183 0 .333-.061.333-.135 0-.195 1.304-.865 1.682-.865.175 0 .318-.075.318-.166 0-.092.15-.167.333-.167.184 0 .334-.075.334-.167 0-.091.258-.166.573-.166.316 0 .62-.075.677-.167.056-.092.356-.167.666-.167.31 0 .61-.075.667-.166.057-.092.474-.167.927-.167.452 0 .823-.075.823-.167 0-.101.722-.166 1.833-.166s1.834-.066 1.834-.167c0-.097.555-.167 1.333-.167h1.333v58H27.5v5.667c0 5.556.007 5.667.333 5.667.184 0 .334.075.334.166 0 .111 9.111.167 27 .167h27v-12H65.833V40.167H69c2 0 3.167.061 3.167.166 0 .094.469.167 1.073.167.591 0 1.12.075 1.177.167.056.091.398.166.76.166.361 0 .656.075.656.167 0 .092.221.167.49.167.27 0 .537.075.594.166.056.092.286.167.51.167.223 0 .406.075.406.167 0 .091.106.166.235.166.277 0 1.658.695 1.738.875.03.069.162.125.293.125.13 0 .473.225.761.5.287.275.589.5.67.5.192 0 1.303 1.111 1.303 1.303 0 .082.225.383.5.671.275.288.5.63.5.761s.057.263.125.293c.18.08.875 1.46.875 1.738 0 .129.075.234.167.234.092 0 .167.146.167.324 0 .178.075.37.166.426.092.057.167.319.167.584 0 .264.075.526.167.583.091.057.166.357.166.667 0 .31.075.61.167.666.092.057.167.469.167.917 0 .448.075.86.166.917.101.062.167 1.251.167 3.01v2.906h12.333V28.5H65.427c-22.092 0-33.442-.056-33.51-.167-.067-.108-3.78-.166-10.594-.166h-10.49v7.49M203.5 37.74c0 6.203.059 9.61.167 9.677.106.065.166 2.279.166 6.093v5.99h12v-2.24c0-1.314.069-2.283.167-2.343.092-.057.167-.544.167-1.084 0-.539.075-1.026.166-1.083.092-.057.167-.436.167-.843s.075-.74.167-.74c.091 0 .166-.225.166-.5s.075-.5.167-.5c.092 0 .167-.225.167-.5s.075-.5.166-.5c.092 0 .167-.15.167-.334 0-.183.075-.333.167-.333.091 0 .166-.15.166-.333 0-.184.075-.334.167-.334.092 0 .167-.15.167-.333 0-.183.075-.333.166-.333.092 0 .167-.134.167-.297 0-.163.15-.405.333-.537.184-.132.334-.337.334-.456 0-.281 2.429-2.71 2.71-2.71.119 0 .324-.15.456-.334.132-.183.368-.333.523-.333.156 0 .308-.056.338-.125.08-.18 1.461-.875 1.738-.875.129 0 .235-.075.235-.167 0-.091.183-.166.406-.166.224 0 .454-.075.51-.167.057-.092.324-.167.594-.167.269 0 .49-.075.49-.166 0-.092.3-.167.666-.167.367 0 .667-.075.667-.167 0-.092.444-.166 1-.166s1-.074 1-.167c0-.103.913-.167 2.407-.167 1.425 0 2.449-.068 2.51-.166.056-.092.323-.167.593-.167h.49v58h-16.333v11.667h54.666v-12h-6.406c-4.092 0-6.445.06-6.51.166-.059.095-.897.167-1.946.167h-1.842l.131-.542c.071-.298.156-13.273.187-28.833l.058-28.292h2.821c1.701 0 2.862.067 2.924.167.057.092.661.167 1.343.167.716 0 1.24.07 1.24.166 0 .092.296.167.657.167.361 0 .703.075.76.167.057.091.361.166.677.166.315 0 .573.075.573.167 0 .092.225.167.5.167s.5.075.5.166c0 .092.15.167.333.167.184 0 .334.075.334.167 0 .091.15.166.333.166.183 0 .333.075.333.167 0 .092.134.167.297.167.163 0 .405.15.537.333.132.183.337.333.456.333.281 0 3.044 2.763 3.044 3.044 0 .119.15.324.333.456.183.132.333.374.333.537 0 .163.075.297.167.297.092 0 .167.15.167.333 0 .183.075.333.166.333.092 0 .167.146.167.324 0 .178.075.37.167.426.091.057.166.286.166.51 0 .224.075.407.167.407.092 0 .167.225.167.5s.075.5.166.5c.092 0 .167.296.167.657 0 .361.075.703.167.76.091.056.166.586.166 1.176 0 .605.073 1.074.167 1.074.104 0 .167 1 .167 2.666V59.5H291.5V28.167h-88v9.573m142.417.26c.056.092.581.167 1.166.167s1.11.075 1.167.166c.057.092.436.167.843.167s.74.075.74.167c0 .091.3.166.667.166.367 0 .667.075.667.167 0 .092.225.167.5.167s.5.075.5.166c0 .092.225.167.5.167s.5.075.5.167c0 .091.15.166.333.166.183 0 .333.075.333.167 0 .092.15.167.334.167.183 0 .333.075.333.166 0 .092.098.167.217.167.306 0 1.113.392 1.115.542.001.068.151.125.335.125.183 0 .333.075.333.166 0 .092.133.167.297.167.163 0 .404.15.536.333.132.184.325.334.427.334.103 0 .532.318.955.708.422.39.94.863 1.151 1.053.868.777 2.301 2.436 2.301 2.662 0 .134.075.243.166.243.092 0 .167.099.167.219s.15.379.333.576c.184.197.334.474.334.615 0 .141.075.257.166.257.092 0 .167.146.167.323 0 .178.075.37.167.427.091.057.166.286.166.51 0 .224.075.407.167.407.092 0 .167.225.167.5s.075.5.166.5c.092 0 .167.3.167.666 0 .367.075.667.167.667.091 0 .166.3.166.667 0 .366.075.666.167.666.092 0 .167.296.167.657 0 .361.075.703.166.76.092.057.167.432.167.833 0 .402.075.777.167.834.091.056.166.506.166 1 0 .493.075.943.167 1 .092.056.167.656.167 1.333 0 .677.075 1.277.166 1.333.105.065.167 1.919.167 5.01 0 3.16-.059 4.907-.167 4.907-.097 0-.166.556-.166 1.333 0 .778-.07 1.334-.167 1.334-.092 0-.167.441-.167.99 0 .544-.075 1.036-.166 1.093-.092.057-.167.511-.167 1.01s-.075.907-.167.907c-.091 0-.166.295-.166.656 0 .362-.075.704-.167.76-.092.057-.167.436-.167.844 0 .407-.075.74-.166.74-.092 0-.167.3-.167.666 0 .367-.075.667-.167.667-.091 0-.166.226-.166.502 0 .277-.075.652-.167.834l-.333.662a1.767 1.767 0 00-.167.666c0 .185-.075.336-.167.336-.091 0-.166.102-.166.227 0 .273-1.032 2.333-1.209 2.412-.068.03-.125.183-.125.338 0 .156-.15.391-.333.523-.183.132-.333.344-.333.47s-.225.44-.5.697c-.275.257-.5.54-.5.63 0 .228-1.958 2.21-2.667 2.7-.321.222-.705.539-.853.703-.148.165-.375.3-.505.3-.129 0-.343.15-.475.333-.132.184-.368.334-.523.334-.156 0-.308.056-.338.125-.079.176-2.139 1.208-2.413 1.208-.124 0-.226.075-.226.167 0 .091-.183.166-.407.166-.224 0-.453.075-.51.167-.057.092-.282.167-.5.167-.218 0-.443.075-.5.166-.057.092-.324.167-.593.167-.27 0-.49.075-.49.167 0 .091-.375.166-.834.166-.458 0-.833.075-.833.167 0 .1-.667.167-1.667.167s-1.666.066-1.666.166c0 .092-.146.167-.324.167-.178 0-.37-.075-.426-.167-.057-.092-.804-.166-1.667-.166s-1.61-.075-1.667-.167c-.056-.092-.431-.167-.833-.167-.402 0-.777-.075-.833-.166-.057-.092-.361-.167-.677-.167-.315 0-.573-.075-.573-.167 0-.091-.225-.166-.5-.166s-.5-.075-.5-.167c0-.092-.225-.167-.5-.167s-.5-.075-.5-.166c0-.092-.15-.167-.334-.167-.183 0-.333-.075-.333-.167 0-.091-.15-.166-.333-.166-.184 0-.334-.075-.334-.167 0-.092-.15-.167-.333-.167-.183 0-.333-.075-.333-.166 0-.092-.15-.167-.334-.167-.183 0-.333-.075-.333-.167 0-.091-.15-.166-.333-.166-.184 0-.334-.075-.334-.167 0-.092-.093-.167-.208-.167-.115 0-.471-.225-.792-.5-.321-.274-.647-.499-.724-.499-.078 0-.352-.226-.609-.501s-.531-.5-.609-.5c-.189 0-2.057-1.759-2.06-1.94-.002-.079-.377-.552-.834-1.051-.456-.499-.83-.971-.83-1.049 0-.077-.15-.301-.334-.498-.183-.197-.333-.456-.333-.576 0-.121-.075-.219-.167-.219-.091 0-.166-.116-.166-.257 0-.141-.15-.418-.334-.615-.183-.197-.333-.456-.333-.576 0-.12-.075-.219-.167-.219-.091 0-.166-.183-.166-.406 0-.224-.075-.454-.167-.51-.092-.057-.167-.249-.167-.427s-.075-.323-.166-.323c-.092 0-.167-.225-.167-.5s-.075-.5-.167-.5c-.091 0-.166-.225-.166-.5s-.075-.5-.167-.5c-.092 0-.167-.3-.167-.667 0-.367-.075-.667-.166-.667-.092 0-.167-.3-.167-.666 0-.367-.075-.667-.167-.667-.091 0-.166-.375-.166-.833 0-.459-.075-.834-.167-.834-.092 0-.167-.375-.167-.833 0-.458-.075-.833-.166-.833-.093 0-.167-.445-.167-1 0-.556-.074-1-.167-1-.097 0-.166-.553-.166-1.324 0-.728-.075-1.37-.167-1.426-.104-.064-.167-1.641-.167-4.177 0-2.604.06-4.073.167-4.073.097 0 .167-.556.167-1.334 0-.777.069-1.333.166-1.333.092 0 .167-.408.167-.907 0-.499.075-.953.167-1.01.091-.056.166-.394.166-.75s.075-.693.167-.75c.092-.056.167-.356.167-.666 0-.31.075-.61.166-.667.092-.057.167-.357.167-.667 0-.31.075-.61.167-.666.091-.057.166-.361.166-.677 0-.315.075-.573.167-.573.092 0 .167-.225.167-.5s.075-.5.166-.5c.092 0 .167-.225.167-.5s.075-.5.167-.5c.091 0 .166-.225.166-.5s.075-.5.167-.5c.092 0 .167-.183.167-.407 0-.224.075-.453.166-.51.092-.057.167-.249.167-.427 0-.177.075-.323.167-.323.091 0 .166-.15.166-.333 0-.184.075-.334.167-.334.092 0 .167-.098.167-.218s.15-.38.333-.577c.183-.196.333-.443.333-.547 0-.105.225-.401.5-.658s.5-.539.5-.627c0-.211 1.759-2.039 1.961-2.039.086 0 .392-.225.68-.5.288-.275.585-.5.66-.5.075 0 .282-.132.46-.292.177-.16.529-.398.781-.528s.458-.299.458-.375c0-.076.15-.139.334-.139.183 0 .333-.075.333-.166 0-.092.15-.167.333-.167.184 0 .334-.075.334-.167 0-.091.15-.166.333-.166.183 0 .333-.075.333-.167 0-.092.225-.167.5-.167s.5-.075.5-.166c0-.092.15-.167.334-.167.183 0 .333-.075.333-.167 0-.091.221-.166.49-.166.27 0 .537-.075.593-.167.057-.092.361-.167.677-.167.315 0 .573-.075.573-.166 0-.092.375-.167.834-.167.458 0 .833-.075.833-.167 0-.094.469-.166 1.073-.166.591 0 1.12-.075 1.177-.167.061-.099 1.11-.167 2.583-.167 1.474 0 2.522.068 2.584.167m-192.334.333c.057.092.582.167 1.167.167.585 0 1.11.075 1.167.167.056.091.436.166.843.166s.74.075.74.167c0 .092.258.167.573.167.316 0 .62.075.677.166.057.092.324.167.593.167.27 0 .49.075.49.167 0 .091.146.166.324.166.178 0 .37.075.426.167.057.092.286.167.51.167.224 0 .407.075.407.166 0 .092.15.167.333.167.184 0 .334.075.334.167 0 .091.15.166.333.166.183 0 .333.075.333.167 0 .092.15.167.334.167.183 0 .333.075.333.166 0 .092.098.167.219.167.12 0 .379.15.576.333.197.184.457.334.578.334.121 0 .328.15.46.333.132.183.334.333.447.333.27 0 3.387 3.117 3.387 3.387 0 .113.15.315.333.447.183.132.333.357.333.5 0 .143.15.368.334.5.183.132.333.334.333.448 0 .115.15.475.333.802.184.326.334.741.334.921 0 .181.075.329.166.329.092 0 .167.225.167.5s.075.5.167.5c.091 0 .166.258.166.573 0 .316.075.62.167.677.092.056.167.319.167.583 0 .264.075.527.166.583.092.057.167.436.167.844 0 .407.075.74.167.74.091 0 .166.333.166.74s.075.786.167.843c.092.057.167.474.167.927 0 .452.075.823.166.823.095 0 .167.497.167 1.157 0 .636.075 1.203.167 1.26.096.059.166.97.166 2.166s.07 2.107.167 2.167c.092.057.167.732.167 1.5s-.075 1.443-.167 1.5c-.098.06-.167 1.03-.167 2.343 0 1.383-.063 2.24-.166 2.24-.095 0-.167.497-.167 1.157 0 .636-.075 1.203-.167 1.26-.091.057-.166.511-.166 1.01s-.075.907-.167.907c-.092 0-.167.375-.167.833 0 .458-.075.833-.166.833-.092 0-.167.375-.167.834 0 .458-.075.833-.167.833-.091 0-.166.3-.166.667 0 .366-.075.666-.167.666-.092 0-.167.3-.167.667 0 .367-.075.667-.166.667-.092 0-.167.258-.167.573 0 .316-.075.62-.167.677-.091.056-.166.248-.166.426s-.075.324-.167.324c-.092 0-.167.225-.167.5s-.075.5-.166.5c-.092 0-.167.15-.167.333 0 .183-.075.333-.167.333-.091 0-.166.15-.166.334 0 .183-.075.333-.167.333-.092 0-.167.15-.167.333 0 .184-.075.334-.166.334-.092 0-.167.098-.167.218s-.15.38-.333.577c-.184.196-.334.436-.334.533 0 .096-.225.41-.5.698s-.5.588-.5.667c0 .205-3.126 3.307-3.332 3.307-.094 0-.406.225-.694.5-.288.275-.624.5-.748.5s-.226.075-.226.166c0 .092-.15.167-.333.167-.183 0-.333.062-.333.139 0 .192-1.977 1.194-2.357 1.194-.171 0-.31.075-.31.167 0 .092-.146.167-.323.167-.178 0-.37.075-.427.166-.057.092-.319.167-.583.167-.265 0-.527.075-.584.167-.056.091-.323.166-.593.166-.269 0-.49.075-.49.167 0 .092-.375.167-.833.167-.459 0-.834.075-.834.166 0 .106-1.302.167-3.573.167-2.203 0-3.613-.064-3.677-.167-.056-.091-.431-.166-.833-.166-.402 0-.777-.075-.833-.167-.057-.092-.319-.167-.584-.167-.264 0-.526-.075-.583-.166-.057-.092-.319-.167-.583-.167-.265 0-.527-.075-.584-.167-.056-.091-.248-.166-.426-.166s-.324-.075-.324-.167c0-.092-.225-.167-.5-.167s-.5-.075-.5-.166c0-.092-.15-.167-.333-.167-.183 0-.333-.075-.333-.167 0-.091-.15-.166-.334-.166-.183 0-.333-.075-.333-.167 0-.092-.116-.167-.257-.167-.141 0-.418-.15-.615-.333-.197-.183-.456-.333-.576-.333-.12 0-.219-.075-.219-.167 0-.092-.101-.167-.225-.167s-.461-.225-.748-.5c-.288-.275-.6-.5-.694-.5-.221 0-3.999-3.778-3.999-3.999 0-.094-.225-.406-.5-.694-.275-.287-.5-.624-.5-.748s-.075-.225-.167-.225c-.092 0-.167-.099-.167-.219s-.15-.379-.333-.576c-.183-.197-.333-.474-.333-.615 0-.141-.075-.257-.167-.257-.092 0-.167-.15-.167-.333 0-.184-.075-.334-.166-.334-.092 0-.167-.15-.167-.333 0-.183-.075-.333-.167-.333-.091 0-.166-.183-.166-.407 0-.224-.075-.453-.167-.51-.092-.057-.167-.324-.167-.593 0-.27-.075-.49-.166-.49-.092 0-.167-.258-.167-.574 0-.315-.075-.62-.167-.676-.091-.057-.166-.319-.166-.584 0-.264-.075-.526-.167-.583-.092-.057-.167-.394-.167-.75s-.075-.693-.166-.75c-.092-.057-.167-.399-.167-.76s-.075-.657-.167-.657c-.091 0-.166-.408-.166-.906 0-.499-.075-.954-.167-1.01-.092-.057-.167-.549-.167-1.094 0-.549-.074-.99-.166-.99-.1 0-.167-.635-.167-1.573 0-.869-.075-1.62-.167-1.677-.101-.062-.166-1.276-.166-3.083 0-1.807.065-3.021.166-3.083.092-.057.167-.808.167-1.677 0-.938.067-1.573.167-1.573.092 0 .166-.445.166-1 0-.556.074-1 .167-1 .092 0 .167-.375.167-.834 0-.458.075-.833.166-.833.092 0 .167-.3.167-.667 0-.366.075-.666.167-.666.091 0 .166-.3.166-.667 0-.367.075-.667.167-.667.092 0 .167-.22.167-.49 0-.269.075-.536.166-.593.092-.057.167-.361.167-.677 0-.315.075-.573.167-.573.091 0 .166-.225.166-.5s.075-.5.167-.5c.092 0 .167-.225.167-.5s.075-.5.166-.5c.092 0 .167-.15.167-.333 0-.184.075-.334.167-.334.091 0 .166-.148.166-.329 0-.18.191-.649.424-1.041.234-.392.467-.844.52-1.005.052-.16.161-.291.242-.291.081 0 .148-.102.148-.226 0-.124.207-.442.46-.708.253-.266.644-.746.869-1.066.49-.699.574-.783 1.383-1.387.346-.258.811-.652 1.034-.875.223-.223.469-.405.548-.405.079 0 .288-.131.466-.292.178-.16.529-.398.781-.528s.459-.299.459-.375c0-.076.15-.138.333-.138.183 0 .333-.075.333-.167 0-.092.15-.167.334-.167.183 0 .333-.075.333-.166 0-.092.15-.167.333-.167.184 0 .334-.075.334-.167 0-.091.225-.166.5-.166s.5-.075.5-.167c0-.092.15-.167.333-.167.183 0 .333-.075.333-.166 0-.092.221-.167.49-.167.27 0 .537-.075.594-.167.056-.091.361-.166.676-.166.316 0 .574-.075.574-.167 0-.092.333-.167.74-.167s.786-.075.843-.166c.057-.092.549-.167 1.093-.167.549 0 .99-.074.99-.167 0-.104 1.053-.166 2.824-.166 1.702 0 2.864.066 2.926.166"
            ></path>
          </g>
        </svg>