<svg xmlns="http://www.w3.org/2000/svg" viewBox="0 0 1233.75 428.22" fill="#fff">
    <defs />
    <title>Trex</title>
    <path
      d="M348.08,34.14l-.18,76.24v5.44H232.73V456H121.93V116H17.56V34.14Z"
      transform="translate(-17.56 -34.14)"
    />
    <path
      d="M858.82,318.94H594.25c.48,3.93.67,7.55,1.38,11.05a73.18,73.18,0,0,0,65.71,58.46c19.2,1.71,38.08.56,56.12-6.84,14-5.76,25.22-14.8,31.52-29.08a4.07,4.07,0,0,1,2.94-2.12c34.3-.11,68.6-.1,104.14-.1-2.69,7.83-4.67,15.28-7.75,22.24-15.78,35.56-43.18,58.86-78.66,73.39-21.59,8.84-44.21,13.5-67.38,15.08-15,1-30.16,1.93-45.11.87-36.81-2.63-72.14-10.8-102.61-33.32S506,375.3,497.82,338.66c-9.8-44.05-3.29-85.87,19.69-124.67,19.61-33.11,49.59-52.93,86-63.53,31.15-9.07,63-10.48,95.19-8.12,24.19,1.78,47.76,6.44,70.14,16.11,46.54,20.1,74.41,55.63,85.9,104.54a180.38,180.38,0,0,1,4.44,52.92C859.13,316.73,859,317.55,858.82,318.94ZM752,255.34c-.38-2.29-.56-4.11-1-5.86-4.35-17.1-15.25-28.8-31-35.72-24.35-10.68-49.76-11.48-75.45-6-15.84,3.35-29.26,10.95-38.42,24.8a46.17,46.17,0,0,0-8,22.83Z"
      transform="translate(-17.56 -34.14)"
    />
    <path
      d="M818.57,456.12,971.59,299l-8.4-9c5.15,0,9.42.25,13.64-.11a10.51,10.51,0,0,0,5.83-2.42c3.83-3.45,7.26-7.33,11.62-11.83H979.47c-9.32,0-18.64.06-28-.06-1.55,0-3.54-.4-4.55-1.4-6.42-6.34-12.62-12.89-19.81-20.33h5.25c26.41,0,52.82,0,79.24.05a8.54,8.54,0,0,0,6.64-2.76c3.48-3.47,7.28-6.61,11-9.89l-1-1.6h-4.86c-35.74,0-71.47,0-107.21.07a9.54,9.54,0,0,1-7.73-3.31c-5.52-6-11.23-11.84-17.48-18.39,2-.15,3.27-.33,4.56-.33,38.56,0,77.12,0,115.68.11a9.58,9.58,0,0,1,6.18,2.59c5,5.13,9.66,10.65,14.07,15.6,8.14-7.77,15.14-14.09,21.74-20.81,21.64-22.08,43.12-44.33,64.75-66.43a7.45,7.45,0,0,1,4.68-2.17q62.92-.17,125.85-.07c.55,0,1.1.16,2.8.41l-152,155.3c3.52,2.82,6.88,5.51,10.23,8.21l-.88,1.54c-5.14,0-10.29-.2-15.41.1a9.94,9.94,0,0,0-5.51,2.17c-4,3.33-7.63,7-11.42,10.59.25.44.49.89.73,1.33h4.49c13,0,26-.1,39,.11a9.31,9.31,0,0,1,5.86,2.39c6.24,6.1,12.18,12.51,18.59,19.19h-4.3c-27.4,0-54.8-.06-82.2.11a11.06,11.06,0,0,0-6.15,2.54c-4,3.18-7.77,6.77-11.63,10.2l1.07,1.51h4.47q54.66,0,109.32-.05c2.71,0,4.79.51,6.69,2.62,5.9,6.56,12,13,17.79,19.22h-3.19q-58,0-116.11,0a9,9,0,0,1-7.32-3c-5-5.3-10.53-10.13-15.62-15-7,6.83-14.52,13.85-21.73,21.17-17.83,18.1-35.53,36.35-53.29,54.53-1.57,1.62-3.5,3-4.73,4.83-5.65,8.44-13.5,9.94-23.24,9.8-36.86-.55-73.73-.23-110.59-.23Z"
      transform="translate(-17.56 -34.14)"
    />
    <path
      d="M381.53,455.79H276.45V146.47H381.71v42.41l1.4.39c2.17-3,4.63-5.77,6.48-8.93,11.55-19.71,29.87-29.49,51-35.62a154.07,154.07,0,0,1,53.09-6.16c1.81.11,3.63.29,5.75.46v83.82c-19,1.22-37.83,2.49-56.66,3.6q-29,1.71-48,23.48c-7.46,8.55-10.08,19.22-11,30.11-1.17,13.62-2,27.32-2.06,41-.25,42.94-.09,85.87-.09,128.81Z"
      transform="translate(-17.56 -34.14)"
    />
    <path
      d="M999.5,203.46h-3.63q-57.63,0-115.25.06c-3.36,0-5.71-.79-8-3.41-5.41-6.09-11.26-11.79-17.49-18.23,2.09-.1,3.42-.21,4.74-.21q57.63,0,115.25-.06c2.72,0,4.78.57,6.66,2.67C987.64,190.83,993.71,197.23,999.5,203.46Z"
      transform="translate(-17.56 -34.14)"
    />
    <path
      d="M963.61,166.29H961q-58.43,0-116.86.06a8.35,8.35,0,0,1-6.9-3c-5.64-6.21-11.58-12.15-18.13-19h5.49c38,0,75.93,0,113.89-.07,3.35,0,5.84.68,8.11,3.27C952.24,154,958.12,160.28,963.61,166.29Z"
      transform="translate(-17.56 -34.14)"
    />
    <path
      d="M1106.28,433.76h5.47q57.16,0,114.32-.07a9.48,9.48,0,0,1,7.75,3.28c5.64,6.22,11.47,12.27,17.14,18.3-.81,0-2.16.17-3.5.17-38.67,0-77.35,0-116,.08a9.07,9.07,0,0,1-7.34-3.16C1118.59,446.38,1112.86,440.59,1106.28,433.76Z"
      transform="translate(-17.56 -34.14)"
    />
    <path
      d="M1216.54,420.13h-4.73q-57.57,0-115.14.06a9,9,0,0,1-7.41-3c-5.59-6.12-11.41-12-17.75-18.65,2-.15,3.3-.33,4.59-.33q57.78,0,115.56.09a9.79,9.79,0,0,1,6.21,2.52C1204.11,406.88,1210,413.31,1216.54,420.13Z"
      transform="translate(-17.56 -34.14)"
    />
  </svg>