<svg
          xmlns="http://www.w3.org/2000/svg"
          x="0"
          y="0"
          viewBox="40 -10 190 90.8"
          xmlSpace="preserve"
        >
          <path
            d="M229.5 13.1c0 1.5-1.1 2.7-2.6 2.7s-2.7-1.1-2.7-2.6 1.1-2.7 2.6-2.7h.1c1.4 0 2.6 1.2 2.6 2.6m-4.7 0c0 1.1.8 2 1.9 2.1h.1c1.1 0 2-.9 2-2s-.9-2-2-2-2 .9-2 1.9m1.6 1.4h-.6v-2.6c.3-.1.7-.1 1-.1.3 0 .6 0 .9.2.2.1.3.3.3.5 0 .3-.2.6-.5.6.2.1.4.3.4.6 0 .2.1.4.2.6h-.6c-.1-.2-.2-.4-.2-.6-.1-.3-.2-.4-.5-.4h-.3l-.1 1.2zm0-1.4h.3c.3 0 .6-.1.6-.4s-.2-.4-.6-.4h-.3v.8z"
            className="st0"
            fill="#fff"
          ></path>
          <path
            d="M140.2 51.4L141 51.4 141 56.4 143.6 56.4 143.6 57 140.2 57z"
            className="st1" fill="#fa8218"
          ></path>
          <path d="M146 51.4H146.8V57H146z" className="st1" fill="#fa8218"></path>
          <path
            d="M151 57l-2-5.6h.9l.9 2.8c.3.8.5 1.4.6 2.1.2-.7.4-1.4.7-2.1l1-2.8h.9l-2.2 5.6h-.8z"
            className="st1" fill="#fa8218"
          ></path>
          <path d="M156.2 51.4H157V57H156.2z" className="st1" fill="#fa8218"></path>
          <path
            d="M159.9 57v-5.6h.9l1.9 2.9c.4.6.8 1.2 1.1 1.8-.1-.8-.1-1.4-.1-2.3v-2.4h.7V57h-.8l-1.9-2.9c-.4-.6-.8-1.2-1.1-1.9 0 .7.1 1.4.1 2.3v2.4l-.8.1zM172 56.8c-.6.2-1.2.3-1.9.3-.8.1-1.6-.2-2.3-.7-.6-.5-.9-1.3-.9-2.1 0-1.7 1.3-2.9 3.3-2.9.5 0 1 .1 1.5.3l-.2.6c-.4-.2-.9-.3-1.4-.2-1.2-.1-2.3.7-2.4 1.9v.3c-.1 1.2.8 2.2 2 2.3h.3c.3 0 .7 0 1-.1v-1.7h-1v-.6h2v2.6zM178.1 56.2c.4.2.9.4 1.4.4.8 0 1.3-.4 1.3-1s-.3-.8-1.1-1.1c-1-.3-1.6-.8-1.6-1.6s.8-1.5 2-1.5c.5 0 .9.1 1.3.3l-.2.6c-.4-.2-.8-.3-1.1-.3-.8 0-1.1.5-1.1.8 0 .5.4.8 1.2 1.1 1 .4 1.5.8 1.5 1.6s-.7 1.6-2.1 1.6c-.5 0-1.1-.1-1.6-.4l.1-.5zM184.2 51.5c.5-.1 1-.1 1.5-.1.6 0 1.2.1 1.7.5.4.3.5.7.5 1.2s-.2.9-.5 1.2c-.5.4-1.2.6-1.9.6h-.6v2.3h-.8v-5.7zm.7 2.7c.2 0 .4.1.6.1 1 0 1.5-.4 1.5-1.2s-.6-1.1-1.4-1.1c-.2 0-.5 0-.7.1v2.1zM190.6 55.3L190 57h-.8l2.1-5.6h.9l2.1 5.6h-.8l-.6-1.8h-2.3zm2-.6l-.6-1.6c-.1-.4-.2-.7-.3-1-.1.3-.2.7-.3 1l-.6 1.6h1.8zM200.3 56.9c-.5.2-1.1.3-1.6.3-1.5.1-2.8-1-3-2.5v-.4c0-1.6 1.3-2.9 2.9-3h.3c.5 0 1 .1 1.4.2l-.2.6c-.4-.2-.8-.2-1.2-.2-1.2-.1-2.3.8-2.4 2v.4c-.1 1.2.8 2.2 2 2.3h.4c.4 0 .9-.1 1.3-.2l.1.5z"
            className="st1" fill="#fa8218"
          ></path>
          <path
            d="M205.4 54.4L203 54.4 203 56.4 205.7 56.4 205.7 57 202.2 57 202.2 51.4 205.5 51.4 205.5 52 203 52 203 53.8 205.4 53.8z"
            className="st1" fill="#fa8218"
          ></path>
          <path
            d="M208.1 56.2c.4.2.9.4 1.4.4.8 0 1.3-.4 1.3-1s-.3-.8-1.1-1.1c-1-.3-1.6-.8-1.6-1.6s.8-1.5 2-1.5c.5 0 .9.1 1.3.3l-.2.6c-.4-.2-.8-.3-1.1-.3-.8 0-1.1.5-1.1.8 0 .5.4.8 1.2 1.1 1 .4 1.5.8 1.5 1.6s-.7 1.6-2.1 1.6c-.5 0-1.1-.1-1.6-.4l.1-.5zM53 44.9L50.8 35l-4.6-19.4c-.1-.9-.4-1.7-1-2.4-.9-.4-1.9-.7-2.9-.7v-1.4c2.7.1 4.7.2 6 .2 1.2 0 3.3-.1 6.2-.2v1.4c-1.2 0-2.4.1-3.6.4-.2.1-.3.4-.3.7 0 .7.1 1.4.3 2.1.5 2.8.9 4.6 1 5.4l3.7 16.4 5.8-14.6c1.5-3.8 3-7.8 4.5-12.1h1.5c1.4 4.5 2.8 8.3 3.9 11.5L77 37.7l4-14.1c.7-2.5 1.4-5.1 2-7.9.2-.7.3-1.4.4-2.2 0-.3-.1-.6-.4-.7-1.2-.3-2.5-.4-3.8-.3v-1.4c2.4.1 4.1.2 5.1.2s2.7-.1 5.1-.2v1.4c-.7 0-1.5.1-2.2.3-.4.3-.7.7-.9 1.1-.2.5-.9 2.6-2 6.2l-2.4 8c-.2.8-.7 2.6-1.5 5.4L77.3 45H75c-1.7-5.2-3.1-9.1-4.1-11.7l-5.4-14.6-4.7 11.7-3 7.7c-.4 1.1-.8 2-1.1 2.8s-.7 2.2-1.4 4.1l-2.3-.1z"
            className="st1" fill="#fa8218"
          ></path>
          <path
            d="M86.4 29.5l-1.2-.3v-1.4-1.5c1.4-1 3-1.8 4.6-2.5 1-.3 2-.5 3.1-.5 1.5 0 2.9.3 4.2 1 1.1.6 2 1.6 2.6 2.7.4 1.1.6 2.2.6 3.4l-.1 4V41c0 .5 0 1 .2 1.5.1.2.2.4.4.5.3.1.6.2.9.2l1.4.1v1.3c-1.2-.1-2.3-.2-3.2-.2s-2.1.1-3.5.2l.1-3.9c-1.7 1.4-3.5 2.6-5.4 3.8-.7.3-1.4.5-2.1.4-1.5.1-3-.4-4.2-1.4-1-1-1.6-2.4-1.5-3.8 0-1 .2-1.9.5-2.8.3-.7.7-1.4 1.2-2 .4-.4.9-.8 1.5-1.1 1.3-.6 2.7-1 4.2-1.3 1.9-.4 3.8-.8 5.7-1 .1-1.1-.1-2.2-.5-3.3-.4-.8-1-1.5-1.8-1.9-.9-.5-2-.8-3.1-.8-.8 0-1.6.1-2.3.4-.4.1-.8.3-1.2.6l-.4.8c-.2 1-.5 1.7-.7 2.2M96.5 33c-1.7.3-3.3.6-4.9 1.1-1 .2-2 .7-2.9 1.2-.4.3-.7.7-.9 1.1-.4.8-.6 1.6-.6 2.4-.1.9.3 1.9.9 2.6.7.6 1.6 1 2.5.9 1 0 2-.3 2.9-.9 1.1-.7 2.1-1.5 2.9-2.6V33z"
            className="st0"
            fill="#fff"
          ></path>
          <path
            d="M101.6 56.5l1.1-3.4h.5c.3.2.5.4.7.6l.6.3c.3.1.7.1 1 .1.5 0 .9-.1 1.3-.3.5-.2.9-.5 1.2-.9.5-.7 1-1.4 1.3-2.2.8-1.6 1.5-3.2 2.1-4.8-.5-1.3-1-2.8-1.7-4.5l-3.5-8.7c-1.1-2.6-1.9-4.6-2.6-6-.2-.4-.5-.8-.8-1.1-.6-.3-1.3-.4-2-.4v-1.3c1.8.1 3.6.1 5.4.1s3.4-.1 5-.1v1.3c-.9 0-1.8.1-2.6.3-.3.1-.6.4-.6.8.1.5.2 1 .4 1.4.6 1.8 1.1 3.4 1.6 4.6l1.4 3.4c.8 2.1 1.6 3.7 2.1 5l1.2-2.6c.5-1 1.3-3 2.4-5.9 1.2-2.9 1.8-4.7 2-5.4.1-.2.1-.4.1-.6 0-.3-.1-.5-.3-.6-.9-.3-1.8-.4-2.7-.4v-1.3c1.7.1 3.2.1 4.5.1 1.3 0 2.6-.1 3.9-.1l-.2 1.3c-.6 0-1.2.2-1.8.5-.8.9-1.4 1.9-1.9 3-.8 1.7-2.4 5-4.6 10L111 50.6c-.6 1.4-1.3 2.8-2.1 4.1-.6.8-1.3 1.4-2.2 1.9-.9.4-1.8.7-2.8.6-.4 0-.9-.1-1.3-.2l-1-.5M124.8 26.5v-1.3c.6 0 1.1-.1 1.7-.2 1-.2 1.9-.4 2.9-.6.8-.2 1.6-.5 2.4-.9.1-.1.3-.1.4-.1.1 0 .2 0 .2.1.1.1.1.2.1.4v4c1.4-1.5 3-2.8 4.7-3.9 1.1-.5 2.4-.7 3.6-.6 1.7 0 3.4.4 4.9 1.3 1.3.8 2.3 1.9 2.9 3.3 1 2.2 1.2 4.6.6 6.9-.2.8-.5 1.6-.8 2.3-.3.7-.7 1.4-1.1 2-.3.5-.7 1-1.1 1.4-.2.2-.7.6-1.6 1.3-.9.7-1.8 1.3-2.8 1.8-.7.4-1.3.7-2.1.9-1.6.5-3.2.5-4.8.1-.8-.2-1.6-.5-2.4-.9v3.5c.1 3.7.1 5.8.1 6.2 0 .5.1 1.1.3 1.6.1.2.1.3.3.4.2.1.4.2.6.2.1 0 1 .1 2.6.1v1.3c-2-.1-4.4-.1-7.4-.1-1.7 0-3 0-3.9.1v-1.3h2.1c.2 0 .5-.1.7-.2.2-.1.3-.2.4-.4.2-.5.3-1 .3-1.6 0-.2 0-2.3.1-6.3v-7.9c0-2.6 0-5.2-.1-7.9 0-2.7-.1-4.1-.2-4.4l-.3-.6-.6-.3-2.7.3zm7.6 13.6c.8.8 1.7 1.4 2.7 1.9 1 .5 2.1.7 3.2.7 1.3 0 2.6-.3 3.7-1 1.2-.7 2.1-1.8 2.6-3.1.7-1.5 1-3 1-4.6 0-1.4-.3-2.9-.9-4.2-.6-1.1-1.5-2.1-2.6-2.7-1-.6-2.2-.9-3.4-.9-.9 0-1.7.2-2.5.5s-1.6.8-2.2 1.4c-.6.5-1 1.1-1.3 1.8-.1.5-.2 1.1-.1 1.6l-.2 8.6zM150.9 34.5c-.1-3 1-5.9 3.1-8.1 2.2-2.1 5.1-3.2 8.1-3.1 5.5-.3 10.2 4 10.5 9.5v1c0 2.1-.5 4.1-1.5 5.9-1 1.8-2.5 3.2-4.2 4.2-1.8 1-3.9 1.5-6 1.5-1.5 0-3-.2-4.3-.9-1.1-.5-2.1-1.3-2.9-2.2-.7-.8-1.3-1.7-1.7-2.7-.7-1.6-1-3.3-1.1-5.1m4.3-1.7c0 1.9.3 3.8.9 5.5.4 1.6 1.3 3 2.6 4.1 1.1.8 2.4 1.3 3.7 1.3 1.7 0 3.2-.7 4.3-2 1.2-1.3 1.7-3.4 1.7-6.3.1-2.1-.3-4.1-1-6.1-.5-1.4-1.4-2.7-2.6-3.6-1-.7-2.3-1.1-3.5-1.1-1.7 0-3.3.7-4.4 2-1.1 1.5-1.7 3.6-1.7 6.2M173.3 26.5v-1.3c2.5-.2 4.9-.9 7.2-1.9l.5.4c-.1 3.1-.2 5.6-.2 7.2v4c.1 3.8.1 5.9.1 6.2 0 .5.1 1.1.2 1.6l.3.3c.2.1.3.2.5.2.1 0 .9 0 2.5.1v1.3c-2.2-.1-4-.1-5.4-.1-1.2 0-3.1.1-5.8.1v-1.3h2.1c.3 0 .5-.1.7-.2.2-.1.3-.2.4-.4.2-.5.3-1 .3-1.6 0-.2 0-2.3.1-6.4V31c.1-1.3 0-2.6-.2-3.9-.1-.2-.3-.4-.5-.5-.8-.1-1.8-.2-2.8-.1m5.4-13c.7 0 1.3.2 1.8.7.5.5.7 1.1.7 1.8 0 1.4-1.1 2.5-2.5 2.5s-2.5-1.1-2.5-2.5c0-1.3 1.1-2.5 2.5-2.5M186.1 44.7v-1.3h2.1c.3 0 .5-.1.7-.2.2-.1.3-.2.4-.4.2-.5.3-1 .3-1.6 0-.2 0-2.3.1-6.4v-2.6c0-1.2 0-2.4-.1-3.8 0-.5-.1-1-.2-1.6-.1-.2-.3-.3-.5-.4-1-.1-1.9-.2-2.9-.1V25c2.2-.2 4.4-.8 6.5-1.6.2-.1.4-.2.6-.2.1 0 .2 0 .2.1.1.1.1.2.1.3v.4c0 .5-.1 1.6-.1 3.4l4.1-3.5c1.1-.4 2.3-.7 3.4-.7 1.2 0 2.3.2 3.4.7.9.4 1.8 1 2.4 1.8.6.8.9 1.8 1.1 2.8.2 1.8.2 3.7.2 5.6V38c0 1.3 0 2.6.1 3.9 0 .3.2.6.4.9.2.2.4.3.7.3l2.4.1v1.3c-1.4-.1-2.6-.2-3.6-.2s-2.2.1-4.1.2c.2-3.6.3-5.9.3-6.9v-3.7c.1-1.5 0-3-.3-4.6-.2-1-.9-1.8-1.7-2.4-.9-.6-2.1-.9-3.2-.9s-2.1.3-3 .8c-.8.4-1.5 1-2 1.8-.5 1.1-.7 2.3-.6 3.5V35c.1 3.8.1 5.9.1 6.2 0 .6.1 1.1.3 1.6.1.1.1.3.3.3.2.1.4.2.6.2.1 0 .9 0 2.4.1v1.3c-1.8-.1-3.4-.2-4.9-.2-1.1 0-3.1.1-6 .2M210.2 27.3v-.9c1.2-.4 2.3-.9 3.4-1.5v-6.7c1.3-.4 2.6-1 3.7-1.7l.5.4c-.2 1.2-.3 3.9-.5 8.1h4.4c.8 0 1.3 0 1.7-.1l.2.1-.5 2.1h-5.9l-.1 9c-.1 1.3 0 2.6.1 3.9.1.4.2.8.4 1.1.2.3.5.6.8.8.5.2 1.1.4 1.7.4.5 0 1 0 1.5-.1s1-.2 1.4-.4l.3.9c-.7.5-1.4 1.1-2 1.7-.5.2-1 .3-1.6.4-.6.1-1.1.1-1.7.1-.6 0-1.3-.1-1.9-.3-.5-.2-.9-.4-1.3-.7-.4-.3-.8-.7-1-1.2-.3-.7-.5-1.5-.5-2.3 0-1 .1-2.1.1-3.3v-10h-.9c-.6.2-1.5.2-2.3.2"
            className="st0"
            fill="#fff"
          ></path>
        </svg>