<svg
          xmlns="http://www.w3.org/2000/svg"
          data-name="Layer 1"
          viewBox="0 0 414.86 67.33"
        >
          <path
            d="M571 253.67a143.17 143.17 0 01-14.6 2v2.51h3.6c3.07 0 3.81 0 3.81 11.16v45.94a1.7 1.7 0 01-2 1.49h-3.25v2.51h19.81v-2.51h-4.46c-2.79 0-2.88-4.46-2.88-13.39l6.32-4.46c7.53 12.28 14.88 20.37 15.62 20.37h10.69v-2.51h-2c-2.51 0-10.79-10-19-22.23l11.72-10.6c1.67-1.49 2-1.77 5.49-1.77v-2.51h-17.58v2.51h5.3c1.12 0 1.67.19 1.67 1 0 1.58-7.07 9.58-18.23 16.83v-46.34zm-32 35.8c2.33-2.51 5.11-5.11 8.93-5.11 4.93 0 4.09 3 5.49 3 .84 0 .93-.19 2.14-7.25a6 6 0 00-4.56-2c-4 0-8.28 4.18-12 8.09v-8.09c-1 0-4 .37-7.07.74s-6.14.74-7.53.74v2.51h3.53c3.07 0 3.81 0 3.81 11.16v21.95a1.7 1.7 0 01-2 1.49h-3.25v2.51h19.81v-2.51h-4.46c-2.79 0-2.88-4.46-2.88-14.6v-12.63zm-34.59 6.14c-11.62 4.74-19.53 8.37-19.53 16.37 0 5.12 3.07 8.74 8.37 8.74s11.44-4.84 15.07-8.46a10.87 10.87 0 0010 8.46l2.78-4.72c-5.58-1.39-6.14-3.91-6.14-11.62v-14.26c0-7.53-.46-12-9.67-12-9.86 0-19.72 5.58-19.72 12.09a2.5 2.5 0 002.51 2.51c3.16 0 5.21-3.63 5.21-8.65a13.71 13.71 0 017.53-2.23c6.6 0 6.88 3.44 6.88 7.63v4.74zm3.35 13.48c-2.42 3.25-6.23 6.14-10.51 6.14-3.16 0-4.84-2-4.84-5 0-6.32 5.86-9.49 15.34-13.11v12zm-84.96-20.92c3.25-2.42 6-5 10.7-5.3 4.18 0 7.35 1.86 7.35 10.42v21.95a1.7 1.7 0 01-2 1.49h-3.25v2.51h19.44v-2.51H451c-2.79 0-2.88-4.46-2.88-14.6v-14c3.16-2.88 7-5 10.7-5.3 4.19 0 7.35 1.86 7.35 10.42v21.95a1.7 1.7 0 01-2 1.49h-3.26v2.51h19.44v-2.51h-4.09c-2.79 0-2.88-4.46-2.88-14.6v-10.76c0-6.88-1.58-13.21-11.25-13.21-5.86.09-9.86 3.91-14.41 7.44-.93-4.84-4.37-7.35-9.58-7.35-7 0-10.51 3.63-15.34 7.53v-7.63c-1 0-4 .37-7.07.74s-6.14.74-7.53.74v2.51h3.53c3.07 0 3.81 0 3.81 11.16v21.95a1.7 1.7 0 01-2 1.49h-3.25v2.51h19.44v-2.51h-4.09c-2.79 0-2.88-4.46-2.88-14.6v-14zm-25.39-34.5a143.2 143.2 0 01-14.6 2v2.51h3.53c3.07 0 3.81 0 3.81 11.16v12.18a19.74 19.74 0 00-10.88-3.35c-9.11 0-19.72 7.44-19.72 22.79 0 10.23 5.21 19.81 16.46 19.81 5.39 0 9.58-3.35 14.14-6.88v6.88c4.84-.65 9.76-1.3 14.6-1.49v-2.51h-4.46c-2.79 0-2.88-4.46-2.88-14.6v-48.5zm-7.25 56.92c-2.6 2.88-6.32 5.12-10.23 5.12-10.23 0-12.83-8.56-12.83-17.3 0-9 3.81-17.48 13.86-17.48a15.3 15.3 0 019.21 3.53v26.13zm-55.43 7.35c-10 0-13.48-11.81-13.48-19.9 0-7.44 2.14-17.11 11.44-17.11 9.95 0 13.48 11.9 13.48 20 0 7.44-2.14 17-11.44 17m.09-39.8c-16.28 0-21.11 14.69-21.11 22.13 0 11.63 6.88 20.46 18.88 20.46 16.28 0 21.11-14.69 21.11-22.13 0-11.62-6.88-20.46-18.88-20.46m-45.57 39.8c-10 0-13.48-11.81-13.48-19.9 0-7.44 2.14-17.11 11.44-17.11 10 0 13.48 11.9 13.48 20 0 7.44-2.14 17-11.44 17m.09-39.8c-16.28 0-21.11 14.69-21.11 22.13 0 11.63 6.88 20.46 18.88 20.46 16.27 0 21.11-14.69 21.11-22.13 0-11.62-6.88-20.46-18.88-20.46M189 263h2.23c3.07 0 3.63.37 6.79 7.91l18.79 47.71c.65 1.67.93 2.42 1.58 2.42.93 0 1.3-1.21 2-3.25l14.23-39.43 15.62 40.27c.65 1.67.93 2.42 1.58 2.42.93 0 1.3-1.21 2-3.25l20-53.8c.37-1 .56-1 1.12-1h4.28v-2.79h-17.68V263h5.3c1.58 0 2.33.28 2.33 1.58 0 3.07-7.63 23.71-15 42.69-7.23-19.19-17.17-43.09-17.17-43.74s.37-.56.93-.56h5v-2.79h-20.08V263H226c1.49 0 3.44.56 7 11.07l-12.18 32.55c-7.81-18.88-17.67-42.22-17.67-43.06 0-.56.37-.56.93-.56h5v-2.79H189V263z"
            className="cls-1"
            fill="#a5a705"
            transform="translate(-189 -253.67)"
          ></path>
          <path
            d="M533.93 269h1.43v-12.71l8.77 12.71h1.6v-15h-1.43v12.68L535.52 254h-1.6v15zm-12.81-13.57l2.9 7.69h-5.9zM514.33 269h1.53l1.81-4.66h6.82l1.83 4.66h1.53L522 254h-1.6zm-5.46-10.46c-.38-3.15-3.19-4.85-6-4.85-4.72 0-7.08 3.72-7.08 7.81s2.35 7.81 7.08 7.81c3.51 0 5.84-2.35 6.24-6h-1.43c-.27 2.67-2 4.81-4.81 4.81-4 0-5.65-3.32-5.65-6.59s1.68-6.59 5.65-6.59a4.55 4.55 0 014.6 3.63h1.43zM487.2 269h1.43v-15h-1.43v15zm-17.41-13.8h5.33c2.14 0 3.23 1.16 3.23 3a3 3 0 01-3.23 2.92h-5.33v-5.9zm-1.43 13.8h1.43v-6.66h5.42c2.71-.11 2.88 2.23 3 4.33a5.94 5.94 0 00.4 2.33h1.58c-.63-.76-.63-2.81-.69-3.84-.11-1.79-.67-3.13-2.62-3.38a3.6 3.6 0 002.92-3.82c0-2.71-2.08-3.91-4.56-3.91h-6.87v15zm-17.18 0h10.46v-1.22h-9v-5.92H461v-1.22h-8.36v-5.44h8.92V254h-10.37v15zm-22.26 0h1.43v-13l5.15 13h1.34l5.16-13v13h1.43v-15h-2.1l-5.17 13.15L431 254h-2.1v15zm-12.79-13.57l2.9 7.69h-5.9zM409.36 269h1.53l1.81-4.66h6.83l1.83 4.66h1.53L417 254h-1.6z"
            className="cls-2"
            fill="#ff861b"
            transform="translate(-189 -253.67)"
          ></path>
          <text className="cls-3" fill="#a5a705" style="font-size: 12px;font-family: Arial;" transform="translate(406 21.33)">
            ®
          </text>
        </svg>
