<svg xmlns="http://www.w3.org/2000/svg" id="Layer_1" data-name="Layer 1" viewBox="0 0 148.47 71.83">
  <defs>
    <style>.cls-1{fill:#fff;}</style>
  </defs>
  <path id="Path_205" data-name="Path 205" class="cls-1"
    d="M73.77,56.16c-6.91,0-13.82.07-20.73,0-14.7-.18-29.4-.08-44.1,0A8.78,8.78,0,0,1,0,47.56V9A8.8,8.8,0,0,1,8.67,0H139.31a9.07,9.07,0,0,1,6.9,2.68,7.61,7.61,0,0,1,2.26,5.46V48A8.19,8.19,0,0,1,141,56c-1,.1-2.09.14-3.14.14Zm-23-55.08A4.06,4.06,0,0,0,49,.92H8.47A7.82,7.82,0,0,0,.89,8.77C1,21.65.89,34.53.89,47.41a8.27,8.27,0,0,0,.17,1.92,7.83,7.83,0,0,0,7.75,5.94h40.7a1.68,1.68,0,0,0,1.22-.22Zm9.36,40.58c1.88,0,3.6.09,5.33,0a3,3,0,0,0,1.37-.46,2.4,2.4,0,0,0,.83-3.29,2.54,2.54,0,0,0-.44-.54c-.22-.2-.6-.26-.69-.67a2.32,2.32,0,0,0,.74-2.82,2.68,2.68,0,0,0-2.45-1.5H61.07c-.31,0-.66-.06-.94.29ZM90,32.48v9.1a2.83,2.83,0,0,0,1.84-.08c.21-1.8-.07-3.59.19-5.58,1.33,1.74,2.56,3.24,3.66,4.83a2,2,0,0,0,2.51.78v-9.1a3,3,0,0,0-1.92.07C96,34.2,96.3,36,96,37.67a52.6,52.6,0,0,1-3.41-4.32,2,2,0,0,0-2.62-.87Zm14.42-15.24v9.22c1.48,0,2.89.08,4.29,0a4.61,4.61,0,0,0,.2-9.18c-1.5-.09-3-.1-4.51,0Zm29.54,9.23a35.24,35.24,0,0,0,4.36,0,4.61,4.61,0,0,0,.83-9,18.42,18.42,0,0,0-5.19-.16ZM93.11,23.3a2.76,2.76,0,0,1,.37-.31,3.09,3.09,0,0,0,1.41-3.65,3,3,0,0,0-3.15-2.14H88.35c-.35,0-.73-.09-1,.2v9a3.91,3.91,0,0,0,1.8,0c.27-.93-.07-1.88.22-2.74,1.42-.28,1.42-.28,2.14.77l.6.9c.86,1.28,1.29,1.42,3,.91Zm6.6,9.07V41.6h6.92a2,2,0,0,0,0-1.72c-1.59-.21-3.2.09-4.77-.17A2.43,2.43,0,0,1,102,38c1.37-.26,2.76.1,4.11-.23a1.9,1.9,0,0,0-.12-1.58c-1.35-.18-2.72.08-4.06-.16a2.21,2.21,0,0,1,.14-1.83h4.54a2.48,2.48,0,0,0,0-1.78Zm26-5.84c2.38-.1,4.69.12,7-.13a2.5,2.5,0,0,0,0-1.62c-1.58-.2-3.2.09-4.81-.17a2.47,2.47,0,0,1,.13-1.87h2a4.64,4.64,0,0,0,2.06-.2,3.43,3.43,0,0,0-.15-1.62c-1.38-.26-2.8.11-4.15-.22a2.68,2.68,0,0,1,.09-1.68c1.57-.25,3.2.11,4.79-.21a2.94,2.94,0,0,0-.09-1.61c-2.28-.08-4.55-.09-6.9,0Zm-22.6-7.61a2.47,2.47,0,0,0-.14-1.63c-2.19-.08-4.42-.09-6.73,0v9.26h3.48a16.9,16.9,0,0,0,3.41-.11,2.41,2.41,0,0,0-.07-1.59c-1.59-.24-3.21.08-4.8-.2a3.29,3.29,0,0,1,0-1.76c1.4-.27,2.82.1,4.17-.23a2.59,2.59,0,0,0-.06-1.65c-1.38-.25-2.8.12-4.15-.22a2.85,2.85,0,0,1,.08-1.66C99.87,18.87,101.45,19.19,103.11,18.92ZM75,32.42a3.9,3.9,0,0,0-.13,1.44v4a1.92,1.92,0,0,1-1.77,2.06h-.16a1.94,1.94,0,0,1-2.07-1.8V38a9.66,9.66,0,0,1-.07-1.2V33.31c0-.31.07-.65-.27-.93a2.75,2.75,0,0,0-1.7.12,51.73,51.73,0,0,0,.09,6.35,3.3,3.3,0,0,0,3,2.89,5.61,5.61,0,0,0,2.16,0,3.17,3.17,0,0,0,2.62-2.4c.56-2.25.21-4.54.28-6.81A3.27,3.27,0,0,0,75,32.42Zm-6-6a1.26,1.26,0,0,0-.22-.86c-1-2.45-2.08-4.9-3.11-7.35-.26-.63-.51-1.11-1.35-1.11a1.43,1.43,0,0,0-1.52,1.06c-1,2.46-2.08,4.9-3.11,7.35-.12.28-.38.55-.21.83,1.93.84,2.25-.74,2.77-1.85H66c.53.6.54,1.41,1.08,2a5.74,5.74,0,0,0,1.85,0Zm52.94,6.89a5.15,5.15,0,0,0-4.84-.86A2.61,2.61,0,0,0,115.24,35a2.39,2.39,0,0,0,1.69,2.4c.48.19,1,.31,1.5.48a9.19,9.19,0,0,1,1.24.45.78.78,0,0,1,.53.74.85.85,0,0,1-.67.77,2.54,2.54,0,0,1-1.78-.1c-.55-.22-1.08-.51-1.73-.81-.33.47-.87.76-1,1.42a5.66,5.66,0,0,0,4.65,1.33,2.67,2.67,0,0,0,2.57-2.42c.15-1.5-.39-2.34-2-2.92-.72-.27-1.46-.45-2.19-.7-.43-.15-.83-.4-.73-1s.56-.66,1-.71a3.65,3.65,0,0,1,1.52.33c.37.13.65.49,1.11.41a4.5,4.5,0,0,0,.92-1.43Zm-37.2,0a5.25,5.25,0,0,0-4.89-.86,2.6,2.6,0,0,0-1.8,2.6,2.34,2.34,0,0,0,1.7,2.39c.6.22,1.23.39,1.84.57,1.13.35,1.49.67,1.35,1.25s-.88.85-1.86.67a4.09,4.09,0,0,1-1.35-.51c-.28-.15-.5-.42-.9-.43a4.18,4.18,0,0,0-1,1.25c1,1.56,4.4,1.92,5.81,1.12A2.71,2.71,0,0,0,85,38.92a2.44,2.44,0,0,0-1.49-2.3,15.1,15.1,0,0,0-2.06-.69,3.61,3.61,0,0,1-1-.4.72.72,0,0,1-.34-1s0,0,0,0a.7.7,0,0,1,.41-.36,1.84,1.84,0,0,1,1.18-.1,8.16,8.16,0,0,1,1.91.78,4.63,4.63,0,0,0,1-1.51ZM108.43,39c-.37.12-.53.42-.73.66a.91.91,0,0,0-.33.63c1.17,1.58,4.44,1.77,5.69,1.1a2.73,2.73,0,0,0,1.53-2.56,2.34,2.34,0,0,0-1.52-2.26c-.52-.23-1.07-.37-1.6-.55s-.93-.3-1.37-.49a.72.72,0,0,1-.47-.77.86.86,0,0,1,.62-.68,2.19,2.19,0,0,1,1.19,0,14.6,14.6,0,0,1,1.79.73,3.58,3.58,0,0,0,.91-1.41,4.81,4.81,0,0,0-5-.88,2.62,2.62,0,0,0-1.6,2.62,2.32,2.32,0,0,0,1.7,2.28c.42.16.85.28,1.27.42s1,.31,1.48.5a.72.72,0,0,1,.5.75.83.83,0,0,1-.66.78,2.57,2.57,0,0,1-1.77-.1c-.55-.22-1.08-.5-1.59-.75ZM77.24,18.48a5.05,5.05,0,0,0-7.14,0h0l-.13.13a5,5,0,0,0,.55,7h.06c2.06,1.63,5.33,1.29,6.68-.74a3.59,3.59,0,0,0-1.15-1.11c-1.93,1.19-3.3,1.23-4.33.16A3.19,3.19,0,0,1,71.48,20a2.68,2.68,0,0,1,1.45-1c1.21-.39,2.17.27,3.12.82A4.8,4.8,0,0,0,77.24,18.48Zm8.86,0a5.08,5.08,0,0,0-7.16,0h0a5,5,0,0,0,.31,7A4.89,4.89,0,0,0,86.16,25h0A3.85,3.85,0,0,0,85,23.8C83.11,25,81.66,25,80.63,24a3.19,3.19,0,0,1-.32-3.81A2.74,2.74,0,0,1,81.82,19c1.21-.38,2.15.32,3.11.84a5.61,5.61,0,0,0,1.2-1.37Zm38.57-1.21h-7.53a2.78,2.78,0,0,0,0,1.71c.88.27,1.8-.08,2.78.33v7.07a3,3,0,0,0,1.92,0c.16-2.4-.08-4.78.13-7.09,1-.37,1.89.07,2.69-.35a3.16,3.16,0,0,0,0-1.67ZM86.34,32.41c-.3,1.72-.2,8.39.13,9.21a3,3,0,0,0,1.66-.11V32.45a3.17,3.17,0,0,0-1.78,0Zm29.77-6v-9.1a3.6,3.6,0,0,0-1.87.05v9.1a4.63,4.63,0,0,0,1.89,0Z"
    transform="translate(0 -0.01)" />
  <path id="Path_206" data-name="Path 206" class="cls-1"
    d="M43.24,60.75a21.53,21.53,0,0,1,5.26.1,2.2,2.2,0,0,1,1.41,3.54c-.13.2-.38.31-.39.59s.34.33.51.49a2.27,2.27,0,0,1,.39,3.19h0a2.34,2.34,0,0,1-1,.73,2.75,2.75,0,0,1-.69.21,28.57,28.57,0,0,1-5.47.08Zm2,7.22h2.53a1,1,0,0,0,1.06-.92.93.93,0,0,0-.86-1h0a6.61,6.61,0,0,0-2.8.07,3.12,3.12,0,0,0,.1,1.84Zm-.07-3.7a4.75,4.75,0,0,0,2.51-.07.8.8,0,0,0,.65-.77.72.72,0,0,0-.43-.79,3.74,3.74,0,0,0-2.79-.08A4.11,4.11,0,0,0,45.17,64.27Z"
    transform="translate(0 -0.01)" />
  <path id="Path_207" data-name="Path 207" class="cls-1"
    d="M24.51,60.73a25.31,25.31,0,0,1,5,.08c2,.34,2.67,2.18,1.42,3.8-.1.13-.25.21-.23.42s.36.28.54.43a2.36,2.36,0,0,1,.24,3.33,2.39,2.39,0,0,1-1.24.75,25.78,25.78,0,0,1-5.69.13Zm1.9,5.33a3.45,3.45,0,0,0,.13,1.8,14.59,14.59,0,0,0,2.38.1,1,1,0,0,0,1.2-.74.44.44,0,0,0,0-.1h0c.08-.51-.37-1-1.09-1.05a11.74,11.74,0,0,0-2.65,0Zm.06-1.82a4.27,4.27,0,0,0,2.35,0,.86.86,0,0,0,.81-.89.88.88,0,0,0-.82-.88,4.23,4.23,0,0,0-2.34,0,3.11,3.11,0,0,0,0,1.71Z"
    transform="translate(0 -0.01)" />
  <path id="Path_208" data-name="Path 208" class="cls-1"
    d="M40.09,65.06c.4.36,1,.64,1.2,1.22a2.37,2.37,0,0,1-1.23,3.12h0a2.21,2.21,0,0,1-.5.15,21.15,21.15,0,0,1-5.62,0V60.72a20.45,20.45,0,0,1,5.3.2,2.16,2.16,0,0,1,1.7,2.55,2.1,2.1,0,0,1-.53,1C40.29,64.65,40.08,64.75,40.09,65.06Zm-4.27,2.75a9,9,0,0,0,2.64.12.9.9,0,0,0,1-.77h0a.92.92,0,0,0-.78-1h-.14a7.88,7.88,0,0,0-2.74,0,2.43,2.43,0,0,0,0,1.72Zm0-3.52a5.22,5.22,0,0,0,2.36,0,.85.85,0,0,0,.79-.91h0a.84.84,0,0,0-.74-.83,4.05,4.05,0,0,0-2.53.06,3.35,3.35,0,0,0,.12,1.72Z"
    transform="translate(0 -0.01)" />
  <path id="Path_209" data-name="Path 209" class="cls-1"
    d="M62.1,66.61,64,69.51c-1.69.46-2,.37-2.77-.8l-.61-.9c-.72-1.06-.72-1.06-2.12-.77-.26.8,0,1.67-.2,2.52a2.37,2.37,0,0,1-1.81,0V61s.07-.15.12-.16a13.8,13.8,0,0,1,5.28.08,2.92,2.92,0,0,1,2,3.61v0a3,3,0,0,1-.74,1.23C62.83,66.06,62.5,66.29,62.1,66.61Zm-3.61-1.54a5.61,5.61,0,0,0,2.67-.13,1.17,1.17,0,0,0,.8-1.22A1.08,1.08,0,0,0,61,62.6a4.78,4.78,0,0,0-2.57.1,8.55,8.55,0,0,0,0,2.37Z"
    transform="translate(0 -0.01)" />
  <path id="Path_210" data-name="Path 210" class="cls-1"
    d="M95.5,68.37c-2,1.06-3.46,1-4.48-.24a3.72,3.72,0,0,1,0-4.4c1-1.2,2.57-1.31,4.42-.31.41-.86,1.13-.65,1.78-.56a.79.79,0,0,1,.25.71v5.09a2.87,2.87,0,0,1-2.63,3.09h0a6.43,6.43,0,0,1-4-.62c-.08-.51.29-.86.47-1.32,1.3.3,2.55.92,3.77,0C95.4,69.57,95.45,69.35,95.5,68.37Zm-1.6-.8a1.64,1.64,0,0,0,.15-3.28H94a1.64,1.64,0,1,0-.33,3.26h.28Z"
    transform="translate(0 -0.01)" />
  <path id="Path_211" data-name="Path 211" class="cls-1"
    d="M106.76,69.63a.52.52,0,0,1,0-.54c1.18-2.78,2.37-5.56,3.53-8.3,1.74-.37,1.8-.34,2.44,1.15.93,2.19,1.87,4.38,2.79,6.57.14.32.39.62.26,1-1.46.44-1.71.37-2.21-.9a1.26,1.26,0,0,0-1.42-1c-.92.09-1.85-.07-2.73.09-.61.56-.43,1.59-1.21,1.92A1.83,1.83,0,0,1,106.76,69.63Zm4.47-6.44a8.54,8.54,0,0,0-1,2.67,5.7,5.7,0,0,0,2.1,0,8.52,8.52,0,0,0-1.06-2.66Z"
    transform="translate(0 -0.01)" />
  <path id="Path_212" data-name="Path 212" class="cls-1"
    d="M84.24,69.61a3.17,3.17,0,0,1-1.56.07,25,25,0,0,1,0-6.8c.72-.1,1.48-.38,2,.58a2.88,2.88,0,0,1,2-.73,2,2,0,0,1,2,1.57,21.88,21.88,0,0,1,.19,5.24,2.79,2.79,0,0,1-1.78.11,8.79,8.79,0,0,1-.16-2.56,9.31,9.31,0,0,0-.09-1.56,1.07,1.07,0,0,0-1.11-1h0a1.13,1.13,0,0,0-1.24,1h0a13.7,13.7,0,0,0-.07,1.81v1.81A2,2,0,0,1,84.24,69.61Z"
    transform="translate(0 -0.01)" />
  <path id="Path_213" data-name="Path 213" class="cls-1"
    d="M69.54,65.69c-.23-1.32-.76-1.48-3.16-1.06a1.68,1.68,0,0,1-.48-1.14,4.39,4.39,0,0,1,4.54-.22,2.25,2.25,0,0,1,1,1.6,39.13,39.13,0,0,1,.07,4.72c-.83.18-1.53.38-2.1-.33a3.3,3.3,0,0,1-2.2.57,2.14,2.14,0,0,1-2-1.9A2.1,2.1,0,0,1,67,65.65,7,7,0,0,1,69.54,65.69Zm.14,1.39a2.43,2.43,0,0,0-1.78-.35c-.5.16-.87.45-.8,1s.48.7,1,.75c.86.08,1.37-.36,1.62-1.44Z"
    transform="translate(0 -0.01)" />
  <path id="Path_214" data-name="Path 214" class="cls-1"
    d="M73.56,61.18a3,3,0,0,1,1.69,0c.29.48.08,1,.29,1.43.4.33.89.09,1.35.3.34.43.16.93.12,1.37-.47.34-1,.1-1.43.35a7.54,7.54,0,0,0-.1,2.8c0,.64.2.67,1.4.69.28,1.15.2,1.4-.52,1.63a2.08,2.08,0,0,1-2.68-1,8.07,8.07,0,0,1-.24-2.4c0-.74.31-1.58-.64-2.12a.93.93,0,0,1,0-1.21C73.6,62.61,73.38,61.92,73.56,61.18Z"
    transform="translate(0 -0.01)" />
  <path id="Path_215" data-name="Path 215" class="cls-1"
    d="M119.83,62.14a2.45,2.45,0,0,1,1.42,0c.39.62,0,1.36.32,2,.62.38,1.42,0,2.09.35a2.11,2.11,0,0,1,.08,1.29c-.66.48-1.47,0-2.19.42-.28.6,0,1.31-.22,2a1.9,1.9,0,0,1-1.48.09c-.38-.65,0-1.38-.3-2.05-.61-.48-1.41,0-2.1-.36a1.7,1.7,0,0,1-.08-1.38c.66-.43,1.45,0,2.12-.35C119.88,63.55,119.47,62.8,119.83,62.14Z"
    transform="translate(0 -0.01)" />
  <path id="Path_216" data-name="Path 216" class="cls-1"
    d="M80.54,62.92a61.84,61.84,0,0,1,0,6.53,2.24,2.24,0,0,1-1.79.18,64.12,64.12,0,0,1,0-6.65A2.9,2.9,0,0,1,80.54,62.92Z"
    transform="translate(0 -0.01)" />
  <path id="Path_217" data-name="Path 217" class="cls-1"
    d="M101.24,62.92a3.53,3.53,0,0,1,0,1.88,2.75,2.75,0,0,1-1.79,0A4.16,4.16,0,0,1,99.36,63,3.17,3.17,0,0,1,101.24,62.92Z"
    transform="translate(0 -0.01)" />
  <path id="Path_218" data-name="Path 218" class="cls-1"
    d="M101.24,69.62a3.35,3.35,0,0,1-1.83,0,3.07,3.07,0,0,1,0-1.8,2.9,2.9,0,0,1,1.77-.07A3.7,3.7,0,0,1,101.24,69.62Z"
    transform="translate(0 -0.01)" />
  <path id="Path_219" data-name="Path 219" class="cls-1"
    d="M80.55,61.92a3.91,3.91,0,0,1-1.8.06,1.79,1.79,0,0,1-.07-1.5,3,3,0,0,1,1.81,0A1.85,1.85,0,0,1,80.55,61.92Z"
    transform="translate(0 -0.01)" />
  <path id="Path_220" data-name="Path 220" class="cls-1"
    d="M26.18,4.37c0,2.4,0,2.4,2.1,3.92,1.66,1.21,3.34,2.41,5,3.63a6.25,6.25,0,0,1,1.81,8.64,6.15,6.15,0,0,1-.37.52Q33,23.54,31.16,26c-.21.28-.33.79-.86.63-.28-.23-.12-.44,0-.67a3.35,3.35,0,0,0-1.36-4.42c-1.59-1.17-3.21-2.32-4.8-3.48-3.28-2.4-3.87-6-1.52-9.32Q24,6.84,25.32,5C25.47,4.72,25.62,4.35,26.18,4.37Z"
    transform="translate(0 -0.01)" />
  <path id="Path_221" data-name="Path 221" class="cls-1"
    d="M22,18.67c.46.18.68.35.59.7-.19.73.26,1.12.78,1.49,1.24.9,2.48,1.79,3.71,2.71a4.33,4.33,0,0,1,1.42,6l0,0a3.12,3.12,0,0,1-.34.47c-.68,1-1.4,1.94-2.06,2.85-.5-.09-.7-.29-.64-.61.15-.83-.35-1.26-.94-1.67-1.25-.88-2.43-1.75-3.62-2.69a4.32,4.32,0,0,1-1.32-6l0,0,.28-.39C20.54,20.61,21.24,19.65,22,18.67Z"
    transform="translate(0 -0.01)" />
  <path id="Path_222" data-name="Path 222" class="cls-1"
    d="M31.66,41a31.14,31.14,0,0,1,6.18.17,2.66,2.66,0,0,1,2.28,3h0a2.41,2.41,0,0,1-.21.74,5.52,5.52,0,0,1-.9,1.14c.09.36.46.4.7.59a2.74,2.74,0,0,1,.49,3.84,2.66,2.66,0,0,1-.75.67,4.7,4.7,0,0,1-1.82.59,8,8,0,0,1-1.2.06H31.77A64.91,64.91,0,0,1,31.66,41ZM34,49.54a15,15,0,0,0,3.28.12c.49-.12.92-.34,1-.9a1,1,0,0,0-.52-1.11,6.2,6.2,0,0,0-3.81,0,5.74,5.74,0,0,0,0,1.85Zm0-4.27a9.39,9.39,0,0,0,2.7,0,1,1,0,0,0,0-2.08,6.74,6.74,0,0,0-2.72.08,4.5,4.5,0,0,0,0,2Z"
    transform="translate(0 -0.01)" />
  <path id="Path_223" data-name="Path 223" class="cls-1"
    d="M28.8,46.26a2.67,2.67,0,0,1,1.72,2.66,2.58,2.58,0,0,1-1.6,2.48,4.33,4.33,0,0,1-1.27.38,50,50,0,0,1-6.24.07V41.25c.19-.27.48-.24.76-.24h4.24a5.18,5.18,0,0,1,1.66.3,2.67,2.67,0,0,1,1.76,3.32,2.78,2.78,0,0,1-.66,1.09C29,45.86,28.84,45.92,28.8,46.26Zm-5,3.38a14,14,0,0,0,3.42,0,1.05,1.05,0,0,0,0-2.08h0a10.88,10.88,0,0,0-3.32-.06,5.43,5.43,0,0,0,0,2.2Zm0-4.37a9.8,9.8,0,0,0,2.65,0,1.05,1.05,0,0,0,.09-2.09h-.1a7.54,7.54,0,0,0-2.68.08,5.38,5.38,0,0,0,.07,2Z"
    transform="translate(0 -0.01)" />
  <path id="Path_224" data-name="Path 224" class="cls-1"
    d="M11.24,51.81V41.19A4.59,4.59,0,0,1,13.19,41h3.26c1.29.08,2.53.4,3.09,1.74a2.72,2.72,0,0,1-1,3.39,3,3,0,0,1,1.82,2.56,2.67,2.67,0,0,1-1.68,2.69,3.78,3.78,0,0,1-1.51.38C15.24,51.83,13.24,51.81,11.24,51.81Zm2.42-2.19a15.36,15.36,0,0,0,3.18,0,1.08,1.08,0,0,0,1.09-1,.94.94,0,0,0-.6-1.08,8.16,8.16,0,0,0-3.71-.14,5.5,5.5,0,0,0,0,2.14Zm0-4.35a10,10,0,0,0,2.68,0,1.06,1.06,0,0,0,1-1,1,1,0,0,0-.95-1h0a6.94,6.94,0,0,0-2.76.08,4.81,4.81,0,0,0,0,2Z"
    transform="translate(0 -0.01)" />
  <path id="Path_225" data-name="Path 225" class="cls-1"
    d="M16.76,34H34.87a3.51,3.51,0,0,1,.64,2.15c-1.5.22-3,0-4.56.15-.58.87-.58,2-1.12,2.85H22c-.51-.86-.57-1.87-1-2.78-1.5-.36-3.09.09-4.67-.27A6.6,6.6,0,0,1,16.76,34Z"
    transform="translate(0 -0.01)" />
  <path id="Path_226" data-name="Path 226" class="cls-1"
    d="M41.56,49.74c0,.17,0,.31-.24.32a.25.25,0,0,1-.28-.21.09.09,0,0,1,0-.07.41.41,0,0,1,.19-.25C41.39,49.46,41.51,49.56,41.56,49.74Z"
    transform="translate(0 -0.01)" />
  <path id="Path_227" data-name="Path 227" class="cls-1"
    d="M62.17,39.8a3.49,3.49,0,0,1,0-1.87,8.28,8.28,0,0,1,2.72-.06,1,1,0,0,1,.09,2h-.11C64,39.83,63.11,39.8,62.17,39.8Z"
    transform="translate(0 -0.01)" />
  <path id="Path_228" data-name="Path 228" class="cls-1"
    d="M62.14,36a3.07,3.07,0,0,1,0-1.75,6.19,6.19,0,0,1,2.35,0,.91.91,0,0,1,.07,1.8A6.36,6.36,0,0,1,62.14,36Z"
    transform="translate(0 -0.01)" />
  <path id="Path_229" data-name="Path 229" class="cls-1"
    d="M106.54,19.14c1.44-.13,2.85-.28,3.75,1.11a2.76,2.76,0,0,1,0,3.2c-.89,1.36-2.28,1.31-3.67,1.19A16.65,16.65,0,0,1,106.54,19.14Z"
    transform="translate(0 -0.01)" />
  <path id="Path_230" data-name="Path 230" class="cls-1"
    d="M136.09,19.15c1.44-.15,2.85-.29,3.75,1.11a2.76,2.76,0,0,1,0,3.2c-.9,1.36-2.29,1.3-3.67,1.18A16.32,16.32,0,0,1,136.09,19.15Z"
    transform="translate(0 -0.01)" />
  <path id="Path_231" data-name="Path 231" class="cls-1"
    d="M89.37,21.67a6,6,0,0,1-.07-2.43,5.63,5.63,0,0,1,2.55-.1,1.11,1.11,0,0,1,1,1.16A1.16,1.16,0,0,1,92,21.58,5.8,5.8,0,0,1,89.37,21.67Z"
    transform="translate(0 -0.01)" />
  <path id="Path_232" data-name="Path 232" class="cls-1"
    d="M65.24,22.35a.72.72,0,0,1-.63.24,4.33,4.33,0,0,1-1.52-.12,8.38,8.38,0,0,1,1-2.57A9.15,9.15,0,0,1,65.24,22.35Z"
    transform="translate(0 -0.01)" />
</svg>